<svg width="221" height="94" viewBox="0 0 221 94" fill="none" xmlns="http://www.w3.org/2000/svg">
<path d="M29.76 20.496C33.472 20.496 36.768 21.072 39.648 22.224C42.528 23.376 44.8 25.072 46.464 27.312C48.128 29.488 48.96 32.176 48.96 35.376C48.96 39.792 47.648 43.504 45.024 46.512C42.4 49.52 39.136 52.144 35.232 54.384L48.576 67.344C49.856 65.168 50.976 62.896 51.936 60.528C52.896 58.096 53.696 55.664 54.336 53.232H69.216C68.256 56.816 66.848 60.656 64.992 64.752C63.136 68.848 60.768 72.688 57.888 76.272L72 90H54.336L48.96 84.72C47.552 85.68 46.08 86.544 44.544 87.312C43.008 88.08 41.408 88.752 39.744 89.328C38.08 89.84 36.32 90.224 34.464 90.48C32.608 90.8 30.688 90.96 28.704 90.96C23.52 90.96 19.072 90.16 15.36 88.56C11.648 86.896 8.8 84.592 6.816 81.648C4.832 78.704 3.84 75.312 3.84 71.472C3.84 68.208 4.32 65.424 5.28 63.12C6.304 60.752 7.744 58.704 9.6 56.976C11.52 55.184 13.792 53.552 16.416 52.08C14.752 50.16 13.408 48.368 12.384 46.704C11.424 44.976 10.72 43.28 10.272 41.616C9.888 39.952 9.696 38.192 9.696 36.336C9.696 33.072 10.528 30.256 12.192 27.888C13.92 25.52 16.288 23.696 19.296 22.416C22.368 21.136 25.856 20.496 29.76 20.496ZM24.768 60.624C23.552 61.52 22.496 62.448 21.6 63.408C20.768 64.368 20.096 65.392 19.584 66.48C19.136 67.568 18.912 68.784 18.912 70.128C18.912 72.88 19.936 75.056 21.984 76.656C24.032 78.192 26.592 78.96 29.664 78.96C31.712 78.96 33.632 78.704 35.424 78.192C37.216 77.68 38.848 76.976 40.32 76.08L24.768 60.624ZM29.664 31.536C28.064 31.536 26.528 31.952 25.056 32.784C23.648 33.552 22.944 35.056 22.944 37.296C22.944 38.896 23.328 40.432 24.096 41.904C24.928 43.376 26.016 44.88 27.36 46.416C30.048 44.944 32.096 43.472 33.504 42C34.976 40.528 35.712 38.832 35.712 36.912C35.712 34.992 35.072 33.616 33.792 32.784C32.512 31.952 31.136 31.536 29.664 31.536Z" fill="#EAADC3"/>
<g filter="url(#filter0_d_182_1150)">
<path d="M42.76 54.3125L50.536 37.3925H53.536L61.312 54.3125H57.568L55.984 50.6405H48.088L46.528 54.3125H42.76ZM52 41.3525L49.336 47.7365H54.76L52.048 41.3525H52ZM65.9789 54.3125L59.9549 37.3925H63.7709L67.6589 48.9605L71.7629 37.3925H74.4509L78.4349 49.1525L82.4669 37.3925H86.0669L79.9949 54.3125H76.9709L73.0109 43.0805L69.0029 54.3125H65.9789ZM84.6662 54.3125L92.4423 37.3925H95.4423L103.218 54.3125H99.4743L97.8903 50.6405H89.9943L88.4342 54.3125H84.6662ZM93.9063 41.3525L91.2422 47.7365H96.6663L93.9543 41.3525H93.9063ZM104.681 54.3125V37.3925H112.409C114.297 37.3925 115.753 37.8485 116.777 38.7605C117.801 39.6725 118.313 40.9445 118.313 42.5765C118.313 43.8405 117.985 44.8965 117.329 45.7445C116.689 46.5765 115.769 47.1445 114.569 47.4485C115.417 47.7045 116.113 48.3205 116.657 49.2965L119.393 54.3125H115.289L112.361 48.9125C112.121 48.4805 111.825 48.1845 111.473 48.0245C111.121 47.8485 110.705 47.7605 110.225 47.7605H108.401V54.3125H104.681ZM108.401 45.0725H111.737C113.737 45.0725 114.737 44.2725 114.737 42.6725C114.737 41.0885 113.737 40.2965 111.737 40.2965H108.401V45.0725ZM121.392 54.3125V37.3925H128.016C130.896 37.3925 133.128 38.1285 134.712 39.6005C136.296 41.0565 137.088 43.1365 137.088 45.8405C137.088 48.5445 136.296 50.6325 134.712 52.1045C133.128 53.5765 130.896 54.3125 128.016 54.3125H121.392ZM125.112 51.2645H127.8C131.4 51.2645 133.2 49.4565 133.2 45.8405C133.2 42.2405 131.4 40.4405 127.8 40.4405H125.112V51.2645ZM146.025 54.5765C144.697 54.5765 143.441 54.4085 142.257 54.0725C141.089 53.7365 140.113 53.2805 139.329 52.7045L140.409 49.7765C141.161 50.3045 142.017 50.7205 142.977 51.0245C143.953 51.3285 144.969 51.4805 146.025 51.4805C147.177 51.4805 148.001 51.3045 148.497 50.9525C149.009 50.5845 149.265 50.1285 149.265 49.5845C149.265 49.1205 149.089 48.7525 148.737 48.4805C148.385 48.2085 147.769 47.9765 146.889 47.7845L144.177 47.2085C141.153 46.5685 139.641 45.0005 139.641 42.5045C139.641 41.4325 139.929 40.4965 140.505 39.6965C141.081 38.8805 141.881 38.2485 142.905 37.8005C143.945 37.3525 145.145 37.1285 146.505 37.1285C147.673 37.1285 148.769 37.2965 149.793 37.6325C150.817 37.9685 151.665 38.4405 152.337 39.0485L151.257 41.7845C149.945 40.7445 148.353 40.2245 146.481 40.2245C145.473 40.2245 144.689 40.4245 144.129 40.8245C143.585 41.2085 143.313 41.7125 143.313 42.3365C143.313 42.8005 143.481 43.1765 143.817 43.4645C144.153 43.7525 144.737 43.9845 145.569 44.1605L148.281 44.7365C151.385 45.4085 152.937 46.9285 152.937 49.2965C152.937 50.3525 152.649 51.2805 152.073 52.0805C151.513 52.8645 150.713 53.4805 149.673 53.9285C148.649 54.3605 147.433 54.5765 146.025 54.5765Z" fill="#BB4F77"/>
</g>
<g filter="url(#filter1_d_182_1150)">
<path d="M20.76 74.875L28.536 57.955H31.536L39.312 74.875H35.568L33.984 71.203H26.088L24.528 74.875H20.76ZM30 61.915L27.336 68.299H32.76L30.048 61.915H30ZM48.5839 75.139C46.7599 75.139 45.1999 74.779 43.9039 74.059C42.6079 73.339 41.6079 72.331 40.9039 71.035C40.2159 69.723 39.8719 68.179 39.8719 66.403C39.8719 64.643 40.2159 63.115 40.9039 61.819C41.6079 60.507 42.6079 59.491 43.9039 58.771C45.1999 58.051 46.7599 57.691 48.5839 57.691C49.7039 57.691 50.7759 57.867 51.7999 58.219C52.8239 58.571 53.6639 59.051 54.3199 59.659L53.1679 62.611C52.4479 62.051 51.7199 61.643 50.9839 61.387C50.2639 61.115 49.5039 60.979 48.7039 60.979C47.0879 60.979 45.8639 61.451 45.0319 62.395C44.2159 63.323 43.8079 64.659 43.8079 66.403C43.8079 68.147 44.2159 69.491 45.0319 70.435C45.8639 71.379 47.0879 71.851 48.7039 71.851C49.5039 71.851 50.2639 71.723 50.9839 71.467C51.7199 71.195 52.4479 70.779 53.1679 70.219L54.3199 73.171C53.6639 73.763 52.8239 74.243 51.7999 74.611C50.7759 74.963 49.7039 75.139 48.5839 75.139ZM56.7587 74.875V57.955H60.4787V64.747H68.3507V57.955H72.0707V74.875H68.3507V67.843H60.4787V74.875H56.7587ZM75.4853 74.875V57.955H79.2053V74.875H75.4853ZM82.5868 74.875V57.955H94.1788V60.859H86.1388V64.819H93.6508V67.747H86.1388V71.971H94.1788V74.875H82.5868ZM102.614 74.875L95.0061 57.955H98.9901L104.222 70.099L109.454 57.955H113.27L105.662 74.875H102.614ZM114.556 74.875V57.955H126.148V60.859H118.108V64.819H125.62V67.747H118.108V71.971H126.148V74.875H114.556ZM129.135 74.875V57.955H132.231L137.943 68.347L143.631 57.955H146.679V74.875H143.295V64.555L138.927 72.331H136.839L132.495 64.627V74.875H129.135ZM150.11 74.875V57.955H161.702V60.859H153.662V64.819H161.174V67.747H153.662V71.971H161.702V74.875H150.11ZM164.642 74.875V57.955H167.402L175.85 68.731V57.955H179.306V74.875H176.57L168.098 64.075V74.875H164.642ZM186.744 74.875V61.027H181.152V57.955H196.056V61.027H190.464V74.875H186.744ZM203.385 75.139C202.057 75.139 200.801 74.971 199.617 74.635C198.449 74.299 197.473 73.843 196.689 73.267L197.769 70.339C198.521 70.867 199.377 71.283 200.337 71.587C201.313 71.891 202.329 72.043 203.385 72.043C204.537 72.043 205.361 71.867 205.857 71.515C206.369 71.147 206.625 70.691 206.625 70.147C206.625 69.683 206.449 69.315 206.097 69.043C205.745 68.771 205.129 68.539 204.249 68.347L201.537 67.771C198.513 67.131 197.001 65.563 197.001 63.067C197.001 61.995 197.289 61.059 197.865 60.259C198.441 59.443 199.241 58.811 200.265 58.363C201.305 57.915 202.505 57.691 203.865 57.691C205.033 57.691 206.129 57.859 207.153 58.195C208.177 58.531 209.025 59.003 209.697 59.611L208.617 62.347C207.305 61.307 205.713 60.787 203.841 60.787C202.833 60.787 202.049 60.987 201.489 61.387C200.945 61.771 200.673 62.275 200.673 62.899C200.673 63.363 200.841 63.739 201.177 64.027C201.513 64.315 202.097 64.547 202.929 64.723L205.641 65.299C208.745 65.971 210.297 67.491 210.297 69.859C210.297 70.915 210.009 71.843 209.433 72.643C208.873 73.427 208.073 74.043 207.033 74.491C206.009 74.923 204.793 75.139 203.385 75.139Z" fill="#BB4F77"/>
</g>
<defs>
<filter id="filter0_d_182_1150" x="32.76" y="31.1285" width="130.177" height="37.448" filterUnits="userSpaceOnUse" color-interpolation-filters="sRGB">
<feFlood flood-opacity="0" result="BackgroundImageFix"/>
<feColorMatrix in="SourceAlpha" type="matrix" values="0 0 0 0 0 0 0 0 0 0 0 0 0 0 0 0 0 0 127 0" result="hardAlpha"/>
<feOffset dy="4"/>
<feGaussianBlur stdDeviation="5"/>
<feComposite in2="hardAlpha" operator="out"/>
<feColorMatrix type="matrix" values="0 0 0 0 0 0 0 0 0 0 0 0 0 0 0 0 0 0 0.25 0"/>
<feBlend mode="normal" in2="BackgroundImageFix" result="effect1_dropShadow_182_1150"/>
<feBlend mode="normal" in="SourceGraphic" in2="effect1_dropShadow_182_1150" result="shape"/>
</filter>
<filter id="filter1_d_182_1150" x="10.76" y="51.691" width="209.537" height="37.448" filterUnits="userSpaceOnUse" color-interpolation-filters="sRGB">
<feFlood flood-opacity="0" result="BackgroundImageFix"/>
<feColorMatrix in="SourceAlpha" type="matrix" values="0 0 0 0 0 0 0 0 0 0 0 0 0 0 0 0 0 0 127 0" result="hardAlpha"/>
<feOffset dy="4"/>
<feGaussianBlur stdDeviation="5"/>
<feComposite in2="hardAlpha" operator="out"/>
<feColorMatrix type="matrix" values="0 0 0 0 0 0 0 0 0 0 0 0 0 0 0 0 0 0 0.25 0"/>
<feBlend mode="normal" in2="BackgroundImageFix" result="effect1_dropShadow_182_1150"/>
<feBlend mode="normal" in="SourceGraphic" in2="effect1_dropShadow_182_1150" result="shape"/>
</filter>
</defs>
</svg>
