<svg width="29" height="29" viewBox="0 0 29 29" fill="none" xmlns="http://www.w3.org/2000/svg">
<g id="CaretRight">
<path id="Vector" d="M19.6806 15.2139L12.9537 21.6798C12.7642 21.862 12.5071 21.9644 12.239 21.9644C11.9709 21.9644 11.7138 21.862 11.5243 21.6798C11.3347 21.4976 11.2282 21.2505 11.2282 20.9928C11.2282 20.7351 11.3347 20.488 11.5243 20.3058L17.5372 14.5277L11.5259 8.74793C11.4321 8.65771 11.3576 8.55061 11.3068 8.43273C11.256 8.31485 11.2299 8.18852 11.2299 8.06093C11.2299 7.93334 11.256 7.807 11.3068 7.68912C11.3576 7.57125 11.4321 7.46414 11.5259 7.37392C11.6198 7.2837 11.7312 7.21214 11.8539 7.16331C11.9765 7.11449 12.1079 7.08936 12.2407 7.08936C12.3734 7.08936 12.5048 7.11449 12.6275 7.16331C12.7501 7.21214 12.8615 7.2837 12.9554 7.37392L19.6823 13.8398C19.7762 13.9301 19.8507 14.0372 19.9015 14.1552C19.9523 14.2731 19.9784 14.3995 19.9782 14.5272C19.9781 14.6548 19.9517 14.7812 19.9006 14.899C19.8495 15.0169 19.7748 15.1239 19.6806 15.2139Z" fill="#BB4F77"/>
</g>
</svg>
