<svg width="64" height="64" viewBox="0 0 64 64" fill="none" xmlns="http://www.w3.org/2000/svg">
<path d="M36.85 1.79999C36.105 1.88999 35.3 2.34499 34.535 3.11999C32.23 5.44999 30.585 10.255 30.05 16.2C29.89 18.045 29.85 19.085 29.85 21.465C29.855 23.265 29.84 23.725 29.79 23.725C29.755 23.725 29.72 23.68 29.71 23.625C29.7 23.57 29.485 22.905 29.24 22.15C27.45 16.685 25.265 12.32 22.775 9.20999C20.975 6.96499 19.165 5.54999 17.425 5.02999C16.915 4.87999 15.99 4.88499 15.595 5.03999C14.78 5.36499 14.295 6.01499 14.065 7.07499C13.955 7.57999 14 8.84999 14.15 9.54999C14.86 12.91 17.26 16.87 21.195 21.2C22.005 22.09 24.28 24.34 25.29 25.25C26.03 25.915 26.27 26.165 26.115 26.09C26.09 26.08 25.31 25.69 24.375 25.225C19.91 22.985 15.915 21.52 12.19 20.755C9.16996 20.13 6.30496 20.085 4.39996 20.63C3.30996 20.945 2.37996 21.595 2.04496 22.28C1.56996 23.245 1.95496 24.38 3.13496 25.505C5.47496 27.73 10.495 29.325 16.875 29.87C18.845 30.04 19.775 30.075 22.535 30.07H25.34L24.46 30.31C14.94 32.91 7.57996 37.115 5.59996 41.08C4.77496 42.73 5.06496 44.115 6.36996 44.75C6.97996 45.045 7.36996 45.12 8.42496 45.12C9.68996 45.12 10.62 44.95 12.15 44.425C16.355 42.98 21.225 39.615 26.22 34.7C26.96 33.97 27.555 33.395 27.54 33.425C27.525 33.45 27.33 33.79 27.11 34.18C24.1 39.44 22.22 44.175 21.55 48.165C21.335 49.47 21.28 50.075 21.28 51.25C21.28 53.485 21.72 55 22.65 55.955C23.81 57.14 25.425 56.895 26.98 55.29C29.17 53.03 30.745 48.58 31.345 42.95C31.56 40.95 31.67 37.93 31.605 35.775C31.58 34.975 31.57 34.32 31.575 34.31C31.585 34.3 31.625 34.425 31.67 34.585C32 35.76 32.885 38.335 33.465 39.8C36.295 46.985 40.23 52.175 43.74 53.35C45.49 53.935 46.795 53.36 47.3 51.775C47.47 51.245 47.5 50.04 47.36 49.225C46.88 46.44 45.04 43.005 42.07 39.37C40.385 37.305 38.04 34.885 35.775 32.875C35.475 32.605 35.19 32.355 35.15 32.315C35.11 32.275 35.67 32.545 36.4 32.92C42.285 35.92 47.405 37.64 51.9 38.13C52.95 38.245 54.81 38.25 55.625 38.135C57.18 37.92 58.28 37.48 58.955 36.805C59.39 36.365 59.56 36.015 59.59 35.47C59.72 33.13 56.05 30.725 50.44 29.48C46.905 28.69 43.335 28.37 38.515 28.405C37.19 28.415 36.11 28.42 36.12 28.415C36.125 28.41 36.465 28.315 36.875 28.2C45.16 25.92 51.58 22.645 54.69 19.1C55.14 18.585 55.68 17.79 55.92 17.28C56.6 15.85 56.405 14.58 55.4 13.91C54.775 13.49 54.11 13.335 53 13.34C50.37 13.35 46.95 14.7 43.15 17.225C40.46 19.01 38.045 21.015 35.025 23.965C34.475 24.5 34.02 24.935 34.01 24.925C34 24.915 34.215 24.52 34.49 24.045C37.305 19.115 39.165 14.45 39.87 10.55C40.105 9.24499 40.165 8.55999 40.17 7.24999C40.17 6.18999 40.155 5.93499 40.055 5.37499C39.78 3.80499 39.23 2.73499 38.41 2.18499C37.935 1.85999 37.42 1.73499 36.85 1.79999Z" fill="#F7DEE4"/>
</svg>
