<svg width="49" height="48" viewBox="0 0 49 48" fill="none" xmlns="http://www.w3.org/2000/svg">
<path d="M28.1375 1.35005C27.5788 1.41755 26.975 1.7588 26.4013 2.34005C24.6725 4.08755 23.4387 7.6913 23.0375 12.1501C22.9175 13.5338 22.8875 14.3138 22.8875 16.0988C22.8913 17.4488 22.88 17.7938 22.8425 17.7938C22.8162 17.7938 22.79 17.7601 22.7825 17.7188C22.775 17.6776 22.6138 17.1788 22.43 16.6126C21.0875 12.5138 19.4487 9.24005 17.5813 6.90755C16.2312 5.2238 14.8737 4.16255 13.5687 3.77255C13.1862 3.66005 12.4925 3.6638 12.1962 3.78005C11.585 4.0238 11.2212 4.5113 11.0487 5.3063C10.9662 5.68505 11 6.63755 11.1125 7.16255C11.645 9.68255 13.445 12.6526 16.3962 15.9001C17.0037 16.5676 18.71 18.2551 19.4675 18.9376C20.0225 19.4363 20.2025 19.6238 20.0863 19.5676C20.0675 19.5601 19.4825 19.2676 18.7812 18.9188C15.4325 17.2388 12.4362 16.1401 9.6425 15.5663C7.3775 15.0976 5.22875 15.0638 3.8 15.4726C2.9825 15.7088 2.285 16.1963 2.03375 16.7101C1.6775 17.4338 1.96625 18.2851 2.85125 19.1288C4.60625 20.7976 8.37125 21.9938 13.1562 22.4026C14.6337 22.5301 15.3313 22.5563 17.4012 22.5526H19.505L18.845 22.7326C11.705 24.6826 6.185 27.8363 4.7 30.8101C4.08125 32.0476 4.29875 33.0863 5.2775 33.5626C5.735 33.7838 6.0275 33.8401 6.81875 33.8401C7.7675 33.8401 8.465 33.7126 9.6125 33.3188C12.7662 32.2351 16.4187 29.7113 20.165 26.0251C20.72 25.4776 21.1663 25.0463 21.155 25.0688C21.1437 25.0876 20.9975 25.3426 20.8325 25.6351C18.575 29.5801 17.165 33.1313 16.6625 36.1238C16.5013 37.1026 16.46 37.5563 16.46 38.4376C16.46 40.1138 16.79 41.2501 17.4875 41.9663C18.3575 42.8551 19.5688 42.6713 20.735 41.4676C22.3775 39.7726 23.5588 36.4351 24.0088 32.2126C24.17 30.7126 24.2525 28.4476 24.2038 26.8313C24.185 26.2313 24.1775 25.7401 24.1812 25.7326C24.1888 25.7251 24.2188 25.8188 24.2525 25.9388C24.5 26.8201 25.1637 28.7513 25.5988 29.8501C27.7213 35.2388 30.6725 39.1313 33.305 40.0126C34.6175 40.4513 35.5963 40.0201 35.975 38.8313C36.1025 38.4338 36.125 37.5301 36.02 36.9188C35.66 34.8301 34.28 32.2538 32.0525 29.5276C30.7887 27.9788 29.03 26.1638 27.3313 24.6563C27.1063 24.4538 26.8925 24.2663 26.8625 24.2363C26.8325 24.2063 27.2525 24.4088 27.8 24.6901C32.2138 26.9401 36.0538 28.2301 39.425 28.5976C40.2125 28.6838 41.6075 28.6876 42.2188 28.6013C43.385 28.4401 44.21 28.1101 44.7163 27.6038C45.0425 27.2738 45.17 27.0113 45.1925 26.6026C45.29 24.8476 42.5375 23.0438 38.33 22.1101C35.6788 21.5176 33.0013 21.2776 29.3862 21.3038C28.3925 21.3113 27.5825 21.3151 27.59 21.3113C27.5938 21.3076 27.8488 21.2363 28.1562 21.1501C34.37 19.4401 39.185 16.9838 41.5175 14.3251C41.855 13.9388 42.26 13.3426 42.44 12.9601C42.95 11.8876 42.8038 10.9351 42.05 10.4326C41.5813 10.1176 41.0825 10.0013 40.25 10.0051C38.2775 10.0126 35.7125 11.0251 32.8625 12.9188C30.845 14.2576 29.0338 15.7613 26.7688 17.9738C26.3563 18.3751 26.015 18.7013 26.0075 18.6938C26 18.6863 26.1613 18.3901 26.3675 18.0338C28.4788 14.3363 29.8738 10.8376 30.4025 7.91255C30.5788 6.9338 30.6238 6.42005 30.6275 5.43755C30.6275 4.64255 30.6163 4.4513 30.5413 4.0313C30.335 2.8538 29.9225 2.0513 29.3075 1.6388C28.9513 1.39505 28.565 1.3013 28.1375 1.35005Z" fill="#BB4F77"/>
</svg>
