<svg width="1200" height="623" viewBox="0 0 1200 623" fill="none" xmlns="http://www.w3.org/2000/svg">
<g clip-path="url(#clip0_229_1207)">
<path d="M734.567 36.9202C705.875 103.22 711.301 144.787 750.842 161.621C810.155 186.872 951.189 196.972 1010.14 251.748C1069.09 306.522 1248.84 264.178 1279.58 170.167C1310.32 76.1563 1365.67 -68.7449 1073.81 -68.7449C879.232 -68.7449 766.153 -33.5239 734.567 36.9202Z" fill="#FFFA72"/>
<path d="M256.788 167.825C176.45 353.465 191.643 469.853 302.358 516.988C468.434 587.69 863.329 615.971 1028.39 769.342C1193.45 922.711 1696.75 804.146 1782.82 540.916C1868.9 277.686 2023.87 -128.037 1206.66 -128.037C661.849 -128.037 345.228 -29.4184 256.788 167.825Z" fill="#F5E1E5"/>
<path d="M296.603 156.916C220.569 332.612 234.948 442.764 339.731 487.374C496.911 554.289 870.651 581.054 1026.87 726.209C1183.09 871.362 1659.42 759.149 1740.88 510.02C1822.35 260.892 1969.02 -123.096 1195.59 -123.096C679.965 -123.096 380.306 -29.7606 296.603 156.916Z" fill="#EAC6D0"/>
<path d="M336.418 146.007C264.688 311.758 278.253 415.675 377.105 457.76C525.388 520.887 877.973 546.137 1025.35 683.076C1172.73 820.013 1622.09 714.151 1698.95 479.125C1775.8 244.098 1914.17 -118.155 1184.52 -118.155C698.08 -118.155 415.383 -30.1028 336.418 146.007Z" fill="#E2B3C2"/>
<path d="M376.233 135.099C308.806 290.904 321.557 388.586 414.479 428.146C553.864 487.486 885.294 511.221 1023.83 639.944C1162.36 768.664 1584.77 669.154 1657.01 448.229C1729.25 227.304 1859.32 -113.214 1173.45 -113.214C716.195 -113.214 450.46 -30.4448 376.233 135.099Z" fill="#DA9FB3"/>
<path d="M416.047 124.19C352.925 270.05 364.862 361.498 451.852 398.532C582.341 454.084 892.616 476.304 1022.31 596.811C1152 717.315 1547.44 624.156 1615.07 417.333C1682.7 210.509 1804.47 -108.273 1162.38 -108.273C734.31 -108.273 485.537 -30.787 416.047 124.19Z" fill="#D28BA4"/>
<path d="M455.862 113.281C397.044 249.197 408.167 334.409 489.226 368.918C610.818 420.683 899.937 441.388 1020.79 553.678C1141.64 665.966 1510.12 579.159 1573.14 386.437C1636.16 193.715 1749.62 -103.332 1151.31 -103.332C752.426 -103.332 520.614 -31.129 455.862 113.281Z" fill="#CB7795"/>
<path d="M495.677 102.373C441.163 228.343 451.472 307.32 526.6 339.304C639.295 387.281 907.259 406.471 1019.27 510.545C1131.27 614.617 1472.79 534.162 1531.2 355.542C1589.61 176.921 1694.77 -98.3911 1140.24 -98.3911C770.541 -98.3911 555.691 -31.4712 495.677 102.373Z" fill="#C36386"/>
<path d="M535.492 91.464C485.281 207.489 494.777 280.231 563.973 309.691C667.771 353.88 914.581 371.555 1017.75 467.412C1120.91 563.268 1435.47 489.165 1489.26 324.646C1543.06 160.127 1639.92 -93.45 1129.16 -93.45C788.656 -93.45 590.768 -31.8132 535.492 91.464Z" fill="#BB4F77"/>
<path d="M575.307 80.5551C529.4 186.635 538.082 253.142 601.347 280.077C696.248 320.478 921.902 336.638 1016.23 424.279C1110.55 511.919 1398.14 444.167 1447.33 293.75C1496.51 143.333 1585.07 -88.509 1118.09 -88.509C806.771 -88.509 625.845 -32.1555 575.307 80.5551Z" fill="#B33C69"/>
<path d="M615.122 69.6465C573.519 165.782 581.386 226.054 638.721 250.463C724.725 287.077 929.224 301.722 1014.7 381.147C1100.18 460.57 1360.82 399.17 1405.39 262.854C1449.96 126.539 1530.22 -83.5679 1107.02 -83.5679C824.886 -83.5679 660.922 -32.4974 615.122 69.6465Z" fill="#AC285A"/>
<path d="M654.937 58.7377C617.638 144.928 624.691 198.965 676.095 220.849C753.201 253.675 936.546 266.805 1013.18 338.014C1089.82 409.221 1323.49 354.172 1363.45 231.959C1403.42 109.745 1475.37 -78.627 1095.95 -78.627C843.002 -78.627 695.999 -32.8397 654.937 58.7377Z" fill="#A4144B"/>
<path d="M694.752 47.8291C661.756 124.074 667.996 171.876 713.468 191.235C781.678 220.274 943.867 231.889 1011.66 294.881C1079.45 357.872 1286.16 309.175 1321.52 201.063C1356.87 92.9506 1420.52 -73.6858 1084.88 -73.6858C861.117 -73.6858 731.076 -33.1817 694.752 47.8291Z" fill="#9C003C"/>
</g>
<defs>
<clipPath id="clip0_229_1207">
<rect width="1200" height="623" rx="25" fill="white"/>
</clipPath>
</defs>
</svg>
