<svg width="54" height="68" viewBox="0 0 54 68" fill="none" xmlns="http://www.w3.org/2000/svg">
<path d="M48.375 62.5H33.6916C36.1582 60.2976 38.4843 57.9427 40.6562 55.4492C48.8055 46.0769 53.125 36.1969 53.125 26.875C53.125 19.9462 50.3726 13.3012 45.4732 8.40184C40.5738 3.50245 33.9288 0.75 27 0.75C20.0712 0.75 13.4262 3.50245 8.52684 8.40184C3.62745 13.3012 0.875 19.9462 0.875 26.875C0.875 36.1969 5.18266 46.0769 13.3438 55.4492C15.5157 57.9427 17.8418 60.2976 20.3084 62.5H5.625C4.99511 62.5 4.39102 62.7502 3.94562 63.1956C3.50022 63.641 3.25 64.2451 3.25 64.875C3.25 65.5049 3.50022 66.109 3.94562 66.5544C4.39102 66.9998 4.99511 67.25 5.625 67.25H48.375C49.0049 67.25 49.609 66.9998 50.0544 66.5544C50.4998 66.109 50.75 65.5049 50.75 64.875C50.75 64.2451 50.4998 63.641 50.0544 63.1956C49.609 62.7502 49.0049 62.5 48.375 62.5ZM5.625 26.875C5.625 21.206 7.877 15.7692 11.8856 11.7606C15.8942 7.752 21.331 5.5 27 5.5C32.669 5.5 38.1058 7.752 42.1144 11.7606C46.123 15.7692 48.375 21.206 48.375 26.875C48.375 43.8652 31.9073 58.0469 27 61.9062C22.0927 58.0469 5.625 43.8652 5.625 26.875ZM38.875 26.875C38.875 24.5263 38.1785 22.2304 36.8737 20.2776C35.5689 18.3248 33.7142 16.8027 31.5444 15.9039C29.3745 15.0051 26.9868 14.77 24.6833 15.2282C22.3798 15.6864 20.2639 16.8174 18.6031 18.4781C16.9424 20.1389 15.8114 22.2548 15.3532 24.5583C14.895 26.8618 15.1301 29.2495 16.0289 31.4194C16.9277 33.5892 18.4498 35.4439 20.4026 36.7487C22.3554 38.0535 24.6513 38.75 27 38.75C30.1494 38.75 33.1699 37.4989 35.3969 35.2719C37.6239 33.0449 38.875 30.0244 38.875 26.875ZM19.875 26.875C19.875 25.4658 20.2929 24.0883 21.0758 22.9166C21.8587 21.7449 22.9715 20.8316 24.2734 20.2924C25.5753 19.7531 27.0079 19.612 28.39 19.8869C29.7721 20.1618 31.0417 20.8404 32.0381 21.8369C33.0346 22.8333 33.7132 24.1029 33.9881 25.485C34.263 26.8671 34.1219 28.2997 33.5826 29.6016C33.0434 30.9035 32.1301 32.0163 30.9584 32.7992C29.7867 33.5821 28.4092 34 27 34C25.1103 34 23.2981 33.2493 21.9619 31.9131C20.6257 30.5769 19.875 28.7647 19.875 26.875Z" fill="white"/>
</svg>
