<svg width="337" height="148" viewBox="0 0 337 148" fill="none" xmlns="http://www.w3.org/2000/svg">
<path d="M50.68 27.328C55.6293 27.328 60.024 28.096 63.864 29.632C67.704 31.168 70.7333 33.4293 72.952 36.416C75.1707 39.3173 76.28 42.9013 76.28 47.168C76.28 53.056 74.5307 58.0053 71.032 62.016C67.5333 66.0267 63.1813 69.5253 57.976 72.512L75.768 89.792C77.4747 86.8907 78.968 83.8613 80.248 80.704C81.528 77.4613 82.5947 74.2187 83.448 70.976H103.288C102.008 75.7547 100.131 80.8747 97.656 86.336C95.1813 91.7973 92.024 96.9173 88.184 101.696L107 120H83.448L76.28 112.96C74.4027 114.24 72.44 115.392 70.392 116.416C68.344 117.44 66.2107 118.336 63.992 119.104C61.7733 119.787 59.4267 120.299 56.952 120.64C54.4773 121.067 51.9173 121.28 49.272 121.28C42.36 121.28 36.4293 120.213 31.48 118.08C26.5307 115.861 22.7333 112.789 20.088 108.864C17.4427 104.939 16.12 100.416 16.12 95.296C16.12 90.944 16.76 87.232 18.04 84.16C19.4053 81.0027 21.3253 78.272 23.8 75.968C26.36 73.5787 29.3893 71.4027 32.888 69.44C30.6693 66.88 28.8773 64.4907 27.512 62.272C26.232 59.968 25.2933 57.7067 24.696 55.488C24.184 53.2693 23.928 50.9227 23.928 48.448C23.928 44.096 25.0373 40.3413 27.256 37.184C29.56 34.0267 32.7173 31.5947 36.728 29.888C40.824 28.1813 45.4747 27.328 50.68 27.328ZM44.024 80.832C42.4027 82.0267 40.9947 83.264 39.8 84.544C38.6907 85.824 37.7947 87.1893 37.112 88.64C36.5147 90.0907 36.216 91.712 36.216 93.504C36.216 97.1733 37.5813 100.075 40.312 102.208C43.0427 104.256 46.456 105.28 50.552 105.28C53.2827 105.28 55.8427 104.939 58.232 104.256C60.6213 103.573 62.7973 102.635 64.76 101.44L44.024 80.832ZM50.552 42.048C48.4187 42.048 46.3707 42.6027 44.408 43.712C42.5307 44.736 41.592 46.7413 41.592 49.728C41.592 51.8613 42.104 53.9093 43.128 55.872C44.2373 57.8347 45.688 59.84 47.48 61.888C51.064 59.9253 53.7947 57.9627 55.672 56C57.6347 54.0373 58.616 51.776 58.616 49.216C58.616 46.656 57.7627 44.8213 56.056 43.712C54.3493 42.6027 52.5147 42.048 50.552 42.048Z" fill="#EAADC3"/>
<g filter="url(#filter0_d_182_1031)">
<path d="M73.6 73L86.56 44.8H91.56L104.52 73H98.28L95.64 66.88H82.48L79.88 73H73.6ZM89 51.4L84.56 62.04H93.6L89.08 51.4H89ZM112.298 73L102.258 44.8H108.618L115.098 64.08L121.938 44.8H126.418L133.058 64.4L139.778 44.8H145.778L135.658 73H130.618L124.018 54.28L117.338 73H112.298ZM143.444 73L156.404 44.8H161.404L174.364 73H168.124L165.484 66.88H152.324L149.724 73H143.444ZM158.844 51.4L154.404 62.04H163.444L158.924 51.4H158.844ZM176.801 73V44.8H189.681C192.828 44.8 195.254 45.56 196.961 47.08C198.668 48.6 199.521 50.72 199.521 53.44C199.521 55.5467 198.974 57.3067 197.881 58.72C196.814 60.1067 195.281 61.0533 193.281 61.56C194.694 61.9867 195.854 63.0133 196.761 64.64L201.321 73H194.481L189.601 64C189.201 63.28 188.708 62.7867 188.121 62.52C187.534 62.2267 186.841 62.08 186.041 62.08H183.001V73H176.801ZM183.001 57.6H188.561C191.894 57.6 193.561 56.2667 193.561 53.6C193.561 50.96 191.894 49.64 188.561 49.64H183.001V57.6ZM204.653 73V44.8H215.693C220.493 44.8 224.213 46.0267 226.853 48.48C229.493 50.9067 230.813 54.3733 230.813 58.88C230.813 63.3867 229.493 66.8667 226.853 69.32C224.213 71.7733 220.493 73 215.693 73H204.653ZM210.853 67.92H215.333C221.333 67.92 224.333 64.9067 224.333 58.88C224.333 52.88 221.333 49.88 215.333 49.88H210.853V67.92ZM245.709 73.44C243.496 73.44 241.402 73.16 239.429 72.6C237.482 72.04 235.856 71.28 234.549 70.32L236.349 65.44C237.602 66.32 239.029 67.0133 240.629 67.52C242.256 68.0267 243.949 68.28 245.709 68.28C247.629 68.28 249.002 67.9867 249.829 67.4C250.682 66.7867 251.109 66.0267 251.109 65.12C251.109 64.3467 250.816 63.7333 250.229 63.28C249.642 62.8267 248.616 62.44 247.149 62.12L242.629 61.16C237.589 60.0933 235.069 57.48 235.069 53.32C235.069 51.5333 235.549 49.9733 236.509 48.64C237.469 47.28 238.802 46.2267 240.509 45.48C242.242 44.7333 244.242 44.36 246.509 44.36C248.456 44.36 250.282 44.64 251.989 45.2C253.696 45.76 255.109 46.5467 256.229 47.56L254.429 52.12C252.242 50.3867 249.589 49.52 246.469 49.52C244.789 49.52 243.482 49.8533 242.549 50.52C241.642 51.16 241.189 52 241.189 53.04C241.189 53.8133 241.469 54.44 242.029 54.92C242.589 55.4 243.562 55.7867 244.949 56.08L249.469 57.04C254.642 58.16 257.229 60.6933 257.229 64.64C257.229 66.4 256.749 67.9467 255.789 69.28C254.856 70.5867 253.522 71.6133 251.789 72.36C250.082 73.08 248.056 73.44 245.709 73.44Z" fill="#BB4F77"/>
</g>
<g filter="url(#filter1_d_182_1031)">
<path d="M10.6 114L23.56 85.8H28.56L41.52 114H35.28L32.64 107.88H19.48L16.88 114H10.6ZM26 92.4L21.56 103.04H30.6L26.08 92.4H26ZM56.9731 114.44C53.9331 114.44 51.3331 113.84 49.1731 112.64C47.0131 111.44 45.3465 109.76 44.1731 107.6C43.0265 105.413 42.4531 102.84 42.4531 99.88C42.4531 96.9467 43.0265 94.4 44.1731 92.24C45.3465 90.0533 47.0131 88.36 49.1731 87.16C51.3331 85.96 53.9331 85.36 56.9731 85.36C58.8398 85.36 60.6265 85.6533 62.3331 86.24C64.0398 86.8267 65.4398 87.6267 66.5331 88.64L64.6131 93.56C63.4131 92.6267 62.1998 91.9467 60.9731 91.52C59.7731 91.0667 58.5065 90.84 57.1731 90.84C54.4798 90.84 52.4398 91.6267 51.0531 93.2C49.6931 94.7467 49.0131 96.9733 49.0131 99.88C49.0131 102.787 49.6931 105.027 51.0531 106.6C52.4398 108.173 54.4798 108.96 57.1731 108.96C58.5065 108.96 59.7731 108.747 60.9731 108.32C62.1998 107.867 63.4131 107.173 64.6131 106.24L66.5331 111.16C65.4398 112.147 64.0398 112.947 62.3331 113.56C60.6265 114.147 58.8398 114.44 56.9731 114.44ZM70.5978 114V85.8H76.7978V97.12H89.9178V85.8H96.1178V114H89.9178V102.28H76.7978V114H70.5978ZM101.809 114V85.8H108.009V114H101.809ZM113.645 114V85.8H132.965V90.64H119.565V97.24H132.085V102.12H119.565V109.16H132.965V114H113.645ZM147.023 114L134.343 85.8H140.983L149.703 106.04L158.423 85.8H164.783L152.103 114H147.023ZM166.926 114V85.8H186.246V90.64H172.846V97.24H185.366V102.12H172.846V109.16H186.246V114H166.926ZM191.225 114V85.8H196.385L205.905 103.12L215.385 85.8H220.465V114H214.825V96.8L207.545 109.76H204.065L196.825 96.92V114H191.225ZM226.184 114V85.8H245.504V90.64H232.104V97.24H244.624V102.12H232.104V109.16H245.504V114H226.184ZM250.403 114V85.8H255.003L269.083 103.76V85.8H274.843V114H270.283L256.163 96V114H250.403ZM287.24 114V90.92H277.92V85.8H302.76V90.92H293.44V114H287.24ZM314.975 114.44C312.761 114.44 310.668 114.16 308.695 113.6C306.748 113.04 305.121 112.28 303.815 111.32L305.615 106.44C306.868 107.32 308.295 108.013 309.895 108.52C311.521 109.027 313.215 109.28 314.975 109.28C316.895 109.28 318.268 108.987 319.095 108.4C319.948 107.787 320.375 107.027 320.375 106.12C320.375 105.347 320.081 104.733 319.495 104.28C318.908 103.827 317.881 103.44 316.415 103.12L311.895 102.16C306.855 101.093 304.335 98.48 304.335 94.32C304.335 92.5333 304.815 90.9733 305.775 89.64C306.735 88.28 308.068 87.2267 309.775 86.48C311.508 85.7333 313.508 85.36 315.775 85.36C317.721 85.36 319.548 85.64 321.255 86.2C322.961 86.76 324.375 87.5467 325.495 88.56L323.695 93.12C321.508 91.3867 318.855 90.52 315.735 90.52C314.055 90.52 312.748 90.8533 311.815 91.52C310.908 92.16 310.455 93 310.455 94.04C310.455 94.8133 310.735 95.44 311.295 95.92C311.855 96.4 312.828 96.7867 314.215 97.08L318.735 98.04C323.908 99.16 326.495 101.693 326.495 105.64C326.495 107.4 326.015 108.947 325.055 110.28C324.121 111.587 322.788 112.613 321.055 113.36C319.348 114.08 317.321 114.44 314.975 114.44Z" fill="#BB4F77"/>
</g>
<defs>
<filter id="filter0_d_182_1031" x="63.6" y="38.36" width="203.629" height="49.08" filterUnits="userSpaceOnUse" color-interpolation-filters="sRGB">
<feFlood flood-opacity="0" result="BackgroundImageFix"/>
<feColorMatrix in="SourceAlpha" type="matrix" values="0 0 0 0 0 0 0 0 0 0 0 0 0 0 0 0 0 0 127 0" result="hardAlpha"/>
<feOffset dy="4"/>
<feGaussianBlur stdDeviation="5"/>
<feComposite in2="hardAlpha" operator="out"/>
<feColorMatrix type="matrix" values="0 0 0 0 0 0 0 0 0 0 0 0 0 0 0 0 0 0 0.25 0"/>
<feBlend mode="normal" in2="BackgroundImageFix" result="effect1_dropShadow_182_1031"/>
<feBlend mode="normal" in="SourceGraphic" in2="effect1_dropShadow_182_1031" result="shape"/>
</filter>
<filter id="filter1_d_182_1031" x="0.600006" y="79.36" width="335.895" height="49.08" filterUnits="userSpaceOnUse" color-interpolation-filters="sRGB">
<feFlood flood-opacity="0" result="BackgroundImageFix"/>
<feColorMatrix in="SourceAlpha" type="matrix" values="0 0 0 0 0 0 0 0 0 0 0 0 0 0 0 0 0 0 127 0" result="hardAlpha"/>
<feOffset dy="4"/>
<feGaussianBlur stdDeviation="5"/>
<feComposite in2="hardAlpha" operator="out"/>
<feColorMatrix type="matrix" values="0 0 0 0 0 0 0 0 0 0 0 0 0 0 0 0 0 0 0.25 0"/>
<feBlend mode="normal" in2="BackgroundImageFix" result="effect1_dropShadow_182_1031"/>
<feBlend mode="normal" in="SourceGraphic" in2="effect1_dropShadow_182_1031" result="shape"/>
</filter>
</defs>
</svg>
