<svg width="315" height="154" viewBox="0 0 315 154" fill="none" xmlns="http://www.w3.org/2000/svg">
<path d="M39.68 27.328C44.6293 27.328 49.024 28.096 52.864 29.632C56.704 31.168 59.7333 33.4293 61.952 36.416C64.1707 39.3173 65.28 42.9013 65.28 47.168C65.28 53.056 63.5307 58.0053 60.032 62.016C56.5333 66.0267 52.1813 69.5253 46.976 72.512L64.768 89.792C66.4747 86.8907 67.968 83.8613 69.248 80.704C70.528 77.4613 71.5947 74.2187 72.448 70.976H92.288C91.008 75.7547 89.1307 80.8747 86.656 86.336C84.1813 91.7973 81.024 96.9173 77.184 101.696L96 120H72.448L65.28 112.96C63.4027 114.24 61.44 115.392 59.392 116.416C57.344 117.44 55.2107 118.336 52.992 119.104C50.7733 119.787 48.4267 120.299 45.952 120.64C43.4773 121.067 40.9173 121.28 38.272 121.28C31.36 121.28 25.4293 120.213 20.48 118.08C15.5307 115.861 11.7333 112.789 9.088 108.864C6.44267 104.939 5.12 100.416 5.12 95.296C5.12 90.944 5.76 87.232 7.04 84.16C8.40533 81.0027 10.3253 78.272 12.8 75.968C15.36 73.5787 18.3893 71.4027 21.888 69.44C19.6693 66.88 17.8773 64.4907 16.512 62.272C15.232 59.968 14.2933 57.7067 13.696 55.488C13.184 53.2693 12.928 50.9227 12.928 48.448C12.928 44.096 14.0373 40.3413 16.256 37.184C18.56 34.0267 21.7173 31.5947 25.728 29.888C29.824 28.1813 34.4747 27.328 39.68 27.328ZM33.024 80.832C31.4027 82.0267 29.9947 83.264 28.8 84.544C27.6907 85.824 26.7947 87.1893 26.112 88.64C25.5147 90.0907 25.216 91.712 25.216 93.504C25.216 97.1733 26.5813 100.075 29.312 102.208C32.0427 104.256 35.456 105.28 39.552 105.28C42.2827 105.28 44.8427 104.939 47.232 104.256C49.6213 103.573 51.7973 102.635 53.76 101.44L33.024 80.832ZM39.552 42.048C37.4187 42.048 35.3707 42.6027 33.408 43.712C31.5307 44.736 30.592 46.7413 30.592 49.728C30.592 51.8613 31.104 53.9093 32.128 55.872C33.2373 57.8347 34.688 59.84 36.48 61.888C40.064 59.9253 42.7947 57.9627 44.672 56C46.6347 54.0373 47.616 51.776 47.616 49.216C47.616 46.656 46.7627 44.8213 45.056 43.712C43.3493 42.6027 41.5147 42.048 39.552 42.048Z" fill="#EAAEC3"/>
<g filter="url(#filter0_d_182_1123)">
<path d="M73.92 110.44C71.7067 110.44 69.6133 110.16 67.64 109.6C65.6933 109.04 64.0667 108.28 62.76 107.32L64.56 102.44C65.8133 103.32 67.24 104.013 68.84 104.52C70.4667 105.027 72.16 105.28 73.92 105.28C75.84 105.28 77.2133 104.987 78.04 104.4C78.8933 103.787 79.32 103.027 79.32 102.12C79.32 101.347 79.0267 100.733 78.44 100.28C77.8533 99.8267 76.8267 99.44 75.36 99.12L70.84 98.16C65.8 97.0933 63.28 94.48 63.28 90.32C63.28 88.5333 63.76 86.9733 64.72 85.64C65.68 84.28 67.0133 83.2267 68.72 82.48C70.4533 81.7333 72.4533 81.36 74.72 81.36C76.6667 81.36 78.4933 81.64 80.2 82.2C81.9067 82.76 83.32 83.5467 84.44 84.56L82.64 89.12C80.4533 87.3867 77.8 86.52 74.68 86.52C73 86.52 71.6933 86.8533 70.76 87.52C69.8533 88.16 69.4 89 69.4 90.04C69.4 90.8133 69.68 91.44 70.24 91.92C70.8 92.4 71.7733 92.7867 73.16 93.08L77.68 94.04C82.8533 95.16 85.44 97.6933 85.44 101.64C85.44 103.4 84.96 104.947 84 106.28C83.0667 107.587 81.7333 108.613 80 109.36C78.2933 110.08 76.2667 110.44 73.92 110.44ZM89.465 110V81.8H108.785V86.64H95.385V93.24H107.905V98.12H95.385V105.16H108.785V110H89.465ZM113.684 110V81.8H126.564C129.71 81.8 132.137 82.56 133.844 84.08C135.55 85.6 136.404 87.72 136.404 90.44C136.404 92.5467 135.857 94.3067 134.764 95.72C133.697 97.1067 132.164 98.0533 130.164 98.56C131.577 98.9867 132.737 100.013 133.644 101.64L138.204 110H131.364L126.484 101C126.084 100.28 125.59 99.7867 125.004 99.52C124.417 99.2267 123.724 99.08 122.924 99.08H119.884V110H113.684ZM119.884 94.6H125.444C128.777 94.6 130.444 93.2667 130.444 90.6C130.444 87.96 128.777 86.64 125.444 86.64H119.884V94.6ZM150.148 110L137.468 81.8H144.108L152.828 102.04L161.548 81.8H167.908L155.228 110H150.148ZM170.051 110V81.8H176.251V110H170.051ZM195.567 110.44C192.527 110.44 189.927 109.84 187.767 108.64C185.607 107.44 183.94 105.76 182.767 103.6C181.62 101.413 181.047 98.84 181.047 95.88C181.047 92.9467 181.62 90.4 182.767 88.24C183.94 86.0533 185.607 84.36 187.767 83.16C189.927 81.96 192.527 81.36 195.567 81.36C197.434 81.36 199.22 81.6533 200.927 82.24C202.634 82.8267 204.034 83.6267 205.127 84.64L203.207 89.56C202.007 88.6267 200.794 87.9467 199.567 87.52C198.367 87.0667 197.1 86.84 195.767 86.84C193.074 86.84 191.034 87.6267 189.647 89.2C188.287 90.7467 187.607 92.9733 187.607 95.88C187.607 98.7867 188.287 101.027 189.647 102.6C191.034 104.173 193.074 104.96 195.767 104.96C197.1 104.96 198.367 104.747 199.567 104.32C200.794 103.867 202.007 103.173 203.207 102.24L205.127 107.16C204.034 108.147 202.634 108.947 200.927 109.56C199.22 110.147 197.434 110.44 195.567 110.44ZM209.192 110V81.8H228.512V86.64H215.112V93.24H227.632V98.12H215.112V105.16H228.512V110H209.192ZM243.1 110.44C240.886 110.44 238.793 110.16 236.82 109.6C234.873 109.04 233.246 108.28 231.94 107.32L233.74 102.44C234.993 103.32 236.42 104.013 238.02 104.52C239.646 105.027 241.34 105.28 243.1 105.28C245.02 105.28 246.393 104.987 247.22 104.4C248.073 103.787 248.5 103.027 248.5 102.12C248.5 101.347 248.206 100.733 247.62 100.28C247.033 99.8267 246.006 99.44 244.54 99.12L240.02 98.16C234.98 97.0933 232.46 94.48 232.46 90.32C232.46 88.5333 232.94 86.9733 233.9 85.64C234.86 84.28 236.193 83.2267 237.9 82.48C239.633 81.7333 241.633 81.36 243.9 81.36C245.846 81.36 247.673 81.64 249.38 82.2C251.086 82.76 252.5 83.5467 253.62 84.56L251.82 89.12C249.633 87.3867 246.98 86.52 243.86 86.52C242.18 86.52 240.873 86.8533 239.94 87.52C239.033 88.16 238.58 89 238.58 90.04C238.58 90.8133 238.86 91.44 239.42 91.92C239.98 92.4 240.953 92.7867 242.34 93.08L246.86 94.04C252.033 95.16 254.62 97.6933 254.62 101.64C254.62 103.4 254.14 104.947 253.18 106.28C252.246 107.587 250.913 108.613 249.18 109.36C247.473 110.08 245.446 110.44 243.1 110.44Z" fill="#BB4F77"/>
</g>
<g filter="url(#filter1_d_182_1123)">
<path d="M46.56 73V49.92H37.24V44.8H62.08V49.92H52.76V73H46.56ZM65.1134 73V44.8H77.9934C81.1401 44.8 83.5668 45.56 85.2734 47.08C86.9801 48.6 87.8334 50.72 87.8334 53.44C87.8334 55.5467 87.2868 57.3067 86.1934 58.72C85.1268 60.1067 83.5934 61.0533 81.5934 61.56C83.0068 61.9867 84.1668 63.0133 85.0734 64.64L89.6334 73H82.7934L77.9134 64C77.5134 63.28 77.0201 62.7867 76.4334 62.52C75.8468 62.2267 75.1534 62.08 74.3534 62.08H71.3134V73H65.1134ZM71.3134 57.6H76.8734C80.2068 57.6 81.8734 56.2667 81.8734 53.6C81.8734 50.96 80.2068 49.64 76.8734 49.64H71.3134V57.6ZM92.965 73V44.8H112.285V49.64H98.885V56.24H111.405V61.12H98.885V68.16H112.285V73H92.965ZM113.475 73L126.435 44.8H131.435L144.395 73H138.155L135.515 66.88H122.355L119.755 73H113.475ZM128.875 51.4L124.435 62.04H133.475L128.955 51.4H128.875ZM150.388 73V49.92H141.068V44.8H165.908V49.92H156.588V73H150.388ZM169.022 73V44.8H174.182L183.702 62.12L193.182 44.8H198.262V73H192.622V55.8L185.342 68.76H181.862L174.622 55.92V73H169.022ZM203.981 73V44.8H223.301V49.64H209.901V56.24H222.421V61.12H209.901V68.16H223.301V73H203.981ZM228.199 73V44.8H232.799L246.879 62.76V44.8H252.639V73H248.079L233.959 55V73H228.199ZM265.037 73V49.92H255.717V44.8H280.557V49.92H271.237V73H265.037ZM292.772 73.44C290.558 73.44 288.465 73.16 286.492 72.6C284.545 72.04 282.918 71.28 281.612 70.32L283.412 65.44C284.665 66.32 286.092 67.0133 287.692 67.52C289.318 68.0267 291.012 68.28 292.772 68.28C294.692 68.28 296.065 67.9867 296.892 67.4C297.745 66.7867 298.172 66.0267 298.172 65.12C298.172 64.3467 297.878 63.7333 297.292 63.28C296.705 62.8267 295.678 62.44 294.212 62.12L289.692 61.16C284.652 60.0933 282.132 57.48 282.132 53.32C282.132 51.5333 282.612 49.9733 283.572 48.64C284.532 47.28 285.865 46.2267 287.572 45.48C289.305 44.7333 291.305 44.36 293.572 44.36C295.518 44.36 297.345 44.64 299.052 45.2C300.758 45.76 302.172 46.5467 303.292 47.56L301.492 52.12C299.305 50.3867 296.652 49.52 293.532 49.52C291.852 49.52 290.545 49.8533 289.612 50.52C288.705 51.16 288.252 52 288.252 53.04C288.252 53.8133 288.532 54.44 289.092 54.92C289.652 55.4 290.625 55.7867 292.012 56.08L296.532 57.04C301.705 58.16 304.292 60.6933 304.292 64.64C304.292 66.4 303.812 67.9467 302.852 69.28C301.918 70.5867 300.585 71.6133 298.852 72.36C297.145 73.08 295.118 73.44 292.772 73.44Z" fill="#BB4F77"/>
</g>
<defs>
<filter id="filter0_d_182_1123" x="52.76" y="75.36" width="211.86" height="49.08" filterUnits="userSpaceOnUse" color-interpolation-filters="sRGB">
<feFlood flood-opacity="0" result="BackgroundImageFix"/>
<feColorMatrix in="SourceAlpha" type="matrix" values="0 0 0 0 0 0 0 0 0 0 0 0 0 0 0 0 0 0 127 0" result="hardAlpha"/>
<feOffset dy="4"/>
<feGaussianBlur stdDeviation="5"/>
<feComposite in2="hardAlpha" operator="out"/>
<feColorMatrix type="matrix" values="0 0 0 0 0 0 0 0 0 0 0 0 0 0 0 0 0 0 0.25 0"/>
<feBlend mode="normal" in2="BackgroundImageFix" result="effect1_dropShadow_182_1123"/>
<feBlend mode="normal" in="SourceGraphic" in2="effect1_dropShadow_182_1123" result="shape"/>
</filter>
<filter id="filter1_d_182_1123" x="27.24" y="38.36" width="287.052" height="49.08" filterUnits="userSpaceOnUse" color-interpolation-filters="sRGB">
<feFlood flood-opacity="0" result="BackgroundImageFix"/>
<feColorMatrix in="SourceAlpha" type="matrix" values="0 0 0 0 0 0 0 0 0 0 0 0 0 0 0 0 0 0 127 0" result="hardAlpha"/>
<feOffset dy="4"/>
<feGaussianBlur stdDeviation="5"/>
<feComposite in2="hardAlpha" operator="out"/>
<feColorMatrix type="matrix" values="0 0 0 0 0 0 0 0 0 0 0 0 0 0 0 0 0 0 0.25 0"/>
<feBlend mode="normal" in2="BackgroundImageFix" result="effect1_dropShadow_182_1123"/>
<feBlend mode="normal" in="SourceGraphic" in2="effect1_dropShadow_182_1123" result="shape"/>
</filter>
</defs>
</svg>
