<svg width="205" height="94" viewBox="0 0 205 94" fill="none" xmlns="http://www.w3.org/2000/svg">
<path d="M30.26 20.496C33.972 20.496 37.268 21.072 40.148 22.224C43.028 23.376 45.3 25.072 46.964 27.312C48.628 29.488 49.46 32.176 49.46 35.376C49.46 39.792 48.148 43.504 45.524 46.512C42.9 49.52 39.636 52.144 35.732 54.384L49.076 67.344C50.356 65.168 51.476 62.896 52.436 60.528C53.396 58.096 54.196 55.664 54.836 53.232H69.716C68.756 56.816 67.348 60.656 65.492 64.752C63.636 68.848 61.268 72.688 58.388 76.272L72.5 90H54.836L49.46 84.72C48.052 85.68 46.58 86.544 45.044 87.312C43.508 88.08 41.908 88.752 40.244 89.328C38.58 89.84 36.82 90.224 34.964 90.48C33.108 90.8 31.188 90.96 29.204 90.96C24.02 90.96 19.572 90.16 15.86 88.56C12.148 86.896 9.3 84.592 7.316 81.648C5.332 78.704 4.34 75.312 4.34 71.472C4.34 68.208 4.82 65.424 5.78 63.12C6.804 60.752 8.244 58.704 10.1 56.976C12.02 55.184 14.292 53.552 16.916 52.08C15.252 50.16 13.908 48.368 12.884 46.704C11.924 44.976 11.22 43.28 10.772 41.616C10.388 39.952 10.196 38.192 10.196 36.336C10.196 33.072 11.028 30.256 12.692 27.888C14.42 25.52 16.788 23.696 19.796 22.416C22.868 21.136 26.356 20.496 30.26 20.496ZM25.268 60.624C24.052 61.52 22.996 62.448 22.1 63.408C21.268 64.368 20.596 65.392 20.084 66.48C19.636 67.568 19.412 68.784 19.412 70.128C19.412 72.88 20.436 75.056 22.484 76.656C24.532 78.192 27.092 78.96 30.164 78.96C32.212 78.96 34.132 78.704 35.924 78.192C37.716 77.68 39.348 76.976 40.82 76.08L25.268 60.624ZM30.164 31.536C28.564 31.536 27.028 31.952 25.556 32.784C24.148 33.552 23.444 35.056 23.444 37.296C23.444 38.896 23.828 40.432 24.596 41.904C25.428 43.376 26.516 44.88 27.86 46.416C30.548 44.944 32.596 43.472 34.004 42C35.476 40.528 36.212 38.832 36.212 36.912C36.212 34.992 35.572 33.616 34.292 32.784C33.012 31.952 31.636 31.536 30.164 31.536Z" fill="#EAADC3"/>
<g filter="url(#filter0_d_182_1159)">
<path d="M40.236 54V40.152H34.644V37.08H49.548V40.152H43.956V54H40.236ZM51.3681 54V37.08H59.0961C60.9841 37.08 62.4401 37.536 63.4641 38.448C64.4881 39.36 65.0001 40.632 65.0001 42.264C65.0001 43.528 64.6721 44.584 64.0161 45.432C63.3761 46.264 62.4561 46.832 61.2561 47.136C62.1041 47.392 62.8001 48.008 63.3441 48.984L66.0801 54H61.9761L59.0481 48.6C58.8081 48.168 58.5121 47.872 58.1601 47.712C57.8081 47.536 57.3921 47.448 56.9121 47.448H55.0881V54H51.3681ZM55.0881 44.76H58.4241C60.4241 44.76 61.4241 43.96 61.4241 42.36C61.4241 40.776 60.4241 39.984 58.4241 39.984H55.0881V44.76ZM68.079 54V37.08H79.671V39.984H71.631V43.944H79.143V46.872H71.631V51.096H79.671V54H68.079ZM80.385 54L88.161 37.08H91.161L98.937 54H95.193L93.609 50.328H85.713L84.153 54H80.385ZM89.625 41.04L86.961 47.424H92.385L89.673 41.04H89.625ZM102.533 54V40.152H96.9409V37.08H111.845V40.152H106.253V54H102.533ZM113.713 54V37.08H116.809L122.521 47.472L128.209 37.08H131.257V54H127.873V43.68L123.505 51.456H121.417L117.073 43.752V54H113.713ZM134.688 54V37.08H146.28V39.984H138.24V43.944H145.752V46.872H138.24V51.096H146.28V54H134.688ZM149.22 54V37.08H151.98L160.428 47.856V37.08H163.884V54H161.148L152.676 43.2V54H149.22ZM171.322 54V40.152H165.73V37.08H180.634V40.152H175.042V54H171.322ZM187.963 54.264C186.635 54.264 185.379 54.096 184.195 53.76C183.027 53.424 182.051 52.968 181.267 52.392L182.347 49.464C183.099 49.992 183.955 50.408 184.915 50.712C185.891 51.016 186.907 51.168 187.963 51.168C189.115 51.168 189.939 50.992 190.435 50.64C190.947 50.272 191.203 49.816 191.203 49.272C191.203 48.808 191.027 48.44 190.675 48.168C190.323 47.896 189.707 47.664 188.827 47.472L186.115 46.896C183.091 46.256 181.579 44.688 181.579 42.192C181.579 41.12 181.867 40.184 182.443 39.384C183.019 38.568 183.819 37.936 184.843 37.488C185.883 37.04 187.083 36.816 188.443 36.816C189.611 36.816 190.707 36.984 191.731 37.32C192.755 37.656 193.603 38.128 194.275 38.736L193.195 41.472C191.883 40.432 190.291 39.912 188.419 39.912C187.411 39.912 186.627 40.112 186.067 40.512C185.523 40.896 185.251 41.4 185.251 42.024C185.251 42.488 185.419 42.864 185.755 43.152C186.091 43.44 186.675 43.672 187.507 43.848L190.219 44.424C193.323 45.096 194.875 46.616 194.875 48.984C194.875 50.04 194.587 50.968 194.011 51.768C193.451 52.552 192.651 53.168 191.611 53.616C190.587 54.048 189.371 54.264 187.963 54.264Z" fill="#BB4F77"/>
</g>
<g filter="url(#filter1_d_182_1159)">
<path d="M61.252 76.264C59.924 76.264 58.668 76.096 57.484 75.76C56.316 75.424 55.34 74.968 54.556 74.392L55.636 71.464C56.388 71.992 57.244 72.408 58.204 72.712C59.18 73.016 60.196 73.168 61.252 73.168C62.404 73.168 63.228 72.992 63.724 72.64C64.236 72.272 64.492 71.816 64.492 71.272C64.492 70.808 64.316 70.44 63.964 70.168C63.612 69.896 62.996 69.664 62.116 69.472L59.404 68.896C56.38 68.256 54.868 66.688 54.868 64.192C54.868 63.12 55.156 62.184 55.732 61.384C56.308 60.568 57.108 59.936 58.132 59.488C59.172 59.04 60.372 58.816 61.732 58.816C62.9 58.816 63.996 58.984 65.02 59.32C66.044 59.656 66.892 60.128 67.564 60.736L66.484 63.472C65.172 62.432 63.58 61.912 61.708 61.912C60.7 61.912 59.916 62.112 59.356 62.512C58.812 62.896 58.54 63.4 58.54 64.024C58.54 64.488 58.708 64.864 59.044 65.152C59.38 65.44 59.964 65.672 60.796 65.848L63.508 66.424C66.612 67.096 68.164 68.616 68.164 70.984C68.164 72.04 67.876 72.968 67.3 73.768C66.74 74.552 65.94 75.168 64.9 75.616C63.876 76.048 62.66 76.264 61.252 76.264ZM70.579 76V59.08H82.171V61.984H74.131V65.944H81.643V68.872H74.131V73.096H82.171V76H70.579ZM85.1103 76V59.08H92.8383C94.7263 59.08 96.1823 59.536 97.2063 60.448C98.2303 61.36 98.7423 62.632 98.7423 64.264C98.7423 65.528 98.4143 66.584 97.7583 67.432C97.1183 68.264 96.1983 68.832 94.9983 69.136C95.8463 69.392 96.5423 70.008 97.0863 70.984L99.8223 76H95.7183L92.7903 70.6C92.5503 70.168 92.2543 69.872 91.9023 69.712C91.5503 69.536 91.1343 69.448 90.6543 69.448H88.8303V76H85.1103ZM88.8303 66.76H92.1663C94.1663 66.76 95.1663 65.96 95.1663 64.36C95.1663 62.776 94.1663 61.984 92.1663 61.984H88.8303V66.76ZM106.989 76L99.3811 59.08H103.365L108.597 71.224L113.829 59.08H117.645L110.037 76H106.989ZM118.931 76V59.08H122.651V76H118.931ZM134.24 76.264C132.416 76.264 130.856 75.904 129.56 75.184C128.264 74.464 127.264 73.456 126.56 72.16C125.872 70.848 125.528 69.304 125.528 67.528C125.528 65.768 125.872 64.24 126.56 62.944C127.264 61.632 128.264 60.616 129.56 59.896C130.856 59.176 132.416 58.816 134.24 58.816C135.36 58.816 136.432 58.992 137.456 59.344C138.48 59.696 139.32 60.176 139.976 60.784L138.824 63.736C138.104 63.176 137.376 62.768 136.64 62.512C135.92 62.24 135.16 62.104 134.36 62.104C132.744 62.104 131.52 62.576 130.688 63.52C129.872 64.448 129.464 65.784 129.464 67.528C129.464 69.272 129.872 70.616 130.688 71.56C131.52 72.504 132.744 72.976 134.36 72.976C135.16 72.976 135.92 72.848 136.64 72.592C137.376 72.32 138.104 71.904 138.824 71.344L139.976 74.296C139.32 74.888 138.48 75.368 137.456 75.736C136.432 76.088 135.36 76.264 134.24 76.264ZM142.415 76V59.08H154.007V61.984H145.967V65.944H153.479V68.872H145.967V73.096H154.007V76H142.415ZM162.76 76.264C161.432 76.264 160.176 76.096 158.992 75.76C157.824 75.424 156.848 74.968 156.064 74.392L157.144 71.464C157.896 71.992 158.752 72.408 159.712 72.712C160.688 73.016 161.704 73.168 162.76 73.168C163.912 73.168 164.736 72.992 165.232 72.64C165.744 72.272 166 71.816 166 71.272C166 70.808 165.824 70.44 165.472 70.168C165.12 69.896 164.504 69.664 163.624 69.472L160.912 68.896C157.888 68.256 156.376 66.688 156.376 64.192C156.376 63.12 156.664 62.184 157.24 61.384C157.816 60.568 158.616 59.936 159.64 59.488C160.68 59.04 161.88 58.816 163.24 58.816C164.408 58.816 165.504 58.984 166.528 59.32C167.552 59.656 168.4 60.128 169.072 60.736L167.992 63.472C166.68 62.432 165.088 61.912 163.216 61.912C162.208 61.912 161.424 62.112 160.864 62.512C160.32 62.896 160.048 63.4 160.048 64.024C160.048 64.488 160.216 64.864 160.552 65.152C160.888 65.44 161.472 65.672 162.304 65.848L165.016 66.424C168.12 67.096 169.672 68.616 169.672 70.984C169.672 72.04 169.384 72.968 168.808 73.768C168.248 74.552 167.448 75.168 166.408 75.616C165.384 76.048 164.168 76.264 162.76 76.264Z" fill="#BB4F77"/>
</g>
<defs>
<filter id="filter0_d_182_1159" x="24.644" y="30.816" width="180.231" height="37.448" filterUnits="userSpaceOnUse" color-interpolation-filters="sRGB">
<feFlood flood-opacity="0" result="BackgroundImageFix"/>
<feColorMatrix in="SourceAlpha" type="matrix" values="0 0 0 0 0 0 0 0 0 0 0 0 0 0 0 0 0 0 127 0" result="hardAlpha"/>
<feOffset dy="4"/>
<feGaussianBlur stdDeviation="5"/>
<feComposite in2="hardAlpha" operator="out"/>
<feColorMatrix type="matrix" values="0 0 0 0 0 0 0 0 0 0 0 0 0 0 0 0 0 0 0.25 0"/>
<feBlend mode="normal" in2="BackgroundImageFix" result="effect1_dropShadow_182_1159"/>
<feBlend mode="normal" in="SourceGraphic" in2="effect1_dropShadow_182_1159" result="shape"/>
</filter>
<filter id="filter1_d_182_1159" x="44.556" y="52.816" width="135.116" height="37.448" filterUnits="userSpaceOnUse" color-interpolation-filters="sRGB">
<feFlood flood-opacity="0" result="BackgroundImageFix"/>
<feColorMatrix in="SourceAlpha" type="matrix" values="0 0 0 0 0 0 0 0 0 0 0 0 0 0 0 0 0 0 127 0" result="hardAlpha"/>
<feOffset dy="4"/>
<feGaussianBlur stdDeviation="5"/>
<feComposite in2="hardAlpha" operator="out"/>
<feColorMatrix type="matrix" values="0 0 0 0 0 0 0 0 0 0 0 0 0 0 0 0 0 0 0.25 0"/>
<feBlend mode="normal" in2="BackgroundImageFix" result="effect1_dropShadow_182_1159"/>
<feBlend mode="normal" in="SourceGraphic" in2="effect1_dropShadow_182_1159" result="shape"/>
</filter>
</defs>
</svg>
