<svg width="389" height="297" viewBox="0 0 389 297" fill="none" xmlns="http://www.w3.org/2000/svg">
<g clip-path="url(#clip0_808_4062)">
<rect width="389" height="297" rx="30" fill="#9C003C"/>
<rect width="389" height="297" rx="24" fill="#9C003C" fill-opacity="0.58"/>
<rect width="58.5491" height="58.5734" rx="29.2746" transform="matrix(-0.593079 -0.805144 0.80593 -0.59201 341.725 81.8165)" fill="#9C003C"/>
<path d="M345.7 33.2953L357.449 34.1567C357.57 34.1656 357.685 34.1976 357.786 34.2511C357.888 34.3045 357.974 34.3783 358.041 34.4683C358.107 34.5582 358.152 34.6625 358.172 34.7752C358.193 34.8879 358.19 35.0068 358.162 35.1251L355.487 46.5816C355.431 46.8205 355.281 47.0424 355.068 47.1986C354.855 47.3548 354.598 47.4325 354.353 47.4145C354.108 47.3966 353.896 47.2845 353.762 47.1029C353.628 46.9213 353.584 46.6851 353.64 46.4462L355.809 37.1625L340.114 48.6913C339.901 48.8474 339.644 48.925 339.4 48.907C339.155 48.8891 338.942 48.777 338.808 48.5955C338.675 48.4141 338.631 48.178 338.687 47.9392C338.742 47.7005 338.893 47.4787 339.106 47.3226L354.8 35.7938L345.28 35.0965C345.035 35.0785 344.822 34.9664 344.688 34.7848C344.554 34.6032 344.511 34.367 344.566 34.1282C344.622 33.8893 344.773 33.6674 344.986 33.5112C345.198 33.355 345.455 33.2773 345.7 33.2953Z" fill="white"/>
<path d="M45.76 115.216C43.536 115.216 41.848 114.632 40.696 113.464C39.544 112.28 38.968 110.56 38.968 108.304V98.08H40.936V108.208C40.936 111.712 42.544 113.464 45.76 113.464C48.944 113.464 50.536 111.712 50.536 108.208V98.08H52.504V108.304C52.504 110.56 51.928 112.28 50.776 113.464C49.64 114.632 47.968 115.216 45.76 115.216ZM56.2849 115V103.336H58.1809V105.328C58.5649 104.592 59.1089 104.04 59.8129 103.672C60.5169 103.304 61.3089 103.12 62.1889 103.12C64.9569 103.12 66.3409 104.656 66.3409 107.728V115H64.3969V107.848C64.3969 106.76 64.1809 105.968 63.7489 105.472C63.3329 104.96 62.6609 104.704 61.7329 104.704C60.6609 104.704 59.8049 105.04 59.1649 105.712C58.5409 106.368 58.2289 107.248 58.2289 108.352V115H56.2849ZM73.5016 115.216C72.3176 115.216 71.4216 114.872 70.8136 114.184C70.2216 113.48 69.9256 112.464 69.9256 111.136V98.08H71.8696V110.992C71.8696 112.704 72.5496 113.56 73.9096 113.56C74.3096 113.56 74.6696 113.512 74.9896 113.416L74.9416 115.048C74.4456 115.16 73.9656 115.216 73.5016 115.216ZM81.7579 115.216C80.6219 115.216 79.6379 114.968 78.8059 114.472C77.9739 113.976 77.3259 113.28 76.8619 112.384C76.4139 111.472 76.1899 110.4 76.1899 109.168C76.1899 107.936 76.4139 106.872 76.8619 105.976C77.3259 105.064 77.9739 104.36 78.8059 103.864C79.6379 103.368 80.6219 103.12 81.7579 103.12C82.8779 103.12 83.8539 103.368 84.6859 103.864C85.5339 104.36 86.1819 105.064 86.6299 105.976C87.0939 106.872 87.3259 107.936 87.3259 109.168C87.3259 110.4 87.0939 111.472 86.6299 112.384C86.1819 113.28 85.5339 113.976 84.6859 114.472C83.8539 114.968 82.8779 115.216 81.7579 115.216ZM81.7579 113.656C82.8459 113.656 83.7179 113.272 84.3739 112.504C85.0299 111.72 85.3579 110.608 85.3579 109.168C85.3579 107.712 85.0299 106.6 84.3739 105.832C83.7179 105.064 82.8459 104.68 81.7579 104.68C80.6539 104.68 79.7739 105.064 79.1179 105.832C78.4779 106.6 78.1579 107.712 78.1579 109.168C78.1579 110.608 78.4779 111.72 79.1179 112.504C79.7739 113.272 80.6539 113.656 81.7579 113.656ZM95.1899 115.216C94.0219 115.216 93.0139 114.968 92.1659 114.472C91.3179 113.96 90.6619 113.248 90.1979 112.336C89.7499 111.408 89.5259 110.328 89.5259 109.096C89.5259 107.24 90.0299 105.784 91.0379 104.728C92.0459 103.656 93.4299 103.12 95.1899 103.12C95.9099 103.12 96.6219 103.248 97.3259 103.504C98.0299 103.76 98.6139 104.12 99.0779 104.584L98.4059 106C97.9419 105.552 97.4299 105.224 96.8699 105.016C96.3259 104.808 95.8059 104.704 95.3099 104.704C94.0939 104.704 93.1579 105.088 92.5019 105.856C91.8459 106.608 91.5179 107.696 91.5179 109.12C91.5179 110.512 91.8459 111.616 92.5019 112.432C93.1579 113.232 94.0939 113.632 95.3099 113.632C95.8059 113.632 96.3259 113.528 96.8699 113.32C97.4299 113.112 97.9419 112.776 98.4059 112.312L99.0779 113.728C98.6139 114.192 98.0219 114.56 97.3019 114.832C96.5979 115.088 95.8939 115.216 95.1899 115.216ZM101.355 115V98.08H103.299V108.52H103.347L108.747 103.336H111.219L105.363 108.952L111.723 115H109.251L103.347 109.528H103.299V115H101.355ZM123.191 115.216C122.391 115.216 121.671 115.064 121.031 114.76C120.407 114.44 119.911 114.008 119.543 113.464C119.175 112.92 118.991 112.312 118.991 111.64C118.991 110.792 119.207 110.12 119.639 109.624C120.087 109.128 120.815 108.776 121.823 108.568C122.847 108.344 124.239 108.232 125.999 108.232H126.767V107.488C126.767 106.496 126.559 105.784 126.143 105.352C125.743 104.904 125.095 104.68 124.199 104.68C123.495 104.68 122.815 104.784 122.159 104.992C121.503 105.184 120.831 105.504 120.143 105.952L119.471 104.536C120.079 104.104 120.815 103.76 121.679 103.504C122.559 103.248 123.399 103.12 124.199 103.12C125.703 103.12 126.815 103.488 127.535 104.224C128.271 104.96 128.639 106.104 128.639 107.656V115H126.815V112.984C126.511 113.672 126.039 114.216 125.399 114.616C124.775 115.016 124.039 115.216 123.191 115.216ZM123.503 113.752C124.463 113.752 125.247 113.424 125.855 112.768C126.463 112.096 126.767 111.248 126.767 110.224V109.504H126.023C124.727 109.504 123.703 109.568 122.951 109.696C122.215 109.808 121.695 110.016 121.391 110.32C121.103 110.608 120.959 111.008 120.959 111.52C120.959 112.176 121.183 112.712 121.631 113.128C122.095 113.544 122.719 113.752 123.503 113.752ZM141.506 115L137.162 103.336H139.202L142.49 112.72L145.898 103.336H147.554L150.914 112.744L154.25 103.336H156.194L151.826 115H149.978L146.69 105.952L143.378 115H141.506ZM163.274 115.216C162.138 115.216 161.154 114.968 160.322 114.472C159.49 113.976 158.842 113.28 158.378 112.384C157.93 111.472 157.706 110.4 157.706 109.168C157.706 107.936 157.93 106.872 158.378 105.976C158.842 105.064 159.49 104.36 160.322 103.864C161.154 103.368 162.138 103.12 163.274 103.12C164.394 103.12 165.37 103.368 166.202 103.864C167.05 104.36 167.698 105.064 168.146 105.976C168.61 106.872 168.842 107.936 168.842 109.168C168.842 110.4 168.61 111.472 168.146 112.384C167.698 113.28 167.05 113.976 166.202 114.472C165.37 114.968 164.394 115.216 163.274 115.216ZM163.274 113.656C164.362 113.656 165.234 113.272 165.89 112.504C166.546 111.72 166.874 110.608 166.874 109.168C166.874 107.712 166.546 106.6 165.89 105.832C165.234 105.064 164.362 104.68 163.274 104.68C162.17 104.68 161.29 105.064 160.634 105.832C159.994 106.6 159.674 107.712 159.674 109.168C159.674 110.608 159.994 111.72 160.634 112.504C161.29 113.272 162.17 113.656 163.274 113.656ZM171.762 115V103.336H173.658V105.424C174.282 104.016 175.562 103.24 177.498 103.096L178.194 103.024L178.338 104.704L177.114 104.848C176.01 104.944 175.17 105.296 174.594 105.904C174.018 106.496 173.73 107.312 173.73 108.352V115H171.762ZM183.939 115.216C182.755 115.216 181.859 114.872 181.251 114.184C180.659 113.48 180.363 112.464 180.363 111.136V98.08H182.307V110.992C182.307 112.704 182.987 113.56 184.347 113.56C184.747 113.56 185.107 113.512 185.427 113.416L185.379 115.048C184.883 115.16 184.403 115.216 183.939 115.216ZM191.787 115.216C190.747 115.216 189.835 114.968 189.051 114.472C188.283 113.976 187.683 113.28 187.251 112.384C186.835 111.472 186.627 110.4 186.627 109.168C186.627 107.92 186.835 106.848 187.251 105.952C187.683 105.04 188.283 104.344 189.051 103.864C189.835 103.368 190.747 103.12 191.787 103.12C192.699 103.12 193.499 103.32 194.187 103.72C194.891 104.12 195.411 104.672 195.747 105.376V98.08H197.691V115H195.795V112.864C195.459 113.6 194.939 114.176 194.235 114.592C193.531 115.008 192.715 115.216 191.787 115.216ZM192.195 113.656C193.283 113.656 194.155 113.272 194.811 112.504C195.467 111.72 195.795 110.608 195.795 109.168C195.795 107.712 195.467 106.6 194.811 105.832C194.155 105.064 193.283 104.68 192.195 104.68C191.091 104.68 190.211 105.064 189.555 105.832C188.915 106.6 188.595 107.712 188.595 109.168C188.595 110.608 188.915 111.72 189.555 112.504C190.211 113.272 191.091 113.656 192.195 113.656ZM212.352 115.216C211.216 115.216 210.232 114.968 209.4 114.472C208.568 113.976 207.92 113.28 207.456 112.384C207.008 111.472 206.784 110.4 206.784 109.168C206.784 107.936 207.008 106.872 207.456 105.976C207.92 105.064 208.568 104.36 209.4 103.864C210.232 103.368 211.216 103.12 212.352 103.12C213.472 103.12 214.448 103.368 215.28 103.864C216.128 104.36 216.776 105.064 217.224 105.976C217.688 106.872 217.92 107.936 217.92 109.168C217.92 110.4 217.688 111.472 217.224 112.384C216.776 113.28 216.128 113.976 215.28 114.472C214.448 114.968 213.472 115.216 212.352 115.216ZM212.352 113.656C213.44 113.656 214.312 113.272 214.968 112.504C215.624 111.72 215.952 110.608 215.952 109.168C215.952 107.712 215.624 106.6 214.968 105.832C214.312 105.064 213.44 104.68 212.352 104.68C211.248 104.68 210.368 105.064 209.712 105.832C209.072 106.6 208.752 107.712 208.752 109.168C208.752 110.608 209.072 111.72 209.712 112.504C210.368 113.272 211.248 113.656 212.352 113.656ZM221.346 115V104.848H219.042V103.336H221.346V102.928C221.346 101.376 221.73 100.2 222.498 99.4C223.282 98.6 224.482 98.152 226.098 98.056L227.034 98.008L227.202 99.496L226.098 99.568C225.106 99.648 224.386 99.944 223.938 100.456C223.506 100.968 223.29 101.712 223.29 102.688V103.336H226.65V104.848H223.29V115H221.346ZM239.823 115.216C238.655 115.216 237.647 114.968 236.799 114.472C235.951 113.96 235.295 113.248 234.831 112.336C234.383 111.408 234.159 110.328 234.159 109.096C234.159 107.24 234.663 105.784 235.671 104.728C236.679 103.656 238.063 103.12 239.823 103.12C240.543 103.12 241.255 103.248 241.959 103.504C242.663 103.76 243.247 104.12 243.711 104.584L243.039 106C242.575 105.552 242.063 105.224 241.503 105.016C240.959 104.808 240.439 104.704 239.943 104.704C238.727 104.704 237.791 105.088 237.135 105.856C236.479 106.608 236.151 107.696 236.151 109.12C236.151 110.512 236.479 111.616 237.135 112.432C237.791 113.232 238.727 113.632 239.943 113.632C240.439 113.632 240.959 113.528 241.503 113.32C242.063 113.112 242.575 112.776 243.039 112.312L243.711 113.728C243.247 114.192 242.655 114.56 241.935 114.832C241.231 115.088 240.527 115.216 239.823 115.216ZM250.602 115.216C249.466 115.216 248.482 114.968 247.65 114.472C246.818 113.976 246.17 113.28 245.706 112.384C245.258 111.472 245.034 110.4 245.034 109.168C245.034 107.936 245.258 106.872 245.706 105.976C246.17 105.064 246.818 104.36 247.65 103.864C248.482 103.368 249.466 103.12 250.602 103.12C251.722 103.12 252.698 103.368 253.53 103.864C254.378 104.36 255.026 105.064 255.474 105.976C255.938 106.872 256.17 107.936 256.17 109.168C256.17 110.4 255.938 111.472 255.474 112.384C255.026 113.28 254.378 113.976 253.53 114.472C252.698 114.968 251.722 115.216 250.602 115.216ZM250.602 113.656C251.69 113.656 252.562 113.272 253.218 112.504C253.874 111.72 254.202 110.608 254.202 109.168C254.202 107.712 253.874 106.6 253.218 105.832C252.562 105.064 251.69 104.68 250.602 104.68C249.498 104.68 248.618 105.064 247.962 105.832C247.322 106.6 247.002 107.712 247.002 109.168C247.002 110.608 247.322 111.72 247.962 112.504C248.618 113.272 249.498 113.656 250.602 113.656ZM259.09 115V103.336H260.986V105.328C261.37 104.592 261.914 104.04 262.618 103.672C263.322 103.304 264.114 103.12 264.994 103.12C267.762 103.12 269.146 104.656 269.146 107.728V115H267.202V107.848C267.202 106.76 266.986 105.968 266.554 105.472C266.138 104.96 265.466 104.704 264.538 104.704C263.466 104.704 262.61 105.04 261.97 105.712C261.346 106.368 261.034 107.248 261.034 108.352V115H259.09ZM273.354 115V104.848H271.05V103.336H273.354V102.928C273.354 101.376 273.738 100.2 274.506 99.4C275.29 98.6 276.49 98.152 278.106 98.056L278.994 98.008L279.114 99.52L278.106 99.568C277.114 99.632 276.394 99.928 275.946 100.456C275.514 100.968 275.298 101.712 275.298 102.688V103.336H282.498V115H280.554V104.848H275.298V115H273.354ZM280.338 100.432V98.248H282.714V100.432H280.338ZM290.577 115.216C289.537 115.216 288.625 114.968 287.84 114.472C287.073 113.976 286.473 113.28 286.041 112.384C285.625 111.472 285.417 110.4 285.417 109.168C285.417 107.92 285.625 106.848 286.041 105.952C286.473 105.04 287.073 104.344 287.84 103.864C288.625 103.368 289.537 103.12 290.577 103.12C291.489 103.12 292.289 103.32 292.977 103.72C293.681 104.12 294.201 104.672 294.537 105.376V98.08H296.481V115H294.585V112.864C294.249 113.6 293.729 114.176 293.025 114.592C292.321 115.008 291.505 115.216 290.577 115.216ZM290.985 113.656C292.073 113.656 292.945 113.272 293.601 112.504C294.257 111.72 294.585 110.608 294.585 109.168C294.585 107.712 294.257 106.6 293.601 105.832C292.945 105.064 292.073 104.68 290.985 104.68C289.881 104.68 289.001 105.064 288.345 105.832C287.705 106.6 287.385 107.712 287.385 109.168C287.385 110.608 287.705 111.72 288.345 112.504C289.001 113.272 289.881 113.656 290.985 113.656ZM305.385 115.216C303.545 115.216 302.089 114.68 301.017 113.608C299.945 112.52 299.409 111.048 299.409 109.192C299.409 107.992 299.649 106.936 300.129 106.024C300.609 105.096 301.265 104.384 302.097 103.888C302.945 103.376 303.921 103.12 305.025 103.12C306.609 103.12 307.849 103.632 308.745 104.656C309.641 105.664 310.089 107.056 310.089 108.832V109.576H301.305C301.369 110.904 301.753 111.92 302.457 112.624C303.161 113.312 304.137 113.656 305.385 113.656C306.089 113.656 306.761 113.552 307.401 113.344C308.041 113.12 308.649 112.76 309.225 112.264L309.897 113.632C309.369 114.128 308.697 114.52 307.881 114.808C307.065 115.08 306.233 115.216 305.385 115.216ZM305.073 104.56C303.969 104.56 303.097 104.904 302.457 105.592C301.817 106.28 301.441 107.184 301.329 108.304H308.409C308.361 107.12 308.049 106.2 307.473 105.544C306.913 104.888 306.113 104.56 305.073 104.56ZM312.902 115V103.336H314.798V105.328C315.182 104.592 315.726 104.04 316.43 103.672C317.134 103.304 317.926 103.12 318.806 103.12C321.574 103.12 322.958 104.656 322.958 107.728V115H321.014V107.848C321.014 106.76 320.798 105.968 320.366 105.472C319.95 104.96 319.278 104.704 318.35 104.704C317.278 104.704 316.422 105.04 315.782 105.712C315.158 106.368 314.846 107.248 314.846 108.352V115H312.902ZM331.487 115.216C330.319 115.216 329.311 114.968 328.463 114.472C327.615 113.96 326.959 113.248 326.495 112.336C326.047 111.408 325.823 110.328 325.823 109.096C325.823 107.24 326.327 105.784 327.335 104.728C328.343 103.656 329.727 103.12 331.487 103.12C332.207 103.12 332.919 103.248 333.623 103.504C334.327 103.76 334.911 104.12 335.375 104.584L334.703 106C334.239 105.552 333.727 105.224 333.167 105.016C332.623 104.808 332.103 104.704 331.607 104.704C330.391 104.704 329.455 105.088 328.799 105.856C328.143 106.608 327.815 107.696 327.815 109.12C327.815 110.512 328.143 111.616 328.799 112.432C329.455 113.232 330.391 113.632 331.607 113.632C332.103 113.632 332.623 113.528 333.167 113.32C333.727 113.112 334.239 112.776 334.703 112.312L335.375 113.728C334.911 114.192 334.319 114.56 333.599 114.832C332.895 115.088 332.191 115.216 331.487 115.216ZM342.674 115.216C340.834 115.216 339.378 114.68 338.306 113.608C337.234 112.52 336.698 111.048 336.698 109.192C336.698 107.992 336.938 106.936 337.418 106.024C337.898 105.096 338.554 104.384 339.386 103.888C340.234 103.376 341.21 103.12 342.314 103.12C343.898 103.12 345.138 103.632 346.034 104.656C346.93 105.664 347.378 107.056 347.378 108.832V109.576H338.594C338.658 110.904 339.042 111.92 339.746 112.624C340.45 113.312 341.426 113.656 342.674 113.656C343.378 113.656 344.05 113.552 344.69 113.344C345.33 113.12 345.938 112.76 346.514 112.264L347.186 113.632C346.658 114.128 345.986 114.52 345.17 114.808C344.354 115.08 343.522 115.216 342.674 115.216ZM342.362 104.56C341.258 104.56 340.386 104.904 339.746 105.592C339.106 106.28 338.73 107.184 338.618 108.304H345.698C345.65 107.12 345.338 106.2 344.762 105.544C344.202 104.888 343.402 104.56 342.362 104.56ZM41.92 143L37.576 131.336H39.616L42.904 140.72L46.312 131.336H47.968L51.328 140.744L54.664 131.336H56.608L52.24 143H50.392L47.104 133.952L43.792 143H41.92ZM58.7637 128.432V126.248H61.1637V128.432H58.7637ZM59.0037 143V131.336H60.9477V143H59.0037ZM69.2618 143.216C67.8858 143.216 66.8538 142.856 66.1658 142.136C65.4778 141.4 65.1338 140.344 65.1338 138.968V132.848H62.8538V131.336H65.1338V127.76H67.0778V131.336H70.7738V132.848H67.0778V138.776C67.0778 139.688 67.2698 140.384 67.6538 140.864C68.0378 141.328 68.6618 141.56 69.5258 141.56C69.7818 141.56 70.0378 141.528 70.2938 141.464C70.5498 141.4 70.7818 141.336 70.9898 141.272L71.3258 142.76C71.1178 142.872 70.8138 142.976 70.4138 143.072C70.0138 143.168 69.6298 143.216 69.2618 143.216ZM72.9724 143V126.08H74.9164V133.256C75.3004 132.552 75.8364 132.024 76.5244 131.672C77.2284 131.304 78.0124 131.12 78.8764 131.12C81.6444 131.12 83.0284 132.656 83.0284 135.728V143H81.0844V135.848C81.0844 134.76 80.8684 133.968 80.4364 133.472C80.0204 132.96 79.3484 132.704 78.4204 132.704C77.3484 132.704 76.4924 133.04 75.8524 133.712C75.2284 134.368 74.9164 135.248 74.9164 136.352V143H72.9724ZM97.6251 143.216C96.4891 143.216 95.5051 142.968 94.6731 142.472C93.8411 141.976 93.1931 141.28 92.7291 140.384C92.2811 139.472 92.0571 138.4 92.0571 137.168C92.0571 135.936 92.2811 134.872 92.7291 133.976C93.1931 133.064 93.8411 132.36 94.6731 131.864C95.5051 131.368 96.4891 131.12 97.6251 131.12C98.7451 131.12 99.7211 131.368 100.553 131.864C101.401 132.36 102.049 133.064 102.497 133.976C102.961 134.872 103.193 135.936 103.193 137.168C103.193 138.4 102.961 139.472 102.497 140.384C102.049 141.28 101.401 141.976 100.553 142.472C99.7211 142.968 98.7451 143.216 97.6251 143.216ZM97.6251 141.656C98.7131 141.656 99.5851 141.272 100.241 140.504C100.897 139.72 101.225 138.608 101.225 137.168C101.225 135.712 100.897 134.6 100.241 133.832C99.5851 133.064 98.7131 132.68 97.6251 132.68C96.5211 132.68 95.6411 133.064 94.9851 133.832C94.3451 134.6 94.0251 135.712 94.0251 137.168C94.0251 138.608 94.3451 139.72 94.9851 140.504C95.6411 141.272 96.5211 141.656 97.6251 141.656ZM110.241 143.216C107.441 143.216 106.041 141.672 106.041 138.584V131.336H107.985V138.56C107.985 139.6 108.193 140.368 108.609 140.864C109.041 141.36 109.713 141.608 110.625 141.608C111.617 141.608 112.425 141.28 113.049 140.624C113.673 139.952 113.985 139.064 113.985 137.96V131.336H115.929V143H114.033V141.032C113.665 141.736 113.145 142.28 112.473 142.664C111.817 143.032 111.073 143.216 110.241 143.216ZM119.566 143V131.336H121.462V133.424C122.086 132.016 123.366 131.24 125.302 131.096L125.998 131.024L126.142 132.704L124.918 132.848C123.814 132.944 122.974 133.296 122.398 133.904C121.822 134.496 121.534 135.312 121.534 136.352V143H119.566ZM138.004 143.216C137.204 143.216 136.484 143.064 135.844 142.76C135.22 142.44 134.724 142.008 134.356 141.464C133.988 140.92 133.804 140.312 133.804 139.64C133.804 138.792 134.02 138.12 134.452 137.624C134.9 137.128 135.628 136.776 136.636 136.568C137.66 136.344 139.052 136.232 140.812 136.232H141.58V135.488C141.58 134.496 141.372 133.784 140.956 133.352C140.556 132.904 139.908 132.68 139.012 132.68C138.308 132.68 137.628 132.784 136.972 132.992C136.316 133.184 135.644 133.504 134.956 133.952L134.284 132.536C134.892 132.104 135.628 131.76 136.492 131.504C137.372 131.248 138.212 131.12 139.012 131.12C140.516 131.12 141.628 131.488 142.348 132.224C143.084 132.96 143.452 134.104 143.452 135.656V143H141.628V140.984C141.324 141.672 140.852 142.216 140.212 142.616C139.588 143.016 138.852 143.216 138.004 143.216ZM138.316 141.752C139.276 141.752 140.06 141.424 140.668 140.768C141.276 140.096 141.58 139.248 141.58 138.224V137.504H140.836C139.54 137.504 138.516 137.568 137.764 137.696C137.028 137.808 136.508 138.016 136.204 138.32C135.916 138.608 135.772 139.008 135.772 139.52C135.772 140.176 135.996 140.712 136.444 141.128C136.908 141.544 137.532 141.752 138.316 141.752ZM151.498 143.216C150.458 143.216 149.546 142.968 148.762 142.472C147.994 141.976 147.394 141.28 146.962 140.384C146.546 139.472 146.338 138.4 146.338 137.168C146.338 135.92 146.546 134.848 146.962 133.952C147.394 133.04 147.994 132.344 148.762 131.864C149.546 131.368 150.458 131.12 151.498 131.12C152.41 131.12 153.21 131.32 153.898 131.72C154.602 132.12 155.122 132.672 155.458 133.376V126.08H157.402V143H155.506V140.864C155.17 141.6 154.65 142.176 153.946 142.592C153.242 143.008 152.426 143.216 151.498 143.216ZM151.906 141.656C152.994 141.656 153.866 141.272 154.522 140.504C155.178 139.72 155.506 138.608 155.506 137.168C155.506 135.712 155.178 134.6 154.522 133.832C153.866 133.064 152.994 132.68 151.906 132.68C150.802 132.68 149.922 133.064 149.266 133.832C148.626 134.6 148.306 135.712 148.306 137.168C148.306 138.608 148.626 139.72 149.266 140.504C149.922 141.272 150.802 141.656 151.906 141.656ZM164.483 143L159.467 131.336H161.579L165.443 140.792L169.355 131.336H171.347L166.307 143H164.483ZM176.84 143.216C176.04 143.216 175.32 143.064 174.68 142.76C174.056 142.44 173.56 142.008 173.192 141.464C172.824 140.92 172.64 140.312 172.64 139.64C172.64 138.792 172.856 138.12 173.288 137.624C173.736 137.128 174.464 136.776 175.472 136.568C176.496 136.344 177.888 136.232 179.648 136.232H180.416V135.488C180.416 134.496 180.208 133.784 179.792 133.352C179.392 132.904 178.744 132.68 177.848 132.68C177.144 132.68 176.464 132.784 175.808 132.992C175.152 133.184 174.48 133.504 173.792 133.952L173.12 132.536C173.728 132.104 174.464 131.76 175.328 131.504C176.208 131.248 177.048 131.12 177.848 131.12C179.352 131.12 180.464 131.488 181.184 132.224C181.92 132.96 182.288 134.104 182.288 135.656V143H180.464V140.984C180.16 141.672 179.688 142.216 179.048 142.616C178.424 143.016 177.688 143.216 176.84 143.216ZM177.152 141.752C178.112 141.752 178.896 141.424 179.504 140.768C180.112 140.096 180.416 139.248 180.416 138.224V137.504H179.672C178.376 137.504 177.352 137.568 176.6 137.696C175.864 137.808 175.344 138.016 175.04 138.32C174.752 138.608 174.608 139.008 174.608 139.52C174.608 140.176 174.832 140.712 175.28 141.128C175.744 141.544 176.368 141.752 177.152 141.752ZM185.894 143V131.336H187.79V133.328C188.174 132.592 188.718 132.04 189.422 131.672C190.126 131.304 190.918 131.12 191.798 131.12C194.566 131.12 195.95 132.656 195.95 135.728V143H194.006V135.848C194.006 134.76 193.79 133.968 193.358 133.472C192.942 132.96 192.27 132.704 191.342 132.704C190.27 132.704 189.414 133.04 188.774 133.712C188.15 134.368 187.838 135.248 187.838 136.352V143H185.894ZM204.479 143.216C203.311 143.216 202.303 142.968 201.455 142.472C200.607 141.96 199.951 141.248 199.487 140.336C199.039 139.408 198.815 138.328 198.815 137.096C198.815 135.24 199.319 133.784 200.327 132.728C201.335 131.656 202.719 131.12 204.479 131.12C205.199 131.12 205.911 131.248 206.615 131.504C207.319 131.76 207.903 132.12 208.367 132.584L207.695 134C207.231 133.552 206.719 133.224 206.159 133.016C205.615 132.808 205.095 132.704 204.599 132.704C203.383 132.704 202.447 133.088 201.791 133.856C201.135 134.608 200.807 135.696 200.807 137.12C200.807 138.512 201.135 139.616 201.791 140.432C202.447 141.232 203.383 141.632 204.599 141.632C205.095 141.632 205.615 141.528 206.159 141.32C206.719 141.112 207.231 140.776 207.695 140.312L208.367 141.728C207.903 142.192 207.311 142.56 206.591 142.832C205.887 143.088 205.183 143.216 204.479 143.216ZM215.666 143.216C213.826 143.216 212.37 142.68 211.298 141.608C210.226 140.52 209.69 139.048 209.69 137.192C209.69 135.992 209.93 134.936 210.41 134.024C210.89 133.096 211.546 132.384 212.378 131.888C213.226 131.376 214.202 131.12 215.306 131.12C216.89 131.12 218.13 131.632 219.026 132.656C219.922 133.664 220.37 135.056 220.37 136.832V137.576H211.586C211.65 138.904 212.034 139.92 212.738 140.624C213.442 141.312 214.418 141.656 215.666 141.656C216.37 141.656 217.042 141.552 217.682 141.344C218.322 141.12 218.93 140.76 219.506 140.264L220.178 141.632C219.65 142.128 218.978 142.52 218.162 142.808C217.346 143.08 216.514 143.216 215.666 143.216ZM215.354 132.56C214.25 132.56 213.378 132.904 212.738 133.592C212.098 134.28 211.722 135.184 211.61 136.304H218.69C218.642 135.12 218.33 134.2 217.754 133.544C217.194 132.888 216.394 132.56 215.354 132.56ZM227.623 143.216C226.583 143.216 225.671 142.968 224.887 142.472C224.119 141.976 223.519 141.28 223.087 140.384C222.671 139.472 222.463 138.4 222.463 137.168C222.463 135.92 222.671 134.848 223.087 133.952C223.519 133.04 224.119 132.344 224.887 131.864C225.671 131.368 226.583 131.12 227.623 131.12C228.535 131.12 229.335 131.32 230.023 131.72C230.727 132.12 231.247 132.672 231.583 133.376V126.08H233.527V143H231.631V140.864C231.295 141.6 230.775 142.176 230.071 142.592C229.367 143.008 228.551 143.216 227.623 143.216ZM228.031 141.656C229.119 141.656 229.991 141.272 230.647 140.504C231.303 139.72 231.631 138.608 231.631 137.168C231.631 135.712 231.303 134.6 230.647 133.832C229.991 133.064 229.119 132.68 228.031 132.68C226.927 132.68 226.047 133.064 225.391 133.832C224.751 134.6 224.431 135.712 224.431 137.168C224.431 138.608 224.751 139.72 225.391 140.504C226.047 141.272 226.927 141.656 228.031 141.656ZM243.34 143V126.08H245.284V133.256C245.668 132.552 246.204 132.024 246.892 131.672C247.596 131.304 248.38 131.12 249.244 131.12C252.012 131.12 253.396 132.656 253.396 135.728V143H251.452V135.848C251.452 134.76 251.236 133.968 250.804 133.472C250.388 132.96 249.716 132.704 248.788 132.704C247.716 132.704 246.86 133.04 246.22 133.712C245.596 134.368 245.284 135.248 245.284 136.352V143H243.34ZM260.652 143.216C259.852 143.216 259.132 143.064 258.492 142.76C257.868 142.44 257.372 142.008 257.004 141.464C256.636 140.92 256.452 140.312 256.452 139.64C256.452 138.792 256.668 138.12 257.1 137.624C257.548 137.128 258.276 136.776 259.284 136.568C260.308 136.344 261.7 136.232 263.46 136.232H264.228V135.488C264.228 134.496 264.02 133.784 263.604 133.352C263.204 132.904 262.556 132.68 261.66 132.68C260.956 132.68 260.276 132.784 259.62 132.992C258.964 133.184 258.292 133.504 257.604 133.952L256.932 132.536C257.54 132.104 258.276 131.76 259.14 131.504C260.02 131.248 260.86 131.12 261.66 131.12C263.164 131.12 264.276 131.488 264.996 132.224C265.732 132.96 266.1 134.104 266.1 135.656V143H264.276V140.984C263.972 141.672 263.5 142.216 262.86 142.616C262.236 143.016 261.5 143.216 260.652 143.216ZM260.964 141.752C261.924 141.752 262.708 141.424 263.316 140.768C263.924 140.096 264.228 139.248 264.228 138.224V137.504H263.484C262.188 137.504 261.164 137.568 260.412 137.696C259.676 137.808 259.156 138.016 258.852 138.32C258.564 138.608 258.42 139.008 258.42 139.52C258.42 140.176 258.644 140.712 259.092 141.128C259.556 141.544 260.18 141.752 260.964 141.752ZM269.467 128.432V126.248H271.867V128.432H269.467ZM269.707 143V131.336H271.651V143H269.707ZM275.285 143V131.336H277.181V133.424C277.805 132.016 279.085 131.24 281.021 131.096L281.717 131.024L281.861 132.704L280.637 132.848C279.533 132.944 278.693 133.296 278.117 133.904C277.541 134.496 277.253 135.312 277.253 136.352V143H275.285ZM43.504 171.216C42.128 171.216 41.096 170.856 40.408 170.136C39.72 169.4 39.376 168.344 39.376 166.968V160.848H37.096V159.336H39.376V155.76H41.32V159.336H45.016V160.848H41.32V166.776C41.32 167.688 41.512 168.384 41.896 168.864C42.28 169.328 42.904 169.56 43.768 169.56C44.024 169.56 44.28 169.528 44.536 169.464C44.792 169.4 45.024 169.336 45.232 169.272L45.568 170.76C45.36 170.872 45.056 170.976 44.656 171.072C44.256 171.168 43.872 171.216 43.504 171.216ZM47.2146 171V159.336H49.1106V161.424C49.7346 160.016 51.0146 159.24 52.9506 159.096L53.6466 159.024L53.7906 160.704L52.5666 160.848C51.4626 160.944 50.6226 161.296 50.0466 161.904C49.4706 162.496 49.1826 163.312 49.1826 164.352V171H47.2146ZM59.371 171.216C58.571 171.216 57.851 171.064 57.211 170.76C56.587 170.44 56.091 170.008 55.723 169.464C55.355 168.92 55.171 168.312 55.171 167.64C55.171 166.792 55.387 166.12 55.819 165.624C56.267 165.128 56.995 164.776 58.003 164.568C59.027 164.344 60.419 164.232 62.179 164.232H62.947V163.488C62.947 162.496 62.739 161.784 62.323 161.352C61.923 160.904 61.275 160.68 60.379 160.68C59.675 160.68 58.995 160.784 58.339 160.992C57.683 161.184 57.011 161.504 56.323 161.952L55.651 160.536C56.259 160.104 56.995 159.76 57.859 159.504C58.739 159.248 59.579 159.12 60.379 159.12C61.883 159.12 62.995 159.488 63.715 160.224C64.451 160.96 64.819 162.104 64.819 163.656V171H62.995V168.984C62.691 169.672 62.219 170.216 61.579 170.616C60.955 171.016 60.219 171.216 59.371 171.216ZM59.683 169.752C60.643 169.752 61.427 169.424 62.035 168.768C62.643 168.096 62.947 167.248 62.947 166.224V165.504H62.203C60.907 165.504 59.883 165.568 59.131 165.696C58.395 165.808 57.875 166.016 57.571 166.32C57.283 166.608 57.139 167.008 57.139 167.52C57.139 168.176 57.363 168.712 57.811 169.128C58.275 169.544 58.899 169.752 59.683 169.752ZM68.4256 171V159.336H70.3216V161.328C70.7056 160.592 71.2496 160.04 71.9536 159.672C72.6576 159.304 73.4496 159.12 74.3296 159.12C77.0976 159.12 78.4816 160.656 78.4816 163.728V171H76.5376V163.848C76.5376 162.76 76.3216 161.968 75.8896 161.472C75.4736 160.96 74.8016 160.704 73.8736 160.704C72.8016 160.704 71.9456 161.04 71.3056 161.712C70.6816 162.368 70.3696 163.248 70.3696 164.352V171H68.4256ZM86.0022 171.216C85.0902 171.216 84.2262 171.088 83.4102 170.832C82.5942 170.576 81.9222 170.216 81.3942 169.752L82.0182 168.384C82.5942 168.848 83.2262 169.192 83.9142 169.416C84.6182 169.624 85.3302 169.728 86.0502 169.728C86.9622 169.728 87.6502 169.56 88.1142 169.224C88.5782 168.888 88.8102 168.432 88.8102 167.856C88.8102 167.408 88.6582 167.056 88.3542 166.8C88.0502 166.528 87.5702 166.32 86.9142 166.176L84.7302 165.696C82.7462 165.264 81.7542 164.24 81.7542 162.624C81.7542 161.568 82.1702 160.72 83.0022 160.08C83.8502 159.44 84.9542 159.12 86.3142 159.12C87.1142 159.12 87.8742 159.248 88.5942 159.504C89.3302 159.744 89.9382 160.104 90.4182 160.584L89.7702 161.952C89.3062 161.52 88.7622 161.192 88.1382 160.968C87.5302 160.728 86.9222 160.608 86.3142 160.608C85.4182 160.608 84.7382 160.784 84.2742 161.136C83.8102 161.488 83.5782 161.952 83.5782 162.528C83.5782 163.424 84.1702 164 85.3542 164.256L87.5382 164.712C88.5622 164.936 89.3382 165.296 89.8662 165.792C90.3942 166.272 90.6582 166.928 90.6582 167.76C90.6582 168.832 90.2342 169.68 89.3862 170.304C88.5382 170.912 87.4102 171.216 86.0022 171.216ZM93.6209 175.32V159.336H95.5169V161.424C95.8689 160.704 96.3889 160.144 97.0769 159.744C97.7809 159.328 98.5969 159.12 99.5249 159.12C100.565 159.12 101.469 159.368 102.237 159.864C103.021 160.344 103.621 161.04 104.037 161.952C104.469 162.848 104.685 163.92 104.685 165.168C104.685 166.4 104.469 167.472 104.037 168.384C103.621 169.28 103.021 169.976 102.237 170.472C101.469 170.968 100.565 171.216 99.5249 171.216C98.6289 171.216 97.8289 171.016 97.1249 170.616C96.4209 170.216 95.9009 169.664 95.5649 168.96V175.32H93.6209ZM99.1169 169.656C100.205 169.656 101.077 169.272 101.733 168.504C102.389 167.72 102.717 166.608 102.717 165.168C102.717 163.712 102.389 162.6 101.733 161.832C101.077 161.064 100.205 160.68 99.1169 160.68C98.0289 160.68 97.1569 161.064 96.5009 161.832C95.8449 162.6 95.5169 163.712 95.5169 165.168C95.5169 166.608 95.8449 167.72 96.5009 168.504C97.1569 169.272 98.0289 169.656 99.1169 169.656ZM111.189 171.216C110.005 171.216 109.109 170.872 108.501 170.184C107.909 169.48 107.613 168.464 107.613 167.136V154.08H109.557V166.992C109.557 168.704 110.237 169.56 111.597 169.56C111.997 169.56 112.357 169.512 112.677 169.416L112.629 171.048C112.133 171.16 111.653 171.216 111.189 171.216ZM118.387 171.216C117.587 171.216 116.867 171.064 116.227 170.76C115.603 170.44 115.107 170.008 114.739 169.464C114.371 168.92 114.187 168.312 114.187 167.64C114.187 166.792 114.403 166.12 114.835 165.624C115.283 165.128 116.011 164.776 117.019 164.568C118.043 164.344 119.435 164.232 121.195 164.232H121.963V163.488C121.963 162.496 121.755 161.784 121.339 161.352C120.939 160.904 120.291 160.68 119.395 160.68C118.691 160.68 118.011 160.784 117.355 160.992C116.699 161.184 116.027 161.504 115.339 161.952L114.667 160.536C115.275 160.104 116.011 159.76 116.875 159.504C117.755 159.248 118.595 159.12 119.395 159.12C120.899 159.12 122.011 159.488 122.731 160.224C123.467 160.96 123.835 162.104 123.835 163.656V171H122.011V168.984C121.707 169.672 121.235 170.216 120.595 170.616C119.971 171.016 119.235 171.216 118.387 171.216ZM118.699 169.752C119.659 169.752 120.443 169.424 121.051 168.768C121.659 168.096 121.963 167.248 121.963 166.224V165.504H121.219C119.923 165.504 118.899 165.568 118.147 165.696C117.411 165.808 116.891 166.016 116.587 166.32C116.299 166.608 116.155 167.008 116.155 167.52C116.155 168.176 116.379 168.712 116.827 169.128C117.291 169.544 117.915 169.752 118.699 169.752ZM127.441 171V159.336H129.337V161.328C129.721 160.592 130.265 160.04 130.969 159.672C131.673 159.304 132.465 159.12 133.345 159.12C136.113 159.12 137.497 160.656 137.497 163.728V171H135.553V163.848C135.553 162.76 135.337 161.968 134.905 161.472C134.489 160.96 133.817 160.704 132.889 160.704C131.817 160.704 130.961 161.04 130.321 161.712C129.697 162.368 129.385 163.248 129.385 164.352V171H127.441ZM145.762 171.216C144.386 171.216 143.354 170.856 142.666 170.136C141.978 169.4 141.634 168.344 141.634 166.968V160.848H139.354V159.336H141.634V155.76H143.578V159.336H147.274V160.848H143.578V166.776C143.578 167.688 143.77 168.384 144.154 168.864C144.538 169.328 145.162 169.56 146.026 169.56C146.282 169.56 146.538 169.528 146.794 169.464C147.05 169.4 147.282 169.336 147.49 169.272L147.826 170.76C147.618 170.872 147.314 170.976 146.914 171.072C146.514 171.168 146.13 171.216 145.762 171.216ZM159.573 171.216C158.661 171.216 157.797 171.088 156.98 170.832C156.164 170.576 155.493 170.216 154.965 169.752L155.589 168.384C156.165 168.848 156.797 169.192 157.485 169.416C158.189 169.624 158.901 169.728 159.621 169.728C160.533 169.728 161.221 169.56 161.685 169.224C162.149 168.888 162.381 168.432 162.381 167.856C162.381 167.408 162.229 167.056 161.925 166.8C161.621 166.528 161.141 166.32 160.485 166.176L158.301 165.696C156.317 165.264 155.325 164.24 155.325 162.624C155.325 161.568 155.741 160.72 156.573 160.08C157.421 159.44 158.525 159.12 159.885 159.12C160.685 159.12 161.445 159.248 162.165 159.504C162.901 159.744 163.509 160.104 163.989 160.584L163.341 161.952C162.877 161.52 162.333 161.192 161.709 160.968C161.101 160.728 160.493 160.608 159.885 160.608C158.989 160.608 158.309 160.784 157.845 161.136C157.381 161.488 157.149 161.952 157.149 162.528C157.149 163.424 157.741 164 158.925 164.256L161.109 164.712C162.133 164.936 162.909 165.296 163.437 165.792C163.965 166.272 164.229 166.928 164.229 167.76C164.229 168.832 163.805 169.68 162.957 170.304C162.109 170.912 160.981 171.216 159.573 171.216ZM172.039 171.216C170.903 171.216 169.919 170.968 169.087 170.472C168.255 169.976 167.607 169.28 167.143 168.384C166.695 167.472 166.471 166.4 166.471 165.168C166.471 163.936 166.695 162.872 167.143 161.976C167.607 161.064 168.255 160.36 169.087 159.864C169.919 159.368 170.903 159.12 172.039 159.12C173.159 159.12 174.135 159.368 174.967 159.864C175.815 160.36 176.463 161.064 176.911 161.976C177.375 162.872 177.607 163.936 177.607 165.168C177.607 166.4 177.375 167.472 176.911 168.384C176.463 169.28 175.815 169.976 174.967 170.472C174.135 170.968 173.159 171.216 172.039 171.216ZM172.039 169.656C173.127 169.656 173.999 169.272 174.655 168.504C175.311 167.72 175.639 166.608 175.639 165.168C175.639 163.712 175.311 162.6 174.655 161.832C173.999 161.064 173.127 160.68 172.039 160.68C170.935 160.68 170.055 161.064 169.399 161.832C168.759 162.6 168.439 163.712 168.439 165.168C168.439 166.608 168.759 167.72 169.399 168.504C170.055 169.272 170.935 169.656 172.039 169.656ZM184.103 171.216C182.919 171.216 182.023 170.872 181.415 170.184C180.823 169.48 180.527 168.464 180.527 167.136V154.08H182.471V166.992C182.471 168.704 183.151 169.56 184.511 169.56C184.911 169.56 185.271 169.512 185.591 169.416L185.543 171.048C185.047 171.16 184.567 171.216 184.103 171.216ZM191.757 171.216C188.957 171.216 187.557 169.672 187.557 166.584V159.336H189.501V166.56C189.501 167.6 189.709 168.368 190.125 168.864C190.557 169.36 191.229 169.608 192.141 169.608C193.133 169.608 193.941 169.28 194.565 168.624C195.189 167.952 195.501 167.064 195.501 165.96V159.336H197.445V171H195.549V169.032C195.181 169.736 194.661 170.28 193.989 170.664C193.333 171.032 192.589 171.216 191.757 171.216ZM205.762 171.216C204.386 171.216 203.354 170.856 202.666 170.136C201.978 169.4 201.634 168.344 201.634 166.968V160.848H199.354V159.336H201.634V155.76H203.578V159.336H207.274V160.848H203.578V166.776C203.578 167.688 203.77 168.384 204.154 168.864C204.538 169.328 205.162 169.56 206.026 169.56C206.282 169.56 206.538 169.528 206.794 169.464C207.05 169.4 207.282 169.336 207.49 169.272L207.826 170.76C207.618 170.872 207.314 170.976 206.914 171.072C206.514 171.168 206.13 171.216 205.762 171.216ZM209.232 156.432V154.248H211.632V156.432H209.232ZM209.472 171V159.336H211.416V171H209.472ZM219.899 171.216C218.763 171.216 217.779 170.968 216.947 170.472C216.115 169.976 215.467 169.28 215.003 168.384C214.555 167.472 214.331 166.4 214.331 165.168C214.331 163.936 214.555 162.872 215.003 161.976C215.467 161.064 216.115 160.36 216.947 159.864C217.779 159.368 218.763 159.12 219.899 159.12C221.019 159.12 221.995 159.368 222.827 159.864C223.675 160.36 224.323 161.064 224.771 161.976C225.235 162.872 225.467 163.936 225.467 165.168C225.467 166.4 225.235 167.472 224.771 168.384C224.323 169.28 223.675 169.976 222.827 170.472C221.995 170.968 221.019 171.216 219.899 171.216ZM219.899 169.656C220.987 169.656 221.859 169.272 222.515 168.504C223.171 167.72 223.499 166.608 223.499 165.168C223.499 163.712 223.171 162.6 222.515 161.832C221.859 161.064 220.987 160.68 219.899 160.68C218.795 160.68 217.915 161.064 217.259 161.832C216.619 162.6 216.299 163.712 216.299 165.168C216.299 166.608 216.619 167.72 217.259 168.504C217.915 169.272 218.795 169.656 219.899 169.656ZM228.387 171V159.336H230.283V161.328C230.667 160.592 231.211 160.04 231.915 159.672C232.619 159.304 233.411 159.12 234.291 159.12C237.059 159.12 238.443 160.656 238.443 163.728V171H236.499V163.848C236.499 162.76 236.283 161.968 235.851 161.472C235.435 160.96 234.763 160.704 233.835 160.704C232.763 160.704 231.907 161.04 231.267 161.712C230.643 162.368 230.331 163.248 230.331 164.352V171H228.387ZM245.963 171.216C245.051 171.216 244.187 171.088 243.371 170.832C242.555 170.576 241.883 170.216 241.355 169.752L241.979 168.384C242.555 168.848 243.187 169.192 243.875 169.416C244.579 169.624 245.291 169.728 246.011 169.728C246.923 169.728 247.611 169.56 248.075 169.224C248.539 168.888 248.771 168.432 248.771 167.856C248.771 167.408 248.619 167.056 248.315 166.8C248.011 166.528 247.531 166.32 246.875 166.176L244.691 165.696C242.707 165.264 241.715 164.24 241.715 162.624C241.715 161.568 242.131 160.72 242.963 160.08C243.811 159.44 244.915 159.12 246.275 159.12C247.075 159.12 247.835 159.248 248.555 159.504C249.291 159.744 249.899 160.104 250.379 160.584L249.731 161.952C249.267 161.52 248.723 161.192 248.099 160.968C247.491 160.728 246.883 160.608 246.275 160.608C245.379 160.608 244.699 160.784 244.235 161.136C243.771 161.488 243.539 161.952 243.539 162.528C243.539 163.424 244.131 164 245.315 164.256L247.499 164.712C248.523 164.936 249.299 165.296 249.827 165.792C250.355 166.272 250.619 166.928 250.619 167.76C250.619 168.832 250.195 169.68 249.347 170.304C248.499 170.912 247.371 171.216 245.963 171.216ZM254.161 173.736L253.249 173.04C253.601 172.672 253.849 172.32 253.993 171.984C254.153 171.664 254.257 171.336 254.305 171H253.153V168.552H255.601V170.28C255.601 170.936 255.497 171.544 255.289 172.104C255.081 172.664 254.705 173.208 254.161 173.736ZM265.09 171V154.08H267.034V161.256C267.418 160.552 267.954 160.024 268.642 159.672C269.346 159.304 270.13 159.12 270.994 159.12C273.762 159.12 275.146 160.656 275.146 163.728V171H273.202V163.848C273.202 162.76 272.986 161.968 272.554 161.472C272.138 160.96 271.466 160.704 270.538 160.704C269.466 160.704 268.61 161.04 267.97 161.712C267.346 162.368 267.034 163.248 267.034 164.352V171H265.09ZM283.986 171.216C282.146 171.216 280.69 170.68 279.618 169.608C278.546 168.52 278.01 167.048 278.01 165.192C278.01 163.992 278.25 162.936 278.73 162.024C279.21 161.096 279.866 160.384 280.698 159.888C281.546 159.376 282.522 159.12 283.626 159.12C285.21 159.12 286.45 159.632 287.346 160.656C288.242 161.664 288.69 163.056 288.69 164.832V165.576H279.906C279.97 166.904 280.354 167.92 281.058 168.624C281.762 169.312 282.738 169.656 283.986 169.656C284.69 169.656 285.362 169.552 286.002 169.344C286.642 169.12 287.25 168.76 287.826 168.264L288.498 169.632C287.97 170.128 287.298 170.52 286.482 170.808C285.666 171.08 284.834 171.216 283.986 171.216ZM283.674 160.56C282.57 160.56 281.698 160.904 281.058 161.592C280.418 162.28 280.042 163.184 279.93 164.304H287.01C286.962 163.12 286.65 162.2 286.074 161.544C285.514 160.888 284.714 160.56 283.674 160.56ZM295.08 171.216C293.896 171.216 293 170.872 292.392 170.184C291.8 169.48 291.504 168.464 291.504 167.136V154.08H293.448V166.992C293.448 168.704 294.128 169.56 295.488 169.56C295.888 169.56 296.248 169.512 296.568 169.416L296.52 171.048C296.024 171.16 295.544 171.216 295.08 171.216ZM298.605 175.32V159.336H300.501V161.424C300.853 160.704 301.373 160.144 302.061 159.744C302.765 159.328 303.581 159.12 304.509 159.12C305.549 159.12 306.453 159.368 307.221 159.864C308.005 160.344 308.605 161.04 309.021 161.952C309.453 162.848 309.669 163.92 309.669 165.168C309.669 166.4 309.453 167.472 309.021 168.384C308.605 169.28 308.005 169.976 307.221 170.472C306.453 170.968 305.549 171.216 304.509 171.216C303.613 171.216 302.813 171.016 302.109 170.616C301.405 170.216 300.885 169.664 300.549 168.96V175.32H298.605ZM304.101 169.656C305.189 169.656 306.061 169.272 306.717 168.504C307.373 167.72 307.701 166.608 307.701 165.168C307.701 163.712 307.373 162.6 306.717 161.832C306.061 161.064 305.189 160.68 304.101 160.68C303.013 160.68 302.141 161.064 301.485 161.832C300.829 162.6 300.501 163.712 300.501 165.168C300.501 166.608 300.829 167.72 301.485 168.504C302.141 169.272 303.013 169.656 304.101 169.656ZM312.357 156.432V154.248H314.757V156.432H312.357ZM312.597 171V159.336H314.541V171H312.597ZM318.176 171V159.336H320.072V161.328C320.456 160.592 321 160.04 321.704 159.672C322.408 159.304 323.2 159.12 324.08 159.12C326.848 159.12 328.232 160.656 328.232 163.728V171H326.288V163.848C326.288 162.76 326.072 161.968 325.64 161.472C325.224 160.96 324.552 160.704 323.624 160.704C322.552 160.704 321.696 161.04 321.056 161.712C320.432 162.368 320.12 163.248 320.12 164.352V171H318.176ZM336.976 175.536C335.968 175.536 335.016 175.4 334.12 175.128C333.24 174.872 332.456 174.48 331.768 173.952L332.416 172.536C333.136 173.048 333.848 173.416 334.552 173.64C335.272 173.864 336.048 173.976 336.88 173.976C339.184 173.976 340.336 172.792 340.336 170.424V168.36C340 169.096 339.472 169.68 338.752 170.112C338.048 170.528 337.24 170.736 336.328 170.736C335.256 170.736 334.328 170.488 333.544 169.992C332.76 169.496 332.152 168.816 331.72 167.952C331.304 167.072 331.096 166.056 331.096 164.904C331.096 163.752 331.304 162.744 331.72 161.88C332.152 161 332.76 160.32 333.544 159.84C334.328 159.36 335.256 159.12 336.328 159.12C337.24 159.12 338.048 159.328 338.752 159.744C339.472 160.16 340 160.728 340.336 161.448V159.336H342.232V170.16C342.232 171.952 341.784 173.296 340.888 174.192C340.008 175.088 338.704 175.536 336.976 175.536ZM336.688 169.152C337.808 169.152 338.696 168.768 339.352 168C340.008 167.232 340.336 166.2 340.336 164.904C340.336 163.608 340.008 162.584 339.352 161.832C338.696 161.064 337.808 160.68 336.688 160.68C335.584 160.68 334.704 161.064 334.048 161.832C333.392 162.584 333.064 163.608 333.064 164.904C333.064 166.2 333.392 167.232 334.048 168C334.704 168.768 335.584 169.152 336.688 169.152ZM40.168 203.32L42.16 198.808L37.24 187.336H39.352L43.216 196.792L47.104 187.336H49.144L42.208 203.32H40.168ZM55.8361 199.216C54.7001 199.216 53.7161 198.968 52.8841 198.472C52.0521 197.976 51.4041 197.28 50.9401 196.384C50.4921 195.472 50.2681 194.4 50.2681 193.168C50.2681 191.936 50.4921 190.872 50.9401 189.976C51.4041 189.064 52.0521 188.36 52.8841 187.864C53.7161 187.368 54.7001 187.12 55.8361 187.12C56.9561 187.12 57.9321 187.368 58.7641 187.864C59.6121 188.36 60.2601 189.064 60.7081 189.976C61.1721 190.872 61.4041 191.936 61.4041 193.168C61.4041 194.4 61.1721 195.472 60.7081 196.384C60.2601 197.28 59.6121 197.976 58.7641 198.472C57.9321 198.968 56.9561 199.216 55.8361 199.216ZM55.8361 197.656C56.9241 197.656 57.7961 197.272 58.4521 196.504C59.1081 195.72 59.4361 194.608 59.4361 193.168C59.4361 191.712 59.1081 190.6 58.4521 189.832C57.7961 189.064 56.9241 188.68 55.8361 188.68C54.7321 188.68 53.8521 189.064 53.1961 189.832C52.5561 190.6 52.2361 191.712 52.2361 193.168C52.2361 194.608 52.5561 195.72 53.1961 196.504C53.8521 197.272 54.7321 197.656 55.8361 197.656ZM68.452 199.216C65.652 199.216 64.252 197.672 64.252 194.584V187.336H66.196V194.56C66.196 195.6 66.404 196.368 66.82 196.864C67.252 197.36 67.924 197.608 68.836 197.608C69.828 197.608 70.636 197.28 71.26 196.624C71.884 195.952 72.196 195.064 72.196 193.96V187.336H74.14V199H72.244V197.032C71.876 197.736 71.356 198.28 70.684 198.664C70.028 199.032 69.284 199.216 68.452 199.216ZM83.9412 199V187.336H85.8372V189.424C86.4612 188.016 87.7412 187.24 89.6772 187.096L90.3732 187.024L90.5172 188.704L89.2932 188.848C88.1892 188.944 87.3492 189.296 86.7732 189.904C86.1972 190.496 85.9092 191.312 85.9092 192.352V199H83.9412ZM97.6581 199.216C95.8181 199.216 94.3621 198.68 93.2901 197.608C92.2181 196.52 91.6821 195.048 91.6821 193.192C91.6821 191.992 91.9221 190.936 92.4021 190.024C92.8821 189.096 93.5381 188.384 94.3701 187.888C95.2181 187.376 96.1941 187.12 97.2981 187.12C98.8821 187.12 100.122 187.632 101.018 188.656C101.914 189.664 102.362 191.056 102.362 192.832V193.576H93.5781C93.6421 194.904 94.0261 195.92 94.7301 196.624C95.4341 197.312 96.4101 197.656 97.6581 197.656C98.3621 197.656 99.0341 197.552 99.6741 197.344C100.314 197.12 100.922 196.76 101.498 196.264L102.17 197.632C101.642 198.128 100.97 198.52 100.154 198.808C99.3381 199.08 98.5061 199.216 97.6581 199.216ZM97.3461 188.56C96.2421 188.56 95.3701 188.904 94.7301 189.592C94.0901 190.28 93.7141 191.184 93.6021 192.304H100.682C100.634 191.12 100.322 190.2 99.7461 189.544C99.1861 188.888 98.3861 188.56 97.3461 188.56ZM109.112 199.216C108.2 199.216 107.336 199.088 106.52 198.832C105.704 198.576 105.032 198.216 104.504 197.752L105.128 196.384C105.704 196.848 106.336 197.192 107.024 197.416C107.728 197.624 108.44 197.728 109.16 197.728C110.072 197.728 110.76 197.56 111.224 197.224C111.688 196.888 111.92 196.432 111.92 195.856C111.92 195.408 111.768 195.056 111.464 194.8C111.16 194.528 110.68 194.32 110.024 194.176L107.84 193.696C105.856 193.264 104.864 192.24 104.864 190.624C104.864 189.568 105.28 188.72 106.112 188.08C106.96 187.44 108.064 187.12 109.424 187.12C110.224 187.12 110.984 187.248 111.704 187.504C112.44 187.744 113.048 188.104 113.528 188.584L112.88 189.952C112.416 189.52 111.872 189.192 111.248 188.968C110.64 188.728 110.032 188.608 109.424 188.608C108.528 188.608 107.848 188.784 107.384 189.136C106.92 189.488 106.688 189.952 106.688 190.528C106.688 191.424 107.28 192 108.464 192.256L110.648 192.712C111.672 192.936 112.448 193.296 112.976 193.792C113.504 194.272 113.768 194.928 113.768 195.76C113.768 196.832 113.344 197.68 112.496 198.304C111.648 198.912 110.52 199.216 109.112 199.216ZM121.293 199.216C119.917 199.216 118.885 198.856 118.197 198.136C117.509 197.4 117.165 196.344 117.165 194.968V188.848H114.885V187.336H117.165V183.76H119.109V187.336H122.805V188.848H119.109V194.776C119.109 195.688 119.301 196.384 119.685 196.864C120.069 197.328 120.693 197.56 121.557 197.56C121.813 197.56 122.069 197.528 122.325 197.464C122.581 197.4 122.813 197.336 123.021 197.272L123.357 198.76C123.149 198.872 122.845 198.976 122.445 199.072C122.045 199.168 121.661 199.216 121.293 199.216ZM129.735 199.216C128.599 199.216 127.615 198.968 126.783 198.472C125.951 197.976 125.303 197.28 124.839 196.384C124.391 195.472 124.167 194.4 124.167 193.168C124.167 191.936 124.391 190.872 124.839 189.976C125.303 189.064 125.951 188.36 126.783 187.864C127.615 187.368 128.599 187.12 129.735 187.12C130.855 187.12 131.831 187.368 132.663 187.864C133.511 188.36 134.159 189.064 134.607 189.976C135.071 190.872 135.303 191.936 135.303 193.168C135.303 194.4 135.071 195.472 134.607 196.384C134.159 197.28 133.511 197.976 132.663 198.472C131.831 198.968 130.855 199.216 129.735 199.216ZM129.735 197.656C130.823 197.656 131.695 197.272 132.351 196.504C133.007 195.72 133.335 194.608 133.335 193.168C133.335 191.712 133.007 190.6 132.351 189.832C131.695 189.064 130.823 188.68 129.735 188.68C128.631 188.68 127.751 189.064 127.095 189.832C126.455 190.6 126.135 191.712 126.135 193.168C126.135 194.608 126.455 195.72 127.095 196.504C127.751 197.272 128.631 197.656 129.735 197.656ZM138.222 199V187.336H140.118V189.424C140.742 188.016 142.022 187.24 143.958 187.096L144.654 187.024L144.798 188.704L143.574 188.848C142.47 188.944 141.63 189.296 141.054 189.904C140.478 190.496 140.19 191.312 140.19 192.352V199H138.222ZM151.939 199.216C150.099 199.216 148.643 198.68 147.571 197.608C146.499 196.52 145.963 195.048 145.963 193.192C145.963 191.992 146.203 190.936 146.683 190.024C147.163 189.096 147.819 188.384 148.651 187.888C149.499 187.376 150.475 187.12 151.579 187.12C153.163 187.12 154.403 187.632 155.299 188.656C156.195 189.664 156.643 191.056 156.643 192.832V193.576H147.859C147.923 194.904 148.307 195.92 149.011 196.624C149.715 197.312 150.691 197.656 151.939 197.656C152.643 197.656 153.315 197.552 153.955 197.344C154.595 197.12 155.203 196.76 155.779 196.264L156.451 197.632C155.923 198.128 155.251 198.52 154.435 198.808C153.619 199.08 152.787 199.216 151.939 199.216ZM151.627 188.56C150.523 188.56 149.651 188.904 149.011 189.592C148.371 190.28 147.995 191.184 147.883 192.304H154.963C154.915 191.12 154.603 190.2 154.027 189.544C153.467 188.888 152.667 188.56 151.627 188.56ZM169.293 199.216C168.493 199.216 167.773 199.064 167.133 198.76C166.509 198.44 166.013 198.008 165.645 197.464C165.277 196.92 165.093 196.312 165.093 195.64C165.093 194.792 165.309 194.12 165.741 193.624C166.189 193.128 166.917 192.776 167.925 192.568C168.949 192.344 170.341 192.232 172.101 192.232H172.869V191.488C172.869 190.496 172.661 189.784 172.245 189.352C171.845 188.904 171.197 188.68 170.301 188.68C169.597 188.68 168.917 188.784 168.261 188.992C167.605 189.184 166.933 189.504 166.245 189.952L165.573 188.536C166.181 188.104 166.917 187.76 167.781 187.504C168.661 187.248 169.501 187.12 170.301 187.12C171.805 187.12 172.917 187.488 173.637 188.224C174.373 188.96 174.741 190.104 174.741 191.656V199H172.917V196.984C172.613 197.672 172.141 198.216 171.501 198.616C170.877 199.016 170.141 199.216 169.293 199.216ZM169.605 197.752C170.565 197.752 171.349 197.424 171.957 196.768C172.565 196.096 172.869 195.248 172.869 194.224V193.504H172.125C170.829 193.504 169.805 193.568 169.053 193.696C168.317 193.808 167.797 194.016 167.493 194.32C167.205 194.608 167.061 195.008 167.061 195.52C167.061 196.176 167.285 196.712 167.733 197.128C168.197 197.544 168.821 197.752 169.605 197.752ZM185.136 199V188.848H182.832V187.336H185.136V186.928C185.136 185.376 185.52 184.2 186.288 183.4C187.072 182.6 188.272 182.152 189.888 182.056L190.824 182.008L190.992 183.496L189.888 183.568C188.896 183.648 188.176 183.944 187.728 184.456C187.296 184.968 187.08 185.712 187.08 186.688V187.336H190.44V188.848H187.08V199H185.136ZM196.632 199.216C193.832 199.216 192.432 197.672 192.432 194.584V187.336H194.376V194.56C194.376 195.6 194.584 196.368 195 196.864C195.432 197.36 196.104 197.608 197.016 197.608C198.008 197.608 198.816 197.28 199.44 196.624C200.064 195.952 200.376 195.064 200.376 193.96V187.336H202.32V199H200.424V197.032C200.056 197.736 199.536 198.28 198.864 198.664C198.208 199.032 197.464 199.216 196.632 199.216ZM209.533 199.216C208.349 199.216 207.453 198.872 206.845 198.184C206.253 197.48 205.957 196.464 205.957 195.136V182.08H207.901V194.992C207.901 196.704 208.581 197.56 209.941 197.56C210.341 197.56 210.701 197.512 211.021 197.416L210.973 199.048C210.477 199.16 209.997 199.216 209.533 199.216ZM216.634 199.216C215.45 199.216 214.554 198.872 213.946 198.184C213.354 197.48 213.058 196.464 213.058 195.136V182.08H215.002V194.992C215.002 196.704 215.682 197.56 217.042 197.56C217.442 197.56 217.802 197.512 218.122 197.416L218.074 199.048C217.578 199.16 217.098 199.216 216.634 199.216ZM225.299 199.216C223.459 199.216 222.003 198.68 220.931 197.608C219.859 196.52 219.323 195.048 219.323 193.192C219.323 191.992 219.563 190.936 220.043 190.024C220.523 189.096 221.179 188.384 222.011 187.888C222.859 187.376 223.835 187.12 224.939 187.12C226.523 187.12 227.763 187.632 228.659 188.656C229.555 189.664 230.003 191.056 230.003 192.832V193.576H221.219C221.283 194.904 221.667 195.92 222.371 196.624C223.075 197.312 224.051 197.656 225.299 197.656C226.003 197.656 226.675 197.552 227.315 197.344C227.955 197.12 228.563 196.76 229.139 196.264L229.811 197.632C229.283 198.128 228.611 198.52 227.795 198.808C226.979 199.08 226.147 199.216 225.299 199.216ZM224.987 188.56C223.883 188.56 223.011 188.904 222.371 189.592C221.731 190.28 221.355 191.184 221.243 192.304H228.323C228.275 191.12 227.963 190.2 227.387 189.544C226.827 188.888 226.027 188.56 224.987 188.56ZM232.816 199V187.336H234.712V189.424C235.336 188.016 236.616 187.24 238.552 187.096L239.248 187.024L239.392 188.704L238.168 188.848C237.064 188.944 236.224 189.296 235.648 189.904C235.072 190.496 234.784 191.312 234.784 192.352V199H232.816ZM241.598 201.736L240.686 201.04C241.038 200.672 241.286 200.32 241.43 199.984C241.59 199.664 241.694 199.336 241.742 199H240.59V196.552H243.038V198.28C243.038 198.936 242.934 199.544 242.726 200.104C242.518 200.664 242.142 201.208 241.598 201.736ZM252.527 199V187.336H254.423V189.328C254.807 188.592 255.351 188.04 256.055 187.672C256.759 187.304 257.551 187.12 258.431 187.12C261.199 187.12 262.583 188.656 262.583 191.728V199H260.639V191.848C260.639 190.76 260.423 189.968 259.991 189.472C259.575 188.96 258.903 188.704 257.975 188.704C256.903 188.704 256.047 189.04 255.407 189.712C254.783 190.368 254.471 191.248 254.471 192.352V199H252.527ZM269.84 199.216C269.04 199.216 268.32 199.064 267.68 198.76C267.056 198.44 266.56 198.008 266.192 197.464C265.824 196.92 265.64 196.312 265.64 195.64C265.64 194.792 265.856 194.12 266.288 193.624C266.736 193.128 267.464 192.776 268.472 192.568C269.496 192.344 270.888 192.232 272.648 192.232H273.416V191.488C273.416 190.496 273.208 189.784 272.792 189.352C272.392 188.904 271.744 188.68 270.848 188.68C270.144 188.68 269.464 188.784 268.808 188.992C268.152 189.184 267.48 189.504 266.792 189.952L266.12 188.536C266.728 188.104 267.464 187.76 268.328 187.504C269.208 187.248 270.048 187.12 270.848 187.12C272.352 187.12 273.464 187.488 274.184 188.224C274.92 188.96 275.288 190.104 275.288 191.656V199H273.464V196.984C273.16 197.672 272.688 198.216 272.048 198.616C271.424 199.016 270.688 199.216 269.84 199.216ZM270.152 197.752C271.112 197.752 271.896 197.424 272.504 196.768C273.112 196.096 273.416 195.248 273.416 194.224V193.504H272.672C271.376 193.504 270.352 193.568 269.6 193.696C268.864 193.808 268.344 194.016 268.04 194.32C267.752 194.608 267.608 195.008 267.608 195.52C267.608 196.176 267.832 196.712 268.28 197.128C268.744 197.544 269.368 197.752 270.152 197.752ZM283.574 199.216C282.198 199.216 281.166 198.856 280.478 198.136C279.79 197.4 279.446 196.344 279.446 194.968V188.848H277.166V187.336H279.446V183.76H281.39V187.336H285.086V188.848H281.39V194.776C281.39 195.688 281.582 196.384 281.966 196.864C282.35 197.328 282.974 197.56 283.838 197.56C284.094 197.56 284.35 197.528 284.606 197.464C284.862 197.4 285.094 197.336 285.302 197.272L285.638 198.76C285.43 198.872 285.126 198.976 284.726 199.072C284.326 199.168 283.942 199.216 283.574 199.216ZM291.413 199.216C288.613 199.216 287.213 197.672 287.213 194.584V187.336H289.157V194.56C289.157 195.6 289.365 196.368 289.781 196.864C290.213 197.36 290.885 197.608 291.797 197.608C292.789 197.608 293.597 197.28 294.221 196.624C294.845 195.952 295.157 195.064 295.157 193.96V187.336H297.101V199H295.205V197.032C294.837 197.736 294.317 198.28 293.645 198.664C292.989 199.032 292.245 199.216 291.413 199.216ZM300.738 199V187.336H302.634V189.424C303.258 188.016 304.538 187.24 306.474 187.096L307.17 187.024L307.314 188.704L306.09 188.848C304.986 188.944 304.146 189.296 303.57 189.904C302.994 190.496 302.706 191.312 302.706 192.352V199H300.738ZM312.894 199.216C312.094 199.216 311.374 199.064 310.734 198.76C310.11 198.44 309.614 198.008 309.246 197.464C308.878 196.92 308.694 196.312 308.694 195.64C308.694 194.792 308.91 194.12 309.342 193.624C309.79 193.128 310.518 192.776 311.526 192.568C312.55 192.344 313.942 192.232 315.702 192.232H316.47V191.488C316.47 190.496 316.262 189.784 315.846 189.352C315.446 188.904 314.798 188.68 313.902 188.68C313.198 188.68 312.518 188.784 311.862 188.992C311.206 189.184 310.534 189.504 309.846 189.952L309.174 188.536C309.782 188.104 310.518 187.76 311.382 187.504C312.262 187.248 313.102 187.12 313.902 187.12C315.406 187.12 316.518 187.488 317.238 188.224C317.974 188.96 318.342 190.104 318.342 191.656V199H316.518V196.984C316.214 197.672 315.742 198.216 315.102 198.616C314.478 199.016 313.742 199.216 312.894 199.216ZM313.206 197.752C314.166 197.752 314.95 197.424 315.558 196.768C316.166 196.096 316.47 195.248 316.47 194.224V193.504H315.726C314.43 193.504 313.406 193.568 312.654 193.696C311.918 193.808 311.398 194.016 311.094 194.32C310.806 194.608 310.662 195.008 310.662 195.52C310.662 196.176 310.886 196.712 311.334 197.128C311.798 197.544 312.422 197.752 313.206 197.752ZM325.525 199.216C324.341 199.216 323.445 198.872 322.837 198.184C322.245 197.48 321.949 196.464 321.949 195.136V182.08H323.893V194.992C323.893 196.704 324.573 197.56 325.933 197.56C326.333 197.56 326.693 197.512 327.013 197.416L326.965 199.048C326.469 199.16 325.989 199.216 325.525 199.216ZM328.767 193.408V191.8H335.487V193.408H328.767ZM42.4 227.216C41.216 227.216 40.32 226.872 39.712 226.184C39.12 225.48 38.824 224.464 38.824 223.136V210.08H40.768V222.992C40.768 224.704 41.448 225.56 42.808 225.56C43.208 225.56 43.568 225.512 43.888 225.416L43.84 227.048C43.344 227.16 42.864 227.216 42.4 227.216ZM50.6564 227.216C49.5204 227.216 48.5364 226.968 47.7044 226.472C46.8724 225.976 46.2244 225.28 45.7604 224.384C45.3124 223.472 45.0884 222.4 45.0884 221.168C45.0884 219.936 45.3124 218.872 45.7604 217.976C46.2244 217.064 46.8724 216.36 47.7044 215.864C48.5364 215.368 49.5204 215.12 50.6564 215.12C51.7764 215.12 52.7524 215.368 53.5844 215.864C54.4324 216.36 55.0804 217.064 55.5284 217.976C55.9924 218.872 56.2244 219.936 56.2244 221.168C56.2244 222.4 55.9924 223.472 55.5284 224.384C55.0804 225.28 54.4324 225.976 53.5844 226.472C52.7524 226.968 51.7764 227.216 50.6564 227.216ZM50.6564 225.656C51.7444 225.656 52.6164 225.272 53.2724 224.504C53.9284 223.72 54.2564 222.608 54.2564 221.168C54.2564 219.712 53.9284 218.6 53.2724 217.832C52.6164 217.064 51.7444 216.68 50.6564 216.68C49.5524 216.68 48.6724 217.064 48.0164 217.832C47.3764 218.6 47.0564 219.712 47.0564 221.168C47.0564 222.608 47.3764 223.72 48.0164 224.504C48.6724 225.272 49.5524 225.656 50.6564 225.656ZM63.9923 227.216C62.8563 227.216 61.8723 226.968 61.0403 226.472C60.2083 225.976 59.5603 225.28 59.0963 224.384C58.6483 223.472 58.4243 222.4 58.4243 221.168C58.4243 219.936 58.6483 218.872 59.0963 217.976C59.5603 217.064 60.2083 216.36 61.0403 215.864C61.8723 215.368 62.8563 215.12 63.9923 215.12C65.1123 215.12 66.0883 215.368 66.9203 215.864C67.7683 216.36 68.4163 217.064 68.8643 217.976C69.3283 218.872 69.5603 219.936 69.5603 221.168C69.5603 222.4 69.3283 223.472 68.8643 224.384C68.4163 225.28 67.7683 225.976 66.9203 226.472C66.0883 226.968 65.1123 227.216 63.9923 227.216ZM63.9923 225.656C65.0803 225.656 65.9523 225.272 66.6083 224.504C67.2643 223.72 67.5923 222.608 67.5923 221.168C67.5923 219.712 67.2643 218.6 66.6083 217.832C65.9523 217.064 65.0803 216.68 63.9923 216.68C62.8883 216.68 62.0083 217.064 61.3523 217.832C60.7123 218.6 60.3923 219.712 60.3923 221.168C60.3923 222.608 60.7123 223.72 61.3523 224.504C62.0083 225.272 62.8883 225.656 63.9923 225.656ZM72.4803 227V210.08H74.4243V220.52H74.4723L79.8723 215.336H82.3443L76.4883 220.952L82.8483 227H80.3763L74.4723 221.528H74.4243V227H72.4803ZM84.2402 212.432V210.248H86.6403V212.432H84.2402ZM84.4803 227V215.336H86.4243V227H84.4803ZM90.0584 227V215.336H91.9544V217.328C92.3384 216.592 92.8824 216.04 93.5864 215.672C94.2904 215.304 95.0824 215.12 95.9624 215.12C98.7304 215.12 100.114 216.656 100.114 219.728V227H98.1704V219.848C98.1704 218.76 97.9544 217.968 97.5224 217.472C97.1064 216.96 96.4344 216.704 95.5064 216.704C94.4344 216.704 93.5784 217.04 92.9384 217.712C92.3144 218.368 92.0024 219.248 92.0024 220.352V227H90.0584ZM108.859 231.536C107.851 231.536 106.899 231.4 106.003 231.128C105.123 230.872 104.339 230.48 103.651 229.952L104.299 228.536C105.019 229.048 105.731 229.416 106.435 229.64C107.155 229.864 107.931 229.976 108.763 229.976C111.067 229.976 112.219 228.792 112.219 226.424V224.36C111.883 225.096 111.355 225.68 110.635 226.112C109.931 226.528 109.123 226.736 108.211 226.736C107.139 226.736 106.211 226.488 105.427 225.992C104.643 225.496 104.035 224.816 103.603 223.952C103.187 223.072 102.979 222.056 102.979 220.904C102.979 219.752 103.187 218.744 103.603 217.88C104.035 217 104.643 216.32 105.427 215.84C106.211 215.36 107.139 215.12 108.211 215.12C109.123 215.12 109.931 215.328 110.635 215.744C111.355 216.16 111.883 216.728 112.219 217.448V215.336H114.115V226.16C114.115 227.952 113.667 229.296 112.771 230.192C111.891 231.088 110.587 231.536 108.859 231.536ZM108.571 225.152C109.691 225.152 110.579 224.768 111.235 224C111.891 223.232 112.219 222.2 112.219 220.904C112.219 219.608 111.891 218.584 111.235 217.832C110.579 217.064 109.691 216.68 108.571 216.68C107.467 216.68 106.587 217.064 105.931 217.832C105.275 218.584 104.947 219.608 104.947 220.904C104.947 222.2 105.275 223.232 105.931 224C106.587 224.768 107.467 225.152 108.571 225.152ZM123.926 227V210.08H125.87V217.256C126.254 216.552 126.79 216.024 127.478 215.672C128.182 215.304 128.966 215.12 129.83 215.12C132.598 215.12 133.982 216.656 133.982 219.728V227H132.038V219.848C132.038 218.76 131.822 217.968 131.39 217.472C130.974 216.96 130.302 216.704 129.374 216.704C128.302 216.704 127.446 217.04 126.806 217.712C126.182 218.368 125.87 219.248 125.87 220.352V227H123.926ZM142.822 227.216C140.982 227.216 139.526 226.68 138.454 225.608C137.382 224.52 136.846 223.048 136.846 221.192C136.846 219.992 137.086 218.936 137.566 218.024C138.046 217.096 138.702 216.384 139.534 215.888C140.382 215.376 141.358 215.12 142.462 215.12C144.046 215.12 145.286 215.632 146.182 216.656C147.078 217.664 147.526 219.056 147.526 220.832V221.576H138.742C138.806 222.904 139.19 223.92 139.894 224.624C140.598 225.312 141.574 225.656 142.822 225.656C143.526 225.656 144.198 225.552 144.838 225.344C145.478 225.12 146.086 224.76 146.662 224.264L147.334 225.632C146.806 226.128 146.134 226.52 145.318 226.808C144.502 227.08 143.67 227.216 142.822 227.216ZM142.51 216.56C141.406 216.56 140.534 216.904 139.894 217.592C139.254 218.28 138.878 219.184 138.766 220.304H145.846C145.798 219.12 145.486 218.2 144.91 217.544C144.35 216.888 143.55 216.56 142.51 216.56ZM154.012 227.216C153.212 227.216 152.492 227.064 151.852 226.76C151.228 226.44 150.732 226.008 150.364 225.464C149.996 224.92 149.812 224.312 149.812 223.64C149.812 222.792 150.028 222.12 150.46 221.624C150.908 221.128 151.636 220.776 152.644 220.568C153.668 220.344 155.06 220.232 156.82 220.232H157.588V219.488C157.588 218.496 157.38 217.784 156.964 217.352C156.564 216.904 155.916 216.68 155.02 216.68C154.316 216.68 153.636 216.784 152.98 216.992C152.324 217.184 151.652 217.504 150.964 217.952L150.292 216.536C150.9 216.104 151.636 215.76 152.5 215.504C153.38 215.248 154.22 215.12 155.02 215.12C156.524 215.12 157.636 215.488 158.356 216.224C159.092 216.96 159.46 218.104 159.46 219.656V227H157.636V224.984C157.332 225.672 156.86 226.216 156.22 226.616C155.596 227.016 154.86 227.216 154.012 227.216ZM154.324 225.752C155.284 225.752 156.068 225.424 156.676 224.768C157.284 224.096 157.588 223.248 157.588 222.224V221.504H156.844C155.548 221.504 154.524 221.568 153.772 221.696C153.036 221.808 152.516 222.016 152.212 222.32C151.924 222.608 151.78 223.008 151.78 223.52C151.78 224.176 152.004 224.712 152.452 225.128C152.916 225.544 153.54 225.752 154.324 225.752ZM167.506 227.216C166.466 227.216 165.554 226.968 164.77 226.472C164.002 225.976 163.402 225.28 162.97 224.384C162.554 223.472 162.346 222.4 162.346 221.168C162.346 219.92 162.554 218.848 162.97 217.952C163.402 217.04 164.002 216.344 164.77 215.864C165.554 215.368 166.466 215.12 167.506 215.12C168.418 215.12 169.218 215.32 169.906 215.72C170.61 216.12 171.13 216.672 171.466 217.376V210.08H173.41V227H171.514V224.864C171.178 225.6 170.658 226.176 169.954 226.592C169.25 227.008 168.434 227.216 167.506 227.216ZM167.914 225.656C169.002 225.656 169.874 225.272 170.53 224.504C171.186 223.72 171.514 222.608 171.514 221.168C171.514 219.712 171.186 218.6 170.53 217.832C169.874 217.064 169.002 216.68 167.914 216.68C166.81 216.68 165.93 217.064 165.274 217.832C164.634 218.6 164.314 219.712 164.314 221.168C164.314 222.608 164.634 223.72 165.274 224.504C165.93 225.272 166.81 225.656 167.914 225.656ZM188.07 227.216C186.934 227.216 185.95 226.968 185.118 226.472C184.286 225.976 183.638 225.28 183.174 224.384C182.726 223.472 182.502 222.4 182.502 221.168C182.502 219.936 182.726 218.872 183.174 217.976C183.638 217.064 184.286 216.36 185.118 215.864C185.95 215.368 186.934 215.12 188.07 215.12C189.19 215.12 190.166 215.368 190.998 215.864C191.846 216.36 192.494 217.064 192.942 217.976C193.406 218.872 193.638 219.936 193.638 221.168C193.638 222.4 193.406 223.472 192.942 224.384C192.494 225.28 191.846 225.976 190.998 226.472C190.166 226.968 189.19 227.216 188.07 227.216ZM188.07 225.656C189.158 225.656 190.03 225.272 190.686 224.504C191.342 223.72 191.67 222.608 191.67 221.168C191.67 219.712 191.342 218.6 190.686 217.832C190.03 217.064 189.158 216.68 188.07 216.68C186.966 216.68 186.086 217.064 185.43 217.832C184.79 218.6 184.47 219.712 184.47 221.168C184.47 222.608 184.79 223.72 185.43 224.504C186.086 225.272 186.966 225.656 188.07 225.656ZM197.065 227V216.848H194.761V215.336H197.065V214.928C197.065 213.376 197.449 212.2 198.217 211.4C199.001 210.6 200.201 210.152 201.817 210.056L202.753 210.008L202.921 211.496L201.817 211.568C200.825 211.648 200.105 211.944 199.657 212.456C199.225 212.968 199.009 213.712 199.009 214.688V215.336H202.369V216.848H199.009V227H197.065ZM210.597 227V210.08H212.541V217.256C212.925 216.552 213.461 216.024 214.149 215.672C214.853 215.304 215.637 215.12 216.501 215.12C219.269 215.12 220.653 216.656 220.653 219.728V227H218.709V219.848C218.709 218.76 218.493 217.968 218.061 217.472C217.645 216.96 216.973 216.704 216.045 216.704C214.973 216.704 214.117 217.04 213.477 217.712C212.853 218.368 212.541 219.248 212.541 220.352V227H210.597ZM227.91 227.216C227.11 227.216 226.39 227.064 225.75 226.76C225.126 226.44 224.63 226.008 224.262 225.464C223.894 224.92 223.71 224.312 223.71 223.64C223.71 222.792 223.926 222.12 224.358 221.624C224.806 221.128 225.534 220.776 226.542 220.568C227.566 220.344 228.958 220.232 230.718 220.232H231.486V219.488C231.486 218.496 231.278 217.784 230.862 217.352C230.462 216.904 229.814 216.68 228.918 216.68C228.214 216.68 227.534 216.784 226.878 216.992C226.222 217.184 225.55 217.504 224.862 217.952L224.19 216.536C224.798 216.104 225.534 215.76 226.398 215.504C227.278 215.248 228.118 215.12 228.918 215.12C230.422 215.12 231.534 215.488 232.254 216.224C232.99 216.96 233.358 218.104 233.358 219.656V227H231.534V224.984C231.23 225.672 230.758 226.216 230.118 226.616C229.494 227.016 228.758 227.216 227.91 227.216ZM228.222 225.752C229.182 225.752 229.966 225.424 230.574 224.768C231.182 224.096 231.486 223.248 231.486 222.224V221.504H230.742C229.446 221.504 228.422 221.568 227.67 221.696C226.934 221.808 226.414 222.016 226.11 222.32C225.822 222.608 225.678 223.008 225.678 223.52C225.678 224.176 225.902 224.712 226.35 225.128C226.814 225.544 227.438 225.752 228.222 225.752ZM236.725 212.432V210.248H239.125V212.432H236.725ZM236.965 227V215.336H238.909V227H236.965ZM242.543 227V215.336H244.439V217.424C245.063 216.016 246.343 215.24 248.279 215.096L248.975 215.024L249.119 216.704L247.895 216.848C246.791 216.944 245.951 217.296 245.375 217.904C244.799 218.496 244.511 219.312 244.511 220.352V227H242.543ZM250.317 227V224.552H252.765V227H250.317Z" fill="white"/>
</g>
<defs>
<clipPath id="clip0_808_4062">
<rect width="389" height="297" rx="30" fill="white"/>
</clipPath>
</defs>
</svg>
