<svg width="389" height="297" viewBox="0 0 389 297" fill="none" xmlns="http://www.w3.org/2000/svg">
<g clip-path="url(#clip0_808_4063)">
<rect width="389" height="297" rx="30" fill="#9C003C"/>
<rect width="389" height="297" rx="24" fill="#9C003C" fill-opacity="0.58"/>
<rect width="58.5491" height="58.5734" rx="29.2746" transform="matrix(-0.593079 -0.805144 0.80593 -0.59201 341.725 81.8165)" fill="#9C003C"/>
<path d="M345.7 33.2953L357.449 34.1567C357.57 34.1656 357.685 34.1976 357.786 34.2511C357.888 34.3045 357.974 34.3783 358.041 34.4683C358.107 34.5582 358.152 34.6625 358.172 34.7752C358.193 34.8879 358.19 35.0068 358.162 35.1251L355.487 46.5816C355.431 46.8205 355.281 47.0424 355.068 47.1986C354.855 47.3548 354.598 47.4325 354.353 47.4145C354.108 47.3966 353.896 47.2845 353.762 47.1029C353.628 46.9213 353.584 46.6851 353.64 46.4462L355.809 37.1625L340.114 48.6913C339.901 48.8474 339.644 48.925 339.4 48.907C339.155 48.8891 338.942 48.777 338.808 48.5955C338.675 48.4141 338.631 48.178 338.687 47.9392C338.742 47.7005 338.893 47.4787 339.106 47.3226L354.8 35.7938L345.28 35.0965C345.035 35.0785 344.822 34.9664 344.688 34.7848C344.554 34.6032 344.511 34.367 344.566 34.1282C344.622 33.8893 344.773 33.6674 344.986 33.5112C345.198 33.355 345.455 33.2773 345.7 33.2953Z" fill="white"/>
<path d="M43.24 115V99.784H37.096V98.08H51.376V99.784H45.232V115H43.24ZM55.6551 115.216C52.8551 115.216 51.4551 113.672 51.4551 110.584V103.336H53.3991V110.56C53.3991 111.6 53.6071 112.368 54.0231 112.864C54.4551 113.36 55.1271 113.608 56.0391 113.608C57.0311 113.608 57.8391 113.28 58.4631 112.624C59.0871 111.952 59.3991 111.064 59.3991 109.96V103.336H61.3431V115H59.4471V113.032C59.0791 113.736 58.5591 114.28 57.8871 114.664C57.2311 115.032 56.4871 115.216 55.6551 115.216ZM64.9803 115V103.336H66.8763V105.424C67.5003 104.016 68.7803 103.24 70.7163 103.096L71.4123 103.024L71.5563 104.704L70.3323 104.848C69.2283 104.944 68.3883 105.296 67.8123 105.904C67.2363 106.496 66.9483 107.312 66.9483 108.352V115H64.9803ZM73.5818 115V103.336H75.4778V105.328C75.8618 104.592 76.4058 104.04 77.1098 103.672C77.8138 103.304 78.6058 103.12 79.4858 103.12C82.2538 103.12 83.6378 104.656 83.6378 107.728V115H81.6938V107.848C81.6938 106.76 81.4778 105.968 81.0458 105.472C80.6298 104.96 79.9578 104.704 79.0298 104.704C77.9578 104.704 77.1018 105.04 76.4618 105.712C75.8378 106.368 75.5258 107.248 75.5258 108.352V115H73.5818ZM99.2905 115.216C98.3625 115.216 97.5465 115.008 96.8425 114.592C96.1545 114.176 95.6345 113.608 95.2825 112.888V115H93.3865V98.08H95.3305V105.352C95.6665 104.664 96.1865 104.12 96.8905 103.72C97.5945 103.32 98.3945 103.12 99.2905 103.12C100.331 103.12 101.235 103.368 102.003 103.864C102.787 104.344 103.387 105.04 103.803 105.952C104.235 106.848 104.451 107.92 104.451 109.168C104.451 110.4 104.235 111.472 103.803 112.384C103.387 113.28 102.787 113.976 102.003 114.472C101.235 114.968 100.331 115.216 99.2905 115.216ZM98.8825 113.656C99.9705 113.656 100.843 113.272 101.499 112.504C102.155 111.72 102.483 110.608 102.483 109.168C102.483 107.712 102.155 106.6 101.499 105.832C100.843 105.064 99.9705 104.68 98.8825 104.68C97.7945 104.68 96.9225 105.064 96.2665 105.832C95.6105 106.6 95.2825 107.712 95.2825 109.168C95.2825 110.608 95.6105 111.72 96.2665 112.504C96.9225 113.272 97.7945 113.656 98.8825 113.656ZM111.051 115.216C110.251 115.216 109.531 115.064 108.891 114.76C108.267 114.44 107.771 114.008 107.403 113.464C107.035 112.92 106.851 112.312 106.851 111.64C106.851 110.792 107.067 110.12 107.499 109.624C107.947 109.128 108.675 108.776 109.683 108.568C110.707 108.344 112.099 108.232 113.859 108.232H114.627V107.488C114.627 106.496 114.419 105.784 114.003 105.352C113.603 104.904 112.955 104.68 112.059 104.68C111.355 104.68 110.675 104.784 110.019 104.992C109.363 105.184 108.691 105.504 108.003 105.952L107.331 104.536C107.939 104.104 108.675 103.76 109.539 103.504C110.419 103.248 111.259 103.12 112.059 103.12C113.563 103.12 114.675 103.488 115.395 104.224C116.131 104.96 116.499 106.104 116.499 107.656V115H114.675V112.984C114.371 113.672 113.899 114.216 113.259 114.616C112.635 115.016 111.899 115.216 111.051 115.216ZM111.363 113.752C112.323 113.752 113.107 113.424 113.715 112.768C114.323 112.096 114.627 111.248 114.627 110.224V109.504H113.883C112.587 109.504 111.563 109.568 110.811 109.696C110.075 109.808 109.555 110.016 109.251 110.32C108.963 110.608 108.819 111.008 108.819 111.52C108.819 112.176 109.043 112.712 109.491 113.128C109.955 113.544 110.579 113.752 111.363 113.752ZM125.049 115.216C123.881 115.216 122.873 114.968 122.025 114.472C121.177 113.96 120.521 113.248 120.057 112.336C119.609 111.408 119.385 110.328 119.385 109.096C119.385 107.24 119.889 105.784 120.897 104.728C121.905 103.656 123.289 103.12 125.049 103.12C125.769 103.12 126.481 103.248 127.185 103.504C127.889 103.76 128.473 104.12 128.937 104.584L128.265 106C127.801 105.552 127.289 105.224 126.729 105.016C126.185 104.808 125.665 104.704 125.169 104.704C123.953 104.704 123.017 105.088 122.361 105.856C121.705 106.608 121.377 107.696 121.377 109.12C121.377 110.512 121.705 111.616 122.361 112.432C123.017 113.232 123.953 113.632 125.169 113.632C125.665 113.632 126.185 113.528 126.729 113.32C127.289 113.112 127.801 112.776 128.265 112.312L128.937 113.728C128.473 114.192 127.881 114.56 127.161 114.832C126.457 115.088 125.753 115.216 125.049 115.216ZM131.215 115V98.08H133.159V108.52H133.207L138.607 103.336H141.079L135.223 108.952L141.583 115H139.111L133.207 109.528H133.159V115H131.215ZM154.059 115.216C152.683 115.216 151.651 114.856 150.963 114.136C150.275 113.4 149.931 112.344 149.931 110.968V104.848H147.651V103.336H149.931V99.76H151.875V103.336H155.571V104.848H151.875V110.776C151.875 111.688 152.067 112.384 152.451 112.864C152.835 113.328 153.459 113.56 154.323 113.56C154.579 113.56 154.835 113.528 155.091 113.464C155.347 113.4 155.579 113.336 155.787 113.272L156.123 114.76C155.915 114.872 155.611 114.976 155.211 115.072C154.811 115.168 154.427 115.216 154.059 115.216ZM157.769 115V98.08H159.713V105.256C160.097 104.552 160.633 104.024 161.321 103.672C162.025 103.304 162.809 103.12 163.673 103.12C166.441 103.12 167.825 104.656 167.825 107.728V115H165.881V107.848C165.881 106.76 165.665 105.968 165.233 105.472C164.817 104.96 164.145 104.704 163.217 104.704C162.145 104.704 161.289 105.04 160.649 105.712C160.025 106.368 159.713 107.248 159.713 108.352V115H157.769ZM176.666 115.216C174.826 115.216 173.37 114.68 172.298 113.608C171.226 112.52 170.69 111.048 170.69 109.192C170.69 107.992 170.93 106.936 171.41 106.024C171.89 105.096 172.546 104.384 173.378 103.888C174.226 103.376 175.202 103.12 176.306 103.12C177.89 103.12 179.13 103.632 180.026 104.656C180.922 105.664 181.37 107.056 181.37 108.832V109.576H172.586C172.65 110.904 173.034 111.92 173.738 112.624C174.442 113.312 175.418 113.656 176.666 113.656C177.37 113.656 178.042 113.552 178.682 113.344C179.322 113.12 179.93 112.76 180.506 112.264L181.178 113.632C180.65 114.128 179.978 114.52 179.162 114.808C178.346 115.08 177.514 115.216 176.666 115.216ZM176.354 104.56C175.25 104.56 174.378 104.904 173.738 105.592C173.098 106.28 172.722 107.184 172.61 108.304H179.69C179.642 107.12 179.33 106.2 178.754 105.544C178.194 104.888 177.394 104.56 176.354 104.56ZM190.347 115V98.08H192.291V105.256C192.675 104.552 193.211 104.024 193.899 103.672C194.603 103.304 195.387 103.12 196.251 103.12C199.019 103.12 200.403 104.656 200.403 107.728V115H198.459V107.848C198.459 106.76 198.243 105.968 197.811 105.472C197.395 104.96 196.723 104.704 195.795 104.704C194.723 104.704 193.867 105.04 193.227 105.712C192.603 106.368 192.291 107.248 192.291 108.352V115H190.347ZM207.66 115.216C206.86 115.216 206.14 115.064 205.5 114.76C204.876 114.44 204.38 114.008 204.012 113.464C203.644 112.92 203.46 112.312 203.46 111.64C203.46 110.792 203.676 110.12 204.108 109.624C204.556 109.128 205.284 108.776 206.292 108.568C207.316 108.344 208.708 108.232 210.468 108.232H211.236V107.488C211.236 106.496 211.028 105.784 210.612 105.352C210.212 104.904 209.564 104.68 208.668 104.68C207.964 104.68 207.284 104.784 206.628 104.992C205.972 105.184 205.3 105.504 204.612 105.952L203.94 104.536C204.548 104.104 205.284 103.76 206.148 103.504C207.028 103.248 207.868 103.12 208.668 103.12C210.172 103.12 211.284 103.488 212.004 104.224C212.74 104.96 213.108 106.104 213.108 107.656V115H211.284V112.984C210.98 113.672 210.508 114.216 209.868 114.616C209.244 115.016 208.508 115.216 207.66 115.216ZM207.972 113.752C208.932 113.752 209.716 113.424 210.324 112.768C210.932 112.096 211.236 111.248 211.236 110.224V109.504H210.492C209.196 109.504 208.172 109.568 207.42 109.696C206.684 109.808 206.164 110.016 205.86 110.32C205.572 110.608 205.428 111.008 205.428 111.52C205.428 112.176 205.652 112.712 206.1 113.128C206.564 113.544 207.188 113.752 207.972 113.752ZM216.715 115V103.336H218.611V105.328C218.995 104.592 219.539 104.04 220.243 103.672C220.947 103.304 221.739 103.12 222.619 103.12C225.387 103.12 226.771 104.656 226.771 107.728V115H224.827V107.848C224.827 106.76 224.611 105.968 224.179 105.472C223.763 104.96 223.091 104.704 222.163 104.704C221.091 104.704 220.235 105.04 219.595 105.712C218.971 106.368 218.659 107.248 218.659 108.352V115H216.715ZM234.795 115.216C233.755 115.216 232.843 114.968 232.059 114.472C231.291 113.976 230.691 113.28 230.259 112.384C229.843 111.472 229.635 110.4 229.635 109.168C229.635 107.92 229.843 106.848 230.259 105.952C230.691 105.04 231.291 104.344 232.059 103.864C232.843 103.368 233.755 103.12 234.795 103.12C235.707 103.12 236.507 103.32 237.195 103.72C237.899 104.12 238.419 104.672 238.755 105.376V98.08H240.699V115H238.803V112.864C238.467 113.6 237.947 114.176 237.243 114.592C236.539 115.008 235.723 115.216 234.795 115.216ZM235.203 113.656C236.291 113.656 237.163 113.272 237.819 112.504C238.475 111.72 238.803 110.608 238.803 109.168C238.803 107.712 238.475 106.6 237.819 105.832C237.163 105.064 236.291 104.68 235.203 104.68C234.099 104.68 233.219 105.064 232.563 105.832C231.923 106.6 231.603 107.712 231.603 109.168C231.603 110.608 231.923 111.72 232.563 112.504C233.219 113.272 234.099 113.656 235.203 113.656ZM248.283 115.216C247.371 115.216 246.507 115.088 245.691 114.832C244.875 114.576 244.203 114.216 243.675 113.752L244.299 112.384C244.875 112.848 245.507 113.192 246.195 113.416C246.899 113.624 247.611 113.728 248.331 113.728C249.243 113.728 249.931 113.56 250.395 113.224C250.859 112.888 251.091 112.432 251.091 111.856C251.091 111.408 250.939 111.056 250.635 110.8C250.331 110.528 249.851 110.32 249.195 110.176L247.011 109.696C245.027 109.264 244.035 108.24 244.035 106.624C244.035 105.568 244.451 104.72 245.283 104.08C246.131 103.44 247.235 103.12 248.595 103.12C249.395 103.12 250.155 103.248 250.875 103.504C251.611 103.744 252.219 104.104 252.699 104.584L252.051 105.952C251.587 105.52 251.043 105.192 250.419 104.968C249.811 104.728 249.203 104.608 248.595 104.608C247.699 104.608 247.019 104.784 246.555 105.136C246.091 105.488 245.859 105.952 245.859 106.528C245.859 107.424 246.451 108 247.635 108.256L249.819 108.712C250.843 108.936 251.619 109.296 252.147 109.792C252.675 110.272 252.939 110.928 252.939 111.76C252.939 112.832 252.515 113.68 251.667 114.304C250.819 114.912 249.691 115.216 248.283 115.216ZM266.914 115.216C265.778 115.216 264.794 114.968 263.962 114.472C263.13 113.976 262.482 113.28 262.018 112.384C261.57 111.472 261.346 110.4 261.346 109.168C261.346 107.936 261.57 106.872 262.018 105.976C262.482 105.064 263.13 104.36 263.962 103.864C264.794 103.368 265.778 103.12 266.914 103.12C268.034 103.12 269.01 103.368 269.842 103.864C270.69 104.36 271.338 105.064 271.786 105.976C272.25 106.872 272.482 107.936 272.482 109.168C272.482 110.4 272.25 111.472 271.786 112.384C271.338 113.28 270.69 113.976 269.842 114.472C269.01 114.968 268.034 115.216 266.914 115.216ZM266.914 113.656C268.002 113.656 268.874 113.272 269.53 112.504C270.186 111.72 270.514 110.608 270.514 109.168C270.514 107.712 270.186 106.6 269.53 105.832C268.874 105.064 268.002 104.68 266.914 104.68C265.81 104.68 264.93 105.064 264.274 105.832C263.634 106.6 263.314 107.712 263.314 109.168C263.314 110.608 263.634 111.72 264.274 112.504C264.93 113.272 265.81 113.656 266.914 113.656ZM275.909 115V104.848H273.605V103.336H275.909V102.928C275.909 101.376 276.293 100.2 277.061 99.4C277.845 98.6 279.045 98.152 280.661 98.056L281.597 98.008L281.765 99.496L280.661 99.568C279.669 99.648 278.949 99.944 278.501 100.456C278.069 100.968 277.853 101.712 277.853 102.688V103.336H281.213V104.848H277.853V115H275.909ZM294.121 115.216C292.745 115.216 291.713 114.856 291.025 114.136C290.337 113.4 289.993 112.344 289.993 110.968V104.848H287.713V103.336H289.993V99.76H291.937V103.336H295.633V104.848H291.937V110.776C291.937 111.688 292.129 112.384 292.513 112.864C292.897 113.328 293.521 113.56 294.385 113.56C294.641 113.56 294.897 113.528 295.153 113.464C295.409 113.4 295.641 113.336 295.849 113.272L296.185 114.76C295.977 114.872 295.673 114.976 295.273 115.072C294.873 115.168 294.489 115.216 294.121 115.216ZM297.592 100.432V98.248H299.992V100.432H297.592ZM297.832 115V103.336H299.776V115H297.832ZM303.458 115V103.336H305.354V105.304C305.706 104.6 306.194 104.064 306.818 103.696C307.442 103.312 308.17 103.12 309.002 103.12C310.826 103.12 311.994 103.912 312.506 105.496C312.858 104.76 313.378 104.184 314.066 103.768C314.754 103.336 315.546 103.12 316.442 103.12C319.034 103.12 320.33 104.656 320.33 107.728V115H318.386V107.824C318.386 106.752 318.194 105.968 317.81 105.472C317.442 104.96 316.826 104.704 315.962 104.704C315.018 104.704 314.266 105.04 313.706 105.712C313.146 106.384 312.866 107.28 312.866 108.4V115H310.922V107.824C310.922 106.752 310.73 105.968 310.346 105.472C309.978 104.96 309.362 104.704 308.498 104.704C307.538 104.704 306.778 105.04 306.218 105.712C305.674 106.384 305.402 107.28 305.402 108.4V115H303.458ZM329.221 115.216C327.381 115.216 325.925 114.68 324.853 113.608C323.781 112.52 323.245 111.048 323.245 109.192C323.245 107.992 323.485 106.936 323.965 106.024C324.445 105.096 325.101 104.384 325.933 103.888C326.781 103.376 327.757 103.12 328.861 103.12C330.445 103.12 331.685 103.632 332.581 104.656C333.477 105.664 333.925 107.056 333.925 108.832V109.576H325.141C325.205 110.904 325.589 111.92 326.293 112.624C326.997 113.312 327.973 113.656 329.221 113.656C329.925 113.656 330.597 113.552 331.237 113.344C331.877 113.12 332.485 112.76 333.061 112.264L333.733 113.632C333.205 114.128 332.533 114.52 331.717 114.808C330.901 115.08 330.069 115.216 329.221 115.216ZM328.909 104.56C327.805 104.56 326.933 104.904 326.293 105.592C325.653 106.28 325.277 107.184 325.165 108.304H332.245C332.197 107.12 331.885 106.2 331.309 105.544C330.749 104.888 329.949 104.56 328.909 104.56ZM41.92 143L37.576 131.336H39.616L42.904 140.72L46.312 131.336H47.968L51.328 140.744L54.664 131.336H56.608L52.24 143H50.392L47.104 133.952L43.792 143H41.92ZM58.7637 128.432V126.248H61.1637V128.432H58.7637ZM59.0037 143V131.336H60.9477V143H59.0037ZM69.2618 143.216C67.8858 143.216 66.8538 142.856 66.1658 142.136C65.4778 141.4 65.1338 140.344 65.1338 138.968V132.848H62.8538V131.336H65.1338V127.76H67.0778V131.336H70.7738V132.848H67.0778V138.776C67.0778 139.688 67.2698 140.384 67.6538 140.864C68.0378 141.328 68.6618 141.56 69.5258 141.56C69.7818 141.56 70.0378 141.528 70.2938 141.464C70.5498 141.4 70.7818 141.336 70.9898 141.272L71.3258 142.76C71.1178 142.872 70.8138 142.976 70.4138 143.072C70.0138 143.168 69.6298 143.216 69.2618 143.216ZM72.9724 143V126.08H74.9164V133.256C75.3004 132.552 75.8364 132.024 76.5244 131.672C77.2284 131.304 78.0124 131.12 78.8764 131.12C81.6444 131.12 83.0284 132.656 83.0284 135.728V143H81.0844V135.848C81.0844 134.76 80.8684 133.968 80.4364 133.472C80.0204 132.96 79.3484 132.704 78.4204 132.704C77.3484 132.704 76.4924 133.04 75.8524 133.712C75.2284 134.368 74.9164 135.248 74.9164 136.352V143H72.9724ZM97.6251 143.216C96.4891 143.216 95.5051 142.968 94.6731 142.472C93.8411 141.976 93.1931 141.28 92.7291 140.384C92.2811 139.472 92.0571 138.4 92.0571 137.168C92.0571 135.936 92.2811 134.872 92.7291 133.976C93.1931 133.064 93.8411 132.36 94.6731 131.864C95.5051 131.368 96.4891 131.12 97.6251 131.12C98.7451 131.12 99.7211 131.368 100.553 131.864C101.401 132.36 102.049 133.064 102.497 133.976C102.961 134.872 103.193 135.936 103.193 137.168C103.193 138.4 102.961 139.472 102.497 140.384C102.049 141.28 101.401 141.976 100.553 142.472C99.7211 142.968 98.7451 143.216 97.6251 143.216ZM97.6251 141.656C98.7131 141.656 99.5851 141.272 100.241 140.504C100.897 139.72 101.225 138.608 101.225 137.168C101.225 135.712 100.897 134.6 100.241 133.832C99.5851 133.064 98.7131 132.68 97.6251 132.68C96.5211 132.68 95.6411 133.064 94.9851 133.832C94.3451 134.6 94.0251 135.712 94.0251 137.168C94.0251 138.608 94.3451 139.72 94.9851 140.504C95.6411 141.272 96.5211 141.656 97.6251 141.656ZM110.241 143.216C107.441 143.216 106.041 141.672 106.041 138.584V131.336H107.985V138.56C107.985 139.6 108.193 140.368 108.609 140.864C109.041 141.36 109.713 141.608 110.625 141.608C111.617 141.608 112.425 141.28 113.049 140.624C113.673 139.952 113.985 139.064 113.985 137.96V131.336H115.929V143H114.033V141.032C113.665 141.736 113.145 142.28 112.473 142.664C111.817 143.032 111.073 143.216 110.241 143.216ZM119.566 143V131.336H121.462V133.424C122.086 132.016 123.366 131.24 125.302 131.096L125.998 131.024L126.142 132.704L124.918 132.848C123.814 132.944 122.974 133.296 122.398 133.904C121.822 134.496 121.534 135.312 121.534 136.352V143H119.566ZM134.332 143V131.336H136.228V133.328C136.612 132.592 137.156 132.04 137.86 131.672C138.564 131.304 139.356 131.12 140.236 131.12C143.004 131.12 144.388 132.656 144.388 135.728V143H142.444V135.848C142.444 134.76 142.228 133.968 141.796 133.472C141.38 132.96 140.708 132.704 139.78 132.704C138.708 132.704 137.852 133.04 137.212 133.712C136.588 134.368 136.276 135.248 136.276 136.352V143H134.332ZM152.82 143.216C151.684 143.216 150.7 142.968 149.868 142.472C149.036 141.976 148.388 141.28 147.924 140.384C147.476 139.472 147.252 138.4 147.252 137.168C147.252 135.936 147.476 134.872 147.924 133.976C148.388 133.064 149.036 132.36 149.868 131.864C150.7 131.368 151.684 131.12 152.82 131.12C153.94 131.12 154.916 131.368 155.748 131.864C156.596 132.36 157.244 133.064 157.692 133.976C158.156 134.872 158.388 135.936 158.388 137.168C158.388 138.4 158.156 139.472 157.692 140.384C157.244 141.28 156.596 141.976 155.748 142.472C154.916 142.968 153.94 143.216 152.82 143.216ZM152.82 141.656C153.908 141.656 154.78 141.272 155.436 140.504C156.092 139.72 156.42 138.608 156.42 137.168C156.42 135.712 156.092 134.6 155.436 133.832C154.78 133.064 153.908 132.68 152.82 132.68C151.716 132.68 150.836 133.064 150.18 133.832C149.54 134.6 149.22 135.712 149.22 137.168C149.22 138.608 149.54 139.72 150.18 140.504C150.836 141.272 151.716 141.656 152.82 141.656ZM161.308 143V131.336H163.204V133.328C163.588 132.592 164.132 132.04 164.836 131.672C165.54 131.304 166.332 131.12 167.212 131.12C169.98 131.12 171.364 132.656 171.364 135.728V143H169.42V135.848C169.42 134.76 169.204 133.968 168.772 133.472C168.356 132.96 167.684 132.704 166.756 132.704C165.684 132.704 164.828 133.04 164.188 133.712C163.564 134.368 163.252 135.248 163.252 136.352V143H161.308ZM174.853 137.408V135.8H181.573V137.408H174.853ZM189.104 143.216C188.192 143.216 187.328 143.088 186.512 142.832C185.696 142.576 185.024 142.216 184.496 141.752L185.12 140.384C185.696 140.848 186.328 141.192 187.016 141.416C187.72 141.624 188.432 141.728 189.152 141.728C190.064 141.728 190.752 141.56 191.216 141.224C191.68 140.888 191.912 140.432 191.912 139.856C191.912 139.408 191.76 139.056 191.456 138.8C191.152 138.528 190.672 138.32 190.016 138.176L187.832 137.696C185.848 137.264 184.856 136.24 184.856 134.624C184.856 133.568 185.272 132.72 186.104 132.08C186.952 131.44 188.056 131.12 189.416 131.12C190.216 131.12 190.976 131.248 191.696 131.504C192.432 131.744 193.04 132.104 193.52 132.584L192.872 133.952C192.408 133.52 191.864 133.192 191.24 132.968C190.632 132.728 190.024 132.608 189.416 132.608C188.52 132.608 187.84 132.784 187.376 133.136C186.912 133.488 186.68 133.952 186.68 134.528C186.68 135.424 187.272 136 188.456 136.256L190.64 136.712C191.664 136.936 192.44 137.296 192.968 137.792C193.496 138.272 193.76 138.928 193.76 139.76C193.76 140.832 193.336 141.68 192.488 142.304C191.64 142.912 190.512 143.216 189.104 143.216ZM200.85 143.216C198.05 143.216 196.65 141.672 196.65 138.584V131.336H198.594V138.56C198.594 139.6 198.802 140.368 199.218 140.864C199.65 141.36 200.322 141.608 201.234 141.608C202.226 141.608 203.034 141.28 203.658 140.624C204.282 139.952 204.594 139.064 204.594 137.96V131.336H206.538V143H204.642V141.032C204.274 141.736 203.754 142.28 203.082 142.664C202.426 143.032 201.682 143.216 200.85 143.216ZM210.176 143V131.336H212.072V133.424C212.696 132.016 213.976 131.24 215.912 131.096L216.608 131.024L216.752 132.704L215.528 132.848C214.424 132.944 213.584 133.296 213.008 133.904C212.432 134.496 212.144 135.312 212.144 136.352V143H210.176ZM223.797 147.536C222.789 147.536 221.837 147.4 220.941 147.128C220.061 146.872 219.277 146.48 218.589 145.952L219.237 144.536C219.957 145.048 220.669 145.416 221.373 145.64C222.093 145.864 222.869 145.976 223.701 145.976C226.005 145.976 227.157 144.792 227.157 142.424V140.36C226.821 141.096 226.293 141.68 225.573 142.112C224.869 142.528 224.061 142.736 223.148 142.736C222.077 142.736 221.149 142.488 220.365 141.992C219.581 141.496 218.973 140.816 218.541 139.952C218.125 139.072 217.917 138.056 217.917 136.904C217.917 135.752 218.125 134.744 218.541 133.88C218.973 133 219.581 132.32 220.365 131.84C221.149 131.36 222.077 131.12 223.148 131.12C224.061 131.12 224.869 131.328 225.573 131.744C226.293 132.16 226.821 132.728 227.157 133.448V131.336H229.053V142.16C229.053 143.952 228.605 145.296 227.709 146.192C226.829 147.088 225.525 147.536 223.797 147.536ZM223.509 141.152C224.629 141.152 225.517 140.768 226.173 140C226.829 139.232 227.157 138.2 227.157 136.904C227.157 135.608 226.829 134.584 226.173 133.832C225.517 133.064 224.629 132.68 223.509 132.68C222.405 132.68 221.525 133.064 220.869 133.832C220.213 134.584 219.885 135.608 219.885 136.904C219.885 138.2 220.213 139.232 220.869 140C221.525 140.768 222.405 141.152 223.509 141.152ZM232.459 128.432V126.248H234.859V128.432H232.459ZM232.699 143V131.336H234.643V143H232.699ZM243.221 143.216C242.053 143.216 241.045 142.968 240.197 142.472C239.349 141.96 238.693 141.248 238.229 140.336C237.781 139.408 237.557 138.328 237.557 137.096C237.557 135.24 238.061 133.784 239.069 132.728C240.077 131.656 241.461 131.12 243.221 131.12C243.941 131.12 244.653 131.248 245.357 131.504C246.061 131.76 246.645 132.12 247.109 132.584L246.437 134C245.973 133.552 245.461 133.224 244.901 133.016C244.357 132.808 243.837 132.704 243.341 132.704C242.125 132.704 241.189 133.088 240.533 133.856C239.877 134.608 239.549 135.696 239.549 137.12C239.549 138.512 239.877 139.616 240.533 140.432C241.189 141.232 242.125 141.632 243.341 141.632C243.837 141.632 244.357 141.528 244.901 141.32C245.461 141.112 245.973 140.776 246.437 140.312L247.109 141.728C246.645 142.192 246.053 142.56 245.333 142.832C244.629 143.088 243.925 143.216 243.221 143.216ZM252.965 143.216C252.165 143.216 251.445 143.064 250.805 142.76C250.181 142.44 249.685 142.008 249.317 141.464C248.949 140.92 248.765 140.312 248.765 139.64C248.765 138.792 248.981 138.12 249.413 137.624C249.861 137.128 250.589 136.776 251.597 136.568C252.621 136.344 254.013 136.232 255.773 136.232H256.541V135.488C256.541 134.496 256.333 133.784 255.917 133.352C255.517 132.904 254.869 132.68 253.973 132.68C253.269 132.68 252.589 132.784 251.933 132.992C251.277 133.184 250.605 133.504 249.917 133.952L249.245 132.536C249.853 132.104 250.589 131.76 251.453 131.504C252.333 131.248 253.173 131.12 253.973 131.12C255.477 131.12 256.589 131.488 257.309 132.224C258.045 132.96 258.413 134.104 258.413 135.656V143H256.589V140.984C256.285 141.672 255.813 142.216 255.173 142.616C254.549 143.016 253.813 143.216 252.965 143.216ZM253.277 141.752C254.237 141.752 255.021 141.424 255.629 140.768C256.237 140.096 256.541 139.248 256.541 138.224V137.504H255.797C254.501 137.504 253.477 137.568 252.725 137.696C251.989 137.808 251.469 138.016 251.165 138.32C250.877 138.608 250.733 139.008 250.733 139.52C250.733 140.176 250.957 140.712 251.405 141.128C251.869 141.544 252.493 141.752 253.277 141.752ZM265.595 143.216C264.411 143.216 263.515 142.872 262.907 142.184C262.315 141.48 262.019 140.464 262.019 139.136V126.08H263.963V138.992C263.963 140.704 264.643 141.56 266.003 141.56C266.403 141.56 266.763 141.512 267.083 141.416L267.035 143.048C266.539 143.16 266.059 143.216 265.595 143.216ZM275.909 143V132.848H273.605V131.336H275.909V130.928C275.909 129.376 276.293 128.2 277.061 127.4C277.845 126.6 279.045 126.152 280.661 126.056L281.597 126.008L281.765 127.496L280.661 127.568C279.669 127.648 278.949 127.944 278.501 128.456C278.069 128.968 277.853 129.712 277.853 130.688V131.336H281.213V132.848H277.853V143H275.909ZM286.832 143.216C286.032 143.216 285.312 143.064 284.672 142.76C284.048 142.44 283.552 142.008 283.184 141.464C282.816 140.92 282.632 140.312 282.632 139.64C282.632 138.792 282.848 138.12 283.28 137.624C283.728 137.128 284.456 136.776 285.464 136.568C286.488 136.344 287.88 136.232 289.64 136.232H290.408V135.488C290.408 134.496 290.2 133.784 289.784 133.352C289.384 132.904 288.736 132.68 287.84 132.68C287.136 132.68 286.456 132.784 285.8 132.992C285.144 133.184 284.472 133.504 283.784 133.952L283.112 132.536C283.72 132.104 284.456 131.76 285.32 131.504C286.2 131.248 287.04 131.12 287.84 131.12C289.344 131.12 290.456 131.488 291.176 132.224C291.912 132.96 292.28 134.104 292.28 135.656V143H290.456V140.984C290.152 141.672 289.68 142.216 289.04 142.616C288.416 143.016 287.68 143.216 286.832 143.216ZM287.144 141.752C288.104 141.752 288.888 141.424 289.496 140.768C290.104 140.096 290.408 139.248 290.408 138.224V137.504H289.664C288.368 137.504 287.344 137.568 286.592 137.696C285.856 137.808 285.336 138.016 285.032 138.32C284.744 138.608 284.6 139.008 284.6 139.52C284.6 140.176 284.824 140.712 285.272 141.128C285.736 141.544 286.36 141.752 287.144 141.752ZM300.831 143.216C299.663 143.216 298.655 142.968 297.807 142.472C296.959 141.96 296.303 141.248 295.839 140.336C295.391 139.408 295.167 138.328 295.167 137.096C295.167 135.24 295.671 133.784 296.679 132.728C297.687 131.656 299.071 131.12 300.831 131.12C301.551 131.12 302.263 131.248 302.967 131.504C303.671 131.76 304.255 132.12 304.719 132.584L304.047 134C303.583 133.552 303.071 133.224 302.511 133.016C301.967 132.808 301.447 132.704 300.951 132.704C299.735 132.704 298.799 133.088 298.143 133.856C297.487 134.608 297.159 135.696 297.159 137.12C297.159 138.512 297.487 139.616 298.143 140.432C298.799 141.232 299.735 141.632 300.951 141.632C301.447 141.632 301.967 141.528 302.511 141.32C303.071 141.112 303.583 140.776 304.047 140.312L304.719 141.728C304.255 142.192 303.663 142.56 302.943 142.832C302.239 143.088 301.535 143.216 300.831 143.216ZM312.018 143.216C310.178 143.216 308.722 142.68 307.65 141.608C306.578 140.52 306.042 139.048 306.042 137.192C306.042 135.992 306.282 134.936 306.762 134.024C307.242 133.096 307.898 132.384 308.73 131.888C309.578 131.376 310.554 131.12 311.658 131.12C313.242 131.12 314.482 131.632 315.378 132.656C316.274 133.664 316.722 135.056 316.722 136.832V137.576H307.938C308.002 138.904 308.386 139.92 309.09 140.624C309.794 141.312 310.77 141.656 312.018 141.656C312.722 141.656 313.394 141.552 314.034 141.344C314.674 141.12 315.282 140.76 315.858 140.264L316.53 141.632C316.002 142.128 315.33 142.52 314.514 142.808C313.698 143.08 312.866 143.216 312.018 143.216ZM311.706 132.56C310.602 132.56 309.73 132.904 309.09 133.592C308.45 134.28 308.074 135.184 307.962 136.304H315.042C314.994 135.12 314.682 134.2 314.106 133.544C313.546 132.888 312.746 132.56 311.706 132.56ZM323.111 143.216C321.927 143.216 321.031 142.872 320.423 142.184C319.831 141.48 319.535 140.464 319.535 139.136V126.08H321.479V138.992C321.479 140.704 322.159 141.56 323.519 141.56C323.919 141.56 324.279 141.512 324.599 141.416L324.551 143.048C324.055 143.16 323.575 143.216 323.111 143.216ZM326.396 128.432V126.248H328.797V128.432H326.396ZM326.637 143V131.336H328.581V143H326.637ZM332.839 143V132.848H330.535V131.336H332.839V130.928C332.839 129.376 333.223 128.2 333.991 127.4C334.775 126.6 335.975 126.152 337.591 126.056L338.527 126.008L338.695 127.496L337.591 127.568C336.599 127.648 335.879 127.944 335.431 128.456C334.999 128.968 334.783 129.712 334.783 130.688V131.336H338.143V132.848H334.783V143H332.839ZM344.301 143.216C342.925 143.216 341.893 142.856 341.205 142.136C340.517 141.4 340.173 140.344 340.173 138.968V132.848H337.893V131.336H340.173V127.76H342.117V131.336H345.813V132.848H342.117V138.776C342.117 139.688 342.309 140.384 342.693 140.864C343.077 141.328 343.701 141.56 344.565 141.56C344.821 141.56 345.077 141.528 345.333 141.464C345.589 141.4 345.821 141.336 346.029 141.272L346.365 142.76C346.157 142.872 345.853 142.976 345.453 143.072C345.053 143.168 344.669 143.216 344.301 143.216ZM43.504 171.216C42.128 171.216 41.096 170.856 40.408 170.136C39.72 169.4 39.376 168.344 39.376 166.968V160.848H37.096V159.336H39.376V155.76H41.32V159.336H45.016V160.848H41.32V166.776C41.32 167.688 41.512 168.384 41.896 168.864C42.28 169.328 42.904 169.56 43.768 169.56C44.024 169.56 44.28 169.528 44.536 169.464C44.792 169.4 45.024 169.336 45.232 169.272L45.568 170.76C45.36 170.872 45.056 170.976 44.656 171.072C44.256 171.168 43.872 171.216 43.504 171.216ZM47.2146 171V159.336H49.1106V161.424C49.7346 160.016 51.0146 159.24 52.9506 159.096L53.6466 159.024L53.7906 160.704L52.5666 160.848C51.4626 160.944 50.6226 161.296 50.0466 161.904C49.4706 162.496 49.1826 163.312 49.1826 164.352V171H47.2146ZM60.9316 171.216C59.0916 171.216 57.6356 170.68 56.5636 169.608C55.4916 168.52 54.9556 167.048 54.9556 165.192C54.9556 163.992 55.1956 162.936 55.6756 162.024C56.1556 161.096 56.8116 160.384 57.6436 159.888C58.4916 159.376 59.4676 159.12 60.5716 159.12C62.1556 159.12 63.3956 159.632 64.2916 160.656C65.1876 161.664 65.6356 163.056 65.6356 164.832V165.576H56.8516C56.9156 166.904 57.2996 167.92 58.0036 168.624C58.7076 169.312 59.6836 169.656 60.9316 169.656C61.6356 169.656 62.3076 169.552 62.9476 169.344C63.5876 169.12 64.1956 168.76 64.7716 168.264L65.4436 169.632C64.9156 170.128 64.2436 170.52 63.4276 170.808C62.6116 171.08 61.7796 171.216 60.9316 171.216ZM60.6196 160.56C59.5156 160.56 58.6436 160.904 58.0036 161.592C57.3636 162.28 56.9876 163.184 56.8756 164.304H63.9556C63.9076 163.12 63.5956 162.2 63.0196 161.544C62.4596 160.888 61.6596 160.56 60.6196 160.56ZM72.121 171.216C71.321 171.216 70.601 171.064 69.961 170.76C69.337 170.44 68.841 170.008 68.473 169.464C68.105 168.92 67.921 168.312 67.921 167.64C67.921 166.792 68.137 166.12 68.569 165.624C69.017 165.128 69.745 164.776 70.753 164.568C71.777 164.344 73.169 164.232 74.929 164.232H75.697V163.488C75.697 162.496 75.489 161.784 75.073 161.352C74.673 160.904 74.025 160.68 73.129 160.68C72.425 160.68 71.745 160.784 71.089 160.992C70.433 161.184 69.761 161.504 69.073 161.952L68.401 160.536C69.009 160.104 69.745 159.76 70.609 159.504C71.489 159.248 72.329 159.12 73.129 159.12C74.633 159.12 75.745 159.488 76.465 160.224C77.201 160.96 77.569 162.104 77.569 163.656V171H75.745V168.984C75.441 169.672 74.969 170.216 74.329 170.616C73.705 171.016 72.969 171.216 72.121 171.216ZM72.433 169.752C73.393 169.752 74.177 169.424 74.785 168.768C75.393 168.096 75.697 167.248 75.697 166.224V165.504H74.953C73.657 165.504 72.633 165.568 71.881 165.696C71.145 165.808 70.625 166.016 70.321 166.32C70.033 166.608 69.889 167.008 69.889 167.52C69.889 168.176 70.113 168.712 70.561 169.128C71.025 169.544 71.649 169.752 72.433 169.752ZM85.8556 171.216C84.4796 171.216 83.4476 170.856 82.7596 170.136C82.0716 169.4 81.7276 168.344 81.7276 166.968V160.848H79.4476V159.336H81.7276V155.76H83.6716V159.336H87.3676V160.848H83.6716V166.776C83.6716 167.688 83.8636 168.384 84.2476 168.864C84.6316 169.328 85.2556 169.56 86.1196 169.56C86.3756 169.56 86.6316 169.528 86.8876 169.464C87.1436 169.4 87.3756 169.336 87.5836 169.272L87.9196 170.76C87.7116 170.872 87.4076 170.976 87.0076 171.072C86.6076 171.168 86.2236 171.216 85.8556 171.216ZM89.6142 171V159.336H91.5102V161.304C91.8622 160.6 92.3502 160.064 92.9742 159.696C93.5982 159.312 94.3262 159.12 95.1582 159.12C96.9822 159.12 98.1502 159.912 98.6622 161.496C99.0142 160.76 99.5342 160.184 100.222 159.768C100.91 159.336 101.702 159.12 102.598 159.12C105.19 159.12 106.486 160.656 106.486 163.728V171H104.542V163.824C104.542 162.752 104.35 161.968 103.966 161.472C103.598 160.96 102.982 160.704 102.118 160.704C101.174 160.704 100.422 161.04 99.8622 161.712C99.3022 162.384 99.0222 163.28 99.0222 164.4V171H97.0782V163.824C97.0782 162.752 96.8862 161.968 96.5022 161.472C96.1342 160.96 95.5182 160.704 94.6542 160.704C93.6942 160.704 92.9342 161.04 92.3742 161.712C91.8302 162.384 91.5582 163.28 91.5582 164.4V171H89.6142ZM115.377 171.216C113.537 171.216 112.081 170.68 111.009 169.608C109.937 168.52 109.401 167.048 109.401 165.192C109.401 163.992 109.641 162.936 110.121 162.024C110.601 161.096 111.257 160.384 112.089 159.888C112.937 159.376 113.913 159.12 115.017 159.12C116.601 159.12 117.841 159.632 118.737 160.656C119.633 161.664 120.081 163.056 120.081 164.832V165.576H111.297C111.361 166.904 111.745 167.92 112.449 168.624C113.153 169.312 114.129 169.656 115.377 169.656C116.081 169.656 116.753 169.552 117.393 169.344C118.033 169.12 118.641 168.76 119.217 168.264L119.889 169.632C119.361 170.128 118.689 170.52 117.873 170.808C117.057 171.08 116.225 171.216 115.377 171.216ZM115.065 160.56C113.961 160.56 113.089 160.904 112.449 161.592C111.809 162.28 111.433 163.184 111.321 164.304H118.401C118.353 163.12 118.041 162.2 117.465 161.544C116.905 160.888 116.105 160.56 115.065 160.56ZM122.894 171V159.336H124.79V161.328C125.174 160.592 125.718 160.04 126.422 159.672C127.126 159.304 127.918 159.12 128.798 159.12C131.566 159.12 132.95 160.656 132.95 163.728V171H131.006V163.848C131.006 162.76 130.79 161.968 130.358 161.472C129.942 160.96 129.27 160.704 128.342 160.704C127.27 160.704 126.414 161.04 125.774 161.712C125.15 162.368 124.838 163.248 124.838 164.352V171H122.894ZM141.215 171.216C139.839 171.216 138.807 170.856 138.119 170.136C137.431 169.4 137.087 168.344 137.087 166.968V160.848H134.807V159.336H137.087V155.76H139.031V159.336H142.727V160.848H139.031V166.776C139.031 167.688 139.223 168.384 139.607 168.864C139.991 169.328 140.615 169.56 141.479 169.56C141.735 169.56 141.991 169.528 142.247 169.464C142.503 169.4 142.735 169.336 142.943 169.272L143.279 170.76C143.071 170.872 142.767 170.976 142.367 171.072C141.967 171.168 141.583 171.216 141.215 171.216ZM148.862 171.216C147.95 171.216 147.086 171.088 146.27 170.832C145.454 170.576 144.782 170.216 144.254 169.752L144.878 168.384C145.454 168.848 146.086 169.192 146.774 169.416C147.478 169.624 148.19 169.728 148.91 169.728C149.822 169.728 150.51 169.56 150.974 169.224C151.438 168.888 151.67 168.432 151.67 167.856C151.67 167.408 151.518 167.056 151.214 166.8C150.91 166.528 150.43 166.32 149.774 166.176L147.59 165.696C145.606 165.264 144.614 164.24 144.614 162.624C144.614 161.568 145.03 160.72 145.862 160.08C146.71 159.44 147.814 159.12 149.174 159.12C149.974 159.12 150.734 159.248 151.454 159.504C152.19 159.744 152.798 160.104 153.278 160.584L152.63 161.952C152.166 161.52 151.622 161.192 150.998 160.968C150.39 160.728 149.782 160.608 149.174 160.608C148.278 160.608 147.598 160.784 147.134 161.136C146.67 161.488 146.438 161.952 146.438 162.528C146.438 163.424 147.03 164 148.214 164.256L150.398 164.712C151.422 164.936 152.198 165.296 152.726 165.792C153.254 166.272 153.518 166.928 153.518 167.76C153.518 168.832 153.094 169.68 152.246 170.304C151.398 170.912 150.27 171.216 148.862 171.216ZM157.059 173.736L156.147 173.04C156.499 172.672 156.747 172.32 156.891 171.984C157.051 171.664 157.155 171.336 157.203 171H156.051V168.552H158.499V170.28C158.499 170.936 158.395 171.544 158.187 172.104C157.979 172.664 157.603 173.208 157.059 173.736ZM167.988 171V159.336H169.884V161.424C170.508 160.016 171.788 159.24 173.724 159.096L174.42 159.024L174.564 160.704L173.34 160.848C172.236 160.944 171.396 161.296 170.82 161.904C170.244 162.496 169.956 163.312 169.956 164.352V171H167.988ZM181.705 171.216C179.865 171.216 178.409 170.68 177.337 169.608C176.265 168.52 175.729 167.048 175.729 165.192C175.729 163.992 175.969 162.936 176.449 162.024C176.929 161.096 177.585 160.384 178.417 159.888C179.265 159.376 180.241 159.12 181.345 159.12C182.929 159.12 184.169 159.632 185.065 160.656C185.961 161.664 186.409 163.056 186.409 164.832V165.576H177.625C177.689 166.904 178.073 167.92 178.777 168.624C179.481 169.312 180.457 169.656 181.705 169.656C182.409 169.656 183.081 169.552 183.721 169.344C184.361 169.12 184.969 168.76 185.545 168.264L186.217 169.632C185.689 170.128 185.017 170.52 184.201 170.808C183.385 171.08 182.553 171.216 181.705 171.216ZM181.393 160.56C180.289 160.56 179.417 160.904 178.777 161.592C178.137 162.28 177.761 163.184 177.649 164.304H184.729C184.681 163.12 184.369 162.2 183.793 161.544C183.233 160.888 182.433 160.56 181.393 160.56ZM189.054 156.432V154.248H191.454V156.432H189.054ZM186.198 175.632L186.054 174.12L187.086 174.024C188.558 173.896 189.294 173.008 189.294 171.36V159.336H191.238V171.168C191.238 172.56 190.91 173.616 190.254 174.336C189.598 175.056 188.59 175.464 187.23 175.56L186.198 175.632ZM199.022 171.216C196.222 171.216 194.822 169.672 194.822 166.584V159.336H196.766V166.56C196.766 167.6 196.974 168.368 197.39 168.864C197.822 169.36 198.494 169.608 199.406 169.608C200.398 169.608 201.206 169.28 201.83 168.624C202.454 167.952 202.766 167.064 202.766 165.96V159.336H204.71V171H202.814V169.032C202.446 169.736 201.926 170.28 201.254 170.664C200.598 171.032 199.854 171.216 199.022 171.216ZM211.779 171L206.763 159.336H208.875L212.739 168.792L216.651 159.336H218.643L213.603 171H211.779ZM225.791 171.216C223.951 171.216 222.495 170.68 221.423 169.608C220.351 168.52 219.815 167.048 219.815 165.192C219.815 163.992 220.055 162.936 220.535 162.024C221.015 161.096 221.671 160.384 222.503 159.888C223.351 159.376 224.327 159.12 225.431 159.12C227.015 159.12 228.255 159.632 229.151 160.656C230.047 161.664 230.495 163.056 230.495 164.832V165.576H221.711C221.775 166.904 222.159 167.92 222.863 168.624C223.567 169.312 224.543 169.656 225.791 169.656C226.495 169.656 227.167 169.552 227.807 169.344C228.447 169.12 229.055 168.76 229.631 168.264L230.303 169.632C229.775 170.128 229.103 170.52 228.287 170.808C227.471 171.08 226.639 171.216 225.791 171.216ZM225.479 160.56C224.375 160.56 223.503 160.904 222.863 161.592C222.223 162.28 221.847 163.184 221.735 164.304H228.815C228.767 163.12 228.455 162.2 227.879 161.544C227.319 160.888 226.519 160.56 225.479 160.56ZM233.308 171V159.336H235.204V161.328C235.588 160.592 236.132 160.04 236.836 159.672C237.54 159.304 238.332 159.12 239.212 159.12C241.98 159.12 243.364 160.656 243.364 163.728V171H241.42V163.848C241.42 162.76 241.204 161.968 240.772 161.472C240.356 160.96 239.684 160.704 238.756 160.704C237.684 160.704 236.828 161.04 236.188 161.712C235.564 162.368 235.252 163.248 235.252 164.352V171H233.308ZM250.621 171.216C249.821 171.216 249.101 171.064 248.461 170.76C247.837 170.44 247.341 170.008 246.973 169.464C246.605 168.92 246.421 168.312 246.421 167.64C246.421 166.792 246.637 166.12 247.069 165.624C247.517 165.128 248.245 164.776 249.253 164.568C250.277 164.344 251.669 164.232 253.429 164.232H254.197V163.488C254.197 162.496 253.989 161.784 253.573 161.352C253.173 160.904 252.525 160.68 251.629 160.68C250.925 160.68 250.245 160.784 249.589 160.992C248.933 161.184 248.261 161.504 247.573 161.952L246.901 160.536C247.509 160.104 248.245 159.76 249.109 159.504C249.989 159.248 250.829 159.12 251.629 159.12C253.133 159.12 254.245 159.488 254.965 160.224C255.701 160.96 256.069 162.104 256.069 163.656V171H254.245V168.984C253.941 169.672 253.469 170.216 252.829 170.616C252.205 171.016 251.469 171.216 250.621 171.216ZM250.933 169.752C251.893 169.752 252.677 169.424 253.285 168.768C253.893 168.096 254.197 167.248 254.197 166.224V165.504H253.453C252.157 165.504 251.133 165.568 250.381 165.696C249.645 165.808 249.125 166.016 248.821 166.32C248.533 166.608 248.389 167.008 248.389 167.52C248.389 168.176 248.613 168.712 249.061 169.128C249.525 169.544 250.149 169.752 250.933 169.752ZM264.356 171.216C262.98 171.216 261.948 170.856 261.26 170.136C260.572 169.4 260.228 168.344 260.228 166.968V160.848H257.948V159.336H260.228V155.76H262.172V159.336H265.868V160.848H262.172V166.776C262.172 167.688 262.364 168.384 262.748 168.864C263.132 169.328 263.756 169.56 264.62 169.56C264.876 169.56 265.132 169.528 265.388 169.464C265.644 169.4 265.876 169.336 266.084 169.272L266.42 170.76C266.212 170.872 265.908 170.976 265.508 171.072C265.108 171.168 264.724 171.216 264.356 171.216ZM267.826 156.432V154.248H270.226V156.432H267.826ZM268.066 171V159.336H270.01V171H268.066ZM273.644 171V159.336H275.54V161.328C275.924 160.592 276.468 160.04 277.172 159.672C277.876 159.304 278.668 159.12 279.548 159.12C282.316 159.12 283.7 160.656 283.7 163.728V171H281.756V163.848C281.756 162.76 281.54 161.968 281.108 161.472C280.692 160.96 280.02 160.704 279.092 160.704C278.02 160.704 277.164 161.04 276.524 161.712C275.9 162.368 275.588 163.248 275.588 164.352V171H273.644ZM292.445 175.536C291.437 175.536 290.485 175.4 289.589 175.128C288.709 174.872 287.925 174.48 287.237 173.952L287.885 172.536C288.605 173.048 289.317 173.416 290.021 173.64C290.741 173.864 291.517 173.976 292.349 173.976C294.653 173.976 295.805 172.792 295.805 170.424V168.36C295.469 169.096 294.941 169.68 294.221 170.112C293.517 170.528 292.709 170.736 291.797 170.736C290.725 170.736 289.797 170.488 289.013 169.992C288.229 169.496 287.621 168.816 287.189 167.952C286.773 167.072 286.565 166.056 286.565 164.904C286.565 163.752 286.773 162.744 287.189 161.88C287.621 161 288.229 160.32 289.013 159.84C289.797 159.36 290.725 159.12 291.797 159.12C292.709 159.12 293.517 159.328 294.221 159.744C294.941 160.16 295.469 160.728 295.805 161.448V159.336H297.701V170.16C297.701 171.952 297.253 173.296 296.357 174.192C295.477 175.088 294.173 175.536 292.445 175.536ZM292.157 169.152C293.277 169.152 294.165 168.768 294.821 168C295.477 167.232 295.805 166.2 295.805 164.904C295.805 163.608 295.477 162.584 294.821 161.832C294.165 161.064 293.277 160.68 292.157 160.68C291.053 160.68 290.173 161.064 289.517 161.832C288.861 162.584 288.533 163.608 288.533 164.904C288.533 166.2 288.861 167.232 289.517 168C290.173 168.768 291.053 169.152 292.157 169.152ZM40.168 203.32L42.16 198.808L37.24 187.336H39.352L43.216 196.792L47.104 187.336H49.144L42.208 203.32H40.168ZM55.8361 199.216C54.7001 199.216 53.7161 198.968 52.8841 198.472C52.0521 197.976 51.4041 197.28 50.9401 196.384C50.4921 195.472 50.2681 194.4 50.2681 193.168C50.2681 191.936 50.4921 190.872 50.9401 189.976C51.4041 189.064 52.0521 188.36 52.8841 187.864C53.7161 187.368 54.7001 187.12 55.8361 187.12C56.9561 187.12 57.9321 187.368 58.7641 187.864C59.6121 188.36 60.2601 189.064 60.7081 189.976C61.1721 190.872 61.4041 191.936 61.4041 193.168C61.4041 194.4 61.1721 195.472 60.7081 196.384C60.2601 197.28 59.6121 197.976 58.7641 198.472C57.9321 198.968 56.9561 199.216 55.8361 199.216ZM55.8361 197.656C56.9241 197.656 57.7961 197.272 58.4521 196.504C59.1081 195.72 59.4361 194.608 59.4361 193.168C59.4361 191.712 59.1081 190.6 58.4521 189.832C57.7961 189.064 56.9241 188.68 55.8361 188.68C54.7321 188.68 53.8521 189.064 53.1961 189.832C52.5561 190.6 52.2361 191.712 52.2361 193.168C52.2361 194.608 52.5561 195.72 53.1961 196.504C53.8521 197.272 54.7321 197.656 55.8361 197.656ZM68.452 199.216C65.652 199.216 64.252 197.672 64.252 194.584V187.336H66.196V194.56C66.196 195.6 66.404 196.368 66.82 196.864C67.252 197.36 67.924 197.608 68.836 197.608C69.828 197.608 70.636 197.28 71.26 196.624C71.884 195.952 72.196 195.064 72.196 193.96V187.336H74.14V199H72.244V197.032C71.876 197.736 71.356 198.28 70.684 198.664C70.028 199.032 69.284 199.216 68.452 199.216ZM77.7771 199V187.336H79.6731V189.424C80.2971 188.016 81.5771 187.24 83.5131 187.096L84.2091 187.024L84.3531 188.704L83.1291 188.848C82.0251 188.944 81.1851 189.296 80.6091 189.904C80.0331 190.496 79.7451 191.312 79.7451 192.352V199H77.7771ZM93.1668 199V188.848H90.8628V187.336H93.1668V186.928C93.1668 185.376 93.5508 184.2 94.3188 183.4C95.1028 182.6 96.3028 182.152 97.9188 182.056L98.8548 182.008L99.0228 183.496L97.9188 183.568C96.9268 183.648 96.2068 183.944 95.7588 184.456C95.3268 184.968 95.1108 185.712 95.1108 186.688V187.336H98.4708V188.848H95.1108V199H93.1668ZM104.09 199.216C103.29 199.216 102.57 199.064 101.93 198.76C101.306 198.44 100.81 198.008 100.442 197.464C100.074 196.92 99.8898 196.312 99.8898 195.64C99.8898 194.792 100.106 194.12 100.538 193.624C100.986 193.128 101.714 192.776 102.722 192.568C103.746 192.344 105.138 192.232 106.898 192.232H107.666V191.488C107.666 190.496 107.458 189.784 107.042 189.352C106.642 188.904 105.994 188.68 105.098 188.68C104.394 188.68 103.714 188.784 103.058 188.992C102.402 189.184 101.73 189.504 101.042 189.952L100.37 188.536C100.978 188.104 101.714 187.76 102.578 187.504C103.458 187.248 104.298 187.12 105.098 187.12C106.602 187.12 107.714 187.488 108.434 188.224C109.17 188.96 109.538 190.104 109.538 191.656V199H107.714V196.984C107.41 197.672 106.938 198.216 106.298 198.616C105.674 199.016 104.938 199.216 104.09 199.216ZM104.402 197.752C105.362 197.752 106.146 197.424 106.754 196.768C107.362 196.096 107.666 195.248 107.666 194.224V193.504H106.922C105.626 193.504 104.602 193.568 103.85 193.696C103.114 193.808 102.594 194.016 102.29 194.32C102.002 194.608 101.858 195.008 101.858 195.52C101.858 196.176 102.082 196.712 102.53 197.128C102.994 197.544 103.618 197.752 104.402 197.752ZM118.088 199.216C116.92 199.216 115.912 198.968 115.064 198.472C114.216 197.96 113.56 197.248 113.096 196.336C112.648 195.408 112.424 194.328 112.424 193.096C112.424 191.24 112.928 189.784 113.936 188.728C114.944 187.656 116.328 187.12 118.088 187.12C118.808 187.12 119.52 187.248 120.224 187.504C120.928 187.76 121.512 188.12 121.976 188.584L121.304 190C120.84 189.552 120.328 189.224 119.768 189.016C119.224 188.808 118.704 188.704 118.208 188.704C116.992 188.704 116.056 189.088 115.4 189.856C114.744 190.608 114.416 191.696 114.416 193.12C114.416 194.512 114.744 195.616 115.4 196.432C116.056 197.232 116.992 197.632 118.208 197.632C118.704 197.632 119.224 197.528 119.768 197.32C120.328 197.112 120.84 196.776 121.304 196.312L121.976 197.728C121.512 198.192 120.92 198.56 120.2 198.832C119.496 199.088 118.792 199.216 118.088 199.216ZM124.014 184.432V182.248H126.414V184.432H124.014ZM124.254 199V187.336H126.198V199H124.254ZM133.504 199.216C132.704 199.216 131.984 199.064 131.344 198.76C130.72 198.44 130.224 198.008 129.856 197.464C129.488 196.92 129.304 196.312 129.304 195.64C129.304 194.792 129.52 194.12 129.952 193.624C130.4 193.128 131.128 192.776 132.136 192.568C133.16 192.344 134.552 192.232 136.312 192.232H137.08V191.488C137.08 190.496 136.872 189.784 136.456 189.352C136.056 188.904 135.408 188.68 134.512 188.68C133.808 188.68 133.128 188.784 132.472 188.992C131.816 189.184 131.144 189.504 130.456 189.952L129.784 188.536C130.392 188.104 131.128 187.76 131.992 187.504C132.872 187.248 133.712 187.12 134.512 187.12C136.016 187.12 137.128 187.488 137.848 188.224C138.584 188.96 138.952 190.104 138.952 191.656V199H137.128V196.984C136.824 197.672 136.352 198.216 135.712 198.616C135.088 199.016 134.352 199.216 133.504 199.216ZM133.816 197.752C134.776 197.752 135.56 197.424 136.168 196.768C136.776 196.096 137.08 195.248 137.08 194.224V193.504H136.336C135.04 193.504 134.016 193.568 133.264 193.696C132.528 193.808 132.008 194.016 131.704 194.32C131.416 194.608 131.272 195.008 131.272 195.52C131.272 196.176 131.496 196.712 131.944 197.128C132.408 197.544 133.032 197.752 133.816 197.752ZM146.134 199.216C144.95 199.216 144.054 198.872 143.446 198.184C142.854 197.48 142.558 196.464 142.558 195.136V182.08H144.502V194.992C144.502 196.704 145.182 197.56 146.542 197.56C146.942 197.56 147.302 197.512 147.622 197.416L147.574 199.048C147.078 199.16 146.598 199.216 146.134 199.216ZM159.496 199.216C158.696 199.216 157.976 199.064 157.336 198.76C156.712 198.44 156.216 198.008 155.848 197.464C155.48 196.92 155.296 196.312 155.296 195.64C155.296 194.792 155.512 194.12 155.944 193.624C156.392 193.128 157.12 192.776 158.128 192.568C159.152 192.344 160.544 192.232 162.304 192.232H163.072V191.488C163.072 190.496 162.864 189.784 162.448 189.352C162.048 188.904 161.4 188.68 160.504 188.68C159.8 188.68 159.12 188.784 158.464 188.992C157.808 189.184 157.136 189.504 156.448 189.952L155.776 188.536C156.384 188.104 157.12 187.76 157.984 187.504C158.864 187.248 159.704 187.12 160.504 187.12C162.008 187.12 163.12 187.488 163.84 188.224C164.576 188.96 164.944 190.104 164.944 191.656V199H163.12V196.984C162.816 197.672 162.344 198.216 161.704 198.616C161.08 199.016 160.344 199.216 159.496 199.216ZM159.808 197.752C160.768 197.752 161.552 197.424 162.16 196.768C162.768 196.096 163.072 195.248 163.072 194.224V193.504H162.328C161.032 193.504 160.008 193.568 159.256 193.696C158.52 193.808 158 194.016 157.696 194.32C157.408 194.608 157.264 195.008 157.264 195.52C157.264 196.176 157.488 196.712 157.936 197.128C158.4 197.544 159.024 197.752 159.808 197.752ZM168.551 203.32V187.336H170.447V189.424C170.799 188.704 171.319 188.144 172.007 187.744C172.711 187.328 173.527 187.12 174.455 187.12C175.495 187.12 176.399 187.368 177.167 187.864C177.951 188.344 178.551 189.04 178.967 189.952C179.399 190.848 179.615 191.92 179.615 193.168C179.615 194.4 179.399 195.472 178.967 196.384C178.551 197.28 177.951 197.976 177.167 198.472C176.399 198.968 175.495 199.216 174.455 199.216C173.559 199.216 172.759 199.016 172.055 198.616C171.351 198.216 170.831 197.664 170.495 196.96V203.32H168.551ZM174.047 197.656C175.135 197.656 176.007 197.272 176.663 196.504C177.319 195.72 177.647 194.608 177.647 193.168C177.647 191.712 177.319 190.6 176.663 189.832C176.007 189.064 175.135 188.68 174.047 188.68C172.959 188.68 172.087 189.064 171.431 189.832C170.775 190.6 170.447 191.712 170.447 193.168C170.447 194.608 170.775 195.72 171.431 196.504C172.087 197.272 172.959 197.656 174.047 197.656ZM182.543 203.32V187.336H184.439V189.424C184.791 188.704 185.311 188.144 185.999 187.744C186.703 187.328 187.519 187.12 188.447 187.12C189.487 187.12 190.391 187.368 191.159 187.864C191.943 188.344 192.543 189.04 192.959 189.952C193.391 190.848 193.607 191.92 193.607 193.168C193.607 194.4 193.391 195.472 192.959 196.384C192.543 197.28 191.943 197.976 191.159 198.472C190.391 198.968 189.487 199.216 188.447 199.216C187.551 199.216 186.751 199.016 186.047 198.616C185.343 198.216 184.823 197.664 184.487 196.96V203.32H182.543ZM188.039 197.656C189.127 197.656 189.999 197.272 190.655 196.504C191.311 195.72 191.639 194.608 191.639 193.168C191.639 191.712 191.311 190.6 190.655 189.832C189.999 189.064 189.127 188.68 188.039 188.68C186.951 188.68 186.079 189.064 185.423 189.832C184.767 190.6 184.439 191.712 184.439 193.168C184.439 194.608 184.767 195.72 185.423 196.504C186.079 197.272 186.951 197.656 188.039 197.656ZM201.791 199.216C199.951 199.216 198.495 198.68 197.423 197.608C196.351 196.52 195.815 195.048 195.815 193.192C195.815 191.992 196.055 190.936 196.535 190.024C197.015 189.096 197.671 188.384 198.503 187.888C199.351 187.376 200.327 187.12 201.431 187.12C203.015 187.12 204.255 187.632 205.151 188.656C206.047 189.664 206.495 191.056 206.495 192.832V193.576H197.711C197.775 194.904 198.159 195.92 198.863 196.624C199.567 197.312 200.543 197.656 201.791 197.656C202.495 197.656 203.167 197.552 203.807 197.344C204.447 197.12 205.055 196.76 205.631 196.264L206.303 197.632C205.775 198.128 205.103 198.52 204.287 198.808C203.471 199.08 202.639 199.216 201.791 199.216ZM201.479 188.56C200.375 188.56 199.503 188.904 198.863 189.592C198.223 190.28 197.847 191.184 197.735 192.304H204.815C204.767 191.12 204.455 190.2 203.879 189.544C203.319 188.888 202.519 188.56 201.479 188.56ZM212.98 199.216C212.18 199.216 211.46 199.064 210.82 198.76C210.196 198.44 209.7 198.008 209.332 197.464C208.964 196.92 208.78 196.312 208.78 195.64C208.78 194.792 208.996 194.12 209.428 193.624C209.876 193.128 210.604 192.776 211.612 192.568C212.636 192.344 214.028 192.232 215.788 192.232H216.556V191.488C216.556 190.496 216.348 189.784 215.932 189.352C215.532 188.904 214.884 188.68 213.988 188.68C213.284 188.68 212.604 188.784 211.948 188.992C211.292 189.184 210.62 189.504 209.932 189.952L209.26 188.536C209.868 188.104 210.604 187.76 211.468 187.504C212.348 187.248 213.188 187.12 213.988 187.12C215.492 187.12 216.604 187.488 217.324 188.224C218.06 188.96 218.428 190.104 218.428 191.656V199H216.604V196.984C216.3 197.672 215.828 198.216 215.188 198.616C214.564 199.016 213.828 199.216 212.98 199.216ZM213.292 197.752C214.252 197.752 215.036 197.424 215.644 196.768C216.252 196.096 216.556 195.248 216.556 194.224V193.504H215.812C214.516 193.504 213.492 193.568 212.74 193.696C212.004 193.808 211.484 194.016 211.18 194.32C210.892 194.608 210.748 195.008 210.748 195.52C210.748 196.176 210.972 196.712 211.42 197.128C211.884 197.544 212.508 197.752 213.292 197.752ZM222.035 199V187.336H223.931V189.424C224.555 188.016 225.835 187.24 227.771 187.096L228.467 187.024L228.611 188.704L227.387 188.848C226.283 188.944 225.443 189.296 224.867 189.904C224.291 190.496 224.003 191.312 224.003 192.352V199H222.035ZM234.191 199.216C233.391 199.216 232.671 199.064 232.031 198.76C231.407 198.44 230.911 198.008 230.543 197.464C230.175 196.92 229.991 196.312 229.991 195.64C229.991 194.792 230.207 194.12 230.639 193.624C231.087 193.128 231.815 192.776 232.823 192.568C233.847 192.344 235.239 192.232 236.999 192.232H237.767V191.488C237.767 190.496 237.559 189.784 237.143 189.352C236.743 188.904 236.095 188.68 235.199 188.68C234.495 188.68 233.815 188.784 233.159 188.992C232.503 189.184 231.831 189.504 231.143 189.952L230.471 188.536C231.079 188.104 231.815 187.76 232.679 187.504C233.559 187.248 234.399 187.12 235.199 187.12C236.703 187.12 237.815 187.488 238.535 188.224C239.271 188.96 239.639 190.104 239.639 191.656V199H237.815V196.984C237.511 197.672 237.039 198.216 236.399 198.616C235.775 199.016 235.039 199.216 234.191 199.216ZM234.503 197.752C235.463 197.752 236.247 197.424 236.855 196.768C237.463 196.096 237.767 195.248 237.767 194.224V193.504H237.023C235.727 193.504 234.703 193.568 233.951 193.696C233.215 193.808 232.695 194.016 232.391 194.32C232.103 194.608 231.959 195.008 231.959 195.52C231.959 196.176 232.183 196.712 232.631 197.128C233.095 197.544 233.719 197.752 234.503 197.752ZM243.246 199V187.336H245.142V189.328C245.526 188.592 246.07 188.04 246.774 187.672C247.478 187.304 248.27 187.12 249.15 187.12C251.918 187.12 253.302 188.656 253.302 191.728V199H251.358V191.848C251.358 190.76 251.142 189.968 250.71 189.472C250.294 188.96 249.622 188.704 248.694 188.704C247.622 188.704 246.766 189.04 246.126 189.712C245.502 190.368 245.19 191.248 245.19 192.352V199H243.246ZM261.831 199.216C260.663 199.216 259.655 198.968 258.807 198.472C257.959 197.96 257.303 197.248 256.839 196.336C256.391 195.408 256.167 194.328 256.167 193.096C256.167 191.24 256.671 189.784 257.679 188.728C258.687 187.656 260.071 187.12 261.831 187.12C262.551 187.12 263.263 187.248 263.967 187.504C264.671 187.76 265.255 188.12 265.719 188.584L265.047 190C264.583 189.552 264.071 189.224 263.511 189.016C262.967 188.808 262.447 188.704 261.951 188.704C260.735 188.704 259.799 189.088 259.143 189.856C258.487 190.608 258.159 191.696 258.159 193.12C258.159 194.512 258.487 195.616 259.143 196.432C259.799 197.232 260.735 197.632 261.951 197.632C262.447 197.632 262.967 197.528 263.511 197.32C264.071 197.112 264.583 196.776 265.047 196.312L265.719 197.728C265.255 198.192 264.663 198.56 263.943 198.832C263.239 199.088 262.535 199.216 261.831 199.216ZM273.018 199.216C271.178 199.216 269.722 198.68 268.65 197.608C267.578 196.52 267.042 195.048 267.042 193.192C267.042 191.992 267.282 190.936 267.762 190.024C268.242 189.096 268.898 188.384 269.73 187.888C270.578 187.376 271.554 187.12 272.658 187.12C274.242 187.12 275.482 187.632 276.378 188.656C277.274 189.664 277.722 191.056 277.722 192.832V193.576H268.938C269.002 194.904 269.386 195.92 270.09 196.624C270.794 197.312 271.77 197.656 273.018 197.656C273.722 197.656 274.394 197.552 275.034 197.344C275.674 197.12 276.282 196.76 276.858 196.264L277.53 197.632C277.002 198.128 276.33 198.52 275.514 198.808C274.698 199.08 273.866 199.216 273.018 199.216ZM272.706 188.56C271.602 188.56 270.73 188.904 270.09 189.592C269.45 190.28 269.074 191.184 268.962 192.304H276.042C275.994 191.12 275.682 190.2 275.106 189.544C274.546 188.888 273.746 188.56 272.706 188.56ZM41.92 227L37.576 215.336H39.616L42.904 224.72L46.312 215.336H47.968L51.328 224.744L54.664 215.336H56.608L52.24 227H50.392L47.104 217.952L43.792 227H41.92ZM58.7637 212.432V210.248H61.1637V212.432H58.7637ZM59.0037 227V215.336H60.9477V227H59.0037ZM69.2618 227.216C67.8858 227.216 66.8538 226.856 66.1658 226.136C65.4778 225.4 65.1338 224.344 65.1338 222.968V216.848H62.8538V215.336H65.1338V211.76H67.0778V215.336H70.7738V216.848H67.0778V222.776C67.0778 223.688 67.2698 224.384 67.6538 224.864C68.0378 225.328 68.6618 225.56 69.5258 225.56C69.7818 225.56 70.0378 225.528 70.2938 225.464C70.5498 225.4 70.7818 225.336 70.9898 225.272L71.3258 226.76C71.1178 226.872 70.8138 226.976 70.4138 227.072C70.0138 227.168 69.6298 227.216 69.2618 227.216ZM72.9724 227V210.08H74.9164V217.256C75.3004 216.552 75.8364 216.024 76.5244 215.672C77.2284 215.304 78.0124 215.12 78.8764 215.12C81.6444 215.12 83.0284 216.656 83.0284 219.728V227H81.0844V219.848C81.0844 218.76 80.8684 217.968 80.4364 217.472C80.0204 216.96 79.3484 216.704 78.4204 216.704C77.3484 216.704 76.4924 217.04 75.8524 217.712C75.2284 218.368 74.9164 219.248 74.9164 220.352V227H72.9724ZM91.4611 227.216C90.3251 227.216 89.3411 226.968 88.5091 226.472C87.6771 225.976 87.0291 225.28 86.5651 224.384C86.1171 223.472 85.8931 222.4 85.8931 221.168C85.8931 219.936 86.1171 218.872 86.5651 217.976C87.0291 217.064 87.6771 216.36 88.5091 215.864C89.3411 215.368 90.3251 215.12 91.4611 215.12C92.5811 215.12 93.5571 215.368 94.3891 215.864C95.2371 216.36 95.8851 217.064 96.3331 217.976C96.7971 218.872 97.0291 219.936 97.0291 221.168C97.0291 222.4 96.7971 223.472 96.3331 224.384C95.8851 225.28 95.2371 225.976 94.3891 226.472C93.5571 226.968 92.5811 227.216 91.4611 227.216ZM91.4611 225.656C92.5491 225.656 93.4211 225.272 94.0771 224.504C94.7331 223.72 95.0611 222.608 95.0611 221.168C95.0611 219.712 94.7331 218.6 94.0771 217.832C93.4211 217.064 92.5491 216.68 91.4611 216.68C90.3571 216.68 89.4771 217.064 88.8211 217.832C88.1811 218.6 87.8611 219.712 87.8611 221.168C87.8611 222.608 88.1811 223.72 88.8211 224.504C89.4771 225.272 90.3571 225.656 91.4611 225.656ZM104.077 227.216C101.277 227.216 99.877 225.672 99.877 222.584V215.336H101.821V222.56C101.821 223.6 102.029 224.368 102.445 224.864C102.877 225.36 103.549 225.608 104.461 225.608C105.453 225.608 106.261 225.28 106.885 224.624C107.509 223.952 107.821 223.064 107.821 221.96V215.336H109.765V227H107.869V225.032C107.501 225.736 106.981 226.28 106.309 226.664C105.653 227.032 104.909 227.216 104.077 227.216ZM118.082 227.216C116.706 227.216 115.674 226.856 114.986 226.136C114.298 225.4 113.954 224.344 113.954 222.968V216.848H111.674V215.336H113.954V211.76H115.898V215.336H119.594V216.848H115.898V222.776C115.898 223.688 116.09 224.384 116.474 224.864C116.858 225.328 117.482 225.56 118.346 225.56C118.602 225.56 118.858 225.528 119.114 225.464C119.37 225.4 119.602 225.336 119.81 225.272L120.146 226.76C119.938 226.872 119.634 226.976 119.234 227.072C118.834 227.168 118.45 227.216 118.082 227.216ZM132.637 227.216C131.261 227.216 130.229 226.856 129.541 226.136C128.853 225.4 128.509 224.344 128.509 222.968V216.848H126.229V215.336H128.509V211.76H130.453V215.336H134.149V216.848H130.453V222.776C130.453 223.688 130.645 224.384 131.029 224.864C131.413 225.328 132.037 225.56 132.901 225.56C133.157 225.56 133.413 225.528 133.669 225.464C133.925 225.4 134.157 225.336 134.365 225.272L134.701 226.76C134.493 226.872 134.189 226.976 133.789 227.072C133.389 227.168 133.005 227.216 132.637 227.216ZM136.347 227V210.08H138.291V217.256C138.675 216.552 139.211 216.024 139.899 215.672C140.603 215.304 141.387 215.12 142.251 215.12C145.019 215.12 146.403 216.656 146.403 219.728V227H144.459V219.848C144.459 218.76 144.243 217.968 143.811 217.472C143.395 216.96 142.723 216.704 141.795 216.704C140.723 216.704 139.867 217.04 139.227 217.712C138.603 218.368 138.291 219.248 138.291 220.352V227H136.347ZM155.244 227.216C153.404 227.216 151.948 226.68 150.876 225.608C149.804 224.52 149.268 223.048 149.268 221.192C149.268 219.992 149.508 218.936 149.988 218.024C150.468 217.096 151.124 216.384 151.956 215.888C152.804 215.376 153.78 215.12 154.884 215.12C156.468 215.12 157.708 215.632 158.604 216.656C159.5 217.664 159.948 219.056 159.948 220.832V221.576H151.164C151.228 222.904 151.612 223.92 152.316 224.624C153.02 225.312 153.996 225.656 155.244 225.656C155.948 225.656 156.62 225.552 157.26 225.344C157.9 225.12 158.508 224.76 159.084 224.264L159.756 225.632C159.228 226.128 158.556 226.52 157.74 226.808C156.924 227.08 156.092 227.216 155.244 227.216ZM154.932 216.56C153.828 216.56 152.956 216.904 152.316 217.592C151.676 218.28 151.3 219.184 151.188 220.304H158.268C158.22 219.12 157.908 218.2 157.332 217.544C156.772 216.888 155.972 216.56 154.932 216.56ZM168.926 227V215.336H170.822V217.328C171.206 216.592 171.75 216.04 172.454 215.672C173.158 215.304 173.95 215.12 174.83 215.12C177.598 215.12 178.982 216.656 178.982 219.728V227H177.038V219.848C177.038 218.76 176.822 217.968 176.39 217.472C175.974 216.96 175.302 216.704 174.374 216.704C173.302 216.704 172.446 217.04 171.806 217.712C171.182 218.368 170.87 219.248 170.87 220.352V227H168.926ZM187.822 227.216C185.982 227.216 184.526 226.68 183.454 225.608C182.382 224.52 181.846 223.048 181.846 221.192C181.846 219.992 182.086 218.936 182.566 218.024C183.046 217.096 183.702 216.384 184.534 215.888C185.382 215.376 186.358 215.12 187.462 215.12C189.046 215.12 190.286 215.632 191.182 216.656C192.078 217.664 192.526 219.056 192.526 220.832V221.576H183.742C183.806 222.904 184.19 223.92 184.894 224.624C185.598 225.312 186.574 225.656 187.822 225.656C188.526 225.656 189.198 225.552 189.838 225.344C190.478 225.12 191.086 224.76 191.662 224.264L192.334 225.632C191.806 226.128 191.134 226.52 190.318 226.808C189.502 227.08 188.67 227.216 187.822 227.216ZM187.51 216.56C186.406 216.56 185.534 216.904 184.894 217.592C184.254 218.28 183.878 219.184 183.766 220.304H190.846C190.798 219.12 190.486 218.2 189.91 217.544C189.35 216.888 188.55 216.56 187.51 216.56ZM200.596 227.216C198.756 227.216 197.3 226.68 196.228 225.608C195.156 224.52 194.62 223.048 194.62 221.192C194.62 219.992 194.86 218.936 195.34 218.024C195.82 217.096 196.476 216.384 197.308 215.888C198.156 215.376 199.132 215.12 200.236 215.12C201.82 215.12 203.06 215.632 203.956 216.656C204.852 217.664 205.3 219.056 205.3 220.832V221.576H196.516C196.58 222.904 196.964 223.92 197.668 224.624C198.372 225.312 199.348 225.656 200.596 225.656C201.3 225.656 201.972 225.552 202.612 225.344C203.252 225.12 203.86 224.76 204.436 224.264L205.108 225.632C204.58 226.128 203.908 226.52 203.092 226.808C202.276 227.08 201.444 227.216 200.596 227.216ZM200.284 216.56C199.18 216.56 198.308 216.904 197.668 217.592C197.028 218.28 196.652 219.184 196.54 220.304H203.62C203.572 219.12 203.26 218.2 202.684 217.544C202.124 216.888 201.324 216.56 200.284 216.56ZM212.553 227.216C211.513 227.216 210.601 226.968 209.817 226.472C209.049 225.976 208.449 225.28 208.017 224.384C207.601 223.472 207.393 222.4 207.393 221.168C207.393 219.92 207.601 218.848 208.017 217.952C208.449 217.04 209.049 216.344 209.817 215.864C210.601 215.368 211.513 215.12 212.553 215.12C213.465 215.12 214.265 215.32 214.953 215.72C215.657 216.12 216.177 216.672 216.513 217.376V210.08H218.457V227H216.561V224.864C216.225 225.6 215.705 226.176 215.001 226.592C214.297 227.008 213.481 227.216 212.553 227.216ZM212.961 225.656C214.049 225.656 214.921 225.272 215.577 224.504C216.233 223.72 216.561 222.608 216.561 221.168C216.561 219.712 216.233 218.6 215.577 217.832C214.921 217.064 214.049 216.68 212.961 216.68C211.857 216.68 210.977 217.064 210.321 217.832C209.681 218.6 209.361 219.712 209.361 221.168C209.361 222.608 209.681 223.72 210.321 224.504C210.977 225.272 211.857 225.656 212.961 225.656ZM228.893 227V216.848H226.589V215.336H228.893V214.928C228.893 213.376 229.277 212.2 230.045 211.4C230.829 210.6 232.029 210.152 233.645 210.056L234.581 210.008L234.749 211.496L233.645 211.568C232.653 211.648 231.933 211.944 231.485 212.456C231.053 212.968 230.837 213.712 230.837 214.688V215.336H234.197V216.848H230.837V227H228.893ZM240.781 227.216C239.645 227.216 238.661 226.968 237.829 226.472C236.997 225.976 236.349 225.28 235.885 224.384C235.437 223.472 235.213 222.4 235.213 221.168C235.213 219.936 235.437 218.872 235.885 217.976C236.349 217.064 236.997 216.36 237.829 215.864C238.661 215.368 239.645 215.12 240.781 215.12C241.901 215.12 242.877 215.368 243.709 215.864C244.557 216.36 245.205 217.064 245.653 217.976C246.117 218.872 246.349 219.936 246.349 221.168C246.349 222.4 246.117 223.472 245.653 224.384C245.205 225.28 244.557 225.976 243.709 226.472C242.877 226.968 241.901 227.216 240.781 227.216ZM240.781 225.656C241.869 225.656 242.741 225.272 243.397 224.504C244.053 223.72 244.381 222.608 244.381 221.168C244.381 219.712 244.053 218.6 243.397 217.832C242.741 217.064 241.869 216.68 240.781 216.68C239.677 216.68 238.797 217.064 238.141 217.832C237.501 218.6 237.181 219.712 237.181 221.168C237.181 222.608 237.501 223.72 238.141 224.504C238.797 225.272 239.677 225.656 240.781 225.656ZM249.269 227V215.336H251.165V217.424C251.789 216.016 253.069 215.24 255.005 215.096L255.701 215.024L255.845 216.704L254.621 216.848C253.517 216.944 252.677 217.296 252.101 217.904C251.525 218.496 251.237 219.312 251.237 220.352V227H249.269ZM267.971 227.216C267.059 227.216 266.195 227.088 265.379 226.832C264.563 226.576 263.891 226.216 263.363 225.752L263.987 224.384C264.563 224.848 265.195 225.192 265.883 225.416C266.587 225.624 267.299 225.728 268.019 225.728C268.931 225.728 269.619 225.56 270.083 225.224C270.547 224.888 270.779 224.432 270.779 223.856C270.779 223.408 270.627 223.056 270.323 222.8C270.019 222.528 269.539 222.32 268.883 222.176L266.699 221.696C264.715 221.264 263.723 220.24 263.723 218.624C263.723 217.568 264.139 216.72 264.971 216.08C265.819 215.44 266.923 215.12 268.283 215.12C269.083 215.12 269.843 215.248 270.563 215.504C271.299 215.744 271.907 216.104 272.387 216.584L271.739 217.952C271.275 217.52 270.731 217.192 270.107 216.968C269.499 216.728 268.891 216.608 268.283 216.608C267.387 216.608 266.707 216.784 266.243 217.136C265.779 217.488 265.547 217.952 265.547 218.528C265.547 219.424 266.139 220 267.323 220.256L269.507 220.712C270.531 220.936 271.307 221.296 271.835 221.792C272.363 222.272 272.627 222.928 272.627 223.76C272.627 224.832 272.203 225.68 271.355 226.304C270.507 226.912 269.379 227.216 267.971 227.216ZM279.718 227.216C276.918 227.216 275.518 225.672 275.518 222.584V215.336H277.462V222.56C277.462 223.6 277.67 224.368 278.086 224.864C278.518 225.36 279.19 225.608 280.102 225.608C281.094 225.608 281.902 225.28 282.526 224.624C283.15 223.952 283.462 223.064 283.462 221.96V215.336H285.406V227H283.51V225.032C283.142 225.736 282.622 226.28 281.95 226.664C281.294 227.032 280.55 227.216 279.718 227.216ZM289.043 227V215.336H290.939V217.424C291.563 216.016 292.843 215.24 294.779 215.096L295.475 215.024L295.619 216.704L294.395 216.848C293.291 216.944 292.451 217.296 291.875 217.904C291.299 218.496 291.011 219.312 291.011 220.352V227H289.043ZM302.664 231.536C301.656 231.536 300.704 231.4 299.808 231.128C298.928 230.872 298.144 230.48 297.456 229.952L298.104 228.536C298.824 229.048 299.536 229.416 300.24 229.64C300.96 229.864 301.736 229.976 302.568 229.976C304.872 229.976 306.024 228.792 306.024 226.424V224.36C305.688 225.096 305.16 225.68 304.44 226.112C303.736 226.528 302.928 226.736 302.016 226.736C300.944 226.736 300.016 226.488 299.232 225.992C298.448 225.496 297.84 224.816 297.408 223.952C296.992 223.072 296.784 222.056 296.784 220.904C296.784 219.752 296.992 218.744 297.408 217.88C297.84 217 298.448 216.32 299.232 215.84C300.016 215.36 300.944 215.12 302.016 215.12C302.928 215.12 303.736 215.328 304.44 215.744C305.16 216.16 305.688 216.728 306.024 217.448V215.336H307.92V226.16C307.92 227.952 307.472 229.296 306.576 230.192C305.696 231.088 304.392 231.536 302.664 231.536ZM302.376 225.152C303.496 225.152 304.384 224.768 305.04 224C305.696 223.232 306.024 222.2 306.024 220.904C306.024 219.608 305.696 218.584 305.04 217.832C304.384 217.064 303.496 216.68 302.376 216.68C301.272 216.68 300.392 217.064 299.736 217.832C299.08 218.584 298.752 219.608 298.752 220.904C298.752 222.2 299.08 223.232 299.736 224C300.392 224.768 301.272 225.152 302.376 225.152ZM316.822 227.216C314.982 227.216 313.526 226.68 312.454 225.608C311.382 224.52 310.846 223.048 310.846 221.192C310.846 219.992 311.086 218.936 311.566 218.024C312.046 217.096 312.702 216.384 313.534 215.888C314.382 215.376 315.358 215.12 316.462 215.12C318.046 215.12 319.286 215.632 320.182 216.656C321.078 217.664 321.526 219.056 321.526 220.832V221.576H312.742C312.806 222.904 313.19 223.92 313.894 224.624C314.598 225.312 315.574 225.656 316.822 225.656C317.526 225.656 318.198 225.552 318.838 225.344C319.478 225.12 320.086 224.76 320.662 224.264L321.334 225.632C320.806 226.128 320.134 226.52 319.318 226.808C318.502 227.08 317.67 227.216 316.822 227.216ZM316.51 216.56C315.406 216.56 314.534 216.904 313.894 217.592C313.254 218.28 312.878 219.184 312.766 220.304H319.846C319.798 219.12 319.486 218.2 318.91 217.544C318.35 216.888 317.55 216.56 316.51 216.56ZM324.34 227V215.336H326.236V217.424C326.86 216.016 328.14 215.24 330.076 215.096L330.772 215.024L330.916 216.704L329.692 216.848C328.588 216.944 327.748 217.296 327.172 217.904C326.596 218.496 326.308 219.312 326.308 220.352V227H324.34ZM335.012 231.32L337.004 226.808L332.084 215.336H334.196L338.06 224.792L341.948 215.336H343.988L337.052 231.32H335.012ZM344.512 227V224.552H346.96V227H344.512Z" fill="white"/>
</g>
<defs>
<clipPath id="clip0_808_4063">
<rect width="389" height="297" rx="30" fill="white"/>
</clipPath>
</defs>
</svg>
