<svg width="389" height="297" viewBox="0 0 389 297" fill="none" xmlns="http://www.w3.org/2000/svg">
<g clip-path="url(#clip0_808_4053)">
<rect width="389" height="297" rx="30" fill="#9C003C"/>
<rect width="389" height="297" rx="24" fill="#9C003C" fill-opacity="0.58"/>
<rect width="58.5491" height="58.5734" rx="29.2746" transform="matrix(-0.593079 -0.805144 0.80593 -0.59201 341.725 81.8165)" fill="#9C003C"/>
<path d="M345.7 33.2952L357.449 34.1567C357.57 34.1655 357.685 34.1976 357.786 34.251C357.888 34.3045 357.974 34.3783 358.041 34.4682C358.107 34.5581 358.152 34.6624 358.172 34.7751C358.193 34.8878 358.19 35.0067 358.162 35.125L355.487 46.5816C355.431 46.8204 355.281 47.0424 355.068 47.1986C354.855 47.3548 354.598 47.4324 354.353 47.4145C354.108 47.3965 353.896 47.2844 353.762 47.1028C353.628 46.9212 353.584 46.685 353.64 46.4461L355.809 37.1624L340.114 48.6912C339.901 48.8473 339.644 48.9249 339.4 48.907C339.155 48.889 338.942 48.777 338.808 48.5955C338.675 48.414 338.631 48.1779 338.687 47.9392C338.742 47.7005 338.893 47.4786 339.106 47.3225L354.8 35.7937L345.28 35.0964C345.035 35.0785 344.822 34.9664 344.688 34.7848C344.554 34.6032 344.511 34.367 344.566 34.1281C344.622 33.8893 344.773 33.6673 344.986 33.5111C345.198 33.3549 345.455 33.2773 345.7 33.2952Z" fill="white"/>
<path d="M39.088 115V98.08H44.8C47.536 98.08 49.648 98.808 51.136 100.264C52.624 101.704 53.368 103.792 53.368 106.528C53.368 109.264 52.624 111.36 51.136 112.816C49.648 114.272 47.536 115 44.8 115H39.088ZM41.056 113.32H44.656C49.072 113.32 51.28 111.056 51.28 106.528C51.28 102.016 49.072 99.76 44.656 99.76H41.056V113.32ZM56.3965 100.432V98.248H58.7965V100.432H56.3965ZM56.6365 115V103.336H58.5805V115H56.6365ZM66.1506 115.216C65.2386 115.216 64.3746 115.088 63.5586 114.832C62.7426 114.576 62.0706 114.216 61.5426 113.752L62.1666 112.384C62.7426 112.848 63.3746 113.192 64.0626 113.416C64.7666 113.624 65.4786 113.728 66.1986 113.728C67.1106 113.728 67.7986 113.56 68.2626 113.224C68.7266 112.888 68.9586 112.432 68.9586 111.856C68.9586 111.408 68.8066 111.056 68.5026 110.8C68.1986 110.528 67.7186 110.32 67.0626 110.176L64.8786 109.696C62.8946 109.264 61.9026 108.24 61.9026 106.624C61.9026 105.568 62.3186 104.72 63.1506 104.08C63.9986 103.44 65.1026 103.12 66.4626 103.12C67.2626 103.12 68.0226 103.248 68.7426 103.504C69.4786 103.744 70.0866 104.104 70.5666 104.584L69.9186 105.952C69.4546 105.52 68.9106 105.192 68.2866 104.968C67.6786 104.728 67.0706 104.608 66.4626 104.608C65.5666 104.608 64.8866 104.784 64.4226 105.136C63.9586 105.488 63.7266 105.952 63.7266 106.528C63.7266 107.424 64.3186 108 65.5026 108.256L67.6866 108.712C68.7106 108.936 69.4866 109.296 70.0146 109.792C70.5426 110.272 70.8066 110.928 70.8066 111.76C70.8066 112.832 70.3826 113.68 69.5346 114.304C68.6866 114.912 67.5586 115.216 66.1506 115.216ZM78.7133 115.216C77.5453 115.216 76.5373 114.968 75.6893 114.472C74.8413 113.96 74.1853 113.248 73.7213 112.336C73.2733 111.408 73.0493 110.328 73.0493 109.096C73.0493 107.24 73.5533 105.784 74.5613 104.728C75.5693 103.656 76.9533 103.12 78.7133 103.12C79.4333 103.12 80.1453 103.248 80.8493 103.504C81.5533 103.76 82.1373 104.12 82.6013 104.584L81.9293 106C81.4653 105.552 80.9533 105.224 80.3933 105.016C79.8493 104.808 79.3293 104.704 78.8333 104.704C77.6173 104.704 76.6813 105.088 76.0253 105.856C75.3693 106.608 75.0413 107.696 75.0413 109.12C75.0413 110.512 75.3693 111.616 76.0253 112.432C76.6813 113.232 77.6173 113.632 78.8333 113.632C79.3293 113.632 79.8493 113.528 80.3933 113.32C80.9533 113.112 81.4653 112.776 81.9293 112.312L82.6013 113.728C82.1373 114.192 81.5453 114.56 80.8253 114.832C80.1213 115.088 79.4173 115.216 78.7133 115.216ZM89.4923 115.216C88.3563 115.216 87.3723 114.968 86.5403 114.472C85.7083 113.976 85.0603 113.28 84.5963 112.384C84.1483 111.472 83.9243 110.4 83.9243 109.168C83.9243 107.936 84.1483 106.872 84.5963 105.976C85.0603 105.064 85.7083 104.36 86.5403 103.864C87.3723 103.368 88.3563 103.12 89.4923 103.12C90.6123 103.12 91.5883 103.368 92.4203 103.864C93.2683 104.36 93.9163 105.064 94.3643 105.976C94.8283 106.872 95.0603 107.936 95.0603 109.168C95.0603 110.4 94.8283 111.472 94.3643 112.384C93.9163 113.28 93.2683 113.976 92.4203 114.472C91.5883 114.968 90.6123 115.216 89.4923 115.216ZM89.4923 113.656C90.5803 113.656 91.4523 113.272 92.1083 112.504C92.7643 111.72 93.0923 110.608 93.0923 109.168C93.0923 107.712 92.7643 106.6 92.1083 105.832C91.4523 105.064 90.5803 104.68 89.4923 104.68C88.3883 104.68 87.5083 105.064 86.8523 105.832C86.2123 106.6 85.8923 107.712 85.8923 109.168C85.8923 110.608 86.2123 111.72 86.8523 112.504C87.5083 113.272 88.3883 113.656 89.4923 113.656ZM101.248 115L96.2322 103.336H98.3442L102.208 112.792L106.12 103.336H108.112L103.072 115H101.248ZM115.26 115.216C113.42 115.216 111.964 114.68 110.892 113.608C109.82 112.52 109.284 111.048 109.284 109.192C109.284 107.992 109.524 106.936 110.004 106.024C110.484 105.096 111.14 104.384 111.972 103.888C112.82 103.376 113.796 103.12 114.9 103.12C116.484 103.12 117.724 103.632 118.62 104.656C119.516 105.664 119.964 107.056 119.964 108.832V109.576H111.18C111.244 110.904 111.628 111.92 112.332 112.624C113.036 113.312 114.012 113.656 115.26 113.656C115.964 113.656 116.636 113.552 117.276 113.344C117.916 113.12 118.524 112.76 119.1 112.264L119.772 113.632C119.244 114.128 118.572 114.52 117.756 114.808C116.94 115.08 116.108 115.216 115.26 115.216ZM114.948 104.56C113.844 104.56 112.972 104.904 112.332 105.592C111.692 106.28 111.316 107.184 111.204 108.304H118.284C118.236 107.12 117.924 106.2 117.348 105.544C116.788 104.888 115.988 104.56 114.948 104.56ZM122.777 115V103.336H124.673V105.424C125.297 104.016 126.577 103.24 128.513 103.096L129.209 103.024L129.353 104.704L128.129 104.848C127.025 104.944 126.185 105.296 125.609 105.904C125.033 106.496 124.745 107.312 124.745 108.352V115H122.777ZM142.223 115.216C140.847 115.216 139.815 114.856 139.127 114.136C138.439 113.4 138.095 112.344 138.095 110.968V104.848H135.815V103.336H138.095V99.76H140.039V103.336H143.735V104.848H140.039V110.776C140.039 111.688 140.231 112.384 140.615 112.864C140.999 113.328 141.623 113.56 142.487 113.56C142.743 113.56 142.999 113.528 143.255 113.464C143.511 113.4 143.743 113.336 143.951 113.272L144.287 114.76C144.079 114.872 143.775 114.976 143.375 115.072C142.975 115.168 142.591 115.216 142.223 115.216ZM145.933 115V98.08H147.877V105.256C148.261 104.552 148.797 104.024 149.485 103.672C150.189 103.304 150.973 103.12 151.837 103.12C154.605 103.12 155.989 104.656 155.989 107.728V115H154.045V107.848C154.045 106.76 153.829 105.968 153.397 105.472C152.981 104.96 152.309 104.704 151.381 104.704C150.309 104.704 149.453 105.04 148.813 105.712C148.189 106.368 147.877 107.248 147.877 108.352V115H145.933ZM164.83 115.216C162.99 115.216 161.534 114.68 160.462 113.608C159.39 112.52 158.854 111.048 158.854 109.192C158.854 107.992 159.094 106.936 159.574 106.024C160.054 105.096 160.71 104.384 161.542 103.888C162.39 103.376 163.366 103.12 164.47 103.12C166.054 103.12 167.294 103.632 168.19 104.656C169.086 105.664 169.534 107.056 169.534 108.832V109.576H160.75C160.814 110.904 161.198 111.92 161.902 112.624C162.606 113.312 163.582 113.656 164.83 113.656C165.534 113.656 166.206 113.552 166.846 113.344C167.486 113.12 168.094 112.76 168.67 112.264L169.342 113.632C168.814 114.128 168.142 114.52 167.326 114.808C166.51 115.08 165.678 115.216 164.83 115.216ZM164.518 104.56C163.414 104.56 162.542 104.904 161.902 105.592C161.262 106.28 160.886 107.184 160.774 108.304H167.854C167.806 107.12 167.494 106.2 166.918 105.544C166.358 104.888 165.558 104.56 164.518 104.56ZM178.512 115V103.336H180.408V105.424C181.032 104.016 182.312 103.24 184.248 103.096L184.944 103.024L185.088 104.704L183.864 104.848C182.76 104.944 181.92 105.296 181.344 105.904C180.768 106.496 180.48 107.312 180.48 108.352V115H178.512ZM192.228 115.216C190.388 115.216 188.932 114.68 187.86 113.608C186.788 112.52 186.252 111.048 186.252 109.192C186.252 107.992 186.492 106.936 186.972 106.024C187.452 105.096 188.108 104.384 188.94 103.888C189.788 103.376 190.764 103.12 191.868 103.12C193.452 103.12 194.692 103.632 195.588 104.656C196.484 105.664 196.932 107.056 196.932 108.832V109.576H188.148C188.212 110.904 188.596 111.92 189.3 112.624C190.004 113.312 190.98 113.656 192.228 113.656C192.932 113.656 193.604 113.552 194.244 113.344C194.884 113.12 195.492 112.76 196.068 112.264L196.74 113.632C196.212 114.128 195.54 114.52 194.724 114.808C193.908 115.08 193.076 115.216 192.228 115.216ZM191.916 104.56C190.812 104.56 189.94 104.904 189.3 105.592C188.66 106.28 188.284 107.184 188.172 108.304H195.252C195.204 107.12 194.892 106.2 194.316 105.544C193.756 104.888 192.956 104.56 191.916 104.56ZM199.794 115V103.336H201.69V105.304C202.042 104.6 202.53 104.064 203.154 103.696C203.778 103.312 204.506 103.12 205.338 103.12C207.162 103.12 208.33 103.912 208.842 105.496C209.194 104.76 209.714 104.184 210.402 103.768C211.09 103.336 211.882 103.12 212.778 103.12C215.37 103.12 216.666 104.656 216.666 107.728V115H214.722V107.824C214.722 106.752 214.53 105.968 214.146 105.472C213.778 104.96 213.162 104.704 212.298 104.704C211.354 104.704 210.602 105.04 210.042 105.712C209.482 106.384 209.202 107.28 209.202 108.4V115H207.258V107.824C207.258 106.752 207.066 105.968 206.682 105.472C206.314 104.96 205.698 104.704 204.834 104.704C203.874 104.704 203.114 105.04 202.554 105.712C202.01 106.384 201.738 107.28 201.738 108.4V115H199.794ZM223.973 115.216C223.173 115.216 222.453 115.064 221.813 114.76C221.189 114.44 220.693 114.008 220.325 113.464C219.957 112.92 219.773 112.312 219.773 111.64C219.773 110.792 219.989 110.12 220.421 109.624C220.869 109.128 221.597 108.776 222.605 108.568C223.629 108.344 225.021 108.232 226.781 108.232H227.549V107.488C227.549 106.496 227.341 105.784 226.925 105.352C226.525 104.904 225.877 104.68 224.981 104.68C224.277 104.68 223.597 104.784 222.941 104.992C222.285 105.184 221.613 105.504 220.925 105.952L220.253 104.536C220.861 104.104 221.597 103.76 222.461 103.504C223.341 103.248 224.181 103.12 224.981 103.12C226.485 103.12 227.597 103.488 228.317 104.224C229.053 104.96 229.421 106.104 229.421 107.656V115H227.597V112.984C227.293 113.672 226.821 114.216 226.181 114.616C225.557 115.016 224.821 115.216 223.973 115.216ZM224.285 113.752C225.245 113.752 226.029 113.424 226.637 112.768C227.245 112.096 227.549 111.248 227.549 110.224V109.504H226.805C225.509 109.504 224.485 109.568 223.733 109.696C222.997 109.808 222.477 110.016 222.173 110.32C221.885 110.608 221.741 111.008 221.741 111.52C221.741 112.176 221.965 112.712 222.413 113.128C222.877 113.544 223.501 113.752 224.285 113.752ZM233.027 115V103.336H234.923V105.424C235.547 104.016 236.827 103.24 238.763 103.096L239.459 103.024L239.603 104.704L238.379 104.848C237.275 104.944 236.435 105.296 235.859 105.904C235.283 106.496 234.995 107.312 234.995 108.352V115H233.027ZM241.629 115V98.08H243.573V108.52H243.621L249.021 103.336H251.493L245.637 108.952L251.997 115H249.525L243.621 109.528H243.573V115H241.629ZM257.184 115.216C256.384 115.216 255.664 115.064 255.024 114.76C254.4 114.44 253.904 114.008 253.536 113.464C253.168 112.92 252.984 112.312 252.984 111.64C252.984 110.792 253.2 110.12 253.632 109.624C254.08 109.128 254.808 108.776 255.816 108.568C256.84 108.344 258.232 108.232 259.992 108.232H260.76V107.488C260.76 106.496 260.552 105.784 260.136 105.352C259.736 104.904 259.088 104.68 258.192 104.68C257.488 104.68 256.808 104.784 256.152 104.992C255.496 105.184 254.824 105.504 254.136 105.952L253.464 104.536C254.072 104.104 254.808 103.76 255.672 103.504C256.552 103.248 257.392 103.12 258.192 103.12C259.696 103.12 260.808 103.488 261.528 104.224C262.264 104.96 262.632 106.104 262.632 107.656V115H260.808V112.984C260.504 113.672 260.032 114.216 259.392 114.616C258.768 115.016 258.032 115.216 257.184 115.216ZM257.496 113.752C258.456 113.752 259.24 113.424 259.848 112.768C260.456 112.096 260.76 111.248 260.76 110.224V109.504H260.016C258.72 109.504 257.696 109.568 256.944 109.696C256.208 109.808 255.688 110.016 255.384 110.32C255.096 110.608 254.952 111.008 254.952 111.52C254.952 112.176 255.176 112.712 255.624 113.128C256.088 113.544 256.712 113.752 257.496 113.752ZM272.142 115.216C271.214 115.216 270.398 115.008 269.694 114.592C269.006 114.176 268.486 113.608 268.134 112.888V115H266.238V98.08H268.182V105.352C268.518 104.664 269.038 104.12 269.742 103.72C270.446 103.32 271.246 103.12 272.142 103.12C273.182 103.12 274.086 103.368 274.854 103.864C275.638 104.344 276.238 105.04 276.654 105.952C277.086 106.848 277.302 107.92 277.302 109.168C277.302 110.4 277.086 111.472 276.654 112.384C276.238 113.28 275.638 113.976 274.854 114.472C274.086 114.968 273.182 115.216 272.142 115.216ZM271.734 113.656C272.822 113.656 273.694 113.272 274.35 112.504C275.006 111.72 275.334 110.608 275.334 109.168C275.334 107.712 275.006 106.6 274.35 105.832C273.694 105.064 272.822 104.68 271.734 104.68C270.646 104.68 269.774 105.064 269.118 105.832C268.462 106.6 268.134 107.712 268.134 109.168C268.134 110.608 268.462 111.72 269.118 112.504C269.774 113.272 270.646 113.656 271.734 113.656ZM283.806 115.216C282.622 115.216 281.726 114.872 281.118 114.184C280.526 113.48 280.23 112.464 280.23 111.136V98.08H282.174V110.992C282.174 112.704 282.854 113.56 284.214 113.56C284.614 113.56 284.974 113.512 285.294 113.416L285.246 115.048C284.75 115.16 284.27 115.216 283.806 115.216ZM292.471 115.216C290.631 115.216 289.175 114.68 288.103 113.608C287.031 112.52 286.495 111.048 286.495 109.192C286.495 107.992 286.735 106.936 287.215 106.024C287.695 105.096 288.351 104.384 289.183 103.888C290.031 103.376 291.007 103.12 292.111 103.12C293.695 103.12 294.935 103.632 295.831 104.656C296.727 105.664 297.175 107.056 297.175 108.832V109.576H288.391C288.455 110.904 288.839 111.92 289.543 112.624C290.247 113.312 291.223 113.656 292.471 113.656C293.175 113.656 293.847 113.552 294.487 113.344C295.127 113.12 295.735 112.76 296.311 112.264L296.983 113.632C296.455 114.128 295.783 114.52 294.967 114.808C294.151 115.08 293.319 115.216 292.471 115.216ZM292.159 104.56C291.055 104.56 290.183 104.904 289.543 105.592C288.903 106.28 288.527 107.184 288.415 108.304H295.495C295.447 107.12 295.135 106.2 294.559 105.544C293.999 104.888 293.199 104.56 292.159 104.56ZM44.728 143.216C43.8 143.216 42.984 143.008 42.28 142.592C41.592 142.176 41.072 141.608 40.72 140.888V143H38.824V126.08H40.768V133.352C41.104 132.664 41.624 132.12 42.328 131.72C43.032 131.32 43.832 131.12 44.728 131.12C45.768 131.12 46.672 131.368 47.44 131.864C48.224 132.344 48.824 133.04 49.24 133.952C49.672 134.848 49.888 135.92 49.888 137.168C49.888 138.4 49.672 139.472 49.24 140.384C48.824 141.28 48.224 141.976 47.44 142.472C46.672 142.968 45.768 143.216 44.728 143.216ZM44.32 141.656C45.408 141.656 46.28 141.272 46.936 140.504C47.592 139.72 47.92 138.608 47.92 137.168C47.92 135.712 47.592 134.6 46.936 133.832C46.28 133.064 45.408 132.68 44.32 132.68C43.232 132.68 42.36 133.064 41.704 133.832C41.048 134.6 40.72 135.712 40.72 137.168C40.72 138.608 41.048 139.72 41.704 140.504C42.36 141.272 43.232 141.656 44.32 141.656ZM58.0722 143.216C56.2322 143.216 54.7762 142.68 53.7042 141.608C52.6322 140.52 52.0962 139.048 52.0962 137.192C52.0962 135.992 52.3362 134.936 52.8162 134.024C53.2962 133.096 53.9522 132.384 54.7842 131.888C55.6322 131.376 56.6082 131.12 57.7122 131.12C59.2962 131.12 60.5362 131.632 61.4322 132.656C62.3282 133.664 62.7762 135.056 62.7762 136.832V137.576H53.9922C54.0562 138.904 54.4402 139.92 55.1442 140.624C55.8482 141.312 56.8242 141.656 58.0722 141.656C58.7762 141.656 59.4482 141.552 60.0882 141.344C60.7282 141.12 61.3362 140.76 61.9122 140.264L62.5842 141.632C62.0562 142.128 61.3842 142.52 60.5682 142.808C59.7522 143.08 58.9202 143.216 58.0722 143.216ZM57.7602 132.56C56.6562 132.56 55.7842 132.904 55.1442 133.592C54.5042 134.28 54.1282 135.184 54.0162 136.304H61.0962C61.0482 135.12 60.7362 134.2 60.1602 133.544C59.6002 132.888 58.8002 132.56 57.7602 132.56ZM65.5896 143V131.336H67.4856V133.328C67.8696 132.592 68.4136 132.04 69.1176 131.672C69.8216 131.304 70.6136 131.12 71.4936 131.12C74.2616 131.12 75.6456 132.656 75.6456 135.728V143H73.7016V135.848C73.7016 134.76 73.4856 133.968 73.0536 133.472C72.6376 132.96 71.9656 132.704 71.0376 132.704C69.9656 132.704 69.1096 133.04 68.4696 133.712C67.8456 134.368 67.5336 135.248 67.5336 136.352V143H65.5896ZM84.4863 143.216C82.6463 143.216 81.1903 142.68 80.1183 141.608C79.0463 140.52 78.5103 139.048 78.5103 137.192C78.5103 135.992 78.7503 134.936 79.2303 134.024C79.7103 133.096 80.3663 132.384 81.1983 131.888C82.0463 131.376 83.0223 131.12 84.1263 131.12C85.7103 131.12 86.9503 131.632 87.8463 132.656C88.7423 133.664 89.1903 135.056 89.1903 136.832V137.576H80.4062C80.4703 138.904 80.8543 139.92 81.5583 140.624C82.2623 141.312 83.2383 141.656 84.4863 141.656C85.1903 141.656 85.8623 141.552 86.5023 141.344C87.1423 141.12 87.7503 140.76 88.3263 140.264L88.9983 141.632C88.4703 142.128 87.7983 142.52 86.9823 142.808C86.1663 143.08 85.3343 143.216 84.4863 143.216ZM84.1743 132.56C83.0703 132.56 82.1983 132.904 81.5583 133.592C80.9183 134.28 80.5423 135.184 80.4303 136.304H87.5103C87.4623 135.12 87.1503 134.2 86.5743 133.544C86.0143 132.888 85.2143 132.56 84.1743 132.56ZM92.6277 143V132.848H90.3237V131.336H92.6277V130.928C92.6277 129.376 93.0117 128.2 93.7797 127.4C94.5637 126.6 95.7637 126.152 97.3797 126.056L98.2677 126.008L98.3877 127.52L97.3797 127.568C96.3877 127.632 95.6677 127.928 95.2197 128.456C94.7877 128.968 94.5717 129.712 94.5717 130.688V131.336H101.772V143H99.8277V132.848H94.5717V143H92.6277ZM99.6117 128.432V126.248H101.988V128.432H99.6117ZM110.09 143.216C108.714 143.216 107.682 142.856 106.994 142.136C106.306 141.4 105.962 140.344 105.962 138.968V132.848H103.682V131.336H105.962V127.76H107.906V131.336H111.602V132.848H107.906V138.776C107.906 139.688 108.098 140.384 108.482 140.864C108.866 141.328 109.49 141.56 110.354 141.56C110.61 141.56 110.866 141.528 111.122 141.464C111.378 141.4 111.61 141.336 111.818 141.272L112.154 142.76C111.946 142.872 111.642 142.976 111.242 143.072C110.842 143.168 110.458 143.216 110.09 143.216ZM117.737 143.216C116.825 143.216 115.961 143.088 115.145 142.832C114.329 142.576 113.657 142.216 113.129 141.752L113.753 140.384C114.329 140.848 114.961 141.192 115.649 141.416C116.353 141.624 117.065 141.728 117.785 141.728C118.697 141.728 119.385 141.56 119.849 141.224C120.313 140.888 120.545 140.432 120.545 139.856C120.545 139.408 120.393 139.056 120.089 138.8C119.785 138.528 119.305 138.32 118.649 138.176L116.465 137.696C114.481 137.264 113.489 136.24 113.489 134.624C113.489 133.568 113.905 132.72 114.737 132.08C115.585 131.44 116.689 131.12 118.049 131.12C118.849 131.12 119.609 131.248 120.329 131.504C121.065 131.744 121.673 132.104 122.153 132.584L121.505 133.952C121.041 133.52 120.497 133.192 119.873 132.968C119.265 132.728 118.657 132.608 118.049 132.608C117.153 132.608 116.473 132.784 116.009 133.136C115.545 133.488 115.313 133.952 115.313 134.528C115.313 135.424 115.905 136 117.089 136.256L119.273 136.712C120.297 136.936 121.073 137.296 121.601 137.792C122.129 138.272 122.393 138.928 122.393 139.76C122.393 140.832 121.969 141.68 121.121 142.304C120.273 142.912 119.145 143.216 117.737 143.216ZM136.367 143.216C135.231 143.216 134.247 142.968 133.415 142.472C132.583 141.976 131.935 141.28 131.471 140.384C131.023 139.472 130.799 138.4 130.799 137.168C130.799 135.936 131.023 134.872 131.471 133.976C131.935 133.064 132.583 132.36 133.415 131.864C134.247 131.368 135.231 131.12 136.367 131.12C137.487 131.12 138.463 131.368 139.295 131.864C140.143 132.36 140.791 133.064 141.239 133.976C141.703 134.872 141.935 135.936 141.935 137.168C141.935 138.4 141.703 139.472 141.239 140.384C140.791 141.28 140.143 141.976 139.295 142.472C138.463 142.968 137.487 143.216 136.367 143.216ZM136.367 141.656C137.455 141.656 138.327 141.272 138.983 140.504C139.639 139.72 139.967 138.608 139.967 137.168C139.967 135.712 139.639 134.6 138.983 133.832C138.327 133.064 137.455 132.68 136.367 132.68C135.263 132.68 134.383 133.064 133.727 133.832C133.087 134.6 132.767 135.712 132.767 137.168C132.767 138.608 133.087 139.72 133.727 140.504C134.383 141.272 135.263 141.656 136.367 141.656ZM145.362 143V132.848H143.058V131.336H145.362V130.928C145.362 129.376 145.746 128.2 146.514 127.4C147.298 126.6 148.498 126.152 150.114 126.056L151.05 126.008L151.218 127.496L150.114 127.568C149.122 127.648 148.402 127.944 147.954 128.456C147.522 128.968 147.306 129.712 147.306 130.688V131.336H150.666V132.848H147.306V143H145.362ZM159.158 143V126.08H165.926C167.67 126.08 169.014 126.472 169.958 127.256C170.918 128.024 171.398 129.104 171.398 130.496C171.398 131.424 171.158 132.216 170.678 132.872C170.198 133.528 169.534 134.008 168.686 134.312C169.662 134.568 170.422 135.04 170.966 135.728C171.526 136.416 171.806 137.288 171.806 138.344C171.806 139.848 171.318 141 170.342 141.8C169.366 142.6 167.99 143 166.214 143H159.158ZM161.078 133.64H165.638C168.182 133.64 169.454 132.648 169.454 130.664C169.454 128.664 168.182 127.664 165.638 127.664H161.078V133.64ZM161.078 141.416H166.022C168.582 141.416 169.862 140.384 169.862 138.32C169.862 136.256 168.582 135.224 166.022 135.224H161.078V141.416ZM179.961 143.216C178.825 143.216 177.841 142.968 177.009 142.472C176.177 141.976 175.529 141.28 175.065 140.384C174.617 139.472 174.393 138.4 174.393 137.168C174.393 135.936 174.617 134.872 175.065 133.976C175.529 133.064 176.177 132.36 177.009 131.864C177.841 131.368 178.825 131.12 179.961 131.12C181.081 131.12 182.057 131.368 182.889 131.864C183.737 132.36 184.385 133.064 184.833 133.976C185.297 134.872 185.529 135.936 185.529 137.168C185.529 138.4 185.297 139.472 184.833 140.384C184.385 141.28 183.737 141.976 182.889 142.472C182.057 142.968 181.081 143.216 179.961 143.216ZM179.961 141.656C181.049 141.656 181.921 141.272 182.577 140.504C183.233 139.72 183.561 138.608 183.561 137.168C183.561 135.712 183.233 134.6 182.577 133.832C181.921 133.064 181.049 132.68 179.961 132.68C178.857 132.68 177.977 133.064 177.321 133.832C176.681 134.6 176.361 135.712 176.361 137.168C176.361 138.608 176.681 139.72 177.321 140.504C177.977 141.272 178.857 141.656 179.961 141.656ZM193.012 143.216C191.636 143.216 190.604 142.856 189.916 142.136C189.228 141.4 188.884 140.344 188.884 138.968V132.848H186.604V131.336H188.884V127.76H190.828V131.336H194.524V132.848H190.828V138.776C190.828 139.688 191.02 140.384 191.404 140.864C191.788 141.328 192.412 141.56 193.276 141.56C193.532 141.56 193.788 141.528 194.044 141.464C194.3 141.4 194.532 141.336 194.74 141.272L195.076 142.76C194.868 142.872 194.564 142.976 194.164 143.072C193.764 143.168 193.38 143.216 193.012 143.216ZM201.453 143.216C200.317 143.216 199.333 142.968 198.501 142.472C197.669 141.976 197.021 141.28 196.557 140.384C196.109 139.472 195.885 138.4 195.885 137.168C195.885 135.936 196.109 134.872 196.557 133.976C197.021 133.064 197.669 132.36 198.501 131.864C199.333 131.368 200.317 131.12 201.453 131.12C202.573 131.12 203.549 131.368 204.381 131.864C205.229 132.36 205.877 133.064 206.325 133.976C206.789 134.872 207.021 135.936 207.021 137.168C207.021 138.4 206.789 139.472 206.325 140.384C205.877 141.28 205.229 141.976 204.381 142.472C203.549 142.968 202.573 143.216 201.453 143.216ZM201.453 141.656C202.541 141.656 203.413 141.272 204.069 140.504C204.725 139.72 205.053 138.608 205.053 137.168C205.053 135.712 204.725 134.6 204.069 133.832C203.413 133.064 202.541 132.68 201.453 132.68C200.349 132.68 199.469 133.064 198.813 133.832C198.173 134.6 197.853 135.712 197.853 137.168C197.853 138.608 198.173 139.72 198.813 140.504C199.469 141.272 200.349 141.656 201.453 141.656ZM208.195 143L213.043 136.976L208.483 131.336H210.787L214.171 135.632L217.579 131.336H219.859L215.299 136.976L220.147 143H217.843L214.147 138.368L210.499 143H208.195ZM229.081 143V132.848H226.777V131.336H229.081V130.928C229.081 129.376 229.465 128.2 230.233 127.4C231.017 126.6 232.217 126.152 233.833 126.056L234.769 126.008L234.937 127.496L233.833 127.568C232.841 127.648 232.121 127.944 231.673 128.456C231.241 128.968 231.025 129.712 231.025 130.688V131.336H234.385V132.848H231.025V143H229.081ZM240.969 143.216C239.833 143.216 238.849 142.968 238.017 142.472C237.185 141.976 236.537 141.28 236.073 140.384C235.625 139.472 235.401 138.4 235.401 137.168C235.401 135.936 235.625 134.872 236.073 133.976C236.537 133.064 237.185 132.36 238.017 131.864C238.849 131.368 239.833 131.12 240.969 131.12C242.089 131.12 243.065 131.368 243.897 131.864C244.745 132.36 245.393 133.064 245.841 133.976C246.305 134.872 246.537 135.936 246.537 137.168C246.537 138.4 246.305 139.472 245.841 140.384C245.393 141.28 244.745 141.976 243.897 142.472C243.065 142.968 242.089 143.216 240.969 143.216ZM240.969 141.656C242.057 141.656 242.929 141.272 243.585 140.504C244.241 139.72 244.569 138.608 244.569 137.168C244.569 135.712 244.241 134.6 243.585 133.832C242.929 133.064 242.057 132.68 240.969 132.68C239.865 132.68 238.985 133.064 238.329 133.832C237.689 134.6 237.369 135.712 237.369 137.168C237.369 138.608 237.689 139.72 238.329 140.504C238.985 141.272 239.865 141.656 240.969 141.656ZM249.457 143V131.336H251.353V133.424C251.977 132.016 253.257 131.24 255.193 131.096L255.889 131.024L256.033 132.704L254.809 132.848C253.705 132.944 252.865 133.296 252.289 133.904C251.713 134.496 251.425 135.312 251.425 136.352V143H249.457ZM42.76 171.216C41.848 171.216 40.984 171.088 40.168 170.832C39.352 170.576 38.68 170.216 38.152 169.752L38.776 168.384C39.352 168.848 39.984 169.192 40.672 169.416C41.376 169.624 42.088 169.728 42.808 169.728C43.72 169.728 44.408 169.56 44.872 169.224C45.336 168.888 45.568 168.432 45.568 167.856C45.568 167.408 45.416 167.056 45.112 166.8C44.808 166.528 44.328 166.32 43.672 166.176L41.488 165.696C39.504 165.264 38.512 164.24 38.512 162.624C38.512 161.568 38.928 160.72 39.76 160.08C40.608 159.44 41.712 159.12 43.072 159.12C43.872 159.12 44.632 159.248 45.352 159.504C46.088 159.744 46.696 160.104 47.176 160.584L46.528 161.952C46.064 161.52 45.52 161.192 44.896 160.968C44.288 160.728 43.68 160.608 43.072 160.608C42.176 160.608 41.496 160.784 41.032 161.136C40.568 161.488 40.336 161.952 40.336 162.528C40.336 163.424 40.928 164 42.112 164.256L44.296 164.712C45.32 164.936 46.096 165.296 46.624 165.792C47.152 166.272 47.416 166.928 47.416 167.76C47.416 168.832 46.992 169.68 46.144 170.304C45.296 170.912 44.168 171.216 42.76 171.216ZM50.4267 171V159.336H52.3227V161.304C52.6747 160.6 53.1627 160.064 53.7867 159.696C54.4107 159.312 55.1387 159.12 55.9707 159.12C57.7947 159.12 58.9627 159.912 59.4747 161.496C59.8267 160.76 60.3467 160.184 61.0347 159.768C61.7227 159.336 62.5147 159.12 63.4107 159.12C66.0027 159.12 67.2987 160.656 67.2987 163.728V171H65.3547V163.824C65.3547 162.752 65.1627 161.968 64.7787 161.472C64.4107 160.96 63.7947 160.704 62.9307 160.704C61.9867 160.704 61.2347 161.04 60.6747 161.712C60.1147 162.384 59.8347 163.28 59.8347 164.4V171H57.8907V163.824C57.8907 162.752 57.6987 161.968 57.3147 161.472C56.9467 160.96 56.3307 160.704 55.4667 160.704C54.5067 160.704 53.7467 161.04 53.1867 161.712C52.6427 162.384 52.3707 163.28 52.3707 164.4V171H50.4267ZM75.7814 171.216C74.6454 171.216 73.6614 170.968 72.8294 170.472C71.9974 169.976 71.3494 169.28 70.8854 168.384C70.4374 167.472 70.2134 166.4 70.2134 165.168C70.2134 163.936 70.4374 162.872 70.8854 161.976C71.3494 161.064 71.9974 160.36 72.8294 159.864C73.6614 159.368 74.6454 159.12 75.7814 159.12C76.9014 159.12 77.8774 159.368 78.7094 159.864C79.5574 160.36 80.2054 161.064 80.6534 161.976C81.1174 162.872 81.3494 163.936 81.3494 165.168C81.3494 166.4 81.1174 167.472 80.6534 168.384C80.2054 169.28 79.5574 169.976 78.7094 170.472C77.8774 170.968 76.9014 171.216 75.7814 171.216ZM75.7814 169.656C76.8694 169.656 77.7414 169.272 78.3974 168.504C79.0534 167.72 79.3814 166.608 79.3814 165.168C79.3814 163.712 79.0534 162.6 78.3974 161.832C77.7414 161.064 76.8694 160.68 75.7814 160.68C74.6774 160.68 73.7974 161.064 73.1414 161.832C72.5014 162.6 72.1814 163.712 72.1814 165.168C72.1814 166.608 72.5014 167.72 73.1414 168.504C73.7974 169.272 74.6774 169.656 75.7814 169.656ZM89.1173 171.216C87.9813 171.216 86.9973 170.968 86.1653 170.472C85.3333 169.976 84.6853 169.28 84.2213 168.384C83.7733 167.472 83.5493 166.4 83.5493 165.168C83.5493 163.936 83.7733 162.872 84.2213 161.976C84.6853 161.064 85.3333 160.36 86.1653 159.864C86.9973 159.368 87.9813 159.12 89.1173 159.12C90.2373 159.12 91.2133 159.368 92.0453 159.864C92.8933 160.36 93.5413 161.064 93.9893 161.976C94.4533 162.872 94.6853 163.936 94.6853 165.168C94.6853 166.4 94.4533 167.472 93.9893 168.384C93.5413 169.28 92.8933 169.976 92.0453 170.472C91.2133 170.968 90.2373 171.216 89.1173 171.216ZM89.1173 169.656C90.2053 169.656 91.0773 169.272 91.7333 168.504C92.3893 167.72 92.7173 166.608 92.7173 165.168C92.7173 163.712 92.3893 162.6 91.7333 161.832C91.0773 161.064 90.2053 160.68 89.1173 160.68C88.0133 160.68 87.1333 161.064 86.4773 161.832C85.8373 162.6 85.5173 163.712 85.5173 165.168C85.5173 166.608 85.8373 167.72 86.4773 168.504C87.1333 169.272 88.0133 169.656 89.1173 169.656ZM102.168 171.216C100.792 171.216 99.7601 170.856 99.0721 170.136C98.3841 169.4 98.0401 168.344 98.0401 166.968V160.848H95.7601V159.336H98.0401V155.76H99.9841V159.336H103.68V160.848H99.9841V166.776C99.9841 167.688 100.176 168.384 100.56 168.864C100.944 169.328 101.568 169.56 102.432 169.56C102.688 169.56 102.944 169.528 103.2 169.464C103.456 169.4 103.688 169.336 103.896 169.272L104.232 170.76C104.024 170.872 103.72 170.976 103.32 171.072C102.92 171.168 102.536 171.216 102.168 171.216ZM105.879 171V154.08H107.823V161.256C108.207 160.552 108.743 160.024 109.431 159.672C110.135 159.304 110.919 159.12 111.783 159.12C114.551 159.12 115.935 160.656 115.935 163.728V171H113.991V163.848C113.991 162.76 113.775 161.968 113.343 161.472C112.927 160.96 112.255 160.704 111.327 160.704C110.255 160.704 109.399 161.04 108.759 161.712C108.135 162.368 107.823 163.248 107.823 164.352V171H105.879ZM119.279 156.432V154.248H121.679V156.432H119.279ZM119.519 171V159.336H121.463V171H119.519ZM125.097 171V159.336H126.993V161.328C127.377 160.592 127.921 160.04 128.625 159.672C129.329 159.304 130.121 159.12 131.001 159.12C133.769 159.12 135.153 160.656 135.153 163.728V171H133.209V163.848C133.209 162.76 132.993 161.968 132.561 161.472C132.145 160.96 131.473 160.704 130.545 160.704C129.473 160.704 128.617 161.04 127.977 161.712C127.353 162.368 127.041 163.248 127.041 164.352V171H125.097ZM143.898 175.536C142.89 175.536 141.938 175.4 141.042 175.128C140.162 174.872 139.378 174.48 138.69 173.952L139.338 172.536C140.058 173.048 140.77 173.416 141.474 173.64C142.194 173.864 142.97 173.976 143.802 173.976C146.106 173.976 147.258 172.792 147.258 170.424V168.36C146.922 169.096 146.394 169.68 145.674 170.112C144.97 170.528 144.162 170.736 143.25 170.736C142.178 170.736 141.25 170.488 140.466 169.992C139.682 169.496 139.074 168.816 138.642 167.952C138.226 167.072 138.018 166.056 138.018 164.904C138.018 163.752 138.226 162.744 138.642 161.88C139.074 161 139.682 160.32 140.466 159.84C141.25 159.36 142.178 159.12 143.25 159.12C144.162 159.12 144.97 159.328 145.674 159.744C146.394 160.16 146.922 160.728 147.258 161.448V159.336H149.154V170.16C149.154 171.952 148.706 173.296 147.81 174.192C146.93 175.088 145.626 175.536 143.898 175.536ZM143.61 169.152C144.73 169.152 145.618 168.768 146.274 168C146.93 167.232 147.258 166.2 147.258 164.904C147.258 163.608 146.93 162.584 146.274 161.832C145.618 161.064 144.73 160.68 143.61 160.68C142.506 160.68 141.626 161.064 140.97 161.832C140.314 162.584 139.986 163.608 139.986 164.904C139.986 166.2 140.314 167.232 140.97 168C141.626 168.768 142.506 169.152 143.61 169.152ZM162.061 171L157.717 159.336H159.757L163.045 168.72L166.453 159.336H168.109L171.469 168.744L174.805 159.336H176.749L172.381 171H170.533L167.245 161.952L163.933 171H162.061ZM179.144 171V159.336H181.04V161.424C181.664 160.016 182.944 159.24 184.88 159.096L185.576 159.024L185.72 160.704L184.496 160.848C183.392 160.944 182.552 161.296 181.976 161.904C181.4 162.496 181.112 163.312 181.112 164.352V171H179.144ZM187.506 156.432V154.248H189.906V156.432H187.506ZM187.746 171V159.336H189.69V171H187.746ZM193.324 171V159.336H195.22V161.328C195.604 160.592 196.148 160.04 196.852 159.672C197.556 159.304 198.348 159.12 199.228 159.12C201.996 159.12 203.38 160.656 203.38 163.728V171H201.436V163.848C201.436 162.76 201.22 161.968 200.788 161.472C200.372 160.96 199.7 160.704 198.772 160.704C197.7 160.704 196.844 161.04 196.204 161.712C195.58 162.368 195.268 163.248 195.268 164.352V171H193.324ZM206.965 171V154.08H208.909V164.52H208.957L214.357 159.336H216.829L210.973 164.952L217.333 171H214.861L208.957 165.528H208.909V171H206.965ZM222.541 171.216C221.357 171.216 220.461 170.872 219.853 170.184C219.261 169.48 218.965 168.464 218.965 167.136V154.08H220.909V166.992C220.909 168.704 221.589 169.56 222.949 169.56C223.349 169.56 223.709 169.512 224.029 169.416L223.981 171.048C223.485 171.16 223.005 171.216 222.541 171.216ZM231.205 171.216C229.365 171.216 227.909 170.68 226.837 169.608C225.765 168.52 225.229 167.048 225.229 165.192C225.229 163.992 225.469 162.936 225.949 162.024C226.429 161.096 227.085 160.384 227.917 159.888C228.765 159.376 229.741 159.12 230.845 159.12C232.429 159.12 233.669 159.632 234.565 160.656C235.461 161.664 235.909 163.056 235.909 164.832V165.576H227.125C227.189 166.904 227.573 167.92 228.277 168.624C228.981 169.312 229.957 169.656 231.205 169.656C231.909 169.656 232.581 169.552 233.221 169.344C233.861 169.12 234.469 168.76 235.045 168.264L235.717 169.632C235.189 170.128 234.517 170.52 233.701 170.808C232.885 171.08 232.053 171.216 231.205 171.216ZM230.893 160.56C229.789 160.56 228.917 160.904 228.277 161.592C227.637 162.28 227.261 163.184 227.149 164.304H234.229C234.181 163.12 233.869 162.2 233.293 161.544C232.733 160.888 231.933 160.56 230.893 160.56ZM242.658 171.216C241.746 171.216 240.882 171.088 240.066 170.832C239.25 170.576 238.578 170.216 238.05 169.752L238.674 168.384C239.25 168.848 239.882 169.192 240.57 169.416C241.274 169.624 241.986 169.728 242.706 169.728C243.618 169.728 244.306 169.56 244.77 169.224C245.234 168.888 245.466 168.432 245.466 167.856C245.466 167.408 245.314 167.056 245.01 166.8C244.706 166.528 244.226 166.32 243.57 166.176L241.386 165.696C239.402 165.264 238.41 164.24 238.41 162.624C238.41 161.568 238.826 160.72 239.658 160.08C240.506 159.44 241.61 159.12 242.97 159.12C243.77 159.12 244.53 159.248 245.25 159.504C245.986 159.744 246.594 160.104 247.074 160.584L246.426 161.952C245.962 161.52 245.418 161.192 244.794 160.968C244.186 160.728 243.578 160.608 242.97 160.608C242.074 160.608 241.394 160.784 240.93 161.136C240.466 161.488 240.234 161.952 240.234 162.528C240.234 163.424 240.826 164 242.01 164.256L244.194 164.712C245.218 164.936 245.994 165.296 246.522 165.792C247.05 166.272 247.314 166.928 247.314 167.76C247.314 168.832 246.89 169.68 246.042 170.304C245.194 170.912 244.066 171.216 242.658 171.216ZM260.113 171.216C259.313 171.216 258.593 171.064 257.953 170.76C257.329 170.44 256.833 170.008 256.465 169.464C256.097 168.92 255.913 168.312 255.913 167.64C255.913 166.792 256.129 166.12 256.561 165.624C257.009 165.128 257.737 164.776 258.745 164.568C259.769 164.344 261.161 164.232 262.921 164.232H263.689V163.488C263.689 162.496 263.481 161.784 263.065 161.352C262.665 160.904 262.017 160.68 261.121 160.68C260.417 160.68 259.737 160.784 259.081 160.992C258.425 161.184 257.753 161.504 257.065 161.952L256.393 160.536C257.001 160.104 257.737 159.76 258.601 159.504C259.481 159.248 260.321 159.12 261.121 159.12C262.625 159.12 263.737 159.488 264.457 160.224C265.193 160.96 265.561 162.104 265.561 163.656V171H263.737V168.984C263.433 169.672 262.961 170.216 262.321 170.616C261.697 171.016 260.961 171.216 260.113 171.216ZM260.425 169.752C261.385 169.752 262.169 169.424 262.777 168.768C263.385 168.096 263.689 167.248 263.689 166.224V165.504H262.945C261.649 165.504 260.625 165.568 259.873 165.696C259.137 165.808 258.617 166.016 258.313 166.32C258.025 166.608 257.881 167.008 257.881 167.52C257.881 168.176 258.105 168.712 258.553 169.128C259.017 169.544 259.641 169.752 260.425 169.752ZM269.168 171V159.336H271.064V161.328C271.448 160.592 271.992 160.04 272.696 159.672C273.4 159.304 274.192 159.12 275.072 159.12C277.84 159.12 279.224 160.656 279.224 163.728V171H277.28V163.848C277.28 162.76 277.064 161.968 276.632 161.472C276.216 160.96 275.544 160.704 274.616 160.704C273.544 160.704 272.688 161.04 272.048 161.712C271.424 162.368 271.112 163.248 271.112 164.352V171H269.168ZM287.248 171.216C286.208 171.216 285.296 170.968 284.512 170.472C283.744 169.976 283.144 169.28 282.712 168.384C282.296 167.472 282.088 166.4 282.088 165.168C282.088 163.92 282.296 162.848 282.712 161.952C283.144 161.04 283.744 160.344 284.512 159.864C285.296 159.368 286.208 159.12 287.248 159.12C288.16 159.12 288.96 159.32 289.648 159.72C290.352 160.12 290.872 160.672 291.208 161.376V154.08H293.152V171H291.256V168.864C290.92 169.6 290.4 170.176 289.696 170.592C288.992 171.008 288.176 171.216 287.248 171.216ZM287.656 169.656C288.744 169.656 289.616 169.272 290.272 168.504C290.928 167.72 291.256 166.608 291.256 165.168C291.256 163.712 290.928 162.6 290.272 161.832C289.616 161.064 288.744 160.68 287.656 160.68C286.552 160.68 285.672 161.064 285.016 161.832C284.376 162.6 284.056 163.712 284.056 165.168C284.056 166.608 284.376 167.72 285.016 168.504C285.672 169.272 286.552 169.656 287.656 169.656ZM42.496 199.216C41.696 199.216 40.976 199.064 40.336 198.76C39.712 198.44 39.216 198.008 38.848 197.464C38.48 196.92 38.296 196.312 38.296 195.64C38.296 194.792 38.512 194.12 38.944 193.624C39.392 193.128 40.12 192.776 41.128 192.568C42.152 192.344 43.544 192.232 45.304 192.232H46.072V191.488C46.072 190.496 45.864 189.784 45.448 189.352C45.048 188.904 44.4 188.68 43.504 188.68C42.8 188.68 42.12 188.784 41.464 188.992C40.808 189.184 40.136 189.504 39.448 189.952L38.776 188.536C39.384 188.104 40.12 187.76 40.984 187.504C41.864 187.248 42.704 187.12 43.504 187.12C45.008 187.12 46.12 187.488 46.84 188.224C47.576 188.96 47.944 190.104 47.944 191.656V199H46.12V196.984C45.816 197.672 45.344 198.216 44.704 198.616C44.08 199.016 43.344 199.216 42.496 199.216ZM42.808 197.752C43.768 197.752 44.552 197.424 45.16 196.768C45.768 196.096 46.072 195.248 46.072 194.224V193.504H45.328C44.032 193.504 43.008 193.568 42.256 193.696C41.52 193.808 41 194.016 40.696 194.32C40.408 194.608 40.264 195.008 40.264 195.52C40.264 196.176 40.488 196.712 40.936 197.128C41.4 197.544 42.024 197.752 42.808 197.752ZM56.4946 199.216C55.3266 199.216 54.3186 198.968 53.4706 198.472C52.6226 197.96 51.9666 197.248 51.5026 196.336C51.0546 195.408 50.8306 194.328 50.8306 193.096C50.8306 191.24 51.3346 189.784 52.3426 188.728C53.3506 187.656 54.7346 187.12 56.4946 187.12C57.2146 187.12 57.9266 187.248 58.6306 187.504C59.3346 187.76 59.9186 188.12 60.3826 188.584L59.7106 190C59.2466 189.552 58.7346 189.224 58.1746 189.016C57.6306 188.808 57.1106 188.704 56.6146 188.704C55.3986 188.704 54.4626 189.088 53.8066 189.856C53.1506 190.608 52.8226 191.696 52.8226 193.12C52.8226 194.512 53.1506 195.616 53.8066 196.432C54.4626 197.232 55.3986 197.632 56.6146 197.632C57.1106 197.632 57.6306 197.528 58.1746 197.32C58.7346 197.112 59.2466 196.776 59.7106 196.312L60.3826 197.728C59.9186 198.192 59.3266 198.56 58.6066 198.832C57.9026 199.088 57.1986 199.216 56.4946 199.216ZM62.6599 199V182.08H64.6039V189.256C64.9879 188.552 65.5239 188.024 66.2119 187.672C66.9159 187.304 67.6999 187.12 68.5639 187.12C71.3319 187.12 72.7159 188.656 72.7159 191.728V199H70.7719V191.848C70.7719 190.76 70.5559 189.968 70.1239 189.472C69.7079 188.96 69.0359 188.704 68.1079 188.704C67.0359 188.704 66.1799 189.04 65.5399 189.712C64.9159 190.368 64.6039 191.248 64.6039 192.352V199H62.6599ZM76.0606 184.432V182.248H78.4606V184.432H76.0606ZM76.3006 199V187.336H78.2446V199H76.3006ZM87.1347 199.216C85.2947 199.216 83.8387 198.68 82.7667 197.608C81.6947 196.52 81.1587 195.048 81.1587 193.192C81.1587 191.992 81.3987 190.936 81.8787 190.024C82.3587 189.096 83.0147 188.384 83.8467 187.888C84.6947 187.376 85.6707 187.12 86.7747 187.12C88.3587 187.12 89.5987 187.632 90.4947 188.656C91.3907 189.664 91.8387 191.056 91.8387 192.832V193.576H83.0547C83.1187 194.904 83.5027 195.92 84.2067 196.624C84.9107 197.312 85.8867 197.656 87.1347 197.656C87.8387 197.656 88.5107 197.552 89.1507 197.344C89.7907 197.12 90.3987 196.76 90.9747 196.264L91.6467 197.632C91.1187 198.128 90.4467 198.52 89.6307 198.808C88.8147 199.08 87.9827 199.216 87.1347 199.216ZM86.8227 188.56C85.7187 188.56 84.8467 188.904 84.2067 189.592C83.5667 190.28 83.1907 191.184 83.0787 192.304H90.1587C90.1107 191.12 89.7987 190.2 89.2227 189.544C88.6627 188.888 87.8627 188.56 86.8227 188.56ZM97.9435 199L92.9275 187.336H95.0395L98.9035 196.792L102.816 187.336H104.807L99.7675 199H97.9435ZM106.623 184.432V182.248H109.023V184.432H106.623ZM106.863 199V187.336H108.807V199H106.863ZM112.441 199V187.336H114.337V189.328C114.721 188.592 115.265 188.04 115.969 187.672C116.673 187.304 117.465 187.12 118.345 187.12C121.113 187.12 122.497 188.656 122.497 191.728V199H120.553V191.848C120.553 190.76 120.337 189.968 119.905 189.472C119.489 188.96 118.817 188.704 117.889 188.704C116.817 188.704 115.961 189.04 115.321 189.712C114.697 190.368 114.385 191.248 114.385 192.352V199H112.441ZM131.242 203.536C130.234 203.536 129.282 203.4 128.386 203.128C127.506 202.872 126.722 202.48 126.034 201.952L126.682 200.536C127.402 201.048 128.114 201.416 128.818 201.64C129.538 201.864 130.314 201.976 131.146 201.976C133.45 201.976 134.602 200.792 134.602 198.424V196.36C134.266 197.096 133.738 197.68 133.018 198.112C132.314 198.528 131.506 198.736 130.594 198.736C129.522 198.736 128.594 198.488 127.81 197.992C127.026 197.496 126.418 196.816 125.986 195.952C125.57 195.072 125.362 194.056 125.362 192.904C125.362 191.752 125.57 190.744 125.986 189.88C126.418 189 127.026 188.32 127.81 187.84C128.594 187.36 129.522 187.12 130.594 187.12C131.506 187.12 132.314 187.328 133.018 187.744C133.738 188.16 134.266 188.728 134.602 189.448V187.336H136.498V198.16C136.498 199.952 136.05 201.296 135.154 202.192C134.274 203.088 132.97 203.536 131.242 203.536ZM130.954 197.152C132.074 197.152 132.962 196.768 133.618 196C134.274 195.232 134.602 194.2 134.602 192.904C134.602 191.608 134.274 190.584 133.618 189.832C132.962 189.064 132.074 188.68 130.954 188.68C129.85 188.68 128.97 189.064 128.314 189.832C127.658 190.584 127.33 191.608 127.33 192.904C127.33 194.2 127.658 195.232 128.314 196C128.97 196.768 129.85 197.152 130.954 197.152ZM149.98 199.216C149.18 199.216 148.46 199.064 147.82 198.76C147.196 198.44 146.7 198.008 146.332 197.464C145.964 196.92 145.78 196.312 145.78 195.64C145.78 194.792 145.996 194.12 146.428 193.624C146.876 193.128 147.604 192.776 148.612 192.568C149.636 192.344 151.028 192.232 152.788 192.232H153.556V191.488C153.556 190.496 153.348 189.784 152.932 189.352C152.532 188.904 151.884 188.68 150.988 188.68C150.284 188.68 149.604 188.784 148.948 188.992C148.292 189.184 147.62 189.504 146.932 189.952L146.26 188.536C146.868 188.104 147.604 187.76 148.468 187.504C149.348 187.248 150.188 187.12 150.988 187.12C152.492 187.12 153.604 187.488 154.324 188.224C155.06 188.96 155.428 190.104 155.428 191.656V199H153.604V196.984C153.3 197.672 152.828 198.216 152.188 198.616C151.564 199.016 150.828 199.216 149.98 199.216ZM150.292 197.752C151.252 197.752 152.036 197.424 152.644 196.768C153.252 196.096 153.556 195.248 153.556 194.224V193.504H152.812C151.516 193.504 150.492 193.568 149.74 193.696C149.004 193.808 148.484 194.016 148.18 194.32C147.892 194.608 147.748 195.008 147.748 195.52C147.748 196.176 147.972 196.712 148.42 197.128C148.884 197.544 149.508 197.752 150.292 197.752ZM166.543 203.32L168.535 198.808L163.615 187.336H165.727L169.591 196.792L173.479 187.336H175.519L168.583 203.32H166.543ZM182.211 199.216C181.075 199.216 180.091 198.968 179.259 198.472C178.427 197.976 177.779 197.28 177.315 196.384C176.867 195.472 176.643 194.4 176.643 193.168C176.643 191.936 176.867 190.872 177.315 189.976C177.779 189.064 178.427 188.36 179.259 187.864C180.091 187.368 181.075 187.12 182.211 187.12C183.331 187.12 184.307 187.368 185.139 187.864C185.987 188.36 186.635 189.064 187.083 189.976C187.547 190.872 187.779 191.936 187.779 193.168C187.779 194.4 187.547 195.472 187.083 196.384C186.635 197.28 185.987 197.976 185.139 198.472C184.307 198.968 183.331 199.216 182.211 199.216ZM182.211 197.656C183.299 197.656 184.171 197.272 184.827 196.504C185.483 195.72 185.811 194.608 185.811 193.168C185.811 191.712 185.483 190.6 184.827 189.832C184.171 189.064 183.299 188.68 182.211 188.68C181.107 188.68 180.227 189.064 179.571 189.832C178.931 190.6 178.611 191.712 178.611 193.168C178.611 194.608 178.931 195.72 179.571 196.504C180.227 197.272 181.107 197.656 182.211 197.656ZM194.827 199.216C192.027 199.216 190.627 197.672 190.627 194.584V187.336H192.571V194.56C192.571 195.6 192.779 196.368 193.195 196.864C193.627 197.36 194.299 197.608 195.211 197.608C196.203 197.608 197.011 197.28 197.635 196.624C198.259 195.952 198.571 195.064 198.571 193.96V187.336H200.515V199H198.619V197.032C198.251 197.736 197.731 198.28 197.059 198.664C196.403 199.032 195.659 199.216 194.827 199.216ZM208.832 199.216C207.456 199.216 206.424 198.856 205.736 198.136C205.048 197.4 204.704 196.344 204.704 194.968V188.848H202.424V187.336H204.704V183.76H206.648V187.336H210.344V188.848H206.648V194.776C206.648 195.688 206.84 196.384 207.224 196.864C207.608 197.328 208.232 197.56 209.096 197.56C209.352 197.56 209.608 197.528 209.864 197.464C210.12 197.4 210.352 197.336 210.56 197.272L210.896 198.76C210.688 198.872 210.384 198.976 209.984 199.072C209.584 199.168 209.2 199.216 208.832 199.216ZM212.543 199V182.08H214.487V189.256C214.871 188.552 215.407 188.024 216.095 187.672C216.799 187.304 217.583 187.12 218.447 187.12C221.215 187.12 222.599 188.656 222.599 191.728V199H220.655V191.848C220.655 190.76 220.439 189.968 220.007 189.472C219.591 188.96 218.919 188.704 217.991 188.704C216.919 188.704 216.063 189.04 215.423 189.712C214.799 190.368 214.487 191.248 214.487 192.352V199H212.543ZM226.807 199V188.848H224.503V187.336H226.807V186.928C226.807 185.376 227.191 184.2 227.959 183.4C228.743 182.6 229.943 182.152 231.559 182.056L232.495 182.008L232.663 183.496L231.559 183.568C230.567 183.648 229.847 183.944 229.399 184.456C228.967 184.968 228.751 185.712 228.751 186.688V187.336H232.111V188.848H228.751V199H226.807ZM238.304 199.216C235.504 199.216 234.104 197.672 234.104 194.584V187.336H236.048V194.56C236.048 195.6 236.256 196.368 236.672 196.864C237.104 197.36 237.776 197.608 238.688 197.608C239.68 197.608 240.488 197.28 241.112 196.624C241.736 195.952 242.048 195.064 242.048 193.96V187.336H243.992V199H242.096V197.032C241.728 197.736 241.208 198.28 240.536 198.664C239.88 199.032 239.136 199.216 238.304 199.216ZM251.205 199.216C250.021 199.216 249.125 198.872 248.517 198.184C247.925 197.48 247.629 196.464 247.629 195.136V182.08H249.573V194.992C249.573 196.704 250.253 197.56 251.613 197.56C252.013 197.56 252.373 197.512 252.693 197.416L252.645 199.048C252.149 199.16 251.669 199.216 251.205 199.216ZM255.661 201.736L254.749 201.04C255.101 200.672 255.349 200.32 255.493 199.984C255.653 199.664 255.757 199.336 255.805 199H254.653V196.552H257.101V198.28C257.101 198.936 256.997 199.544 256.789 200.104C256.581 200.664 256.205 201.208 255.661 201.736ZM38.824 227V215.336H40.72V217.424C41.344 216.016 42.624 215.24 44.56 215.096L45.256 215.024L45.4 216.704L44.176 216.848C43.072 216.944 42.232 217.296 41.656 217.904C41.08 218.496 40.792 219.312 40.792 220.352V227H38.824ZM52.5409 227.216C50.7009 227.216 49.2449 226.68 48.1729 225.608C47.1009 224.52 46.5649 223.048 46.5649 221.192C46.5649 219.992 46.8049 218.936 47.2849 218.024C47.7649 217.096 48.4209 216.384 49.2529 215.888C50.1009 215.376 51.0769 215.12 52.1809 215.12C53.7649 215.12 55.0049 215.632 55.9009 216.656C56.7969 217.664 57.2449 219.056 57.2449 220.832V221.576H48.4609C48.5249 222.904 48.9089 223.92 49.6129 224.624C50.3169 225.312 51.2929 225.656 52.5409 225.656C53.2449 225.656 53.9169 225.552 54.5569 225.344C55.1969 225.12 55.8049 224.76 56.3809 224.264L57.0529 225.632C56.5249 226.128 55.8529 226.52 55.0369 226.808C54.2209 227.08 53.3889 227.216 52.5409 227.216ZM52.2289 216.56C51.1249 216.56 50.2529 216.904 49.6129 217.592C48.9729 218.28 48.5969 219.184 48.4849 220.304H55.5649C55.5169 219.12 55.2049 218.2 54.6289 217.544C54.0689 216.888 53.2689 216.56 52.2289 216.56ZM60.6824 227V216.848H58.3784V215.336H60.6824V214.928C60.6824 213.376 61.0664 212.2 61.8344 211.4C62.6184 210.6 63.8184 210.152 65.4344 210.056L66.3704 210.008L66.5384 211.496L65.4344 211.568C64.4424 211.648 63.7224 211.944 63.2744 212.456C62.8424 212.968 62.6264 213.712 62.6264 214.688V215.336H65.9864V216.848H62.6264V227H60.6824ZM68.0506 227V215.336H69.9466V217.424C70.5706 216.016 71.8506 215.24 73.7866 215.096L74.4826 215.024L74.6266 216.704L73.4026 216.848C72.2986 216.944 71.4586 217.296 70.8826 217.904C70.3066 218.496 70.0186 219.312 70.0186 220.352V227H68.0506ZM81.7675 227.216C79.9275 227.216 78.4715 226.68 77.3995 225.608C76.3275 224.52 75.7915 223.048 75.7915 221.192C75.7915 219.992 76.0315 218.936 76.5115 218.024C76.9915 217.096 77.6475 216.384 78.4795 215.888C79.3275 215.376 80.3035 215.12 81.4075 215.12C82.9915 215.12 84.2315 215.632 85.1275 216.656C86.0235 217.664 86.4715 219.056 86.4715 220.832V221.576H77.6875C77.7515 222.904 78.1355 223.92 78.8395 224.624C79.5435 225.312 80.5195 225.656 81.7675 225.656C82.4715 225.656 83.1435 225.552 83.7835 225.344C84.4235 225.12 85.0315 224.76 85.6075 224.264L86.2795 225.632C85.7515 226.128 85.0795 226.52 84.2635 226.808C83.4475 227.08 82.6155 227.216 81.7675 227.216ZM81.4555 216.56C80.3515 216.56 79.4795 216.904 78.8395 217.592C78.1995 218.28 77.8235 219.184 77.7115 220.304H84.7915C84.7435 219.12 84.4315 218.2 83.8555 217.544C83.2955 216.888 82.4955 216.56 81.4555 216.56ZM93.2209 227.216C92.3089 227.216 91.4449 227.088 90.6289 226.832C89.8129 226.576 89.1409 226.216 88.6129 225.752L89.2369 224.384C89.8129 224.848 90.4449 225.192 91.1329 225.416C91.8369 225.624 92.5489 225.728 93.2689 225.728C94.1809 225.728 94.8689 225.56 95.3329 225.224C95.7969 224.888 96.0289 224.432 96.0289 223.856C96.0289 223.408 95.8769 223.056 95.5729 222.8C95.2689 222.528 94.7889 222.32 94.1329 222.176L91.9489 221.696C89.9649 221.264 88.9729 220.24 88.9729 218.624C88.9729 217.568 89.3889 216.72 90.2209 216.08C91.0689 215.44 92.1729 215.12 93.5329 215.12C94.3329 215.12 95.0929 215.248 95.8129 215.504C96.5489 215.744 97.1569 216.104 97.6369 216.584L96.9889 217.952C96.5249 217.52 95.9809 217.192 95.3569 216.968C94.7489 216.728 94.1409 216.608 93.5329 216.608C92.6369 216.608 91.9569 216.784 91.4929 217.136C91.0289 217.488 90.7969 217.952 90.7969 218.528C90.7969 219.424 91.3889 220 92.5729 220.256L94.7569 220.712C95.7809 220.936 96.5569 221.296 97.0849 221.792C97.6129 222.272 97.8769 222.928 97.8769 223.76C97.8769 224.832 97.4529 225.68 96.6049 226.304C95.7569 226.912 94.6289 227.216 93.2209 227.216ZM100.84 227V210.08H102.784V217.256C103.168 216.552 103.704 216.024 104.392 215.672C105.096 215.304 105.88 215.12 106.744 215.12C109.512 215.12 110.896 216.656 110.896 219.728V227H108.952V219.848C108.952 218.76 108.736 217.968 108.304 217.472C107.888 216.96 107.216 216.704 106.288 216.704C105.216 216.704 104.36 217.04 103.72 217.712C103.096 218.368 102.784 219.248 102.784 220.352V227H100.84ZM119.736 227.216C117.896 227.216 116.44 226.68 115.368 225.608C114.296 224.52 113.76 223.048 113.76 221.192C113.76 219.992 114 218.936 114.48 218.024C114.96 217.096 115.616 216.384 116.448 215.888C117.296 215.376 118.272 215.12 119.376 215.12C120.96 215.12 122.2 215.632 123.096 216.656C123.992 217.664 124.44 219.056 124.44 220.832V221.576H115.656C115.72 222.904 116.104 223.92 116.808 224.624C117.512 225.312 118.488 225.656 119.736 225.656C120.44 225.656 121.112 225.552 121.752 225.344C122.392 225.12 123 224.76 123.576 224.264L124.248 225.632C123.72 226.128 123.048 226.52 122.232 226.808C121.416 227.08 120.584 227.216 119.736 227.216ZM119.424 216.56C118.32 216.56 117.448 216.904 116.808 217.592C116.168 218.28 115.792 219.184 115.68 220.304H122.76C122.712 219.12 122.4 218.2 121.824 217.544C121.264 216.888 120.464 216.56 119.424 216.56ZM131.694 227.216C130.654 227.216 129.742 226.968 128.958 226.472C128.19 225.976 127.59 225.28 127.158 224.384C126.742 223.472 126.534 222.4 126.534 221.168C126.534 219.92 126.742 218.848 127.158 217.952C127.59 217.04 128.19 216.344 128.958 215.864C129.742 215.368 130.654 215.12 131.694 215.12C132.606 215.12 133.406 215.32 134.094 215.72C134.798 216.12 135.318 216.672 135.654 217.376V210.08H137.598V227H135.702V224.864C135.366 225.6 134.846 226.176 134.142 226.592C133.438 227.008 132.622 227.216 131.694 227.216ZM132.102 225.656C133.19 225.656 134.062 225.272 134.718 224.504C135.374 223.72 135.702 222.608 135.702 221.168C135.702 219.712 135.374 218.6 134.718 217.832C134.062 217.064 133.19 216.68 132.102 216.68C130.998 216.68 130.118 217.064 129.462 217.832C128.822 218.6 128.502 219.712 128.502 221.168C128.502 222.608 128.822 223.72 129.462 224.504C130.118 225.272 130.998 225.656 132.102 225.656ZM151.082 227.216C150.282 227.216 149.562 227.064 148.922 226.76C148.298 226.44 147.802 226.008 147.434 225.464C147.066 224.92 146.882 224.312 146.882 223.64C146.882 222.792 147.098 222.12 147.53 221.624C147.978 221.128 148.706 220.776 149.714 220.568C150.738 220.344 152.13 220.232 153.89 220.232H154.658V219.488C154.658 218.496 154.45 217.784 154.034 217.352C153.634 216.904 152.986 216.68 152.09 216.68C151.386 216.68 150.706 216.784 150.05 216.992C149.394 217.184 148.722 217.504 148.034 217.952L147.362 216.536C147.97 216.104 148.706 215.76 149.57 215.504C150.45 215.248 151.29 215.12 152.09 215.12C153.594 215.12 154.706 215.488 155.426 216.224C156.162 216.96 156.53 218.104 156.53 219.656V227H154.706V224.984C154.402 225.672 153.93 226.216 153.29 226.616C152.666 227.016 151.93 227.216 151.082 227.216ZM151.394 225.752C152.354 225.752 153.138 225.424 153.746 224.768C154.354 224.096 154.658 223.248 154.658 222.224V221.504H153.914C152.618 221.504 151.594 221.568 150.842 221.696C150.106 221.808 149.586 222.016 149.282 222.32C148.994 222.608 148.85 223.008 148.85 223.52C148.85 224.176 149.074 224.712 149.522 225.128C149.986 225.544 150.61 225.752 151.394 225.752ZM160.137 231.32V215.336H162.033V217.424C162.385 216.704 162.905 216.144 163.593 215.744C164.297 215.328 165.113 215.12 166.041 215.12C167.081 215.12 167.985 215.368 168.753 215.864C169.537 216.344 170.137 217.04 170.553 217.952C170.985 218.848 171.201 219.92 171.201 221.168C171.201 222.4 170.985 223.472 170.553 224.384C170.137 225.28 169.537 225.976 168.753 226.472C167.985 226.968 167.081 227.216 166.041 227.216C165.145 227.216 164.345 227.016 163.641 226.616C162.937 226.216 162.417 225.664 162.081 224.96V231.32H160.137ZM165.633 225.656C166.721 225.656 167.593 225.272 168.249 224.504C168.905 223.72 169.233 222.608 169.233 221.168C169.233 219.712 168.905 218.6 168.249 217.832C167.593 217.064 166.721 216.68 165.633 216.68C164.545 216.68 163.673 217.064 163.017 217.832C162.361 218.6 162.033 219.712 162.033 221.168C162.033 222.608 162.361 223.72 163.017 224.504C163.673 225.272 164.545 225.656 165.633 225.656ZM174.129 231.32V215.336H176.025V217.424C176.377 216.704 176.897 216.144 177.585 215.744C178.289 215.328 179.105 215.12 180.033 215.12C181.073 215.12 181.977 215.368 182.745 215.864C183.529 216.344 184.129 217.04 184.545 217.952C184.977 218.848 185.193 219.92 185.193 221.168C185.193 222.4 184.977 223.472 184.545 224.384C184.129 225.28 183.529 225.976 182.745 226.472C181.977 226.968 181.073 227.216 180.033 227.216C179.137 227.216 178.337 227.016 177.633 226.616C176.929 226.216 176.409 225.664 176.073 224.96V231.32H174.129ZM179.625 225.656C180.713 225.656 181.585 225.272 182.241 224.504C182.897 223.72 183.225 222.608 183.225 221.168C183.225 219.712 182.897 218.6 182.241 217.832C181.585 217.064 180.713 216.68 179.625 216.68C178.537 216.68 177.665 217.064 177.009 217.832C176.353 218.6 176.025 219.712 176.025 221.168C176.025 222.608 176.353 223.72 177.009 224.504C177.665 225.272 178.537 225.656 179.625 225.656ZM193.377 227.216C191.537 227.216 190.081 226.68 189.009 225.608C187.937 224.52 187.401 223.048 187.401 221.192C187.401 219.992 187.641 218.936 188.121 218.024C188.601 217.096 189.257 216.384 190.089 215.888C190.937 215.376 191.913 215.12 193.017 215.12C194.601 215.12 195.841 215.632 196.737 216.656C197.633 217.664 198.081 219.056 198.081 220.832V221.576H189.297C189.361 222.904 189.745 223.92 190.449 224.624C191.153 225.312 192.129 225.656 193.377 225.656C194.081 225.656 194.753 225.552 195.393 225.344C196.033 225.12 196.641 224.76 197.217 224.264L197.889 225.632C197.361 226.128 196.689 226.52 195.873 226.808C195.057 227.08 194.225 227.216 193.377 227.216ZM193.065 216.56C191.961 216.56 191.089 216.904 190.449 217.592C189.809 218.28 189.433 219.184 189.321 220.304H196.401C196.353 219.12 196.041 218.2 195.465 217.544C194.905 216.888 194.105 216.56 193.065 216.56ZM204.566 227.216C203.766 227.216 203.046 227.064 202.406 226.76C201.782 226.44 201.286 226.008 200.918 225.464C200.55 224.92 200.366 224.312 200.366 223.64C200.366 222.792 200.582 222.12 201.014 221.624C201.462 221.128 202.19 220.776 203.198 220.568C204.222 220.344 205.614 220.232 207.374 220.232H208.142V219.488C208.142 218.496 207.934 217.784 207.518 217.352C207.118 216.904 206.47 216.68 205.574 216.68C204.87 216.68 204.19 216.784 203.534 216.992C202.878 217.184 202.206 217.504 201.518 217.952L200.846 216.536C201.454 216.104 202.19 215.76 203.054 215.504C203.934 215.248 204.774 215.12 205.574 215.12C207.078 215.12 208.19 215.488 208.91 216.224C209.646 216.96 210.014 218.104 210.014 219.656V227H208.19V224.984C207.886 225.672 207.414 226.216 206.774 226.616C206.15 227.016 205.414 227.216 204.566 227.216ZM204.878 225.752C205.838 225.752 206.622 225.424 207.23 224.768C207.838 224.096 208.142 223.248 208.142 222.224V221.504H207.398C206.102 221.504 205.078 221.568 204.326 221.696C203.59 221.808 203.07 222.016 202.766 222.32C202.478 222.608 202.334 223.008 202.334 223.52C202.334 224.176 202.558 224.712 203.006 225.128C203.47 225.544 204.094 225.752 204.878 225.752ZM213.621 227V215.336H215.517V217.424C216.141 216.016 217.421 215.24 219.357 215.096L220.053 215.024L220.197 216.704L218.973 216.848C217.869 216.944 217.029 217.296 216.453 217.904C215.877 218.496 215.589 219.312 215.589 220.352V227H213.621ZM225.777 227.216C224.977 227.216 224.257 227.064 223.617 226.76C222.993 226.44 222.497 226.008 222.129 225.464C221.761 224.92 221.577 224.312 221.577 223.64C221.577 222.792 221.793 222.12 222.225 221.624C222.673 221.128 223.401 220.776 224.409 220.568C225.433 220.344 226.825 220.232 228.585 220.232H229.353V219.488C229.353 218.496 229.145 217.784 228.729 217.352C228.329 216.904 227.681 216.68 226.785 216.68C226.081 216.68 225.401 216.784 224.745 216.992C224.089 217.184 223.417 217.504 222.729 217.952L222.057 216.536C222.665 216.104 223.401 215.76 224.265 215.504C225.145 215.248 225.985 215.12 226.785 215.12C228.289 215.12 229.401 215.488 230.121 216.224C230.857 216.96 231.225 218.104 231.225 219.656V227H229.401V224.984C229.097 225.672 228.625 226.216 227.985 226.616C227.361 227.016 226.625 227.216 225.777 227.216ZM226.089 225.752C227.049 225.752 227.833 225.424 228.441 224.768C229.049 224.096 229.353 223.248 229.353 222.224V221.504H228.609C227.313 221.504 226.289 221.568 225.537 221.696C224.801 221.808 224.281 222.016 223.977 222.32C223.689 222.608 223.545 223.008 223.545 223.52C223.545 224.176 223.769 224.712 224.217 225.128C224.681 225.544 225.305 225.752 226.089 225.752ZM234.832 227V215.336H236.728V217.328C237.112 216.592 237.656 216.04 238.36 215.672C239.064 215.304 239.856 215.12 240.736 215.12C243.504 215.12 244.888 216.656 244.888 219.728V227H242.944V219.848C242.944 218.76 242.728 217.968 242.296 217.472C241.88 216.96 241.208 216.704 240.28 216.704C239.208 216.704 238.352 217.04 237.712 217.712C237.088 218.368 236.776 219.248 236.776 220.352V227H234.832ZM253.416 227.216C252.248 227.216 251.24 226.968 250.392 226.472C249.544 225.96 248.888 225.248 248.424 224.336C247.976 223.408 247.752 222.328 247.752 221.096C247.752 219.24 248.256 217.784 249.264 216.728C250.272 215.656 251.656 215.12 253.416 215.12C254.136 215.12 254.848 215.248 255.552 215.504C256.256 215.76 256.84 216.12 257.304 216.584L256.632 218C256.168 217.552 255.656 217.224 255.096 217.016C254.552 216.808 254.032 216.704 253.536 216.704C252.32 216.704 251.384 217.088 250.728 217.856C250.072 218.608 249.744 219.696 249.744 221.12C249.744 222.512 250.072 223.616 250.728 224.432C251.384 225.232 252.32 225.632 253.536 225.632C254.032 225.632 254.552 225.528 255.096 225.32C255.656 225.112 256.168 224.776 256.632 224.312L257.304 225.728C256.84 226.192 256.248 226.56 255.528 226.832C254.824 227.088 254.12 227.216 253.416 227.216ZM264.603 227.216C262.763 227.216 261.307 226.68 260.235 225.608C259.163 224.52 258.627 223.048 258.627 221.192C258.627 219.992 258.867 218.936 259.347 218.024C259.827 217.096 260.483 216.384 261.315 215.888C262.163 215.376 263.139 215.12 264.243 215.12C265.827 215.12 267.067 215.632 267.963 216.656C268.859 217.664 269.307 219.056 269.307 220.832V221.576H260.523C260.587 222.904 260.971 223.92 261.675 224.624C262.379 225.312 263.355 225.656 264.603 225.656C265.307 225.656 265.979 225.552 266.619 225.344C267.259 225.12 267.867 224.76 268.443 224.264L269.115 225.632C268.587 226.128 267.915 226.52 267.099 226.808C266.283 227.08 265.451 227.216 264.603 227.216ZM264.291 216.56C263.187 216.56 262.315 216.904 261.675 217.592C261.035 218.28 260.659 219.184 260.547 220.304H267.627C267.579 219.12 267.267 218.2 266.691 217.544C266.131 216.888 265.331 216.56 264.291 216.56ZM271.809 227V224.552H274.257V227H271.809Z" fill="white"/>
</g>
<defs>
<clipPath id="clip0_808_4053">
<rect width="389" height="297" rx="30" fill="white"/>
</clipPath>
</defs>
</svg>
