<svg width="389" height="297" viewBox="0 0 389 297" fill="none" xmlns="http://www.w3.org/2000/svg">
<g clip-path="url(#clip0_808_4064)">
<rect width="389" height="297" rx="30" fill="#9C003C"/>
<rect width="389" height="297" rx="24" fill="#9C003C" fill-opacity="0.58"/>
<rect width="58.5491" height="58.5734" rx="29.2746" transform="matrix(-0.593079 -0.805144 0.80593 -0.59201 341.725 81.8165)" fill="#9C003C"/>
<path d="M345.7 33.2953L357.449 34.1567C357.57 34.1656 357.685 34.1976 357.786 34.2511C357.888 34.3045 357.974 34.3783 358.041 34.4683C358.107 34.5582 358.152 34.6625 358.172 34.7752C358.193 34.8879 358.19 35.0068 358.162 35.1251L355.487 46.5816C355.431 46.8205 355.281 47.0424 355.068 47.1986C354.855 47.3548 354.598 47.4325 354.353 47.4145C354.108 47.3966 353.896 47.2845 353.762 47.1029C353.628 46.9213 353.584 46.6851 353.64 46.4462L355.809 37.1625L340.114 48.6913C339.901 48.8474 339.644 48.925 339.4 48.907C339.155 48.8891 338.942 48.777 338.808 48.5955C338.675 48.4141 338.631 48.178 338.687 47.9392C338.742 47.7005 338.893 47.4787 339.106 47.3226L354.8 35.7938L345.28 35.0965C345.035 35.0785 344.822 34.9664 344.688 34.7848C344.554 34.6032 344.511 34.367 344.566 34.1282C344.622 33.8893 344.773 33.6674 344.986 33.5112C345.198 33.355 345.455 33.2773 345.7 33.2953Z" fill="white"/>
<path d="M41.032 100.048V105.64H47.128V107.44H41.032V113.2H47.848V115H38.848V98.248H47.848V100.048H41.032ZM58.0167 115L54.8967 110.104L51.8967 115H49.6167L53.8647 108.472L49.6167 101.848H52.0887L55.2087 106.72L58.1847 101.848H60.4647L56.2407 108.352L60.4887 115H58.0167ZM64.8211 104.272C65.2531 103.52 65.8931 102.896 66.7411 102.4C67.6051 101.888 68.6051 101.632 69.7411 101.632C70.9091 101.632 71.9651 101.912 72.9091 102.472C73.8691 103.032 74.6211 103.824 75.1651 104.848C75.7091 105.856 75.9811 107.032 75.9811 108.376C75.9811 109.704 75.7091 110.888 75.1651 111.928C74.6211 112.968 73.8691 113.776 72.9091 114.352C71.9651 114.928 70.9091 115.216 69.7411 115.216C68.6211 115.216 67.6291 114.968 66.7651 114.472C65.9171 113.96 65.2691 113.328 64.8211 112.576V121.24H62.6371V101.848H64.8211V104.272ZM73.7491 108.376C73.7491 107.384 73.5491 106.52 73.1491 105.784C72.7491 105.048 72.2051 104.488 71.5171 104.104C70.8451 103.72 70.1011 103.528 69.2851 103.528C68.4851 103.528 67.7411 103.728 67.0531 104.128C66.3811 104.512 65.8371 105.08 65.4211 105.832C65.0211 106.568 64.8211 107.424 64.8211 108.4C64.8211 109.392 65.0211 110.264 65.4211 111.016C65.8371 111.752 66.3811 112.32 67.0531 112.72C67.7411 113.104 68.4851 113.296 69.2851 113.296C70.1011 113.296 70.8451 113.104 71.5171 112.72C72.2051 112.32 72.7491 111.752 73.1491 111.016C73.5491 110.264 73.7491 109.384 73.7491 108.376ZM90.8558 107.92C90.8558 108.336 90.8318 108.776 90.7838 109.24H80.2718C80.3518 110.536 80.7918 111.552 81.5918 112.288C82.4078 113.008 83.3918 113.368 84.5438 113.368C85.4878 113.368 86.2718 113.152 86.8958 112.72C87.5358 112.272 87.9838 111.68 88.2398 110.944H90.5918C90.2398 112.208 89.5358 113.24 88.4798 114.04C87.4238 114.824 86.1118 115.216 84.5438 115.216C83.2958 115.216 82.1758 114.936 81.1838 114.376C80.2078 113.816 79.4398 113.024 78.8798 112C78.3198 110.96 78.0398 109.76 78.0398 108.4C78.0398 107.04 78.3118 105.848 78.8558 104.824C79.3998 103.8 80.1598 103.016 81.1358 102.472C82.1278 101.912 83.2638 101.632 84.5438 101.632C85.7918 101.632 86.8958 101.904 87.8558 102.448C88.8158 102.992 89.5518 103.744 90.0638 104.704C90.5918 105.648 90.8558 106.72 90.8558 107.92ZM88.5998 107.464C88.5998 106.632 88.4158 105.92 88.0478 105.328C87.6798 104.72 87.1758 104.264 86.5358 103.96C85.9118 103.64 85.2158 103.48 84.4478 103.48C83.3438 103.48 82.3998 103.832 81.6158 104.536C80.8478 105.24 80.4078 106.216 80.2958 107.464H88.5998ZM95.9226 103.984C96.3066 103.232 96.8506 102.648 97.5546 102.232C98.2746 101.816 99.1466 101.608 100.171 101.608V103.864H99.5946C97.1466 103.864 95.9226 105.192 95.9226 107.848V115H93.7386V101.848H95.9226V103.984ZM103.82 99.712C103.404 99.712 103.052 99.568 102.764 99.28C102.476 98.992 102.332 98.64 102.332 98.224C102.332 97.808 102.476 97.456 102.764 97.168C103.052 96.88 103.404 96.736 103.82 96.736C104.22 96.736 104.556 96.88 104.828 97.168C105.116 97.456 105.26 97.808 105.26 98.224C105.26 98.64 105.116 98.992 104.828 99.28C104.556 99.568 104.22 99.712 103.82 99.712ZM104.876 101.848V115H102.692V101.848H104.876ZM120.598 107.92C120.598 108.336 120.574 108.776 120.526 109.24H110.014C110.094 110.536 110.534 111.552 111.334 112.288C112.15 113.008 113.134 113.368 114.286 113.368C115.23 113.368 116.014 113.152 116.638 112.72C117.278 112.272 117.726 111.68 117.982 110.944H120.334C119.982 112.208 119.278 113.24 118.222 114.04C117.166 114.824 115.854 115.216 114.286 115.216C113.038 115.216 111.918 114.936 110.926 114.376C109.95 113.816 109.182 113.024 108.622 112C108.062 110.96 107.782 109.76 107.782 108.4C107.782 107.04 108.054 105.848 108.598 104.824C109.142 103.8 109.902 103.016 110.878 102.472C111.87 101.912 113.006 101.632 114.286 101.632C115.534 101.632 116.638 101.904 117.598 102.448C118.558 102.992 119.294 103.744 119.806 104.704C120.334 105.648 120.598 106.72 120.598 107.92ZM118.342 107.464C118.342 106.632 118.158 105.92 117.79 105.328C117.422 104.72 116.918 104.264 116.278 103.96C115.654 103.64 114.958 103.48 114.19 103.48C113.086 103.48 112.142 103.832 111.358 104.536C110.59 105.24 110.15 106.216 110.038 107.464H118.342ZM129.889 101.608C131.489 101.608 132.785 102.096 133.777 103.072C134.769 104.032 135.265 105.424 135.265 107.248V115H133.105V107.56C133.105 106.248 132.777 105.248 132.121 104.56C131.465 103.856 130.569 103.504 129.433 103.504C128.281 103.504 127.361 103.864 126.673 104.584C126.001 105.304 125.665 106.352 125.665 107.728V115H123.481V101.848H125.665V103.72C126.097 103.048 126.681 102.528 127.417 102.16C128.169 101.792 128.993 101.608 129.889 101.608ZM138.016 108.4C138.016 107.04 138.288 105.856 138.832 104.848C139.376 103.824 140.128 103.032 141.088 102.472C142.064 101.912 143.176 101.632 144.424 101.632C146.04 101.632 147.368 102.024 148.408 102.808C149.464 103.592 150.16 104.68 150.496 106.072H148.144C147.92 105.272 147.48 104.64 146.824 104.176C146.184 103.712 145.384 103.48 144.424 103.48C143.176 103.48 142.168 103.912 141.4 104.776C140.632 105.624 140.248 106.832 140.248 108.4C140.248 109.984 140.632 111.208 141.4 112.072C142.168 112.936 143.176 113.368 144.424 113.368C145.384 113.368 146.184 113.144 146.824 112.696C147.464 112.248 147.904 111.608 148.144 110.776H150.496C150.144 112.12 149.44 113.2 148.384 114.016C147.328 114.816 146.008 115.216 144.424 115.216C143.176 115.216 142.064 114.936 141.088 114.376C140.128 113.816 139.376 113.024 138.832 112C138.288 110.976 138.016 109.776 138.016 108.4ZM165.411 107.92C165.411 108.336 165.387 108.776 165.339 109.24H154.827C154.907 110.536 155.347 111.552 156.147 112.288C156.963 113.008 157.947 113.368 159.099 113.368C160.043 113.368 160.827 113.152 161.451 112.72C162.091 112.272 162.539 111.68 162.795 110.944H165.147C164.795 112.208 164.091 113.24 163.035 114.04C161.979 114.824 160.667 115.216 159.099 115.216C157.851 115.216 156.731 114.936 155.739 114.376C154.763 113.816 153.995 113.024 153.435 112C152.875 110.96 152.595 109.76 152.595 108.4C152.595 107.04 152.867 105.848 153.411 104.824C153.955 103.8 154.715 103.016 155.691 102.472C156.683 101.912 157.819 101.632 159.099 101.632C160.347 101.632 161.451 101.904 162.411 102.448C163.371 102.992 164.107 103.744 164.619 104.704C165.147 105.648 165.411 106.72 165.411 107.92ZM163.155 107.464C163.155 106.632 162.971 105.92 162.603 105.328C162.235 104.72 161.731 104.264 161.091 103.96C160.467 103.64 159.771 103.48 159.003 103.48C157.899 103.48 156.955 103.832 156.171 104.536C155.403 105.24 154.963 106.216 154.851 107.464H163.155ZM177.356 103.648V111.4C177.356 112.04 177.492 112.496 177.764 112.768C178.036 113.024 178.508 113.152 179.18 113.152H180.788V115H178.82C177.604 115 176.692 114.72 176.084 114.16C175.476 113.6 175.172 112.68 175.172 111.4V103.648H173.468V101.848H175.172V98.536H177.356V101.848H180.788V103.648H177.356ZM189.962 101.608C190.954 101.608 191.85 101.824 192.65 102.256C193.45 102.672 194.074 103.304 194.522 104.152C194.986 105 195.218 106.032 195.218 107.248V115H193.058V107.56C193.058 106.248 192.73 105.248 192.074 104.56C191.418 103.856 190.522 103.504 189.386 103.504C188.234 103.504 187.314 103.864 186.626 104.584C185.954 105.304 185.618 106.352 185.618 107.728V115H183.434V97.24H185.618V103.72C186.05 103.048 186.642 102.528 187.394 102.16C188.162 101.792 189.018 101.608 189.962 101.608ZM210.786 107.92C210.786 108.336 210.762 108.776 210.714 109.24H200.202C200.282 110.536 200.722 111.552 201.522 112.288C202.338 113.008 203.322 113.368 204.474 113.368C205.418 113.368 206.202 113.152 206.826 112.72C207.466 112.272 207.914 111.68 208.17 110.944H210.522C210.17 112.208 209.466 113.24 208.41 114.04C207.354 114.824 206.042 115.216 204.474 115.216C203.226 115.216 202.106 114.936 201.114 114.376C200.138 113.816 199.37 113.024 198.81 112C198.25 110.96 197.97 109.76 197.97 108.4C197.97 107.04 198.242 105.848 198.786 104.824C199.33 103.8 200.09 103.016 201.066 102.472C202.058 101.912 203.194 101.632 204.474 101.632C205.722 101.632 206.826 101.904 207.786 102.448C208.746 102.992 209.482 103.744 209.994 104.704C210.522 105.648 210.786 106.72 210.786 107.92ZM208.53 107.464C208.53 106.632 208.346 105.92 207.978 105.328C207.61 104.72 207.106 104.264 206.466 103.96C205.842 103.64 205.146 103.48 204.378 103.48C203.274 103.48 202.33 103.832 201.546 104.536C200.778 105.24 200.338 106.216 200.226 107.464H208.53ZM222.251 97.24V115H220.067V97.24H222.251ZM237.637 101.848V115H235.453V113.056C235.037 113.728 234.453 114.256 233.701 114.64C232.965 115.008 232.149 115.192 231.253 115.192C230.229 115.192 229.309 114.984 228.493 114.568C227.677 114.136 227.029 113.496 226.549 112.648C226.085 111.8 225.853 110.768 225.853 109.552V101.848H228.013V109.264C228.013 110.56 228.341 111.56 228.997 112.264C229.653 112.952 230.549 113.296 231.685 113.296C232.853 113.296 233.773 112.936 234.445 112.216C235.117 111.496 235.453 110.448 235.453 109.072V101.848H237.637ZM248.189 115L245.069 110.104L242.069 115H239.789L244.037 108.472L239.789 101.848H242.261L245.381 106.72L248.357 101.848H250.637L246.413 108.352L250.661 115H248.189ZM264.473 101.848V115H262.289V113.056C261.873 113.728 261.289 114.256 260.537 114.64C259.801 115.008 258.985 115.192 258.089 115.192C257.065 115.192 256.145 114.984 255.329 114.568C254.513 114.136 253.865 113.496 253.385 112.648C252.921 111.8 252.689 110.768 252.689 109.552V101.848H254.849V109.264C254.849 110.56 255.177 111.56 255.833 112.264C256.489 112.952 257.385 113.296 258.521 113.296C259.689 113.296 260.609 112.936 261.281 112.216C261.953 111.496 262.289 110.448 262.289 109.072V101.848H264.473ZM270.345 103.984C270.729 103.232 271.273 102.648 271.977 102.232C272.697 101.816 273.569 101.608 274.593 101.608V103.864H274.017C271.569 103.864 270.345 105.192 270.345 107.848V115H268.161V101.848H270.345V103.984ZM288.442 101.848L280.522 121.192H278.266L280.858 114.856L275.554 101.848H277.978L282.106 112.504L286.186 101.848H288.442ZM302.772 115.216C301.54 115.216 300.42 114.936 299.412 114.376C298.42 113.816 297.636 113.024 297.06 112C296.5 110.96 296.22 109.76 296.22 108.4C296.22 107.056 296.508 105.872 297.084 104.848C297.676 103.808 298.476 103.016 299.484 102.472C300.492 101.912 301.62 101.632 302.868 101.632C304.116 101.632 305.244 101.912 306.252 102.472C307.26 103.016 308.052 103.8 308.628 104.824C309.22 105.848 309.516 107.04 309.516 108.4C309.516 109.76 309.212 110.96 308.604 112C308.012 113.024 307.204 113.816 306.18 114.376C305.156 114.936 304.02 115.216 302.772 115.216ZM302.772 113.296C303.556 113.296 304.292 113.112 304.98 112.744C305.668 112.376 306.22 111.824 306.636 111.088C307.068 110.352 307.284 109.456 307.284 108.4C307.284 107.344 307.076 106.448 306.66 105.712C306.244 104.976 305.7 104.432 305.028 104.08C304.356 103.712 303.628 103.528 302.844 103.528C302.044 103.528 301.308 103.712 300.636 104.08C299.98 104.432 299.452 104.976 299.052 105.712C298.652 106.448 298.452 107.344 298.452 108.4C298.452 109.472 298.644 110.376 299.028 111.112C299.428 111.848 299.956 112.4 300.612 112.768C301.268 113.12 301.988 113.296 302.772 113.296ZM317.739 103.648H314.979V115H312.795V103.648H311.091V101.848H312.795V100.912C312.795 99.44 313.171 98.368 313.923 97.696C314.691 97.008 315.915 96.664 317.595 96.664V98.488C316.635 98.488 315.955 98.68 315.555 99.064C315.171 99.432 314.979 100.048 314.979 100.912V101.848H317.739V103.648ZM41.032 132.272C41.464 131.52 42.104 130.896 42.952 130.4C43.816 129.888 44.816 129.632 45.952 129.632C47.12 129.632 48.176 129.912 49.12 130.472C50.08 131.032 50.832 131.824 51.376 132.848C51.92 133.856 52.192 135.032 52.192 136.376C52.192 137.704 51.92 138.888 51.376 139.928C50.832 140.968 50.08 141.776 49.12 142.352C48.176 142.928 47.12 143.216 45.952 143.216C44.832 143.216 43.84 142.968 42.976 142.472C42.128 141.96 41.48 141.328 41.032 140.576V149.24H38.848V129.848H41.032V132.272ZM49.96 136.376C49.96 135.384 49.76 134.52 49.36 133.784C48.96 133.048 48.416 132.488 47.728 132.104C47.056 131.72 46.312 131.528 45.496 131.528C44.696 131.528 43.952 131.728 43.264 132.128C42.592 132.512 42.048 133.08 41.632 133.832C41.232 134.568 41.032 135.424 41.032 136.4C41.032 137.392 41.232 138.264 41.632 139.016C42.048 139.752 42.592 140.32 43.264 140.72C43.952 141.104 44.696 141.296 45.496 141.296C46.312 141.296 47.056 141.104 47.728 140.72C48.416 140.32 48.96 139.752 49.36 139.016C49.76 138.264 49.96 137.384 49.96 136.376ZM67.0668 135.92C67.0668 136.336 67.0428 136.776 66.9948 137.24H56.4828C56.5628 138.536 57.0028 139.552 57.8028 140.288C58.6188 141.008 59.6028 141.368 60.7548 141.368C61.6988 141.368 62.4828 141.152 63.1068 140.72C63.7468 140.272 64.1948 139.68 64.4508 138.944H66.8028C66.4508 140.208 65.7468 141.24 64.6908 142.04C63.6348 142.824 62.3228 143.216 60.7548 143.216C59.5068 143.216 58.3868 142.936 57.3948 142.376C56.4188 141.816 55.6508 141.024 55.0908 140C54.5308 138.96 54.2508 137.76 54.2508 136.4C54.2508 135.04 54.5228 133.848 55.0668 132.824C55.6108 131.8 56.3708 131.016 57.3468 130.472C58.3388 129.912 59.4748 129.632 60.7548 129.632C62.0028 129.632 63.1068 129.904 64.0668 130.448C65.0268 130.992 65.7628 131.744 66.2748 132.704C66.8028 133.648 67.0668 134.72 67.0668 135.92ZM64.8108 135.464C64.8108 134.632 64.6268 133.92 64.2588 133.328C63.8908 132.72 63.3868 132.264 62.7468 131.96C62.1228 131.64 61.4268 131.48 60.6588 131.48C59.5548 131.48 58.6108 131.832 57.8268 132.536C57.0588 133.24 56.6188 134.216 56.5068 135.464H64.8108ZM72.1336 131.984C72.5176 131.232 73.0616 130.648 73.7656 130.232C74.4856 129.816 75.3576 129.608 76.3816 129.608V131.864H75.8056C73.3576 131.864 72.1336 133.192 72.1336 135.848V143H69.9496V129.848H72.1336V131.984ZM83.5587 143.216C82.5507 143.216 81.6467 143.048 80.8467 142.712C80.0467 142.36 79.4147 141.88 78.9507 141.272C78.4867 140.648 78.2307 139.936 78.1827 139.136H80.4387C80.5027 139.792 80.8067 140.328 81.3507 140.744C81.9107 141.16 82.6387 141.368 83.5347 141.368C84.3667 141.368 85.0227 141.184 85.5027 140.816C85.9827 140.448 86.2227 139.984 86.2227 139.424C86.2227 138.848 85.9667 138.424 85.4547 138.152C84.9427 137.864 84.1507 137.584 83.0787 137.312C82.1027 137.056 81.3027 136.8 80.6787 136.544C80.0707 136.272 79.5427 135.88 79.0947 135.368C78.6627 134.84 78.4467 134.152 78.4467 133.304C78.4467 132.632 78.6467 132.016 79.0467 131.456C79.4467 130.896 80.0147 130.456 80.7507 130.136C81.4867 129.8 82.3267 129.632 83.2707 129.632C84.7267 129.632 85.9027 130 86.7987 130.736C87.6947 131.472 88.1747 132.48 88.2387 133.76H86.0547C86.0067 133.072 85.7267 132.52 85.2147 132.104C84.7187 131.688 84.0467 131.48 83.1987 131.48C82.4147 131.48 81.7907 131.648 81.3267 131.984C80.8627 132.32 80.6307 132.76 80.6307 133.304C80.6307 133.736 80.7667 134.096 81.0387 134.384C81.3267 134.656 81.6787 134.88 82.0947 135.056C82.5267 135.216 83.1187 135.4 83.8707 135.608C84.8147 135.864 85.5827 136.12 86.1747 136.376C86.7667 136.616 87.2707 136.984 87.6867 137.48C88.1187 137.976 88.3427 138.624 88.3587 139.424C88.3587 140.144 88.1587 140.792 87.7587 141.368C87.3587 141.944 86.7907 142.4 86.0547 142.736C85.3347 143.056 84.5027 143.216 83.5587 143.216ZM97.1778 143.216C95.9458 143.216 94.8258 142.936 93.8178 142.376C92.8258 141.816 92.0418 141.024 91.4658 140C90.9058 138.96 90.6258 137.76 90.6258 136.4C90.6258 135.056 90.9138 133.872 91.4898 132.848C92.0818 131.808 92.8818 131.016 93.8898 130.472C94.8978 129.912 96.0258 129.632 97.2738 129.632C98.5218 129.632 99.6498 129.912 100.658 130.472C101.666 131.016 102.458 131.8 103.034 132.824C103.626 133.848 103.922 135.04 103.922 136.4C103.922 137.76 103.618 138.96 103.01 140C102.418 141.024 101.61 141.816 100.586 142.376C99.5618 142.936 98.4258 143.216 97.1778 143.216ZM97.1778 141.296C97.9618 141.296 98.6978 141.112 99.3858 140.744C100.074 140.376 100.626 139.824 101.042 139.088C101.474 138.352 101.69 137.456 101.69 136.4C101.69 135.344 101.482 134.448 101.066 133.712C100.65 132.976 100.106 132.432 99.4338 132.08C98.7618 131.712 98.0338 131.528 97.2498 131.528C96.4498 131.528 95.7138 131.712 95.0418 132.08C94.3858 132.432 93.8578 132.976 93.4578 133.712C93.0578 134.448 92.8578 135.344 92.8578 136.4C92.8578 137.472 93.0498 138.376 93.4338 139.112C93.8338 139.848 94.3618 140.4 95.0178 140.768C95.6738 141.12 96.3938 141.296 97.1778 141.296ZM113.201 129.608C114.801 129.608 116.097 130.096 117.089 131.072C118.081 132.032 118.577 133.424 118.577 135.248V143H116.417V135.56C116.417 134.248 116.089 133.248 115.433 132.56C114.777 131.856 113.881 131.504 112.745 131.504C111.593 131.504 110.673 131.864 109.985 132.584C109.313 133.304 108.977 134.352 108.977 135.728V143H106.793V129.848H108.977V131.72C109.409 131.048 109.993 130.528 110.729 130.16C111.481 129.792 112.305 129.608 113.201 129.608ZM121.329 136.376C121.329 135.032 121.601 133.856 122.145 132.848C122.689 131.824 123.433 131.032 124.377 130.472C125.337 129.912 126.401 129.632 127.569 129.632C128.721 129.632 129.721 129.88 130.569 130.376C131.417 130.872 132.049 131.496 132.465 132.248V129.848H134.673V143H132.465V140.552C132.033 141.32 131.385 141.96 130.521 142.472C129.673 142.968 128.681 143.216 127.545 143.216C126.377 143.216 125.321 142.928 124.377 142.352C123.433 141.776 122.689 140.968 122.145 139.928C121.601 138.888 121.329 137.704 121.329 136.376ZM132.465 136.4C132.465 135.408 132.265 134.544 131.865 133.808C131.465 133.072 130.921 132.512 130.233 132.128C129.561 131.728 128.817 131.528 128.001 131.528C127.185 131.528 126.441 131.72 125.769 132.104C125.097 132.488 124.561 133.048 124.161 133.784C123.761 134.52 123.561 135.384 123.561 136.376C123.561 137.384 123.761 138.264 124.161 139.016C124.561 139.752 125.097 140.32 125.769 140.72C126.441 141.104 127.185 141.296 128.001 141.296C128.817 141.296 129.561 141.104 130.233 140.72C130.921 140.32 131.465 139.752 131.865 139.016C132.265 138.264 132.465 137.392 132.465 136.4ZM140.548 125.24V143H138.364V125.24H140.548ZM145.398 127.712C144.982 127.712 144.63 127.568 144.342 127.28C144.054 126.992 143.91 126.64 143.91 126.224C143.91 125.808 144.054 125.456 144.342 125.168C144.63 124.88 144.982 124.736 145.398 124.736C145.798 124.736 146.134 124.88 146.406 125.168C146.694 125.456 146.838 125.808 146.838 126.224C146.838 126.64 146.694 126.992 146.406 127.28C146.134 127.568 145.798 127.712 145.398 127.712ZM146.454 129.848V143H144.27V129.848H146.454ZM151.808 141.2H158.264V143H149.312V141.2L155.696 131.624H149.36V129.848H158.216V131.624L151.808 141.2ZM173.098 135.92C173.098 136.336 173.074 136.776 173.026 137.24H162.514C162.594 138.536 163.034 139.552 163.834 140.288C164.65 141.008 165.634 141.368 166.786 141.368C167.73 141.368 168.514 141.152 169.138 140.72C169.778 140.272 170.226 139.68 170.482 138.944H172.834C172.482 140.208 171.778 141.24 170.722 142.04C169.666 142.824 168.354 143.216 166.786 143.216C165.538 143.216 164.418 142.936 163.426 142.376C162.45 141.816 161.682 141.024 161.122 140C160.562 138.96 160.282 137.76 160.282 136.4C160.282 135.04 160.554 133.848 161.098 132.824C161.642 131.8 162.402 131.016 163.378 130.472C164.37 129.912 165.506 129.632 166.786 129.632C168.034 129.632 169.138 129.904 170.098 130.448C171.058 130.992 171.794 131.744 172.306 132.704C172.834 133.648 173.098 134.72 173.098 135.92ZM170.842 135.464C170.842 134.632 170.658 133.92 170.29 133.328C169.922 132.72 169.418 132.264 168.778 131.96C168.154 131.64 167.458 131.48 166.69 131.48C165.586 131.48 164.642 131.832 163.858 132.536C163.09 133.24 162.65 134.216 162.538 135.464H170.842ZM175.165 136.376C175.165 135.032 175.437 133.856 175.981 132.848C176.525 131.824 177.269 131.032 178.213 130.472C179.173 129.912 180.245 129.632 181.429 129.632C182.453 129.632 183.405 129.872 184.285 130.352C185.165 130.816 185.837 131.432 186.301 132.2V125.24H188.509V143H186.301V140.528C185.869 141.312 185.229 141.96 184.381 142.472C183.533 142.968 182.541 143.216 181.405 143.216C180.237 143.216 179.173 142.928 178.213 142.352C177.269 141.776 176.525 140.968 175.981 139.928C175.437 138.888 175.165 137.704 175.165 136.376ZM186.301 136.4C186.301 135.408 186.101 134.544 185.701 133.808C185.301 133.072 184.757 132.512 184.069 132.128C183.397 131.728 182.653 131.528 181.837 131.528C181.021 131.528 180.277 131.72 179.605 132.104C178.933 132.488 178.397 133.048 177.997 133.784C177.597 134.52 177.397 135.384 177.397 136.376C177.397 137.384 177.597 138.264 177.997 139.016C178.397 139.752 178.933 140.32 179.605 140.72C180.277 141.104 181.021 141.296 181.837 141.296C182.653 141.296 183.397 141.104 184.069 140.72C184.757 140.32 185.301 139.752 185.701 139.016C186.101 138.264 186.301 137.392 186.301 136.4ZM197.782 136.4C197.782 135.04 198.054 133.856 198.598 132.848C199.142 131.824 199.894 131.032 200.854 130.472C201.83 129.912 202.942 129.632 204.19 129.632C205.806 129.632 207.134 130.024 208.174 130.808C209.23 131.592 209.926 132.68 210.262 134.072H207.91C207.686 133.272 207.246 132.64 206.59 132.176C205.95 131.712 205.15 131.48 204.19 131.48C202.942 131.48 201.934 131.912 201.166 132.776C200.398 133.624 200.014 134.832 200.014 136.4C200.014 137.984 200.398 139.208 201.166 140.072C201.934 140.936 202.942 141.368 204.19 141.368C205.15 141.368 205.95 141.144 206.59 140.696C207.23 140.248 207.67 139.608 207.91 138.776H210.262C209.91 140.12 209.206 141.2 208.15 142.016C207.094 142.816 205.774 143.216 204.19 143.216C202.942 143.216 201.83 142.936 200.854 142.376C199.894 141.816 199.142 141.024 198.598 140C198.054 138.976 197.782 137.776 197.782 136.4ZM212.36 136.376C212.36 135.032 212.632 133.856 213.176 132.848C213.72 131.824 214.464 131.032 215.408 130.472C216.368 129.912 217.432 129.632 218.6 129.632C219.752 129.632 220.752 129.88 221.6 130.376C222.448 130.872 223.08 131.496 223.496 132.248V129.848H225.704V143H223.496V140.552C223.064 141.32 222.416 141.96 221.552 142.472C220.704 142.968 219.712 143.216 218.576 143.216C217.408 143.216 216.352 142.928 215.408 142.352C214.464 141.776 213.72 140.968 213.176 139.928C212.632 138.888 212.36 137.704 212.36 136.376ZM223.496 136.4C223.496 135.408 223.296 134.544 222.896 133.808C222.496 133.072 221.952 132.512 221.264 132.128C220.592 131.728 219.848 131.528 219.032 131.528C218.216 131.528 217.472 131.72 216.8 132.104C216.128 132.488 215.592 133.048 215.192 133.784C214.792 134.52 214.592 135.384 214.592 136.376C214.592 137.384 214.792 138.264 215.192 139.016C215.592 139.752 216.128 140.32 216.8 140.72C217.472 141.104 218.216 141.296 219.032 141.296C219.848 141.296 220.592 141.104 221.264 140.72C221.952 140.32 222.496 139.752 222.896 139.016C223.296 138.264 223.496 137.392 223.496 136.4ZM231.579 131.984C231.963 131.232 232.507 130.648 233.211 130.232C233.931 129.816 234.803 129.608 235.827 129.608V131.864H235.251C232.803 131.864 231.579 133.192 231.579 135.848V143H229.395V129.848H231.579V131.984ZM250.348 135.92C250.348 136.336 250.324 136.776 250.276 137.24H239.764C239.844 138.536 240.284 139.552 241.084 140.288C241.9 141.008 242.884 141.368 244.036 141.368C244.98 141.368 245.764 141.152 246.388 140.72C247.028 140.272 247.476 139.68 247.732 138.944H250.084C249.732 140.208 249.028 141.24 247.972 142.04C246.916 142.824 245.604 143.216 244.036 143.216C242.788 143.216 241.668 142.936 240.676 142.376C239.7 141.816 238.932 141.024 238.372 140C237.812 138.96 237.532 137.76 237.532 136.4C237.532 135.04 237.804 133.848 238.348 132.824C238.892 131.8 239.652 131.016 240.628 130.472C241.62 129.912 242.756 129.632 244.036 129.632C245.284 129.632 246.388 129.904 247.348 130.448C248.308 130.992 249.044 131.744 249.556 132.704C250.084 133.648 250.348 134.72 250.348 135.92ZM248.092 135.464C248.092 134.632 247.908 133.92 247.54 133.328C247.172 132.72 246.668 132.264 246.028 131.96C245.404 131.64 244.708 131.48 243.94 131.48C242.836 131.48 241.892 131.832 241.108 132.536C240.34 133.24 239.9 134.216 239.788 135.464H248.092ZM277.149 129.848L273.045 143H270.789L267.621 132.56L264.453 143H262.197L258.069 129.848H260.301L263.325 140.888L266.589 129.848H268.821L272.013 140.912L274.989 129.848H277.149ZM280.445 127.712C280.029 127.712 279.677 127.568 279.389 127.28C279.101 126.992 278.957 126.64 278.957 126.224C278.957 125.808 279.101 125.456 279.389 125.168C279.677 124.88 280.029 124.736 280.445 124.736C280.845 124.736 281.181 124.88 281.453 125.168C281.741 125.456 281.885 125.808 281.885 126.224C281.885 126.64 281.741 126.992 281.453 127.28C281.181 127.568 280.845 127.712 280.445 127.712ZM281.501 129.848V143H279.317V129.848H281.501ZM287.887 131.648V139.4C287.887 140.04 288.023 140.496 288.295 140.768C288.567 141.024 289.039 141.152 289.711 141.152H291.319V143H289.351C288.135 143 287.223 142.72 286.615 142.16C286.007 141.6 285.703 140.68 285.703 139.4V131.648H283.999V129.848H285.703V126.536H287.887V129.848H291.319V131.648H287.887ZM300.493 129.608C301.485 129.608 302.381 129.824 303.181 130.256C303.981 130.672 304.605 131.304 305.053 132.152C305.517 133 305.749 134.032 305.749 135.248V143H303.589V135.56C303.589 134.248 303.261 133.248 302.605 132.56C301.949 131.856 301.053 131.504 299.917 131.504C298.765 131.504 297.845 131.864 297.157 132.584C296.485 133.304 296.149 134.352 296.149 135.728V143H293.965V125.24H296.149V131.72C296.581 131.048 297.173 130.528 297.925 130.16C298.693 129.792 299.549 129.608 300.493 129.608ZM44.584 171.216C43.352 171.216 42.232 170.936 41.224 170.376C40.232 169.816 39.448 169.024 38.872 168C38.312 166.96 38.032 165.76 38.032 164.4C38.032 163.056 38.32 161.872 38.896 160.848C39.488 159.808 40.288 159.016 41.296 158.472C42.304 157.912 43.432 157.632 44.68 157.632C45.928 157.632 47.056 157.912 48.064 158.472C49.072 159.016 49.864 159.8 50.44 160.824C51.032 161.848 51.328 163.04 51.328 164.4C51.328 165.76 51.024 166.96 50.416 168C49.824 169.024 49.016 169.816 47.992 170.376C46.968 170.936 45.832 171.216 44.584 171.216ZM44.584 169.296C45.368 169.296 46.104 169.112 46.792 168.744C47.48 168.376 48.032 167.824 48.448 167.088C48.88 166.352 49.096 165.456 49.096 164.4C49.096 163.344 48.888 162.448 48.472 161.712C48.056 160.976 47.512 160.432 46.84 160.08C46.168 159.712 45.44 159.528 44.656 159.528C43.856 159.528 43.12 159.712 42.448 160.08C41.792 160.432 41.264 160.976 40.864 161.712C40.464 162.448 40.264 163.344 40.264 164.4C40.264 165.472 40.456 166.376 40.84 167.112C41.24 167.848 41.768 168.4 42.424 168.768C43.08 169.12 43.8 169.296 44.584 169.296ZM65.8636 157.848V171H63.6796V169.056C63.2636 169.728 62.6796 170.256 61.9276 170.64C61.1916 171.008 60.3756 171.192 59.4796 171.192C58.4556 171.192 57.5356 170.984 56.7196 170.568C55.9036 170.136 55.2556 169.496 54.7756 168.648C54.3116 167.8 54.0796 166.768 54.0796 165.552V157.848H56.2396V165.264C56.2396 166.56 56.5676 167.56 57.2236 168.264C57.8796 168.952 58.7756 169.296 59.9116 169.296C61.0796 169.296 61.9996 168.936 62.6716 168.216C63.3436 167.496 63.6796 166.448 63.6796 165.072V157.848H65.8636ZM71.7351 159.984C72.1191 159.232 72.6631 158.648 73.3671 158.232C74.0871 157.816 74.9591 157.608 75.9831 157.608V159.864H75.4071C72.9591 159.864 71.7351 161.192 71.7351 163.848V171H69.5511V157.848H71.7351V159.984ZM87.5667 159.648V167.4C87.5667 168.04 87.7027 168.496 87.9747 168.768C88.2467 169.024 88.7187 169.152 89.3907 169.152H90.9987V171H89.0307C87.8147 171 86.9027 170.72 86.2947 170.16C85.6867 169.6 85.3827 168.68 85.3827 167.4V159.648H83.6787V157.848H85.3827V154.536H87.5667V157.848H90.9987V159.648H87.5667ZM92.8289 164.376C92.8289 163.032 93.1009 161.856 93.6449 160.848C94.1889 159.824 94.9329 159.032 95.8769 158.472C96.8369 157.912 97.9009 157.632 99.0689 157.632C100.221 157.632 101.221 157.88 102.069 158.376C102.917 158.872 103.549 159.496 103.965 160.248V157.848H106.173V171H103.965V168.552C103.533 169.32 102.885 169.96 102.021 170.472C101.173 170.968 100.181 171.216 99.0449 171.216C97.8769 171.216 96.8209 170.928 95.8769 170.352C94.9329 169.776 94.1889 168.968 93.6449 167.928C93.1009 166.888 92.8289 165.704 92.8289 164.376ZM103.965 164.4C103.965 163.408 103.765 162.544 103.365 161.808C102.965 161.072 102.421 160.512 101.733 160.128C101.061 159.728 100.317 159.528 99.5009 159.528C98.6849 159.528 97.9409 159.72 97.2689 160.104C96.5969 160.488 96.0609 161.048 95.6609 161.784C95.2609 162.52 95.0609 163.384 95.0609 164.376C95.0609 165.384 95.2609 166.264 95.6609 167.016C96.0609 167.752 96.5969 168.32 97.2689 168.72C97.9409 169.104 98.6849 169.296 99.5009 169.296C100.317 169.296 101.061 169.104 101.733 168.72C102.421 168.32 102.965 167.752 103.365 167.016C103.765 166.264 103.965 165.392 103.965 164.4ZM110.992 155.712C110.576 155.712 110.224 155.568 109.936 155.28C109.648 154.992 109.504 154.64 109.504 154.224C109.504 153.808 109.648 153.456 109.936 153.168C110.224 152.88 110.576 152.736 110.992 152.736C111.392 152.736 111.728 152.88 112 153.168C112.288 153.456 112.432 153.808 112.432 154.224C112.432 154.64 112.288 154.992 112 155.28C111.728 155.568 111.392 155.712 110.992 155.712ZM112.048 157.848V171H109.864V157.848H112.048ZM117.954 153.24V171H115.77V153.24H117.954ZM127.412 171.216C126.18 171.216 125.06 170.936 124.052 170.376C123.06 169.816 122.276 169.024 121.7 168C121.14 166.96 120.86 165.76 120.86 164.4C120.86 163.056 121.148 161.872 121.724 160.848C122.316 159.808 123.116 159.016 124.124 158.472C125.132 157.912 126.26 157.632 127.508 157.632C128.756 157.632 129.884 157.912 130.892 158.472C131.9 159.016 132.692 159.8 133.268 160.824C133.86 161.848 134.156 163.04 134.156 164.4C134.156 165.76 133.852 166.96 133.244 168C132.652 169.024 131.844 169.816 130.82 170.376C129.796 170.936 128.66 171.216 127.412 171.216ZM127.412 169.296C128.196 169.296 128.932 169.112 129.62 168.744C130.308 168.376 130.86 167.824 131.276 167.088C131.708 166.352 131.924 165.456 131.924 164.4C131.924 163.344 131.716 162.448 131.3 161.712C130.884 160.976 130.34 160.432 129.668 160.08C128.996 159.712 128.268 159.528 127.484 159.528C126.684 159.528 125.948 159.712 125.276 160.08C124.62 160.432 124.092 160.976 123.692 161.712C123.292 162.448 123.092 163.344 123.092 164.4C123.092 165.472 123.284 166.376 123.668 167.112C124.068 167.848 124.596 168.4 125.252 168.768C125.908 169.12 126.628 169.296 127.412 169.296ZM139.212 159.984C139.596 159.232 140.14 158.648 140.844 158.232C141.564 157.816 142.436 157.608 143.46 157.608V159.864H142.884C140.436 159.864 139.212 161.192 139.212 163.848V171H137.028V157.848H139.212V159.984ZM157.981 163.92C157.981 164.336 157.957 164.776 157.909 165.24H147.397C147.477 166.536 147.917 167.552 148.717 168.288C149.533 169.008 150.517 169.368 151.669 169.368C152.613 169.368 153.397 169.152 154.021 168.72C154.661 168.272 155.109 167.68 155.365 166.944H157.717C157.365 168.208 156.661 169.24 155.605 170.04C154.549 170.824 153.237 171.216 151.669 171.216C150.421 171.216 149.301 170.936 148.309 170.376C147.333 169.816 146.565 169.024 146.005 168C145.445 166.96 145.165 165.76 145.165 164.4C145.165 163.04 145.437 161.848 145.981 160.824C146.525 159.8 147.285 159.016 148.261 158.472C149.253 157.912 150.389 157.632 151.669 157.632C152.917 157.632 154.021 157.904 154.981 158.448C155.941 158.992 156.677 159.744 157.189 160.704C157.717 161.648 157.981 162.72 157.981 163.92ZM155.725 163.464C155.725 162.632 155.541 161.92 155.173 161.328C154.805 160.72 154.301 160.264 153.661 159.96C153.037 159.64 152.341 159.48 151.573 159.48C150.469 159.48 149.525 159.832 148.741 160.536C147.973 161.24 147.533 162.216 147.421 163.464H155.725ZM160.048 164.376C160.048 163.032 160.32 161.856 160.864 160.848C161.408 159.824 162.152 159.032 163.096 158.472C164.056 157.912 165.128 157.632 166.312 157.632C167.336 157.632 168.288 157.872 169.168 158.352C170.048 158.816 170.72 159.432 171.184 160.2V153.24H173.392V171H171.184V168.528C170.752 169.312 170.112 169.96 169.264 170.472C168.416 170.968 167.424 171.216 166.288 171.216C165.12 171.216 164.056 170.928 163.096 170.352C162.152 169.776 161.408 168.968 160.864 167.928C160.32 166.888 160.048 165.704 160.048 164.376ZM171.184 164.4C171.184 163.408 170.984 162.544 170.584 161.808C170.184 161.072 169.64 160.512 168.952 160.128C168.28 159.728 167.536 159.528 166.72 159.528C165.904 159.528 165.16 159.72 164.488 160.104C163.816 160.488 163.28 161.048 162.88 161.784C162.48 162.52 162.28 163.384 162.28 164.376C162.28 165.384 162.48 166.264 162.88 167.016C163.28 167.752 163.816 168.32 164.488 168.72C165.16 169.104 165.904 169.296 166.72 169.296C167.536 169.296 168.28 169.104 168.952 168.72C169.64 168.32 170.184 167.752 170.584 167.016C170.984 166.264 171.184 165.392 171.184 164.4ZM186.145 159.648V167.4C186.145 168.04 186.281 168.496 186.553 168.768C186.825 169.024 187.297 169.152 187.969 169.152H189.577V171H187.609C186.393 171 185.481 170.72 184.873 170.16C184.265 169.6 183.961 168.68 183.961 167.4V159.648H182.257V157.848H183.961V154.536H186.145V157.848H189.577V159.648H186.145ZM194.407 159.984C194.791 159.232 195.335 158.648 196.039 158.232C196.759 157.816 197.631 157.608 198.655 157.608V159.864H198.079C195.631 159.864 194.407 161.192 194.407 163.848V171H192.223V157.848H194.407V159.984ZM213.176 163.92C213.176 164.336 213.152 164.776 213.104 165.24H202.592C202.672 166.536 203.112 167.552 203.912 168.288C204.728 169.008 205.712 169.368 206.864 169.368C207.808 169.368 208.592 169.152 209.216 168.72C209.856 168.272 210.304 167.68 210.56 166.944H212.912C212.56 168.208 211.856 169.24 210.8 170.04C209.744 170.824 208.432 171.216 206.864 171.216C205.616 171.216 204.496 170.936 203.504 170.376C202.528 169.816 201.76 169.024 201.2 168C200.64 166.96 200.36 165.76 200.36 164.4C200.36 163.04 200.632 161.848 201.176 160.824C201.72 159.8 202.48 159.016 203.456 158.472C204.448 157.912 205.584 157.632 206.864 157.632C208.112 157.632 209.216 157.904 210.176 158.448C211.136 158.992 211.872 159.744 212.384 160.704C212.912 161.648 213.176 162.72 213.176 163.92ZM210.92 163.464C210.92 162.632 210.736 161.92 210.368 161.328C210 160.72 209.496 160.264 208.856 159.96C208.232 159.64 207.536 159.48 206.768 159.48C205.664 159.48 204.72 159.832 203.936 160.536C203.168 161.24 202.728 162.216 202.616 163.464H210.92ZM215.243 164.376C215.243 163.032 215.515 161.856 216.059 160.848C216.603 159.824 217.347 159.032 218.291 158.472C219.251 157.912 220.315 157.632 221.483 157.632C222.635 157.632 223.635 157.88 224.483 158.376C225.331 158.872 225.963 159.496 226.379 160.248V157.848H228.587V171H226.379V168.552C225.947 169.32 225.299 169.96 224.435 170.472C223.587 170.968 222.595 171.216 221.459 171.216C220.291 171.216 219.235 170.928 218.291 170.352C217.347 169.776 216.603 168.968 216.059 167.928C215.515 166.888 215.243 165.704 215.243 164.376ZM226.379 164.4C226.379 163.408 226.179 162.544 225.779 161.808C225.379 161.072 224.835 160.512 224.147 160.128C223.475 159.728 222.731 159.528 221.915 159.528C221.099 159.528 220.355 159.72 219.683 160.104C219.011 160.488 218.475 161.048 218.075 161.784C217.675 162.52 217.475 163.384 217.475 164.376C217.475 165.384 217.675 166.264 218.075 167.016C218.475 167.752 219.011 168.32 219.683 168.72C220.355 169.104 221.099 169.296 221.915 169.296C222.731 169.296 223.475 169.104 224.147 168.72C224.835 168.32 225.379 167.752 225.779 167.016C226.179 166.264 226.379 165.392 226.379 164.4ZM234.942 159.648V167.4C234.942 168.04 235.078 168.496 235.35 168.768C235.622 169.024 236.094 169.152 236.766 169.152H238.374V171H236.406C235.19 171 234.278 170.72 233.67 170.16C233.062 169.6 232.758 168.68 232.758 167.4V159.648H231.054V157.848H232.758V154.536H234.942V157.848H238.374V159.648H234.942ZM256.836 157.608C257.86 157.608 258.772 157.824 259.572 158.256C260.372 158.672 261.004 159.304 261.468 160.152C261.932 161 262.164 162.032 262.164 163.248V171H260.004V163.56C260.004 162.248 259.676 161.248 259.02 160.56C258.38 159.856 257.508 159.504 256.404 159.504C255.268 159.504 254.364 159.872 253.692 160.608C253.02 161.328 252.684 162.376 252.684 163.752V171H250.524V163.56C250.524 162.248 250.196 161.248 249.54 160.56C248.9 159.856 248.028 159.504 246.924 159.504C245.788 159.504 244.884 159.872 244.212 160.608C243.54 161.328 243.204 162.376 243.204 163.752V171H241.02V157.848H243.204V159.744C243.636 159.056 244.212 158.528 244.932 158.16C245.668 157.792 246.476 157.608 247.356 157.608C248.46 157.608 249.436 157.856 250.284 158.352C251.132 158.848 251.764 159.576 252.18 160.536C252.548 159.608 253.156 158.888 254.004 158.376C254.852 157.864 255.796 157.608 256.836 157.608ZM277.746 163.92C277.746 164.336 277.722 164.776 277.674 165.24H267.162C267.242 166.536 267.682 167.552 268.482 168.288C269.298 169.008 270.282 169.368 271.434 169.368C272.378 169.368 273.162 169.152 273.786 168.72C274.426 168.272 274.874 167.68 275.13 166.944H277.482C277.13 168.208 276.426 169.24 275.37 170.04C274.314 170.824 273.002 171.216 271.434 171.216C270.186 171.216 269.066 170.936 268.074 170.376C267.098 169.816 266.33 169.024 265.77 168C265.21 166.96 264.93 165.76 264.93 164.4C264.93 163.04 265.202 161.848 265.746 160.824C266.29 159.8 267.05 159.016 268.026 158.472C269.018 157.912 270.154 157.632 271.434 157.632C272.682 157.632 273.786 157.904 274.746 158.448C275.706 158.992 276.442 159.744 276.954 160.704C277.482 161.648 277.746 162.72 277.746 163.92ZM275.49 163.464C275.49 162.632 275.306 161.92 274.938 161.328C274.57 160.72 274.066 160.264 273.426 159.96C272.802 159.64 272.106 159.48 271.338 159.48C270.234 159.48 269.29 159.832 268.506 160.536C267.738 161.24 267.298 162.216 267.186 163.464H275.49ZM287.037 157.608C288.637 157.608 289.933 158.096 290.925 159.072C291.917 160.032 292.413 161.424 292.413 163.248V171H290.253V163.56C290.253 162.248 289.925 161.248 289.269 160.56C288.613 159.856 287.717 159.504 286.581 159.504C285.429 159.504 284.509 159.864 283.821 160.584C283.149 161.304 282.813 162.352 282.813 163.728V171H280.629V157.848H282.813V159.72C283.245 159.048 283.829 158.528 284.565 158.16C285.317 157.792 286.141 157.608 287.037 157.608ZM298.645 159.648V167.4C298.645 168.04 298.781 168.496 299.053 168.768C299.325 169.024 299.797 169.152 300.469 169.152H302.077V171H300.109C298.893 171 297.981 170.72 297.373 170.16C296.765 169.6 296.461 168.68 296.461 167.4V159.648H294.757V157.848H296.461V154.536H298.645V157.848H302.077V159.648H298.645ZM309.379 171.216C308.371 171.216 307.467 171.048 306.667 170.712C305.867 170.36 305.235 169.88 304.771 169.272C304.307 168.648 304.051 167.936 304.003 167.136H306.259C306.323 167.792 306.627 168.328 307.171 168.744C307.731 169.16 308.459 169.368 309.355 169.368C310.187 169.368 310.843 169.184 311.323 168.816C311.803 168.448 312.043 167.984 312.043 167.424C312.043 166.848 311.787 166.424 311.275 166.152C310.763 165.864 309.971 165.584 308.899 165.312C307.923 165.056 307.123 164.8 306.499 164.544C305.891 164.272 305.363 163.88 304.915 163.368C304.483 162.84 304.267 162.152 304.267 161.304C304.267 160.632 304.467 160.016 304.867 159.456C305.267 158.896 305.835 158.456 306.571 158.136C307.307 157.8 308.147 157.632 309.091 157.632C310.547 157.632 311.723 158 312.619 158.736C313.515 159.472 313.995 160.48 314.059 161.76H311.875C311.827 161.072 311.547 160.52 311.035 160.104C310.539 159.688 309.867 159.48 309.019 159.48C308.235 159.48 307.611 159.648 307.147 159.984C306.683 160.32 306.451 160.76 306.451 161.304C306.451 161.736 306.587 162.096 306.859 162.384C307.147 162.656 307.499 162.88 307.915 163.056C308.347 163.216 308.939 163.4 309.691 163.608C310.635 163.864 311.403 164.12 311.995 164.376C312.587 164.616 313.091 164.984 313.507 165.48C313.939 165.976 314.163 166.624 314.179 167.424C314.179 168.144 313.979 168.792 313.579 169.368C313.179 169.944 312.611 170.4 311.875 170.736C311.155 171.056 310.323 171.216 309.379 171.216ZM319.518 167.976L316.83 174.432H315.366L317.118 167.976H319.518ZM38.032 192.376C38.032 191.032 38.304 189.856 38.848 188.848C39.392 187.824 40.136 187.032 41.08 186.472C42.04 185.912 43.112 185.632 44.296 185.632C45.32 185.632 46.272 185.872 47.152 186.352C48.032 186.816 48.704 187.432 49.168 188.2V181.24H51.376V199H49.168V196.528C48.736 197.312 48.096 197.96 47.248 198.472C46.4 198.968 45.408 199.216 44.272 199.216C43.104 199.216 42.04 198.928 41.08 198.352C40.136 197.776 39.392 196.968 38.848 195.928C38.304 194.888 38.032 193.704 38.032 192.376ZM49.168 192.4C49.168 191.408 48.968 190.544 48.568 189.808C48.168 189.072 47.624 188.512 46.936 188.128C46.264 187.728 45.52 187.528 44.704 187.528C43.888 187.528 43.144 187.72 42.472 188.104C41.8 188.488 41.264 189.048 40.864 189.784C40.464 190.52 40.264 191.384 40.264 192.376C40.264 193.384 40.464 194.264 40.864 195.016C41.264 195.752 41.8 196.32 42.472 196.72C43.144 197.104 43.888 197.296 44.704 197.296C45.52 197.296 46.264 197.104 46.936 196.72C47.624 196.32 48.168 195.752 48.568 195.016C48.968 194.264 49.168 193.392 49.168 192.4ZM67.0668 191.92C67.0668 192.336 67.0428 192.776 66.9948 193.24H56.4828C56.5628 194.536 57.0028 195.552 57.8028 196.288C58.6188 197.008 59.6028 197.368 60.7548 197.368C61.6988 197.368 62.4828 197.152 63.1068 196.72C63.7468 196.272 64.1948 195.68 64.4508 194.944H66.8028C66.4508 196.208 65.7468 197.24 64.6908 198.04C63.6348 198.824 62.3228 199.216 60.7548 199.216C59.5068 199.216 58.3868 198.936 57.3948 198.376C56.4188 197.816 55.6508 197.024 55.0908 196C54.5308 194.96 54.2508 193.76 54.2508 192.4C54.2508 191.04 54.5228 189.848 55.0668 188.824C55.6108 187.8 56.3708 187.016 57.3468 186.472C58.3388 185.912 59.4748 185.632 60.7548 185.632C62.0028 185.632 63.1068 185.904 64.0668 186.448C65.0268 186.992 65.7628 187.744 66.2748 188.704C66.8028 189.648 67.0668 190.72 67.0668 191.92ZM64.8108 191.464C64.8108 190.632 64.6268 189.92 64.2588 189.328C63.8908 188.72 63.3868 188.264 62.7468 187.96C62.1228 187.64 61.4268 187.48 60.6588 187.48C59.5548 187.48 58.6108 187.832 57.8268 188.536C57.0588 189.24 56.6188 190.216 56.5068 191.464H64.8108ZM74.6056 199.216C73.5976 199.216 72.6936 199.048 71.8936 198.712C71.0936 198.36 70.4616 197.88 69.9976 197.272C69.5336 196.648 69.2776 195.936 69.2296 195.136H71.4856C71.5496 195.792 71.8536 196.328 72.3976 196.744C72.9576 197.16 73.6856 197.368 74.5816 197.368C75.4136 197.368 76.0696 197.184 76.5496 196.816C77.0296 196.448 77.2696 195.984 77.2696 195.424C77.2696 194.848 77.0136 194.424 76.5016 194.152C75.9896 193.864 75.1976 193.584 74.1256 193.312C73.1496 193.056 72.3496 192.8 71.7256 192.544C71.1176 192.272 70.5896 191.88 70.1416 191.368C69.7096 190.84 69.4936 190.152 69.4936 189.304C69.4936 188.632 69.6936 188.016 70.0936 187.456C70.4936 186.896 71.0616 186.456 71.7976 186.136C72.5336 185.8 73.3736 185.632 74.3176 185.632C75.7736 185.632 76.9496 186 77.8456 186.736C78.7416 187.472 79.2216 188.48 79.2856 189.76H77.1016C77.0536 189.072 76.7736 188.52 76.2616 188.104C75.7656 187.688 75.0936 187.48 74.2456 187.48C73.4616 187.48 72.8376 187.648 72.3736 187.984C71.9096 188.32 71.6776 188.76 71.6776 189.304C71.6776 189.736 71.8136 190.096 72.0856 190.384C72.3736 190.656 72.7256 190.88 73.1416 191.056C73.5736 191.216 74.1656 191.4 74.9176 191.608C75.8616 191.864 76.6296 192.12 77.2216 192.376C77.8136 192.616 78.3176 192.984 78.7336 193.48C79.1656 193.976 79.3896 194.624 79.4056 195.424C79.4056 196.144 79.2056 196.792 78.8056 197.368C78.4056 197.944 77.8376 198.4 77.1016 198.736C76.3816 199.056 75.5496 199.216 74.6056 199.216ZM83.6166 183.712C83.2006 183.712 82.8486 183.568 82.5606 183.28C82.2726 182.992 82.1286 182.64 82.1286 182.224C82.1286 181.808 82.2726 181.456 82.5606 181.168C82.8486 180.88 83.2006 180.736 83.6166 180.736C84.0166 180.736 84.3526 180.88 84.6246 181.168C84.9126 181.456 85.0566 181.808 85.0566 182.224C85.0566 182.64 84.9126 182.992 84.6246 183.28C84.3526 183.568 84.0166 183.712 83.6166 183.712ZM84.6726 185.848V199H82.4886V185.848H84.6726ZM93.8189 185.632C94.9549 185.632 95.9469 185.88 96.7949 186.376C97.6589 186.872 98.2989 187.496 98.7149 188.248V185.848H100.923V199.288C100.923 200.488 100.667 201.552 100.155 202.48C99.6429 203.424 98.9069 204.16 97.9469 204.688C97.0029 205.216 95.8989 205.48 94.6349 205.48C92.9069 205.48 91.4669 205.072 90.3149 204.256C89.1629 203.44 88.4829 202.328 88.2749 200.92H90.4349C90.6749 201.72 91.1709 202.36 91.9229 202.84C92.6749 203.336 93.5789 203.584 94.6349 203.584C95.8349 203.584 96.8109 203.208 97.5629 202.456C98.3309 201.704 98.7149 200.648 98.7149 199.288V196.528C98.2829 197.296 97.6429 197.936 96.7949 198.448C95.9469 198.96 94.9549 199.216 93.8189 199.216C92.6509 199.216 91.5869 198.928 90.6269 198.352C89.6829 197.776 88.9389 196.968 88.3949 195.928C87.8509 194.888 87.5789 193.704 87.5789 192.376C87.5789 191.032 87.8509 189.856 88.3949 188.848C88.9389 187.824 89.6829 187.032 90.6269 186.472C91.5869 185.912 92.6509 185.632 93.8189 185.632ZM98.7149 192.4C98.7149 191.408 98.5149 190.544 98.1149 189.808C97.7149 189.072 97.1709 188.512 96.4829 188.128C95.8109 187.728 95.0669 187.528 94.2509 187.528C93.4349 187.528 92.6909 187.72 92.0189 188.104C91.3469 188.488 90.8109 189.048 90.4109 189.784C90.0109 190.52 89.8109 191.384 89.8109 192.376C89.8109 193.384 90.0109 194.264 90.4109 195.016C90.8109 195.752 91.3469 196.32 92.0189 196.72C92.6909 197.104 93.4349 197.296 94.2509 197.296C95.0669 197.296 95.8109 197.104 96.4829 196.72C97.1709 196.32 97.7149 195.752 98.1149 195.016C98.5149 194.264 98.7149 193.392 98.7149 192.4ZM111.022 185.608C112.622 185.608 113.918 186.096 114.91 187.072C115.902 188.032 116.398 189.424 116.398 191.248V199H114.238V191.56C114.238 190.248 113.91 189.248 113.254 188.56C112.598 187.856 111.702 187.504 110.566 187.504C109.414 187.504 108.494 187.864 107.806 188.584C107.134 189.304 106.798 190.352 106.798 191.728V199H104.614V185.848H106.798V187.72C107.23 187.048 107.814 186.528 108.55 186.16C109.302 185.792 110.126 185.608 111.022 185.608ZM131.965 191.92C131.965 192.336 131.941 192.776 131.893 193.24H121.381C121.461 194.536 121.901 195.552 122.701 196.288C123.517 197.008 124.501 197.368 125.653 197.368C126.597 197.368 127.381 197.152 128.005 196.72C128.645 196.272 129.093 195.68 129.349 194.944H131.701C131.349 196.208 130.645 197.24 129.589 198.04C128.533 198.824 127.221 199.216 125.653 199.216C124.405 199.216 123.285 198.936 122.293 198.376C121.317 197.816 120.549 197.024 119.989 196C119.429 194.96 119.149 193.76 119.149 192.4C119.149 191.04 119.421 189.848 119.965 188.824C120.509 187.8 121.269 187.016 122.245 186.472C123.237 185.912 124.373 185.632 125.653 185.632C126.901 185.632 128.005 185.904 128.965 186.448C129.925 186.992 130.661 187.744 131.173 188.704C131.701 189.648 131.965 190.72 131.965 191.92ZM129.709 191.464C129.709 190.632 129.525 189.92 129.157 189.328C128.789 188.72 128.285 188.264 127.645 187.96C127.021 187.64 126.325 187.48 125.557 187.48C124.453 187.48 123.509 187.832 122.725 188.536C121.957 189.24 121.517 190.216 121.405 191.464H129.709ZM134.032 192.376C134.032 191.032 134.304 189.856 134.848 188.848C135.392 187.824 136.136 187.032 137.08 186.472C138.04 185.912 139.112 185.632 140.296 185.632C141.32 185.632 142.272 185.872 143.152 186.352C144.032 186.816 144.704 187.432 145.168 188.2V181.24H147.376V199H145.168V196.528C144.736 197.312 144.096 197.96 143.248 198.472C142.4 198.968 141.408 199.216 140.272 199.216C139.104 199.216 138.04 198.928 137.08 198.352C136.136 197.776 135.392 196.968 134.848 195.928C134.304 194.888 134.032 193.704 134.032 192.376ZM145.168 192.4C145.168 191.408 144.968 190.544 144.568 189.808C144.168 189.072 143.624 188.512 142.936 188.128C142.264 187.728 141.52 187.528 140.704 187.528C139.888 187.528 139.144 187.72 138.472 188.104C137.8 188.488 137.264 189.048 136.864 189.784C136.464 190.52 136.264 191.384 136.264 192.376C136.264 193.384 136.464 194.264 136.864 195.016C137.264 195.752 137.8 196.32 138.472 196.72C139.144 197.104 139.888 197.296 140.704 197.296C141.52 197.296 142.264 197.104 142.936 196.72C143.624 196.32 144.168 195.752 144.568 195.016C144.968 194.264 145.168 193.392 145.168 192.4ZM160.129 187.648V195.4C160.129 196.04 160.265 196.496 160.537 196.768C160.809 197.024 161.281 197.152 161.953 197.152H163.561V199H161.593C160.377 199 159.465 198.72 158.857 198.16C158.249 197.6 157.945 196.68 157.945 195.4V187.648H156.241V185.848H157.945V182.536H160.129V185.848H163.561V187.648H160.129ZM171.943 199.216C170.711 199.216 169.591 198.936 168.583 198.376C167.591 197.816 166.807 197.024 166.231 196C165.671 194.96 165.391 193.76 165.391 192.4C165.391 191.056 165.679 189.872 166.255 188.848C166.847 187.808 167.647 187.016 168.655 186.472C169.663 185.912 170.791 185.632 172.039 185.632C173.287 185.632 174.415 185.912 175.423 186.472C176.431 187.016 177.223 187.8 177.799 188.824C178.391 189.848 178.687 191.04 178.687 192.4C178.687 193.76 178.383 194.96 177.775 196C177.183 197.024 176.375 197.816 175.351 198.376C174.327 198.936 173.191 199.216 171.943 199.216ZM171.943 197.296C172.727 197.296 173.463 197.112 174.151 196.744C174.839 196.376 175.391 195.824 175.807 195.088C176.239 194.352 176.455 193.456 176.455 192.4C176.455 191.344 176.247 190.448 175.831 189.712C175.415 188.976 174.871 188.432 174.199 188.08C173.527 187.712 172.799 187.528 172.015 187.528C171.215 187.528 170.479 187.712 169.807 188.08C169.151 188.432 168.623 188.976 168.223 189.712C167.823 190.448 167.623 191.344 167.623 192.4C167.623 193.472 167.815 194.376 168.199 195.112C168.599 195.848 169.127 196.4 169.783 196.768C170.439 197.12 171.159 197.296 171.943 197.296ZM187.141 192.376C187.141 191.032 187.413 189.856 187.957 188.848C188.501 187.824 189.245 187.032 190.189 186.472C191.149 185.912 192.213 185.632 193.381 185.632C194.533 185.632 195.533 185.88 196.381 186.376C197.229 186.872 197.861 187.496 198.277 188.248V185.848H200.485V199H198.277V196.552C197.845 197.32 197.197 197.96 196.333 198.472C195.485 198.968 194.493 199.216 193.357 199.216C192.189 199.216 191.133 198.928 190.189 198.352C189.245 197.776 188.501 196.968 187.957 195.928C187.413 194.888 187.141 193.704 187.141 192.376ZM198.277 192.4C198.277 191.408 198.077 190.544 197.677 189.808C197.277 189.072 196.733 188.512 196.045 188.128C195.373 187.728 194.629 187.528 193.813 187.528C192.997 187.528 192.253 187.72 191.581 188.104C190.909 188.488 190.373 189.048 189.973 189.784C189.573 190.52 189.373 191.384 189.373 192.376C189.373 193.384 189.573 194.264 189.973 195.016C190.373 195.752 190.909 196.32 191.581 196.72C192.253 197.104 192.997 197.296 193.813 197.296C194.629 197.296 195.373 197.104 196.045 196.72C196.733 196.32 197.277 195.752 197.677 195.016C198.077 194.264 198.277 193.392 198.277 192.4ZM203.36 192.376C203.36 191.032 203.632 189.856 204.176 188.848C204.72 187.824 205.464 187.032 206.408 186.472C207.368 185.912 208.44 185.632 209.624 185.632C210.648 185.632 211.6 185.872 212.48 186.352C213.36 186.816 214.032 187.432 214.496 188.2V181.24H216.704V199H214.496V196.528C214.064 197.312 213.424 197.96 212.576 198.472C211.728 198.968 210.736 199.216 209.6 199.216C208.432 199.216 207.368 198.928 206.408 198.352C205.464 197.776 204.72 196.968 204.176 195.928C203.632 194.888 203.36 193.704 203.36 192.376ZM214.496 192.4C214.496 191.408 214.296 190.544 213.896 189.808C213.496 189.072 212.952 188.512 212.264 188.128C211.592 187.728 210.848 187.528 210.032 187.528C209.216 187.528 208.472 187.72 207.8 188.104C207.128 188.488 206.592 189.048 206.192 189.784C205.792 190.52 205.592 191.384 205.592 192.376C205.592 193.384 205.792 194.264 206.192 195.016C206.592 195.752 207.128 196.32 207.8 196.72C208.472 197.104 209.216 197.296 210.032 197.296C210.848 197.296 211.592 197.104 212.264 196.72C212.952 196.32 213.496 195.752 213.896 195.016C214.296 194.264 214.496 193.392 214.496 192.4ZM219.579 192.376C219.579 191.032 219.851 189.856 220.395 188.848C220.939 187.824 221.683 187.032 222.627 186.472C223.587 185.912 224.659 185.632 225.843 185.632C226.867 185.632 227.819 185.872 228.699 186.352C229.579 186.816 230.251 187.432 230.715 188.2V181.24H232.923V199H230.715V196.528C230.283 197.312 229.643 197.96 228.795 198.472C227.947 198.968 226.955 199.216 225.819 199.216C224.651 199.216 223.587 198.928 222.627 198.352C221.683 197.776 220.939 196.968 220.395 195.928C219.851 194.888 219.579 193.704 219.579 192.376ZM230.715 192.4C230.715 191.408 230.515 190.544 230.115 189.808C229.715 189.072 229.171 188.512 228.483 188.128C227.811 187.728 227.067 187.528 226.251 187.528C225.435 187.528 224.691 187.72 224.019 188.104C223.347 188.488 222.811 189.048 222.411 189.784C222.011 190.52 221.811 191.384 221.811 192.376C221.811 193.384 222.011 194.264 222.411 195.016C222.811 195.752 223.347 196.32 224.019 196.72C224.691 197.104 225.435 197.296 226.251 197.296C227.067 197.296 227.811 197.104 228.483 196.72C229.171 196.32 229.715 195.752 230.115 195.016C230.515 194.264 230.715 193.392 230.715 192.4ZM238.798 187.984C239.182 187.232 239.726 186.648 240.43 186.232C241.15 185.816 242.022 185.608 243.046 185.608V187.864H242.47C240.022 187.864 238.798 189.192 238.798 191.848V199H236.614V185.848H238.798V187.984ZM257.567 191.92C257.567 192.336 257.543 192.776 257.495 193.24H246.983C247.063 194.536 247.503 195.552 248.303 196.288C249.119 197.008 250.103 197.368 251.255 197.368C252.199 197.368 252.983 197.152 253.607 196.72C254.247 196.272 254.695 195.68 254.951 194.944H257.303C256.951 196.208 256.247 197.24 255.191 198.04C254.135 198.824 252.823 199.216 251.255 199.216C250.007 199.216 248.887 198.936 247.895 198.376C246.919 197.816 246.151 197.024 245.591 196C245.031 194.96 244.751 193.76 244.751 192.4C244.751 191.04 245.023 189.848 245.567 188.824C246.111 187.8 246.871 187.016 247.847 186.472C248.839 185.912 249.975 185.632 251.255 185.632C252.503 185.632 253.607 185.904 254.567 186.448C255.527 186.992 256.263 187.744 256.775 188.704C257.303 189.648 257.567 190.72 257.567 191.92ZM255.311 191.464C255.311 190.632 255.127 189.92 254.759 189.328C254.391 188.72 253.887 188.264 253.247 187.96C252.623 187.64 251.927 187.48 251.159 187.48C250.055 187.48 249.111 187.832 248.327 188.536C247.559 189.24 247.119 190.216 247.007 191.464H255.311ZM265.106 199.216C264.098 199.216 263.194 199.048 262.394 198.712C261.594 198.36 260.962 197.88 260.498 197.272C260.034 196.648 259.778 195.936 259.73 195.136H261.986C262.05 195.792 262.354 196.328 262.898 196.744C263.458 197.16 264.186 197.368 265.082 197.368C265.914 197.368 266.57 197.184 267.05 196.816C267.53 196.448 267.77 195.984 267.77 195.424C267.77 194.848 267.514 194.424 267.002 194.152C266.49 193.864 265.698 193.584 264.626 193.312C263.65 193.056 262.85 192.8 262.226 192.544C261.618 192.272 261.09 191.88 260.642 191.368C260.21 190.84 259.994 190.152 259.994 189.304C259.994 188.632 260.194 188.016 260.594 187.456C260.994 186.896 261.562 186.456 262.298 186.136C263.034 185.8 263.874 185.632 264.818 185.632C266.274 185.632 267.45 186 268.346 186.736C269.242 187.472 269.722 188.48 269.786 189.76H267.602C267.554 189.072 267.274 188.52 266.762 188.104C266.266 187.688 265.594 187.48 264.746 187.48C263.962 187.48 263.338 187.648 262.874 187.984C262.41 188.32 262.178 188.76 262.178 189.304C262.178 189.736 262.314 190.096 262.586 190.384C262.874 190.656 263.226 190.88 263.642 191.056C264.074 191.216 264.666 191.4 265.418 191.608C266.362 191.864 267.13 192.12 267.722 192.376C268.314 192.616 268.818 192.984 269.234 193.48C269.666 193.976 269.89 194.624 269.906 195.424C269.906 196.144 269.706 196.792 269.306 197.368C268.906 197.944 268.338 198.4 267.602 198.736C266.882 199.056 266.05 199.216 265.106 199.216ZM277.645 199.216C276.637 199.216 275.733 199.048 274.933 198.712C274.133 198.36 273.501 197.88 273.037 197.272C272.573 196.648 272.317 195.936 272.269 195.136H274.525C274.589 195.792 274.893 196.328 275.437 196.744C275.997 197.16 276.725 197.368 277.621 197.368C278.453 197.368 279.109 197.184 279.589 196.816C280.069 196.448 280.309 195.984 280.309 195.424C280.309 194.848 280.053 194.424 279.541 194.152C279.029 193.864 278.237 193.584 277.165 193.312C276.189 193.056 275.389 192.8 274.765 192.544C274.157 192.272 273.629 191.88 273.181 191.368C272.749 190.84 272.533 190.152 272.533 189.304C272.533 188.632 272.733 188.016 273.133 187.456C273.533 186.896 274.101 186.456 274.837 186.136C275.573 185.8 276.413 185.632 277.357 185.632C278.813 185.632 279.989 186 280.885 186.736C281.781 187.472 282.261 188.48 282.325 189.76H280.141C280.093 189.072 279.813 188.52 279.301 188.104C278.805 187.688 278.133 187.48 277.285 187.48C276.501 187.48 275.877 187.648 275.413 187.984C274.949 188.32 274.717 188.76 274.717 189.304C274.717 189.736 274.853 190.096 275.125 190.384C275.413 190.656 275.765 190.88 276.181 191.056C276.613 191.216 277.205 191.4 277.957 191.608C278.901 191.864 279.669 192.12 280.261 192.376C280.853 192.616 281.357 192.984 281.773 193.48C282.205 193.976 282.429 194.624 282.445 195.424C282.445 196.144 282.245 196.792 281.845 197.368C281.445 197.944 280.877 198.4 280.141 198.736C279.421 199.056 278.589 199.216 277.645 199.216ZM303.254 185.848L295.334 205.192H293.078L295.67 198.856L290.366 185.848H292.79L296.918 196.504L300.998 185.848H303.254ZM311.186 199.216C309.954 199.216 308.834 198.936 307.826 198.376C306.834 197.816 306.05 197.024 305.474 196C304.914 194.96 304.634 193.76 304.634 192.4C304.634 191.056 304.922 189.872 305.498 188.848C306.09 187.808 306.89 187.016 307.898 186.472C308.906 185.912 310.034 185.632 311.282 185.632C312.53 185.632 313.658 185.912 314.666 186.472C315.674 187.016 316.466 187.8 317.042 188.824C317.634 189.848 317.93 191.04 317.93 192.4C317.93 193.76 317.626 194.96 317.018 196C316.426 197.024 315.618 197.816 314.594 198.376C313.57 198.936 312.434 199.216 311.186 199.216ZM311.186 197.296C311.97 197.296 312.706 197.112 313.394 196.744C314.082 196.376 314.634 195.824 315.05 195.088C315.482 194.352 315.698 193.456 315.698 192.4C315.698 191.344 315.49 190.448 315.074 189.712C314.658 188.976 314.114 188.432 313.442 188.08C312.77 187.712 312.042 187.528 311.258 187.528C310.458 187.528 309.722 187.712 309.05 188.08C308.394 188.432 307.866 188.976 307.466 189.712C307.066 190.448 306.866 191.344 306.866 192.4C306.866 193.472 307.058 194.376 307.442 195.112C307.842 195.848 308.37 196.4 309.026 196.768C309.682 197.12 310.402 197.296 311.186 197.296ZM332.465 185.848V199H330.281V197.056C329.865 197.728 329.281 198.256 328.529 198.64C327.793 199.008 326.977 199.192 326.081 199.192C325.057 199.192 324.137 198.984 323.321 198.568C322.505 198.136 321.857 197.496 321.377 196.648C320.913 195.8 320.681 194.768 320.681 193.552V185.848H322.841V193.264C322.841 194.56 323.169 195.56 323.825 196.264C324.481 196.952 325.377 197.296 326.513 197.296C327.681 197.296 328.601 196.936 329.273 196.216C329.945 195.496 330.281 194.448 330.281 193.072V185.848H332.465ZM338.337 187.984C338.721 187.232 339.265 186.648 339.969 186.232C340.689 185.816 341.561 185.608 342.585 185.608V187.864H342.009C339.561 187.864 338.337 189.192 338.337 191.848V199H336.153V185.848H338.337V187.984ZM50.512 213.848V227H48.328V225.056C47.912 225.728 47.328 226.256 46.576 226.64C45.84 227.008 45.024 227.192 44.128 227.192C43.104 227.192 42.184 226.984 41.368 226.568C40.552 226.136 39.904 225.496 39.424 224.648C38.96 223.8 38.728 222.768 38.728 221.552V213.848H40.888V221.264C40.888 222.56 41.216 223.56 41.872 224.264C42.528 224.952 43.424 225.296 44.56 225.296C45.728 225.296 46.648 224.936 47.32 224.216C47.992 223.496 48.328 222.448 48.328 221.072V213.848H50.512ZM60.6076 213.608C62.2076 213.608 63.5036 214.096 64.4956 215.072C65.4876 216.032 65.9836 217.424 65.9836 219.248V227H63.8236V219.56C63.8236 218.248 63.4956 217.248 62.8396 216.56C62.1836 215.856 61.2876 215.504 60.1516 215.504C58.9996 215.504 58.0796 215.864 57.3916 216.584C56.7196 217.304 56.3836 218.352 56.3836 219.728V227H54.1996V213.848H56.3836V215.72C56.8156 215.048 57.3996 214.528 58.1356 214.16C58.8876 213.792 59.7116 213.608 60.6076 213.608ZM70.6791 211.712C70.2631 211.712 69.9111 211.568 69.6231 211.28C69.3351 210.992 69.1911 210.64 69.1911 210.224C69.1911 209.808 69.3351 209.456 69.6231 209.168C69.9111 208.88 70.2631 208.736 70.6791 208.736C71.0791 208.736 71.4151 208.88 71.6871 209.168C71.9751 209.456 72.1191 209.808 72.1191 210.224C72.1191 210.64 71.9751 210.992 71.6871 211.28C71.4151 211.568 71.0791 211.712 70.6791 211.712ZM71.7351 213.848V227H69.5511V213.848H71.7351ZM74.6414 220.376C74.6414 219.032 74.9134 217.856 75.4574 216.848C76.0014 215.824 76.7454 215.032 77.6894 214.472C78.6494 213.912 79.7214 213.632 80.9054 213.632C82.0414 213.632 83.0334 213.888 83.8814 214.4C84.7454 214.896 85.3774 215.512 85.7774 216.248V213.848H87.9854V233.24H85.7774V224.576C85.3614 225.312 84.7214 225.936 83.8574 226.448C82.9934 226.96 81.9854 227.216 80.8334 227.216C79.6814 227.216 78.6334 226.928 77.6894 226.352C76.7454 225.776 76.0014 224.968 75.4574 223.928C74.9134 222.888 74.6414 221.704 74.6414 220.376ZM85.7774 220.4C85.7774 219.408 85.5774 218.544 85.1774 217.808C84.7774 217.072 84.2334 216.512 83.5454 216.128C82.8734 215.728 82.1294 215.528 81.3134 215.528C80.4974 215.528 79.7534 215.72 79.0814 216.104C78.4094 216.488 77.8734 217.048 77.4734 217.784C77.0734 218.52 76.8734 219.384 76.8734 220.376C76.8734 221.384 77.0734 222.264 77.4734 223.016C77.8734 223.752 78.4094 224.32 79.0814 224.72C79.7534 225.104 80.4974 225.296 81.3134 225.296C82.1294 225.296 82.8734 225.104 83.5454 224.72C84.2334 224.32 84.7774 223.752 85.1774 223.016C85.5774 222.264 85.7774 221.392 85.7774 220.4ZM103.34 213.848V227H101.156V225.056C100.74 225.728 100.156 226.256 99.4041 226.64C98.6681 227.008 97.8521 227.192 96.9561 227.192C95.9321 227.192 95.0121 226.984 94.1961 226.568C93.3801 226.136 92.7321 225.496 92.2521 224.648C91.7881 223.8 91.5561 222.768 91.5561 221.552V213.848H93.7161V221.264C93.7161 222.56 94.0441 223.56 94.7001 224.264C95.3561 224.952 96.2521 225.296 97.3881 225.296C98.5561 225.296 99.4761 224.936 100.148 224.216C100.82 223.496 101.156 222.448 101.156 221.072V213.848H103.34ZM119.028 219.92C119.028 220.336 119.004 220.776 118.956 221.24H108.444C108.524 222.536 108.964 223.552 109.764 224.288C110.58 225.008 111.564 225.368 112.716 225.368C113.66 225.368 114.444 225.152 115.068 224.72C115.708 224.272 116.156 223.68 116.412 222.944H118.764C118.412 224.208 117.708 225.24 116.652 226.04C115.596 226.824 114.284 227.216 112.716 227.216C111.468 227.216 110.348 226.936 109.356 226.376C108.38 225.816 107.612 225.024 107.052 224C106.492 222.96 106.212 221.76 106.212 220.4C106.212 219.04 106.484 217.848 107.028 216.824C107.572 215.8 108.332 215.016 109.308 214.472C110.3 213.912 111.436 213.632 112.716 213.632C113.964 213.632 115.068 213.904 116.028 214.448C116.988 214.992 117.724 215.744 118.236 216.704C118.764 217.648 119.028 218.72 119.028 219.92ZM116.772 219.464C116.772 218.632 116.588 217.92 116.22 217.328C115.852 216.72 115.348 216.264 114.708 215.96C114.084 215.64 113.388 215.48 112.62 215.48C111.516 215.48 110.572 215.832 109.788 216.536C109.02 217.24 108.58 218.216 108.468 219.464H116.772ZM134.717 213.608C136.317 213.608 137.613 214.096 138.605 215.072C139.597 216.032 140.093 217.424 140.093 219.248V227H137.933V219.56C137.933 218.248 137.605 217.248 136.949 216.56C136.293 215.856 135.397 215.504 134.261 215.504C133.109 215.504 132.189 215.864 131.501 216.584C130.829 217.304 130.493 218.352 130.493 219.728V227H128.309V213.848H130.493V215.72C130.925 215.048 131.509 214.528 132.245 214.16C132.997 213.792 133.821 213.608 134.717 213.608ZM155.661 219.92C155.661 220.336 155.637 220.776 155.589 221.24H145.077C145.157 222.536 145.597 223.552 146.397 224.288C147.213 225.008 148.197 225.368 149.349 225.368C150.293 225.368 151.077 225.152 151.701 224.72C152.341 224.272 152.789 223.68 153.045 222.944H155.397C155.045 224.208 154.341 225.24 153.285 226.04C152.229 226.824 150.917 227.216 149.349 227.216C148.101 227.216 146.981 226.936 145.989 226.376C145.013 225.816 144.245 225.024 143.685 224C143.125 222.96 142.845 221.76 142.845 220.4C142.845 219.04 143.117 217.848 143.661 216.824C144.205 215.8 144.965 215.016 145.941 214.472C146.933 213.912 148.069 213.632 149.349 213.632C150.597 213.632 151.701 213.904 152.661 214.448C153.621 214.992 154.357 215.744 154.869 216.704C155.397 217.648 155.661 218.72 155.661 219.92ZM153.405 219.464C153.405 218.632 153.221 217.92 152.853 217.328C152.485 216.72 151.981 216.264 151.341 215.96C150.717 215.64 150.021 215.48 149.253 215.48C148.149 215.48 147.205 215.832 146.421 216.536C145.653 217.24 145.213 218.216 145.101 219.464H153.405ZM170.543 219.92C170.543 220.336 170.519 220.776 170.471 221.24H159.959C160.039 222.536 160.479 223.552 161.279 224.288C162.095 225.008 163.079 225.368 164.231 225.368C165.175 225.368 165.959 225.152 166.583 224.72C167.223 224.272 167.671 223.68 167.927 222.944H170.279C169.927 224.208 169.223 225.24 168.167 226.04C167.111 226.824 165.799 227.216 164.231 227.216C162.983 227.216 161.863 226.936 160.871 226.376C159.895 225.816 159.127 225.024 158.567 224C158.007 222.96 157.727 221.76 157.727 220.4C157.727 219.04 157.999 217.848 158.543 216.824C159.087 215.8 159.847 215.016 160.823 214.472C161.815 213.912 162.951 213.632 164.231 213.632C165.479 213.632 166.583 213.904 167.543 214.448C168.503 214.992 169.239 215.744 169.751 216.704C170.279 217.648 170.543 218.72 170.543 219.92ZM168.287 219.464C168.287 218.632 168.103 217.92 167.735 217.328C167.367 216.72 166.863 216.264 166.223 215.96C165.599 215.64 164.903 215.48 164.135 215.48C163.031 215.48 162.087 215.832 161.303 216.536C160.535 217.24 160.095 218.216 159.983 219.464H168.287ZM172.61 220.376C172.61 219.032 172.882 217.856 173.426 216.848C173.97 215.824 174.714 215.032 175.658 214.472C176.618 213.912 177.69 213.632 178.874 213.632C179.898 213.632 180.85 213.872 181.73 214.352C182.61 214.816 183.282 215.432 183.746 216.2V209.24H185.954V227H183.746V224.528C183.314 225.312 182.674 225.96 181.826 226.472C180.978 226.968 179.986 227.216 178.85 227.216C177.682 227.216 176.618 226.928 175.658 226.352C174.714 225.776 173.97 224.968 173.426 223.928C172.882 222.888 172.61 221.704 172.61 220.376ZM183.746 220.4C183.746 219.408 183.546 218.544 183.146 217.808C182.746 217.072 182.202 216.512 181.514 216.128C180.842 215.728 180.098 215.528 179.282 215.528C178.466 215.528 177.722 215.72 177.05 216.104C176.378 216.488 175.842 217.048 175.442 217.784C175.042 218.52 174.842 219.384 174.842 220.376C174.842 221.384 175.042 222.264 175.442 223.016C175.842 223.752 176.378 224.32 177.05 224.72C177.722 225.104 178.466 225.296 179.282 225.296C180.098 225.296 180.842 225.104 181.514 224.72C182.202 224.32 182.746 223.752 183.146 223.016C183.546 222.264 183.746 221.392 183.746 220.4ZM194.301 227.216C193.293 227.216 192.389 227.048 191.589 226.712C190.789 226.36 190.157 225.88 189.693 225.272C189.229 224.648 188.973 223.936 188.925 223.136H191.181C191.245 223.792 191.549 224.328 192.093 224.744C192.653 225.16 193.381 225.368 194.277 225.368C195.109 225.368 195.765 225.184 196.245 224.816C196.725 224.448 196.965 223.984 196.965 223.424C196.965 222.848 196.709 222.424 196.197 222.152C195.685 221.864 194.893 221.584 193.821 221.312C192.845 221.056 192.045 220.8 191.421 220.544C190.813 220.272 190.285 219.88 189.837 219.368C189.405 218.84 189.189 218.152 189.189 217.304C189.189 216.632 189.389 216.016 189.789 215.456C190.189 214.896 190.757 214.456 191.493 214.136C192.229 213.8 193.069 213.632 194.013 213.632C195.469 213.632 196.645 214 197.541 214.736C198.437 215.472 198.917 216.48 198.981 217.76H196.797C196.749 217.072 196.469 216.52 195.957 216.104C195.461 215.688 194.789 215.48 193.941 215.48C193.157 215.48 192.533 215.648 192.069 215.984C191.605 216.32 191.373 216.76 191.373 217.304C191.373 217.736 191.509 218.096 191.781 218.384C192.069 218.656 192.421 218.88 192.837 219.056C193.269 219.216 193.861 219.4 194.613 219.608C195.557 219.864 196.325 220.12 196.917 220.376C197.509 220.616 198.013 220.984 198.429 221.48C198.861 221.976 199.085 222.624 199.101 223.424C199.101 224.144 198.901 224.792 198.501 225.368C198.101 225.944 197.533 226.4 196.797 226.736C196.077 227.056 195.245 227.216 194.301 227.216ZM207.766 220.376C207.766 219.032 208.038 217.856 208.582 216.848C209.126 215.824 209.87 215.032 210.814 214.472C211.774 213.912 212.838 213.632 214.006 213.632C215.158 213.632 216.158 213.88 217.006 214.376C217.854 214.872 218.486 215.496 218.902 216.248V213.848H221.11V227H218.902V224.552C218.47 225.32 217.822 225.96 216.958 226.472C216.11 226.968 215.118 227.216 213.982 227.216C212.814 227.216 211.758 226.928 210.814 226.352C209.87 225.776 209.126 224.968 208.582 223.928C208.038 222.888 207.766 221.704 207.766 220.376ZM218.902 220.4C218.902 219.408 218.702 218.544 218.302 217.808C217.902 217.072 217.358 216.512 216.67 216.128C215.998 215.728 215.254 215.528 214.438 215.528C213.622 215.528 212.878 215.72 212.206 216.104C211.534 216.488 210.998 217.048 210.598 217.784C210.198 218.52 209.998 219.384 209.998 220.376C209.998 221.384 210.198 222.264 210.598 223.016C210.998 223.752 211.534 224.32 212.206 224.72C212.878 225.104 213.622 225.296 214.438 225.296C215.254 225.296 215.998 225.104 216.67 224.72C217.358 224.32 217.902 223.752 218.302 223.016C218.702 222.264 218.902 221.392 218.902 220.4ZM231.209 213.608C232.809 213.608 234.105 214.096 235.097 215.072C236.089 216.032 236.585 217.424 236.585 219.248V227H234.425V219.56C234.425 218.248 234.097 217.248 233.441 216.56C232.785 215.856 231.889 215.504 230.753 215.504C229.601 215.504 228.681 215.864 227.993 216.584C227.321 217.304 226.985 218.352 226.985 219.728V227H224.801V213.848H226.985V215.72C227.417 215.048 228.001 214.528 228.737 214.16C229.489 213.792 230.313 213.608 231.209 213.608ZM239.337 220.376C239.337 219.032 239.609 217.856 240.153 216.848C240.697 215.824 241.441 215.032 242.385 214.472C243.345 213.912 244.417 213.632 245.601 213.632C246.625 213.632 247.577 213.872 248.457 214.352C249.337 214.816 250.009 215.432 250.473 216.2V209.24H252.681V227H250.473V224.528C250.041 225.312 249.401 225.96 248.553 226.472C247.705 226.968 246.713 227.216 245.577 227.216C244.409 227.216 243.345 226.928 242.385 226.352C241.441 225.776 240.697 224.968 240.153 223.928C239.609 222.888 239.337 221.704 239.337 220.376ZM250.473 220.4C250.473 219.408 250.273 218.544 249.873 217.808C249.473 217.072 248.929 216.512 248.241 216.128C247.569 215.728 246.825 215.528 246.009 215.528C245.193 215.528 244.449 215.72 243.777 216.104C243.105 216.488 242.569 217.048 242.169 217.784C241.769 218.52 241.569 219.384 241.569 220.376C241.569 221.384 241.769 222.264 242.169 223.016C242.569 223.752 243.105 224.32 243.777 224.72C244.449 225.104 245.193 225.296 246.009 225.296C246.825 225.296 247.569 225.104 248.241 224.72C248.929 224.32 249.473 223.752 249.873 223.016C250.273 222.264 250.473 221.392 250.473 220.4ZM264.954 216.296C265.402 215.512 266.058 214.872 266.922 214.376C267.786 213.88 268.77 213.632 269.874 213.632C271.058 213.632 272.122 213.912 273.066 214.472C274.01 215.032 274.754 215.824 275.298 216.848C275.842 217.856 276.114 219.032 276.114 220.376C276.114 221.704 275.842 222.888 275.298 223.928C274.754 224.968 274.002 225.776 273.042 226.352C272.098 226.928 271.042 227.216 269.874 227.216C268.738 227.216 267.738 226.968 266.874 226.472C266.026 225.976 265.386 225.344 264.954 224.576V227H262.77V209.24H264.954V216.296ZM273.882 220.376C273.882 219.384 273.682 218.52 273.282 217.784C272.882 217.048 272.338 216.488 271.65 216.104C270.978 215.72 270.234 215.528 269.418 215.528C268.618 215.528 267.874 215.728 267.186 216.128C266.514 216.512 265.97 217.08 265.554 217.832C265.154 218.568 264.954 219.424 264.954 220.4C264.954 221.392 265.154 222.264 265.554 223.016C265.97 223.752 266.514 224.32 267.186 224.72C267.874 225.104 268.618 225.296 269.418 225.296C270.234 225.296 270.978 225.104 271.65 224.72C272.338 224.32 272.882 223.752 273.282 223.016C273.682 222.264 273.882 221.384 273.882 220.376ZM281.173 215.984C281.557 215.232 282.101 214.648 282.805 214.232C283.525 213.816 284.397 213.608 285.421 213.608V215.864H284.845C282.397 215.864 281.173 217.192 281.173 219.848V227H278.989V213.848H281.173V215.984ZM289.07 211.712C288.654 211.712 288.302 211.568 288.014 211.28C287.726 210.992 287.582 210.64 287.582 210.224C287.582 209.808 287.726 209.456 288.014 209.168C288.302 208.88 288.654 208.736 289.07 208.736C289.47 208.736 289.806 208.88 290.078 209.168C290.366 209.456 290.51 209.808 290.51 210.224C290.51 210.64 290.366 210.992 290.078 211.28C289.806 211.568 289.47 211.712 289.07 211.712ZM290.126 213.848V227H287.942V213.848H290.126ZM300.256 213.608C301.856 213.608 303.152 214.096 304.144 215.072C305.136 216.032 305.632 217.424 305.632 219.248V227H303.472V219.56C303.472 218.248 303.144 217.248 302.488 216.56C301.832 215.856 300.936 215.504 299.8 215.504C298.648 215.504 297.728 215.864 297.04 216.584C296.368 217.304 296.032 218.352 296.032 219.728V227H293.848V213.848H296.032V215.72C296.464 215.048 297.048 214.528 297.784 214.16C298.536 213.792 299.36 213.608 300.256 213.608ZM314.624 213.632C315.76 213.632 316.752 213.88 317.6 214.376C318.464 214.872 319.104 215.496 319.52 216.248V213.848H321.728V227.288C321.728 228.488 321.472 229.552 320.96 230.48C320.448 231.424 319.712 232.16 318.752 232.688C317.808 233.216 316.704 233.48 315.44 233.48C313.712 233.48 312.272 233.072 311.12 232.256C309.968 231.44 309.288 230.328 309.08 228.92H311.24C311.48 229.72 311.976 230.36 312.728 230.84C313.48 231.336 314.384 231.584 315.44 231.584C316.64 231.584 317.616 231.208 318.368 230.456C319.136 229.704 319.52 228.648 319.52 227.288V224.528C319.088 225.296 318.448 225.936 317.6 226.448C316.752 226.96 315.76 227.216 314.624 227.216C313.456 227.216 312.392 226.928 311.432 226.352C310.488 225.776 309.744 224.968 309.2 223.928C308.656 222.888 308.384 221.704 308.384 220.376C308.384 219.032 308.656 217.856 309.2 216.848C309.744 215.824 310.488 215.032 311.432 214.472C312.392 213.912 313.456 213.632 314.624 213.632ZM319.52 220.4C319.52 219.408 319.32 218.544 318.92 217.808C318.52 217.072 317.976 216.512 317.288 216.128C316.616 215.728 315.872 215.528 315.056 215.528C314.24 215.528 313.496 215.72 312.824 216.104C312.152 216.488 311.616 217.048 311.216 217.784C310.816 218.52 310.616 219.384 310.616 220.376C310.616 221.384 310.816 222.264 311.216 223.016C311.616 223.752 312.152 224.32 312.824 224.72C313.496 225.104 314.24 225.296 315.056 225.296C315.872 225.296 316.616 225.104 317.288 224.72C317.976 224.32 318.52 223.752 318.92 223.016C319.32 222.264 319.52 221.392 319.52 220.4ZM44.584 255.216C43.352 255.216 42.232 254.936 41.224 254.376C40.232 253.816 39.448 253.024 38.872 252C38.312 250.96 38.032 249.76 38.032 248.4C38.032 247.056 38.32 245.872 38.896 244.848C39.488 243.808 40.288 243.016 41.296 242.472C42.304 241.912 43.432 241.632 44.68 241.632C45.928 241.632 47.056 241.912 48.064 242.472C49.072 243.016 49.864 243.8 50.44 244.824C51.032 245.848 51.328 247.04 51.328 248.4C51.328 249.76 51.024 250.96 50.416 252C49.824 253.024 49.016 253.816 47.992 254.376C46.968 254.936 45.832 255.216 44.584 255.216ZM44.584 253.296C45.368 253.296 46.104 253.112 46.792 252.744C47.48 252.376 48.032 251.824 48.448 251.088C48.88 250.352 49.096 249.456 49.096 248.4C49.096 247.344 48.888 246.448 48.472 245.712C48.056 244.976 47.512 244.432 46.84 244.08C46.168 243.712 45.44 243.528 44.656 243.528C43.856 243.528 43.12 243.712 42.448 244.08C41.792 244.432 41.264 244.976 40.864 245.712C40.464 246.448 40.264 247.344 40.264 248.4C40.264 249.472 40.456 250.376 40.84 251.112C41.24 251.848 41.768 252.4 42.424 252.768C43.08 253.12 43.8 253.296 44.584 253.296ZM65.8636 241.848V255H63.6796V253.056C63.2636 253.728 62.6796 254.256 61.9276 254.64C61.1916 255.008 60.3756 255.192 59.4796 255.192C58.4556 255.192 57.5356 254.984 56.7196 254.568C55.9036 254.136 55.2556 253.496 54.7756 252.648C54.3116 251.8 54.0796 250.768 54.0796 249.552V241.848H56.2396V249.264C56.2396 250.56 56.5676 251.56 57.2236 252.264C57.8796 252.952 58.7756 253.296 59.9116 253.296C61.0796 253.296 61.9996 252.936 62.6716 252.216C63.3436 251.496 63.6796 250.448 63.6796 249.072V241.848H65.8636ZM72.2151 243.648V251.4C72.2151 252.04 72.3511 252.496 72.6231 252.768C72.8951 253.024 73.3671 253.152 74.0391 253.152H75.6471V255H73.6791C72.4631 255 71.5511 254.72 70.9431 254.16C70.3351 253.6 70.0311 252.68 70.0311 251.4V243.648H68.3271V241.848H70.0311V238.536H72.2151V241.848H75.6471V243.648H72.2151ZM96.0198 241.848L88.0998 261.192H85.8438L88.4358 254.856L83.1318 241.848H85.5558L89.6838 252.504L93.7638 241.848H96.0198ZM103.951 255.216C102.719 255.216 101.599 254.936 100.591 254.376C99.5992 253.816 98.8152 253.024 98.2392 252C97.6792 250.96 97.3992 249.76 97.3992 248.4C97.3992 247.056 97.6872 245.872 98.2632 244.848C98.8552 243.808 99.6552 243.016 100.663 242.472C101.671 241.912 102.799 241.632 104.047 241.632C105.295 241.632 106.423 241.912 107.431 242.472C108.439 243.016 109.231 243.8 109.807 244.824C110.399 245.848 110.695 247.04 110.695 248.4C110.695 249.76 110.391 250.96 109.783 252C109.191 253.024 108.383 253.816 107.359 254.376C106.335 254.936 105.199 255.216 103.951 255.216ZM103.951 253.296C104.735 253.296 105.471 253.112 106.159 252.744C106.847 252.376 107.399 251.824 107.815 251.088C108.247 250.352 108.463 249.456 108.463 248.4C108.463 247.344 108.255 246.448 107.839 245.712C107.423 244.976 106.879 244.432 106.207 244.08C105.535 243.712 104.807 243.528 104.023 243.528C103.223 243.528 102.487 243.712 101.815 244.08C101.159 244.432 100.631 244.976 100.231 245.712C99.8312 246.448 99.6312 247.344 99.6312 248.4C99.6312 249.472 99.8232 250.376 100.207 251.112C100.607 251.848 101.135 252.4 101.791 252.768C102.447 253.12 103.167 253.296 103.951 253.296ZM125.231 241.848V255H123.047V253.056C122.631 253.728 122.047 254.256 121.295 254.64C120.559 255.008 119.743 255.192 118.847 255.192C117.823 255.192 116.903 254.984 116.087 254.568C115.271 254.136 114.623 253.496 114.143 252.648C113.679 251.8 113.447 250.768 113.447 249.552V241.848H115.607V249.264C115.607 250.56 115.935 251.56 116.591 252.264C117.247 252.952 118.143 253.296 119.279 253.296C120.447 253.296 121.367 252.936 122.039 252.216C122.711 251.496 123.047 250.448 123.047 249.072V241.848H125.231ZM131.102 243.984C131.486 243.232 132.03 242.648 132.734 242.232C133.454 241.816 134.326 241.608 135.35 241.608V243.864H134.774C132.326 243.864 131.102 245.192 131.102 247.848V255H128.918V241.848H131.102V243.984ZM150.678 241.608C152.278 241.608 153.574 242.096 154.566 243.072C155.558 244.032 156.054 245.424 156.054 247.248V255H153.894V247.56C153.894 246.248 153.566 245.248 152.91 244.56C152.254 243.856 151.358 243.504 150.222 243.504C149.07 243.504 148.15 243.864 147.462 244.584C146.79 245.304 146.454 246.352 146.454 247.728V255H144.27V241.848H146.454V243.72C146.886 243.048 147.47 242.528 148.206 242.16C148.958 241.792 149.782 241.608 150.678 241.608ZM158.805 248.376C158.805 247.032 159.077 245.856 159.621 244.848C160.165 243.824 160.909 243.032 161.853 242.472C162.813 241.912 163.877 241.632 165.045 241.632C166.197 241.632 167.197 241.88 168.045 242.376C168.893 242.872 169.525 243.496 169.941 244.248V241.848H172.149V255H169.941V252.552C169.509 253.32 168.861 253.96 167.997 254.472C167.149 254.968 166.157 255.216 165.021 255.216C163.853 255.216 162.797 254.928 161.853 254.352C160.909 253.776 160.165 252.968 159.621 251.928C159.077 250.888 158.805 249.704 158.805 248.376ZM169.941 248.4C169.941 247.408 169.741 246.544 169.341 245.808C168.941 245.072 168.397 244.512 167.709 244.128C167.037 243.728 166.293 243.528 165.477 243.528C164.661 243.528 163.917 243.72 163.245 244.104C162.573 244.488 162.037 245.048 161.637 245.784C161.237 246.52 161.037 247.384 161.037 248.376C161.037 249.384 161.237 250.264 161.637 251.016C162.037 251.752 162.573 252.32 163.245 252.72C163.917 253.104 164.661 253.296 165.477 253.296C166.293 253.296 167.037 253.104 167.709 252.72C168.397 252.32 168.941 251.752 169.341 251.016C169.741 250.264 169.941 249.392 169.941 248.4ZM178.504 243.648V251.4C178.504 252.04 178.64 252.496 178.912 252.768C179.184 253.024 179.656 253.152 180.328 253.152H181.936V255H179.968C178.752 255 177.84 254.72 177.232 254.16C176.624 253.6 176.32 252.68 176.32 251.4V243.648H174.616V241.848H176.32V238.536H178.504V241.848H181.936V243.648H178.504ZM196.246 241.848V255H194.062V253.056C193.646 253.728 193.062 254.256 192.31 254.64C191.574 255.008 190.758 255.192 189.862 255.192C188.838 255.192 187.918 254.984 187.102 254.568C186.286 254.136 185.638 253.496 185.158 252.648C184.694 251.8 184.462 250.768 184.462 249.552V241.848H186.622V249.264C186.622 250.56 186.95 251.56 187.606 252.264C188.262 252.952 189.158 253.296 190.294 253.296C191.462 253.296 192.382 252.936 193.054 252.216C193.726 251.496 194.062 250.448 194.062 249.072V241.848H196.246ZM202.118 243.984C202.502 243.232 203.046 242.648 203.75 242.232C204.47 241.816 205.342 241.608 206.366 241.608V243.864H205.79C203.342 243.864 202.118 245.192 202.118 247.848V255H199.934V241.848H202.118V243.984ZM208.071 248.376C208.071 247.032 208.343 245.856 208.887 244.848C209.431 243.824 210.175 243.032 211.119 242.472C212.079 241.912 213.143 241.632 214.311 241.632C215.463 241.632 216.463 241.88 217.311 242.376C218.159 242.872 218.791 243.496 219.207 244.248V241.848H221.415V255H219.207V252.552C218.775 253.32 218.127 253.96 217.263 254.472C216.415 254.968 215.423 255.216 214.287 255.216C213.119 255.216 212.063 254.928 211.119 254.352C210.175 253.776 209.431 252.968 208.887 251.928C208.343 250.888 208.071 249.704 208.071 248.376ZM219.207 248.4C219.207 247.408 219.007 246.544 218.607 245.808C218.207 245.072 217.663 244.512 216.975 244.128C216.303 243.728 215.559 243.528 214.743 243.528C213.927 243.528 213.183 243.72 212.511 244.104C211.839 244.488 211.303 245.048 210.903 245.784C210.503 246.52 210.303 247.384 210.303 248.376C210.303 249.384 210.503 250.264 210.903 251.016C211.303 251.752 211.839 252.32 212.511 252.72C213.183 253.104 213.927 253.296 214.743 253.296C215.559 253.296 216.303 253.104 216.975 252.72C217.663 252.32 218.207 251.752 218.607 251.016C219.007 250.264 219.207 249.392 219.207 248.4ZM227.29 237.24V255H225.106V237.24H227.29ZM239.595 244.296C240.043 243.512 240.699 242.872 241.562 242.376C242.427 241.88 243.411 241.632 244.515 241.632C245.699 241.632 246.763 241.912 247.707 242.472C248.651 243.032 249.395 243.824 249.939 244.848C250.483 245.856 250.755 247.032 250.755 248.376C250.755 249.704 250.483 250.888 249.939 251.928C249.395 252.968 248.642 253.776 247.682 254.352C246.739 254.928 245.683 255.216 244.515 255.216C243.379 255.216 242.379 254.968 241.515 254.472C240.667 253.976 240.027 253.344 239.595 252.576V255H237.411V237.24H239.595V244.296ZM248.523 248.376C248.523 247.384 248.323 246.52 247.923 245.784C247.523 245.048 246.979 244.488 246.291 244.104C245.619 243.72 244.875 243.528 244.059 243.528C243.259 243.528 242.515 243.728 241.827 244.128C241.155 244.512 240.611 245.08 240.195 245.832C239.795 246.568 239.595 247.424 239.595 248.4C239.595 249.392 239.795 250.264 240.195 251.016C240.611 251.752 241.155 252.32 241.827 252.72C242.515 253.104 243.259 253.296 244.059 253.296C244.875 253.296 245.619 253.104 246.291 252.72C246.979 252.32 247.523 251.752 247.923 251.016C248.323 250.264 248.523 249.384 248.523 248.376ZM265.629 247.92C265.629 248.336 265.605 248.776 265.557 249.24H255.045C255.125 250.536 255.565 251.552 256.365 252.288C257.181 253.008 258.165 253.368 259.317 253.368C260.261 253.368 261.045 253.152 261.669 252.72C262.309 252.272 262.757 251.68 263.013 250.944H265.365C265.013 252.208 264.309 253.24 263.253 254.04C262.197 254.824 260.885 255.216 259.317 255.216C258.069 255.216 256.949 254.936 255.957 254.376C254.981 253.816 254.213 253.024 253.653 252C253.093 250.96 252.813 249.76 252.813 248.4C252.813 247.04 253.085 245.848 253.629 244.824C254.173 243.8 254.933 243.016 255.909 242.472C256.901 241.912 258.037 241.632 259.317 241.632C260.565 241.632 261.669 241.904 262.629 242.448C263.589 242.992 264.325 243.744 264.837 244.704C265.365 245.648 265.629 246.72 265.629 247.92ZM263.373 247.464C263.373 246.632 263.189 245.92 262.821 245.328C262.453 244.72 261.949 244.264 261.309 243.96C260.685 243.64 259.989 243.48 259.221 243.48C258.117 243.48 257.173 243.832 256.389 244.536C255.621 245.24 255.181 246.216 255.069 247.464H263.373ZM267.696 248.376C267.696 247.032 267.968 245.856 268.512 244.848C269.056 243.824 269.8 243.032 270.744 242.472C271.704 241.912 272.768 241.632 273.936 241.632C275.088 241.632 276.088 241.88 276.936 242.376C277.784 242.872 278.416 243.496 278.832 244.248V241.848H281.04V255H278.832V252.552C278.4 253.32 277.752 253.96 276.888 254.472C276.04 254.968 275.048 255.216 273.912 255.216C272.744 255.216 271.688 254.928 270.744 254.352C269.8 253.776 269.056 252.968 268.512 251.928C267.968 250.888 267.696 249.704 267.696 248.376ZM278.832 248.4C278.832 247.408 278.632 246.544 278.232 245.808C277.832 245.072 277.288 244.512 276.6 244.128C275.928 243.728 275.184 243.528 274.368 243.528C273.552 243.528 272.808 243.72 272.136 244.104C271.464 244.488 270.928 245.048 270.528 245.784C270.128 246.52 269.928 247.384 269.928 248.376C269.928 249.384 270.128 250.264 270.528 251.016C270.928 251.752 271.464 252.32 272.136 252.72C272.808 253.104 273.552 253.296 274.368 253.296C275.184 253.296 275.928 253.104 276.6 252.72C277.288 252.32 277.832 251.752 278.232 251.016C278.632 250.264 278.832 249.392 278.832 248.4ZM296.395 241.848V255H294.211V253.056C293.795 253.728 293.211 254.256 292.459 254.64C291.723 255.008 290.907 255.192 290.011 255.192C288.987 255.192 288.067 254.984 287.251 254.568C286.435 254.136 285.787 253.496 285.307 252.648C284.843 251.8 284.611 250.768 284.611 249.552V241.848H286.771V249.264C286.771 250.56 287.099 251.56 287.755 252.264C288.411 252.952 289.307 253.296 290.443 253.296C291.611 253.296 292.531 252.936 293.203 252.216C293.875 251.496 294.211 250.448 294.211 249.072V241.848H296.395ZM302.746 243.648V251.4C302.746 252.04 302.882 252.496 303.154 252.768C303.426 253.024 303.898 253.152 304.57 253.152H306.178V255H304.21C302.994 255 302.082 254.72 301.474 254.16C300.866 253.6 300.562 252.68 300.562 251.4V243.648H298.858V241.848H300.562V238.536H302.746V241.848H306.178V243.648H302.746ZM320.153 241.848L312.233 261.192H309.977L312.569 254.856L307.265 241.848H309.689L313.817 252.504L317.897 241.848H320.153ZM323.044 255.144C322.628 255.144 322.276 255 321.988 254.712C321.7 254.424 321.556 254.072 321.556 253.656C321.556 253.24 321.7 252.888 321.988 252.6C322.276 252.312 322.628 252.168 323.044 252.168C323.444 252.168 323.78 252.312 324.052 252.6C324.34 252.888 324.484 253.24 324.484 253.656C324.484 254.072 324.34 254.424 324.052 254.712C323.78 255 323.444 255.144 323.044 255.144Z" fill="white"/>
</g>
<defs>
<clipPath id="clip0_808_4064">
<rect width="389" height="297" rx="30" fill="white"/>
</clipPath>
</defs>
</svg>
