<svg width="389" height="297" viewBox="0 0 389 297" fill="none" xmlns="http://www.w3.org/2000/svg">
<g clip-path="url(#clip0_808_4043)">
<rect width="389" height="297" rx="30" fill="#9C003C"/>
<rect width="389" height="297" rx="24" fill="#9C003C" fill-opacity="0.58"/>
<rect width="58.5491" height="58.5734" rx="29.2746" transform="matrix(-0.593079 -0.805144 0.80593 -0.59201 341.725 81.8165)" fill="#9C003C"/>
<path d="M345.7 33.2952L357.449 34.1567C357.57 34.1655 357.685 34.1976 357.786 34.251C357.888 34.3045 357.974 34.3783 358.041 34.4682C358.107 34.5581 358.152 34.6624 358.172 34.7751C358.193 34.8878 358.19 35.0067 358.162 35.125L355.487 46.5816C355.431 46.8204 355.281 47.0424 355.068 47.1986C354.855 47.3548 354.598 47.4324 354.353 47.4145C354.108 47.3965 353.896 47.2844 353.762 47.1028C353.628 46.9212 353.584 46.685 353.64 46.4461L355.809 37.1624L340.114 48.6912C339.901 48.8473 339.644 48.9249 339.4 48.907C339.155 48.889 338.942 48.777 338.808 48.5955C338.675 48.414 338.631 48.1779 338.687 47.9392C338.742 47.7005 338.893 47.4786 339.106 47.3225L354.8 35.7937L345.28 35.0964C345.035 35.0785 344.822 34.9664 344.688 34.7848C344.554 34.6032 344.511 34.367 344.566 34.1281C344.622 33.8893 344.773 33.6673 344.986 33.5111C345.198 33.3549 345.455 33.2773 345.7 33.2952Z" fill="white"/>
<path d="M44.56 115.216C43.232 115.216 42.032 115.048 40.96 114.712C39.888 114.36 38.96 113.856 38.176 113.2L38.872 111.616C39.688 112.24 40.544 112.704 41.44 113.008C42.336 113.312 43.376 113.464 44.56 113.464C46 113.464 47.064 113.2 47.752 112.672C48.456 112.128 48.808 111.416 48.808 110.536C48.808 109.832 48.552 109.272 48.04 108.856C47.544 108.44 46.704 108.112 45.52 107.872L43.024 107.368C41.52 107.048 40.392 106.528 39.64 105.808C38.904 105.072 38.536 104.096 38.536 102.88C38.536 101.872 38.792 100.992 39.304 100.24C39.832 99.488 40.56 98.904 41.488 98.488C42.416 98.072 43.488 97.864 44.704 97.864C45.84 97.864 46.896 98.048 47.872 98.416C48.848 98.768 49.672 99.28 50.344 99.952L49.648 101.488C48.928 100.832 48.168 100.36 47.368 100.072C46.568 99.768 45.672 99.616 44.68 99.616C43.416 99.616 42.408 99.912 41.656 100.504C40.904 101.08 40.528 101.848 40.528 102.808C40.528 103.576 40.76 104.184 41.224 104.632C41.704 105.08 42.48 105.408 43.552 105.616L46.048 106.144C47.664 106.48 48.856 106.992 49.624 107.68C50.408 108.352 50.8 109.272 50.8 110.44C50.8 111.384 50.544 112.216 50.032 112.936C49.536 113.656 48.816 114.216 47.872 114.616C46.944 115.016 45.84 115.216 44.56 115.216ZM57.2616 115.216C56.4616 115.216 55.7416 115.064 55.1016 114.76C54.4776 114.44 53.9816 114.008 53.6136 113.464C53.2456 112.92 53.0616 112.312 53.0616 111.64C53.0616 110.792 53.2776 110.12 53.7096 109.624C54.1576 109.128 54.8856 108.776 55.8936 108.568C56.9176 108.344 58.3096 108.232 60.0696 108.232H60.8376V107.488C60.8376 106.496 60.6296 105.784 60.2136 105.352C59.8136 104.904 59.1656 104.68 58.2696 104.68C57.5656 104.68 56.8856 104.784 56.2296 104.992C55.5736 105.184 54.9016 105.504 54.2136 105.952L53.5416 104.536C54.1496 104.104 54.8856 103.76 55.7496 103.504C56.6296 103.248 57.4696 103.12 58.2696 103.12C59.7736 103.12 60.8856 103.488 61.6056 104.224C62.3416 104.96 62.7096 106.104 62.7096 107.656V115H60.8856V112.984C60.5816 113.672 60.1096 114.216 59.4696 114.616C58.8456 115.016 58.1096 115.216 57.2616 115.216ZM57.5736 113.752C58.5336 113.752 59.3176 113.424 59.9256 112.768C60.5336 112.096 60.8376 111.248 60.8376 110.224V109.504H60.0936C58.7976 109.504 57.7736 109.568 57.0216 109.696C56.2856 109.808 55.7656 110.016 55.4616 110.32C55.1736 110.608 55.0296 111.008 55.0296 111.52C55.0296 112.176 55.2536 112.712 55.7016 113.128C56.1656 113.544 56.7896 113.752 57.5736 113.752ZM67.543 119.32L69.535 114.808L64.615 103.336H66.727L70.591 112.792L74.479 103.336H76.519L69.583 119.32H67.543ZM89.8512 119.536C88.8432 119.536 87.8912 119.4 86.9952 119.128C86.1152 118.872 85.3312 118.48 84.6432 117.952L85.2912 116.536C86.0112 117.048 86.7232 117.416 87.4272 117.64C88.1472 117.864 88.9232 117.976 89.7552 117.976C92.0592 117.976 93.2112 116.792 93.2112 114.424V112.36C92.8752 113.096 92.3472 113.68 91.6272 114.112C90.9232 114.528 90.1152 114.736 89.2032 114.736C88.1312 114.736 87.2032 114.488 86.4192 113.992C85.6352 113.496 85.0272 112.816 84.5952 111.952C84.1792 111.072 83.9712 110.056 83.9712 108.904C83.9712 107.752 84.1792 106.744 84.5952 105.88C85.0272 105 85.6352 104.32 86.4192 103.84C87.2032 103.36 88.1312 103.12 89.2032 103.12C90.1152 103.12 90.9232 103.328 91.6272 103.744C92.3472 104.16 92.8752 104.728 93.2112 105.448V103.336H95.1072V114.16C95.1072 115.952 94.6592 117.296 93.7632 118.192C92.8832 119.088 91.5792 119.536 89.8512 119.536ZM89.5632 113.152C90.6832 113.152 91.5712 112.768 92.2272 112C92.8832 111.232 93.2112 110.2 93.2112 108.904C93.2112 107.608 92.8832 106.584 92.2272 105.832C91.5712 105.064 90.6832 104.68 89.5632 104.68C88.4592 104.68 87.5792 105.064 86.9232 105.832C86.2672 106.584 85.9392 107.608 85.9392 108.904C85.9392 110.2 86.2672 111.232 86.9232 112C87.5792 112.768 88.4592 113.152 89.5632 113.152ZM103.602 115.216C102.466 115.216 101.482 114.968 100.65 114.472C99.8177 113.976 99.1697 113.28 98.7057 112.384C98.2577 111.472 98.0337 110.4 98.0337 109.168C98.0337 107.936 98.2577 106.872 98.7057 105.976C99.1697 105.064 99.8177 104.36 100.65 103.864C101.482 103.368 102.466 103.12 103.602 103.12C104.722 103.12 105.698 103.368 106.53 103.864C107.378 104.36 108.026 105.064 108.474 105.976C108.938 106.872 109.17 107.936 109.17 109.168C109.17 110.4 108.938 111.472 108.474 112.384C108.026 113.28 107.378 113.976 106.53 114.472C105.698 114.968 104.722 115.216 103.602 115.216ZM103.602 113.656C104.69 113.656 105.562 113.272 106.218 112.504C106.874 111.72 107.202 110.608 107.202 109.168C107.202 107.712 106.874 106.6 106.218 105.832C105.562 105.064 104.69 104.68 103.602 104.68C102.498 104.68 101.618 105.064 100.962 105.832C100.322 106.6 100.002 107.712 100.002 109.168C100.002 110.608 100.322 111.72 100.962 112.504C101.618 113.272 102.498 113.656 103.602 113.656ZM116.938 115.216C115.802 115.216 114.818 114.968 113.986 114.472C113.154 113.976 112.506 113.28 112.042 112.384C111.594 111.472 111.37 110.4 111.37 109.168C111.37 107.936 111.594 106.872 112.042 105.976C112.506 105.064 113.154 104.36 113.986 103.864C114.818 103.368 115.802 103.12 116.938 103.12C118.058 103.12 119.034 103.368 119.866 103.864C120.714 104.36 121.362 105.064 121.81 105.976C122.274 106.872 122.506 107.936 122.506 109.168C122.506 110.4 122.274 111.472 121.81 112.384C121.362 113.28 120.714 113.976 119.866 114.472C119.034 114.968 118.058 115.216 116.938 115.216ZM116.938 113.656C118.026 113.656 118.898 113.272 119.554 112.504C120.21 111.72 120.538 110.608 120.538 109.168C120.538 107.712 120.21 106.6 119.554 105.832C118.898 105.064 118.026 104.68 116.938 104.68C115.834 104.68 114.954 105.064 114.298 105.832C113.658 106.6 113.338 107.712 113.338 109.168C113.338 110.608 113.658 111.72 114.298 112.504C114.954 113.272 115.834 113.656 116.938 113.656ZM129.866 115.216C128.826 115.216 127.914 114.968 127.13 114.472C126.362 113.976 125.762 113.28 125.33 112.384C124.914 111.472 124.706 110.4 124.706 109.168C124.706 107.92 124.914 106.848 125.33 105.952C125.762 105.04 126.362 104.344 127.13 103.864C127.914 103.368 128.826 103.12 129.866 103.12C130.778 103.12 131.578 103.32 132.266 103.72C132.97 104.12 133.49 104.672 133.826 105.376V98.08H135.77V115H133.874V112.864C133.538 113.6 133.018 114.176 132.314 114.592C131.61 115.008 130.794 115.216 129.866 115.216ZM130.274 113.656C131.362 113.656 132.234 113.272 132.89 112.504C133.546 111.72 133.874 110.608 133.874 109.168C133.874 107.712 133.546 106.6 132.89 105.832C132.234 105.064 131.362 104.68 130.274 104.68C129.17 104.68 128.29 105.064 127.634 105.832C126.994 106.6 126.674 107.712 126.674 109.168C126.674 110.608 126.994 111.72 127.634 112.504C128.29 113.272 129.17 113.656 130.274 113.656ZM145.322 115.216C144.394 115.216 143.578 115.008 142.874 114.592C142.186 114.176 141.666 113.608 141.314 112.888V115H139.418V98.08H141.362V105.352C141.698 104.664 142.218 104.12 142.922 103.72C143.626 103.32 144.426 103.12 145.322 103.12C146.362 103.12 147.266 103.368 148.034 103.864C148.818 104.344 149.418 105.04 149.834 105.952C150.266 106.848 150.482 107.92 150.482 109.168C150.482 110.4 150.266 111.472 149.834 112.384C149.418 113.28 148.818 113.976 148.034 114.472C147.266 114.968 146.362 115.216 145.322 115.216ZM144.914 113.656C146.002 113.656 146.874 113.272 147.53 112.504C148.186 111.72 148.514 110.608 148.514 109.168C148.514 107.712 148.186 106.6 147.53 105.832C146.874 105.064 146.002 104.68 144.914 104.68C143.826 104.68 142.954 105.064 142.298 105.832C141.642 106.6 141.314 107.712 141.314 109.168C141.314 110.608 141.642 111.72 142.298 112.504C142.954 113.272 143.826 113.656 144.914 113.656ZM154.59 119.32L156.582 114.808L151.662 103.336H153.774L157.638 112.792L161.526 103.336H163.566L156.63 119.32H154.59ZM170.666 115.216C168.826 115.216 167.37 114.68 166.298 113.608C165.226 112.52 164.69 111.048 164.69 109.192C164.69 107.992 164.93 106.936 165.41 106.024C165.89 105.096 166.546 104.384 167.378 103.888C168.226 103.376 169.202 103.12 170.306 103.12C171.89 103.12 173.13 103.632 174.026 104.656C174.922 105.664 175.37 107.056 175.37 108.832V109.576H166.586C166.65 110.904 167.034 111.92 167.738 112.624C168.442 113.312 169.418 113.656 170.666 113.656C171.37 113.656 172.042 113.552 172.682 113.344C173.322 113.12 173.93 112.76 174.506 112.264L175.178 113.632C174.65 114.128 173.978 114.52 173.162 114.808C172.346 115.08 171.514 115.216 170.666 115.216ZM170.354 104.56C169.25 104.56 168.378 104.904 167.738 105.592C167.098 106.28 166.722 107.184 166.61 108.304H173.69C173.642 107.12 173.33 106.2 172.754 105.544C172.194 104.888 171.394 104.56 170.354 104.56ZM189.027 115.216C187.651 115.216 186.619 114.856 185.931 114.136C185.243 113.4 184.899 112.344 184.899 110.968V104.848H182.619V103.336H184.899V99.76H186.843V103.336H190.539V104.848H186.843V110.776C186.843 111.688 187.035 112.384 187.419 112.864C187.803 113.328 188.427 113.56 189.291 113.56C189.547 113.56 189.803 113.528 190.059 113.464C190.315 113.4 190.547 113.336 190.755 113.272L191.091 114.76C190.883 114.872 190.579 114.976 190.179 115.072C189.779 115.168 189.395 115.216 189.027 115.216ZM197.469 115.216C196.333 115.216 195.349 114.968 194.517 114.472C193.685 113.976 193.037 113.28 192.573 112.384C192.125 111.472 191.901 110.4 191.901 109.168C191.901 107.936 192.125 106.872 192.573 105.976C193.037 105.064 193.685 104.36 194.517 103.864C195.349 103.368 196.333 103.12 197.469 103.12C198.589 103.12 199.565 103.368 200.397 103.864C201.245 104.36 201.893 105.064 202.341 105.976C202.805 106.872 203.037 107.936 203.037 109.168C203.037 110.4 202.805 111.472 202.341 112.384C201.893 113.28 201.245 113.976 200.397 114.472C199.565 114.968 198.589 115.216 197.469 115.216ZM197.469 113.656C198.557 113.656 199.429 113.272 200.085 112.504C200.741 111.72 201.069 110.608 201.069 109.168C201.069 107.712 200.741 106.6 200.085 105.832C199.429 105.064 198.557 104.68 197.469 104.68C196.365 104.68 195.485 105.064 194.829 105.832C194.189 106.6 193.869 107.712 193.869 109.168C193.869 110.608 194.189 111.72 194.829 112.504C195.485 113.272 196.365 113.656 197.469 113.656ZM216.249 115.216C213.449 115.216 212.049 113.672 212.049 110.584V103.336H213.993V110.56C213.993 111.6 214.201 112.368 214.617 112.864C215.049 113.36 215.721 113.608 216.633 113.608C217.625 113.608 218.433 113.28 219.057 112.624C219.681 111.952 219.993 111.064 219.993 109.96V103.336H221.937V115H220.041V113.032C219.673 113.736 219.153 114.28 218.481 114.664C217.825 115.032 217.081 115.216 216.249 115.216ZM225.574 115V103.336H227.47V105.328C227.854 104.592 228.398 104.04 229.102 103.672C229.806 103.304 230.598 103.12 231.478 103.12C234.246 103.12 235.63 104.656 235.63 107.728V115H233.686V107.848C233.686 106.76 233.47 105.968 233.038 105.472C232.622 104.96 231.95 104.704 231.022 104.704C229.95 104.704 229.094 105.04 228.454 105.712C227.83 106.368 227.518 107.248 227.518 108.352V115H225.574ZM242.193 115L237.849 103.336H239.889L243.177 112.72L246.585 103.336H248.241L251.601 112.744L254.937 103.336H256.881L252.513 115H250.665L247.377 105.952L244.065 115H242.193ZM262.715 115.216C261.915 115.216 261.195 115.064 260.555 114.76C259.931 114.44 259.435 114.008 259.067 113.464C258.699 112.92 258.515 112.312 258.515 111.64C258.515 110.792 258.731 110.12 259.163 109.624C259.611 109.128 260.339 108.776 261.347 108.568C262.371 108.344 263.763 108.232 265.523 108.232H266.291V107.488C266.291 106.496 266.083 105.784 265.667 105.352C265.267 104.904 264.619 104.68 263.723 104.68C263.019 104.68 262.339 104.784 261.683 104.992C261.027 105.184 260.355 105.504 259.667 105.952L258.995 104.536C259.603 104.104 260.339 103.76 261.203 103.504C262.083 103.248 262.923 103.12 263.723 103.12C265.227 103.12 266.339 103.488 267.059 104.224C267.795 104.96 268.163 106.104 268.163 107.656V115H266.339V112.984C266.035 113.672 265.563 114.216 264.923 114.616C264.299 115.016 263.563 115.216 262.715 115.216ZM263.027 113.752C263.987 113.752 264.771 113.424 265.379 112.768C265.987 112.096 266.291 111.248 266.291 110.224V109.504H265.547C264.251 109.504 263.227 109.568 262.475 109.696C261.739 109.808 261.219 110.016 260.915 110.32C260.627 110.608 260.483 111.008 260.483 111.52C260.483 112.176 260.707 112.712 261.155 113.128C261.619 113.544 262.243 113.752 263.027 113.752ZM271.769 115V103.336H273.665V105.328C274.049 104.592 274.593 104.04 275.297 103.672C276.001 103.304 276.793 103.12 277.673 103.12C280.441 103.12 281.825 104.656 281.825 107.728V115H279.881V107.848C279.881 106.76 279.665 105.968 279.233 105.472C278.817 104.96 278.145 104.704 277.217 104.704C276.145 104.704 275.289 105.04 274.649 105.712C274.025 106.368 273.713 107.248 273.713 108.352V115H271.769ZM290.09 115.216C288.714 115.216 287.682 114.856 286.994 114.136C286.306 113.4 285.962 112.344 285.962 110.968V104.848H283.682V103.336H285.962V99.76H287.906V103.336H291.602V104.848H287.906V110.776C287.906 111.688 288.098 112.384 288.482 112.864C288.866 113.328 289.49 113.56 290.354 113.56C290.61 113.56 290.866 113.528 291.122 113.464C291.378 113.4 291.61 113.336 291.818 113.272L292.154 114.76C291.946 114.872 291.642 114.976 291.242 115.072C290.842 115.168 290.458 115.216 290.09 115.216ZM298.939 115.216C297.099 115.216 295.643 114.68 294.571 113.608C293.499 112.52 292.963 111.048 292.963 109.192C292.963 107.992 293.203 106.936 293.683 106.024C294.163 105.096 294.819 104.384 295.651 103.888C296.499 103.376 297.475 103.12 298.579 103.12C300.163 103.12 301.403 103.632 302.299 104.656C303.195 105.664 303.643 107.056 303.643 108.832V109.576H294.859C294.923 110.904 295.307 111.92 296.011 112.624C296.715 113.312 297.691 113.656 298.939 113.656C299.643 113.656 300.315 113.552 300.955 113.344C301.595 113.12 302.203 112.76 302.779 112.264L303.451 113.632C302.923 114.128 302.251 114.52 301.435 114.808C300.619 115.08 299.787 115.216 298.939 115.216ZM298.627 104.56C297.523 104.56 296.651 104.904 296.011 105.592C295.371 106.28 294.995 107.184 294.883 108.304H301.963C301.915 107.12 301.603 106.2 301.027 105.544C300.467 104.888 299.667 104.56 298.627 104.56ZM310.897 115.216C309.857 115.216 308.945 114.968 308.161 114.472C307.393 113.976 306.793 113.28 306.361 112.384C305.945 111.472 305.737 110.4 305.737 109.168C305.737 107.92 305.945 106.848 306.361 105.952C306.793 105.04 307.393 104.344 308.161 103.864C308.945 103.368 309.857 103.12 310.897 103.12C311.809 103.12 312.609 103.32 313.297 103.72C314.001 104.12 314.521 104.672 314.857 105.376V98.08H316.801V115H314.905V112.864C314.569 113.6 314.049 114.176 313.345 114.592C312.641 115.008 311.825 115.216 310.897 115.216ZM311.305 113.656C312.393 113.656 313.265 113.272 313.921 112.504C314.577 111.72 314.905 110.608 314.905 109.168C314.905 107.712 314.577 106.6 313.921 105.832C313.265 105.064 312.393 104.68 311.305 104.68C310.201 104.68 309.321 105.064 308.665 105.832C308.025 106.6 307.705 107.712 307.705 109.168C307.705 110.608 308.025 111.72 308.665 112.504C309.321 113.272 310.201 113.656 311.305 113.656ZM38.824 143V126.08H40.768V133.256C41.152 132.552 41.688 132.024 42.376 131.672C43.08 131.304 43.864 131.12 44.728 131.12C47.496 131.12 48.88 132.656 48.88 135.728V143H46.936V135.848C46.936 134.76 46.72 133.968 46.288 133.472C45.872 132.96 45.2 132.704 44.272 132.704C43.2 132.704 42.344 133.04 41.704 133.712C41.08 134.368 40.768 135.248 40.768 136.352V143H38.824ZM56.1366 143.216C55.3366 143.216 54.6166 143.064 53.9766 142.76C53.3526 142.44 52.8566 142.008 52.4886 141.464C52.1206 140.92 51.9366 140.312 51.9366 139.64C51.9366 138.792 52.1526 138.12 52.5846 137.624C53.0326 137.128 53.7606 136.776 54.7686 136.568C55.7926 136.344 57.1846 136.232 58.9446 136.232H59.7126V135.488C59.7126 134.496 59.5046 133.784 59.0886 133.352C58.6886 132.904 58.0406 132.68 57.1446 132.68C56.4406 132.68 55.7606 132.784 55.1046 132.992C54.4486 133.184 53.7766 133.504 53.0886 133.952L52.4166 132.536C53.0246 132.104 53.7606 131.76 54.6246 131.504C55.5046 131.248 56.3446 131.12 57.1446 131.12C58.6486 131.12 59.7606 131.488 60.4806 132.224C61.2166 132.96 61.5846 134.104 61.5846 135.656V143H59.7606V140.984C59.4566 141.672 58.9846 142.216 58.3446 142.616C57.7206 143.016 56.9846 143.216 56.1366 143.216ZM56.4486 141.752C57.4086 141.752 58.1926 141.424 58.8006 140.768C59.4086 140.096 59.7126 139.248 59.7126 138.224V137.504H58.9686C57.6726 137.504 56.6486 137.568 55.8966 137.696C55.1606 137.808 54.6406 138.016 54.3366 138.32C54.0486 138.608 53.9046 139.008 53.9046 139.52C53.9046 140.176 54.1286 140.712 54.5766 141.128C55.0406 141.544 55.6646 141.752 56.4486 141.752ZM64.9512 128.432V126.248H67.3512V128.432H64.9512ZM65.1912 143V131.336H67.1352V143H65.1912ZM70.7693 143V131.336H72.6653V133.424C73.2893 132.016 74.5693 131.24 76.5053 131.096L77.2013 131.024L77.3453 132.704L76.1213 132.848C75.0173 132.944 74.1773 133.296 73.6013 133.904C73.0253 134.496 72.7373 135.312 72.7373 136.352V143H70.7693ZM89.2069 143.216C88.4069 143.216 87.6869 143.064 87.0469 142.76C86.4229 142.44 85.9269 142.008 85.5589 141.464C85.1909 140.92 85.0069 140.312 85.0069 139.64C85.0069 138.792 85.2229 138.12 85.6549 137.624C86.1029 137.128 86.8309 136.776 87.8389 136.568C88.8629 136.344 90.2549 136.232 92.0149 136.232H92.7829V135.488C92.7829 134.496 92.5749 133.784 92.1589 133.352C91.7589 132.904 91.1109 132.68 90.2149 132.68C89.5109 132.68 88.8309 132.784 88.1749 132.992C87.5189 133.184 86.8469 133.504 86.1589 133.952L85.4869 132.536C86.0949 132.104 86.8309 131.76 87.6949 131.504C88.5749 131.248 89.4149 131.12 90.2149 131.12C91.7189 131.12 92.8309 131.488 93.5509 132.224C94.2869 132.96 94.6549 134.104 94.6549 135.656V143H92.8309V140.984C92.5269 141.672 92.0549 142.216 91.4149 142.616C90.7909 143.016 90.0549 143.216 89.2069 143.216ZM89.5189 141.752C90.4789 141.752 91.2629 141.424 91.8709 140.768C92.4789 140.096 92.7829 139.248 92.7829 138.224V137.504H92.0389C90.7429 137.504 89.7189 137.568 88.9669 137.696C88.2309 137.808 87.7109 138.016 87.4069 138.32C87.1189 138.608 86.9749 139.008 86.9749 139.52C86.9749 140.176 87.1989 140.712 87.6469 141.128C88.1109 141.544 88.7349 141.752 89.5189 141.752ZM98.2615 143V131.336H100.158V133.328C100.542 132.592 101.086 132.04 101.79 131.672C102.494 131.304 103.286 131.12 104.166 131.12C106.934 131.12 108.318 132.656 108.318 135.728V143H106.374V135.848C106.374 134.76 106.158 133.968 105.726 133.472C105.31 132.96 104.638 132.704 103.71 132.704C102.638 132.704 101.782 133.04 101.142 133.712C100.518 134.368 100.206 135.248 100.206 136.352V143H98.2615ZM116.342 143.216C115.302 143.216 114.39 142.968 113.606 142.472C112.838 141.976 112.238 141.28 111.806 140.384C111.39 139.472 111.182 138.4 111.182 137.168C111.182 135.92 111.39 134.848 111.806 133.952C112.238 133.04 112.838 132.344 113.606 131.864C114.39 131.368 115.302 131.12 116.342 131.12C117.254 131.12 118.054 131.32 118.742 131.72C119.446 132.12 119.966 132.672 120.302 133.376V126.08H122.246V143H120.35V140.864C120.014 141.6 119.494 142.176 118.79 142.592C118.086 143.008 117.27 143.216 116.342 143.216ZM116.75 141.656C117.838 141.656 118.71 141.272 119.366 140.504C120.022 139.72 120.35 138.608 120.35 137.168C120.35 135.712 120.022 134.6 119.366 133.832C118.71 133.064 117.838 132.68 116.75 132.68C115.646 132.68 114.766 133.064 114.11 133.832C113.47 134.6 113.15 135.712 113.15 137.168C113.15 138.608 113.47 139.72 114.11 140.504C114.766 141.272 115.646 141.656 116.75 141.656ZM135.994 143.216C135.082 143.216 134.218 143.088 133.402 142.832C132.586 142.576 131.914 142.216 131.386 141.752L132.01 140.384C132.586 140.848 133.218 141.192 133.906 141.416C134.61 141.624 135.322 141.728 136.042 141.728C136.954 141.728 137.642 141.56 138.106 141.224C138.57 140.888 138.802 140.432 138.802 139.856C138.802 139.408 138.65 139.056 138.346 138.8C138.042 138.528 137.562 138.32 136.906 138.176L134.722 137.696C132.738 137.264 131.746 136.24 131.746 134.624C131.746 133.568 132.162 132.72 132.994 132.08C133.842 131.44 134.946 131.12 136.306 131.12C137.106 131.12 137.866 131.248 138.586 131.504C139.322 131.744 139.93 132.104 140.41 132.584L139.762 133.952C139.298 133.52 138.754 133.192 138.13 132.968C137.522 132.728 136.914 132.608 136.306 132.608C135.41 132.608 134.73 132.784 134.266 133.136C133.802 133.488 133.57 133.952 133.57 134.528C133.57 135.424 134.162 136 135.346 136.256L137.53 136.712C138.554 136.936 139.33 137.296 139.858 137.792C140.386 138.272 140.65 138.928 140.65 139.76C140.65 140.832 140.226 141.68 139.378 142.304C138.53 142.912 137.402 143.216 135.994 143.216ZM143.613 143V126.08H145.557V136.52H145.605L151.005 131.336H153.477L147.621 136.952L153.981 143H151.509L145.605 137.528H145.557V143H143.613ZM155.373 128.432V126.248H157.773V128.432H155.373ZM155.613 143V131.336H157.557V143H155.613ZM161.191 143V131.336H163.087V133.328C163.471 132.592 164.015 132.04 164.719 131.672C165.423 131.304 166.215 131.12 167.095 131.12C169.863 131.12 171.247 132.656 171.247 135.728V143H169.303V135.848C169.303 134.76 169.087 133.968 168.655 133.472C168.239 132.96 167.567 132.704 166.639 132.704C165.567 132.704 164.711 133.04 164.071 133.712C163.447 134.368 163.135 135.248 163.135 136.352V143H161.191ZM180.756 128.432V126.248H183.156V128.432H180.756ZM180.996 143V131.336H182.94V143H180.996ZM190.51 143.216C189.598 143.216 188.734 143.088 187.918 142.832C187.102 142.576 186.43 142.216 185.902 141.752L186.526 140.384C187.102 140.848 187.734 141.192 188.422 141.416C189.126 141.624 189.838 141.728 190.558 141.728C191.47 141.728 192.158 141.56 192.622 141.224C193.086 140.888 193.318 140.432 193.318 139.856C193.318 139.408 193.166 139.056 192.862 138.8C192.558 138.528 192.078 138.32 191.422 138.176L189.238 137.696C187.254 137.264 186.262 136.24 186.262 134.624C186.262 133.568 186.678 132.72 187.51 132.08C188.358 131.44 189.462 131.12 190.822 131.12C191.622 131.12 192.382 131.248 193.102 131.504C193.838 131.744 194.446 132.104 194.926 132.584L194.278 133.952C193.814 133.52 193.27 133.192 192.646 132.968C192.038 132.728 191.43 132.608 190.822 132.608C189.926 132.608 189.246 132.784 188.782 133.136C188.318 133.488 188.086 133.952 188.086 134.528C188.086 135.424 188.678 136 189.862 136.256L192.046 136.712C193.07 136.936 193.846 137.296 194.374 137.792C194.902 138.272 195.166 138.928 195.166 139.76C195.166 140.832 194.742 141.68 193.894 142.304C193.046 142.912 191.918 143.216 190.51 143.216ZM202.065 143.216C201.153 143.216 200.289 143.088 199.473 142.832C198.657 142.576 197.985 142.216 197.457 141.752L198.081 140.384C198.657 140.848 199.289 141.192 199.977 141.416C200.681 141.624 201.393 141.728 202.113 141.728C203.025 141.728 203.713 141.56 204.177 141.224C204.641 140.888 204.873 140.432 204.873 139.856C204.873 139.408 204.721 139.056 204.417 138.8C204.113 138.528 203.633 138.32 202.977 138.176L200.793 137.696C198.809 137.264 197.817 136.24 197.817 134.624C197.817 133.568 198.233 132.72 199.065 132.08C199.913 131.44 201.017 131.12 202.377 131.12C203.177 131.12 203.937 131.248 204.657 131.504C205.393 131.744 206.001 132.104 206.481 132.584L205.833 133.952C205.369 133.52 204.825 133.192 204.201 132.968C203.593 132.728 202.985 132.608 202.377 132.608C201.481 132.608 200.801 132.784 200.337 133.136C199.873 133.488 199.641 133.952 199.641 134.528C199.641 135.424 200.233 136 201.417 136.256L203.601 136.712C204.625 136.936 205.401 137.296 205.929 137.792C206.457 138.272 206.721 138.928 206.721 139.76C206.721 140.832 206.297 141.68 205.449 142.304C204.601 142.912 203.473 143.216 202.065 143.216ZM213.811 143.216C211.011 143.216 209.611 141.672 209.611 138.584V131.336H211.555V138.56C211.555 139.6 211.763 140.368 212.179 140.864C212.611 141.36 213.283 141.608 214.195 141.608C215.187 141.608 215.995 141.28 216.619 140.624C217.243 139.952 217.555 139.064 217.555 137.96V131.336H219.499V143H217.603V141.032C217.235 141.736 216.715 142.28 216.043 142.664C215.387 143.032 214.643 143.216 213.811 143.216ZM228.393 143.216C226.553 143.216 225.097 142.68 224.025 141.608C222.953 140.52 222.417 139.048 222.417 137.192C222.417 135.992 222.657 134.936 223.137 134.024C223.617 133.096 224.273 132.384 225.105 131.888C225.953 131.376 226.929 131.12 228.033 131.12C229.617 131.12 230.857 131.632 231.753 132.656C232.649 133.664 233.097 135.056 233.097 136.832V137.576H224.312C224.377 138.904 224.761 139.92 225.465 140.624C226.169 141.312 227.145 141.656 228.393 141.656C229.097 141.656 229.769 141.552 230.409 141.344C231.049 141.12 231.657 140.76 232.233 140.264L232.905 141.632C232.377 142.128 231.705 142.52 230.889 142.808C230.073 143.08 229.241 143.216 228.393 143.216ZM228.081 132.56C226.977 132.56 226.105 132.904 225.465 133.592C224.825 134.28 224.449 135.184 224.337 136.304H231.417C231.369 135.12 231.057 134.2 230.481 133.544C229.921 132.888 229.121 132.56 228.081 132.56ZM239.846 143.216C238.934 143.216 238.07 143.088 237.254 142.832C236.438 142.576 235.766 142.216 235.238 141.752L235.862 140.384C236.438 140.848 237.07 141.192 237.758 141.416C238.462 141.624 239.174 141.728 239.894 141.728C240.806 141.728 241.494 141.56 241.958 141.224C242.422 140.888 242.654 140.432 242.654 139.856C242.654 139.408 242.502 139.056 242.198 138.8C241.894 138.528 241.414 138.32 240.758 138.176L238.574 137.696C236.59 137.264 235.598 136.24 235.598 134.624C235.598 133.568 236.014 132.72 236.846 132.08C237.694 131.44 238.798 131.12 240.158 131.12C240.958 131.12 241.718 131.248 242.438 131.504C243.174 131.744 243.782 132.104 244.262 132.584L243.614 133.952C243.15 133.52 242.606 133.192 241.982 132.968C241.374 132.728 240.766 132.608 240.158 132.608C239.262 132.608 238.582 132.784 238.118 133.136C237.654 133.488 237.422 133.952 237.422 134.528C237.422 135.424 238.014 136 239.198 136.256L241.382 136.712C242.406 136.936 243.182 137.296 243.71 137.792C244.238 138.272 244.502 138.928 244.502 139.76C244.502 140.832 244.078 141.68 243.23 142.304C242.382 142.912 241.254 143.216 239.846 143.216ZM256.725 143L252.381 131.336H254.421L257.709 140.72L261.117 131.336H262.773L266.133 140.744L269.469 131.336H271.413L267.045 143H265.197L261.909 133.952L258.597 143H256.725ZM273.568 128.432V126.248H275.968V128.432H273.568ZM273.808 143V131.336H275.752V143H273.808ZM284.067 143.216C282.691 143.216 281.659 142.856 280.971 142.136C280.283 141.4 279.939 140.344 279.939 138.968V132.848H277.659V131.336H279.939V127.76H281.883V131.336H285.579V132.848H281.883V138.776C281.883 139.688 282.075 140.384 282.459 140.864C282.843 141.328 283.467 141.56 284.331 141.56C284.587 141.56 284.843 141.528 285.099 141.464C285.355 141.4 285.587 141.336 285.795 141.272L286.131 142.76C285.923 142.872 285.619 142.976 285.219 143.072C284.819 143.168 284.435 143.216 284.067 143.216ZM287.777 143V126.08H289.721V133.256C290.105 132.552 290.641 132.024 291.329 131.672C292.033 131.304 292.817 131.12 293.681 131.12C296.449 131.12 297.833 132.656 297.833 135.728V143H295.889V135.848C295.889 134.76 295.673 133.968 295.241 133.472C294.825 132.96 294.153 132.704 293.225 132.704C292.153 132.704 291.297 133.04 290.657 133.712C290.033 134.368 289.721 135.248 289.721 136.352V143H287.777ZM312.43 143.216C311.294 143.216 310.31 142.968 309.478 142.472C308.646 141.976 307.998 141.28 307.534 140.384C307.086 139.472 306.862 138.4 306.862 137.168C306.862 135.936 307.086 134.872 307.534 133.976C307.998 133.064 308.646 132.36 309.478 131.864C310.31 131.368 311.294 131.12 312.43 131.12C313.55 131.12 314.526 131.368 315.358 131.864C316.206 132.36 316.854 133.064 317.302 133.976C317.766 134.872 317.998 135.936 317.998 137.168C317.998 138.4 317.766 139.472 317.302 140.384C316.854 141.28 316.206 141.976 315.358 142.472C314.526 142.968 313.55 143.216 312.43 143.216ZM312.43 141.656C313.518 141.656 314.39 141.272 315.046 140.504C315.702 139.72 316.03 138.608 316.03 137.168C316.03 135.712 315.702 134.6 315.046 133.832C314.39 133.064 313.518 132.68 312.43 132.68C311.326 132.68 310.446 133.064 309.79 133.832C309.15 134.6 308.83 135.712 308.83 137.168C308.83 138.608 309.15 139.72 309.79 140.504C310.446 141.272 311.326 141.656 312.43 141.656ZM325.046 143.216C322.246 143.216 320.846 141.672 320.846 138.584V131.336H322.79V138.56C322.79 139.6 322.998 140.368 323.414 140.864C323.846 141.36 324.518 141.608 325.43 141.608C326.422 141.608 327.23 141.28 327.854 140.624C328.478 139.952 328.79 139.064 328.79 137.96V131.336H330.734V143H328.838V141.032C328.47 141.736 327.95 142.28 327.278 142.664C326.622 143.032 325.878 143.216 325.046 143.216ZM334.371 143V131.336H336.267V133.424C336.891 132.016 338.171 131.24 340.107 131.096L340.803 131.024L340.947 132.704L339.723 132.848C338.619 132.944 337.779 133.296 337.203 133.904C336.627 134.496 336.339 135.312 336.339 136.352V143H334.371ZM42.76 171.216C41.848 171.216 40.984 171.088 40.168 170.832C39.352 170.576 38.68 170.216 38.152 169.752L38.776 168.384C39.352 168.848 39.984 169.192 40.672 169.416C41.376 169.624 42.088 169.728 42.808 169.728C43.72 169.728 44.408 169.56 44.872 169.224C45.336 168.888 45.568 168.432 45.568 167.856C45.568 167.408 45.416 167.056 45.112 166.8C44.808 166.528 44.328 166.32 43.672 166.176L41.488 165.696C39.504 165.264 38.512 164.24 38.512 162.624C38.512 161.568 38.928 160.72 39.76 160.08C40.608 159.44 41.712 159.12 43.072 159.12C43.872 159.12 44.632 159.248 45.352 159.504C46.088 159.744 46.696 160.104 47.176 160.584L46.528 161.952C46.064 161.52 45.52 161.192 44.896 160.968C44.288 160.728 43.68 160.608 43.072 160.608C42.176 160.608 41.496 160.784 41.032 161.136C40.568 161.488 40.336 161.952 40.336 162.528C40.336 163.424 40.928 164 42.112 164.256L44.296 164.712C45.32 164.936 46.096 165.296 46.624 165.792C47.152 166.272 47.416 166.928 47.416 167.76C47.416 168.832 46.992 169.68 46.144 170.304C45.296 170.912 44.168 171.216 42.76 171.216ZM54.9415 171.216C53.5655 171.216 52.5335 170.856 51.8455 170.136C51.1575 169.4 50.8135 168.344 50.8135 166.968V160.848H48.5335V159.336H50.8135V155.76H52.7575V159.336H56.4535V160.848H52.7575V166.776C52.7575 167.688 52.9495 168.384 53.3335 168.864C53.7175 169.328 54.3415 169.56 55.2055 169.56C55.4615 169.56 55.7175 169.528 55.9735 169.464C56.2295 169.4 56.4615 169.336 56.6695 169.272L57.0055 170.76C56.7975 170.872 56.4935 170.976 56.0935 171.072C55.6935 171.168 55.3095 171.216 54.9415 171.216ZM62.3241 171.216C61.5241 171.216 60.8041 171.064 60.1641 170.76C59.5401 170.44 59.0441 170.008 58.6761 169.464C58.3081 168.92 58.1241 168.312 58.1241 167.64C58.1241 166.792 58.3401 166.12 58.7721 165.624C59.2201 165.128 59.9481 164.776 60.9561 164.568C61.9801 164.344 63.3721 164.232 65.1321 164.232H65.9001V163.488C65.9001 162.496 65.6921 161.784 65.2761 161.352C64.8761 160.904 64.2281 160.68 63.3321 160.68C62.6281 160.68 61.9481 160.784 61.2921 160.992C60.6361 161.184 59.9641 161.504 59.2761 161.952L58.6041 160.536C59.2121 160.104 59.9481 159.76 60.8121 159.504C61.6921 159.248 62.5321 159.12 63.3321 159.12C64.8361 159.12 65.9481 159.488 66.6681 160.224C67.4041 160.96 67.7721 162.104 67.7721 163.656V171H65.9481V168.984C65.6441 169.672 65.1721 170.216 64.5321 170.616C63.9081 171.016 63.1721 171.216 62.3241 171.216ZM62.6361 169.752C63.5961 169.752 64.3801 169.424 64.9881 168.768C65.5961 168.096 65.9001 167.248 65.9001 166.224V165.504H65.1561C63.8601 165.504 62.8361 165.568 62.0841 165.696C61.3481 165.808 60.8281 166.016 60.5241 166.32C60.2361 166.608 60.0921 167.008 60.0921 167.52C60.0921 168.176 60.3161 168.712 60.7641 169.128C61.2281 169.544 61.8521 169.752 62.6361 169.752ZM76.0587 171.216C74.6827 171.216 73.6507 170.856 72.9627 170.136C72.2747 169.4 71.9307 168.344 71.9307 166.968V160.848H69.6507V159.336H71.9307V155.76H73.8747V159.336H77.5707V160.848H73.8747V166.776C73.8747 167.688 74.0667 168.384 74.4507 168.864C74.8347 169.328 75.4587 169.56 76.3227 169.56C76.5787 169.56 76.8347 169.528 77.0907 169.464C77.3467 169.4 77.5787 169.336 77.7867 169.272L78.1227 170.76C77.9147 170.872 77.6107 170.976 77.2107 171.072C76.8107 171.168 76.4267 171.216 76.0587 171.216ZM84.9081 171.216C83.0681 171.216 81.6121 170.68 80.5401 169.608C79.4681 168.52 78.9321 167.048 78.9321 165.192C78.9321 163.992 79.1721 162.936 79.6521 162.024C80.1321 161.096 80.7881 160.384 81.6201 159.888C82.4681 159.376 83.4441 159.12 84.5481 159.12C86.1321 159.12 87.3721 159.632 88.2681 160.656C89.1641 161.664 89.6121 163.056 89.6121 164.832V165.576H80.8281C80.8921 166.904 81.2761 167.92 81.9801 168.624C82.6841 169.312 83.6601 169.656 84.9081 169.656C85.6121 169.656 86.2841 169.552 86.9241 169.344C87.5641 169.12 88.1721 168.76 88.7481 168.264L89.4201 169.632C88.8921 170.128 88.2201 170.52 87.4041 170.808C86.5881 171.08 85.7561 171.216 84.9081 171.216ZM84.5961 160.56C83.4921 160.56 82.6201 160.904 81.9801 161.592C81.3401 162.28 80.9641 163.184 80.8521 164.304H87.9321C87.8841 163.12 87.5721 162.2 86.9961 161.544C86.4361 160.888 85.6361 160.56 84.5961 160.56ZM92.5874 165.408V163.8H99.3074V165.408H92.5874ZM108.055 171.216C106.919 171.216 105.935 170.968 105.103 170.472C104.271 169.976 103.623 169.28 103.159 168.384C102.711 167.472 102.487 166.4 102.487 165.168C102.487 163.936 102.711 162.872 103.159 161.976C103.623 161.064 104.271 160.36 105.103 159.864C105.935 159.368 106.919 159.12 108.055 159.12C109.175 159.12 110.151 159.368 110.983 159.864C111.831 160.36 112.479 161.064 112.927 161.976C113.391 162.872 113.623 163.936 113.623 165.168C113.623 166.4 113.391 167.472 112.927 168.384C112.479 169.28 111.831 169.976 110.983 170.472C110.151 170.968 109.175 171.216 108.055 171.216ZM108.055 169.656C109.143 169.656 110.015 169.272 110.671 168.504C111.327 167.72 111.655 166.608 111.655 165.168C111.655 163.712 111.327 162.6 110.671 161.832C110.015 161.064 109.143 160.68 108.055 160.68C106.951 160.68 106.071 161.064 105.415 161.832C104.775 162.6 104.455 163.712 104.455 165.168C104.455 166.608 104.775 167.72 105.415 168.504C106.071 169.272 106.951 169.656 108.055 169.656ZM117.05 171V160.848H114.746V159.336H117.05V158.928C117.05 157.376 117.434 156.2 118.202 155.4C118.986 154.6 120.186 154.152 121.802 154.056L122.738 154.008L122.906 155.496L121.802 155.568C120.81 155.648 120.09 155.944 119.642 156.456C119.21 156.968 118.994 157.712 118.994 158.688V159.336H122.354V160.848H118.994V171H117.05ZM124.111 165.408V163.8H130.831V165.408H124.111ZM139.059 171.216C137.683 171.216 136.651 170.856 135.963 170.136C135.275 169.4 134.931 168.344 134.931 166.968V160.848H132.651V159.336H134.931V155.76H136.875V159.336H140.571V160.848H136.875V166.776C136.875 167.688 137.067 168.384 137.451 168.864C137.835 169.328 138.459 169.56 139.323 169.56C139.579 169.56 139.835 169.528 140.091 169.464C140.347 169.4 140.579 169.336 140.787 169.272L141.123 170.76C140.915 170.872 140.611 170.976 140.211 171.072C139.811 171.168 139.427 171.216 139.059 171.216ZM142.769 171V154.08H144.713V161.256C145.097 160.552 145.633 160.024 146.321 159.672C147.025 159.304 147.809 159.12 148.673 159.12C151.441 159.12 152.825 160.656 152.825 163.728V171H150.881V163.848C150.881 162.76 150.665 161.968 150.233 161.472C149.817 160.96 149.145 160.704 148.217 160.704C147.145 160.704 146.289 161.04 145.649 161.712C145.025 162.368 144.713 163.248 144.713 164.352V171H142.769ZM161.666 171.216C159.826 171.216 158.37 170.68 157.298 169.608C156.226 168.52 155.69 167.048 155.69 165.192C155.69 163.992 155.93 162.936 156.41 162.024C156.89 161.096 157.546 160.384 158.378 159.888C159.226 159.376 160.202 159.12 161.306 159.12C162.89 159.12 164.13 159.632 165.026 160.656C165.922 161.664 166.37 163.056 166.37 164.832V165.576H157.586C157.65 166.904 158.034 167.92 158.738 168.624C159.442 169.312 160.418 169.656 161.666 169.656C162.37 169.656 163.042 169.552 163.682 169.344C164.322 169.12 164.93 168.76 165.506 168.264L166.178 169.632C165.65 170.128 164.978 170.52 164.162 170.808C163.346 171.08 162.514 171.216 161.666 171.216ZM161.354 160.56C160.25 160.56 159.378 160.904 158.738 161.592C158.098 162.28 157.722 163.184 157.61 164.304H164.69C164.642 163.12 164.33 162.2 163.754 161.544C163.194 160.888 162.394 160.56 161.354 160.56ZM169.345 165.408V163.8H176.065V165.408H169.345ZM183.285 171.216C182.485 171.216 181.765 171.064 181.125 170.76C180.501 170.44 180.005 170.008 179.637 169.464C179.269 168.92 179.085 168.312 179.085 167.64C179.085 166.792 179.301 166.12 179.733 165.624C180.181 165.128 180.909 164.776 181.917 164.568C182.941 164.344 184.333 164.232 186.093 164.232H186.861V163.488C186.861 162.496 186.653 161.784 186.237 161.352C185.837 160.904 185.189 160.68 184.293 160.68C183.589 160.68 182.909 160.784 182.253 160.992C181.597 161.184 180.925 161.504 180.237 161.952L179.565 160.536C180.173 160.104 180.909 159.76 181.773 159.504C182.653 159.248 183.493 159.12 184.293 159.12C185.797 159.12 186.909 159.488 187.629 160.224C188.365 160.96 188.733 162.104 188.733 163.656V171H186.909V168.984C186.605 169.672 186.133 170.216 185.493 170.616C184.869 171.016 184.133 171.216 183.285 171.216ZM183.597 169.752C184.557 169.752 185.341 169.424 185.949 168.768C186.557 168.096 186.861 167.248 186.861 166.224V165.504H186.117C184.821 165.504 183.797 165.568 183.045 165.696C182.309 165.808 181.789 166.016 181.485 166.32C181.197 166.608 181.053 167.008 181.053 167.52C181.053 168.176 181.277 168.712 181.725 169.128C182.189 169.544 182.813 169.752 183.597 169.752ZM192.34 171V159.336H194.236V161.424C194.86 160.016 196.14 159.24 198.076 159.096L198.772 159.024L198.916 160.704L197.692 160.848C196.588 160.944 195.748 161.296 195.172 161.904C194.596 162.496 194.308 163.312 194.308 164.352V171H192.34ZM206.254 171.216C204.878 171.216 203.846 170.856 203.158 170.136C202.47 169.4 202.126 168.344 202.126 166.968V160.848H199.846V159.336H202.126V155.76H204.07V159.336H207.766V160.848H204.07V166.776C204.07 167.688 204.262 168.384 204.646 168.864C205.03 169.328 205.654 169.56 206.518 169.56C206.774 169.56 207.03 169.528 207.286 169.464C207.542 169.4 207.774 169.336 207.982 169.272L208.318 170.76C208.11 170.872 207.806 170.976 207.406 171.072C207.006 171.168 206.622 171.216 206.254 171.216ZM219.705 171.216C218.521 171.216 217.625 170.872 217.017 170.184C216.425 169.48 216.129 168.464 216.129 167.136V154.08H218.073V166.992C218.073 168.704 218.753 169.56 220.113 169.56C220.513 169.56 220.873 169.512 221.193 169.416L221.145 171.048C220.649 171.16 220.169 171.216 219.705 171.216ZM226.902 171.216C226.102 171.216 225.382 171.064 224.742 170.76C224.118 170.44 223.622 170.008 223.254 169.464C222.886 168.92 222.702 168.312 222.702 167.64C222.702 166.792 222.918 166.12 223.35 165.624C223.798 165.128 224.526 164.776 225.534 164.568C226.558 164.344 227.95 164.232 229.71 164.232H230.478V163.488C230.478 162.496 230.27 161.784 229.854 161.352C229.454 160.904 228.806 160.68 227.91 160.68C227.206 160.68 226.526 160.784 225.87 160.992C225.214 161.184 224.542 161.504 223.854 161.952L223.182 160.536C223.79 160.104 224.526 159.76 225.39 159.504C226.27 159.248 227.11 159.12 227.91 159.12C229.414 159.12 230.526 159.488 231.246 160.224C231.982 160.96 232.35 162.104 232.35 163.656V171H230.526V168.984C230.222 169.672 229.75 170.216 229.11 170.616C228.486 171.016 227.75 171.216 226.902 171.216ZM227.214 169.752C228.174 169.752 228.958 169.424 229.566 168.768C230.174 168.096 230.478 167.248 230.478 166.224V165.504H229.734C228.438 165.504 227.414 165.568 226.662 165.696C225.926 165.808 225.406 166.016 225.102 166.32C224.814 166.608 224.67 167.008 224.67 167.52C224.67 168.176 224.894 168.712 225.342 169.128C225.806 169.544 226.43 169.752 227.214 169.752ZM239.893 171.216C238.981 171.216 238.117 171.088 237.301 170.832C236.485 170.576 235.813 170.216 235.285 169.752L235.909 168.384C236.485 168.848 237.117 169.192 237.805 169.416C238.509 169.624 239.221 169.728 239.941 169.728C240.853 169.728 241.541 169.56 242.005 169.224C242.469 168.888 242.701 168.432 242.701 167.856C242.701 167.408 242.549 167.056 242.245 166.8C241.941 166.528 241.461 166.32 240.805 166.176L238.621 165.696C236.637 165.264 235.645 164.24 235.645 162.624C235.645 161.568 236.061 160.72 236.893 160.08C237.741 159.44 238.845 159.12 240.205 159.12C241.005 159.12 241.765 159.248 242.485 159.504C243.221 159.744 243.829 160.104 244.309 160.584L243.661 161.952C243.197 161.52 242.653 161.192 242.029 160.968C241.421 160.728 240.813 160.608 240.205 160.608C239.309 160.608 238.629 160.784 238.165 161.136C237.701 161.488 237.469 161.952 237.469 162.528C237.469 163.424 238.061 164 239.245 164.256L241.429 164.712C242.453 164.936 243.229 165.296 243.757 165.792C244.285 166.272 244.549 166.928 244.549 167.76C244.549 168.832 244.125 169.68 243.277 170.304C242.429 170.912 241.301 171.216 239.893 171.216ZM252.768 171.216C250.928 171.216 249.472 170.68 248.4 169.608C247.328 168.52 246.792 167.048 246.792 165.192C246.792 163.992 247.032 162.936 247.512 162.024C247.992 161.096 248.648 160.384 249.48 159.888C250.328 159.376 251.304 159.12 252.408 159.12C253.992 159.12 255.232 159.632 256.128 160.656C257.024 161.664 257.472 163.056 257.472 164.832V165.576H248.688C248.752 166.904 249.136 167.92 249.84 168.624C250.544 169.312 251.52 169.656 252.768 169.656C253.472 169.656 254.144 169.552 254.784 169.344C255.424 169.12 256.032 168.76 256.608 168.264L257.28 169.632C256.752 170.128 256.08 170.52 255.264 170.808C254.448 171.08 253.616 171.216 252.768 171.216ZM252.456 160.56C251.352 160.56 250.48 160.904 249.84 161.592C249.2 162.28 248.824 163.184 248.712 164.304H255.792C255.744 163.12 255.432 162.2 254.856 161.544C254.296 160.888 253.496 160.56 252.456 160.56ZM260.285 171V159.336H262.181V161.424C262.805 160.016 264.085 159.24 266.021 159.096L266.717 159.024L266.861 160.704L265.637 160.848C264.533 160.944 263.693 161.296 263.117 161.904C262.541 162.496 262.253 163.312 262.253 164.352V171H260.285ZM43.504 199.216C42.128 199.216 41.096 198.856 40.408 198.136C39.72 197.4 39.376 196.344 39.376 194.968V188.848H37.096V187.336H39.376V183.76H41.32V187.336H45.016V188.848H41.32V194.776C41.32 195.688 41.512 196.384 41.896 196.864C42.28 197.328 42.904 197.56 43.768 197.56C44.024 197.56 44.28 197.528 44.536 197.464C44.792 197.4 45.024 197.336 45.232 197.272L45.568 198.76C45.36 198.872 45.056 198.976 44.656 199.072C44.256 199.168 43.872 199.216 43.504 199.216ZM52.3534 199.216C50.5134 199.216 49.0574 198.68 47.9854 197.608C46.9134 196.52 46.3774 195.048 46.3774 193.192C46.3774 191.992 46.6174 190.936 47.0974 190.024C47.5774 189.096 48.2334 188.384 49.0654 187.888C49.9134 187.376 50.8894 187.12 51.9934 187.12C53.5774 187.12 54.8174 187.632 55.7134 188.656C56.6094 189.664 57.0574 191.056 57.0574 192.832V193.576H48.2734C48.3374 194.904 48.7214 195.92 49.4254 196.624C50.1294 197.312 51.1054 197.656 52.3534 197.656C53.0574 197.656 53.7294 197.552 54.3694 197.344C55.0094 197.12 55.6174 196.76 56.1934 196.264L56.8654 197.632C56.3374 198.128 55.6654 198.52 54.8494 198.808C54.0334 199.08 53.2014 199.216 52.3534 199.216ZM52.0414 188.56C50.9374 188.56 50.0654 188.904 49.4254 189.592C48.7854 190.28 48.4094 191.184 48.2974 192.304H55.3774C55.3294 191.12 55.0174 190.2 54.4414 189.544C53.8814 188.888 53.0814 188.56 52.0414 188.56ZM64.8149 199.216C63.6469 199.216 62.6389 198.968 61.7909 198.472C60.9429 197.96 60.2869 197.248 59.8229 196.336C59.3749 195.408 59.1509 194.328 59.1509 193.096C59.1509 191.24 59.6549 189.784 60.6629 188.728C61.6709 187.656 63.0549 187.12 64.8149 187.12C65.5349 187.12 66.2469 187.248 66.9509 187.504C67.6549 187.76 68.2389 188.12 68.7029 188.584L68.0309 190C67.5669 189.552 67.0549 189.224 66.4949 189.016C65.9509 188.808 65.4309 188.704 64.9349 188.704C63.7189 188.704 62.7829 189.088 62.1269 189.856C61.4709 190.608 61.1429 191.696 61.1429 193.12C61.1429 194.512 61.4709 195.616 62.1269 196.432C62.7829 197.232 63.7189 197.632 64.9349 197.632C65.4309 197.632 65.9509 197.528 66.4949 197.32C67.0549 197.112 67.5669 196.776 68.0309 196.312L68.7029 197.728C68.2389 198.192 67.6469 198.56 66.9269 198.832C66.2229 199.088 65.5189 199.216 64.8149 199.216ZM70.9803 199V182.08H72.9243V189.256C73.3083 188.552 73.8443 188.024 74.5323 187.672C75.2363 187.304 76.0203 187.12 76.8843 187.12C79.6523 187.12 81.0363 188.656 81.0363 191.728V199H79.0923V191.848C79.0923 190.76 78.8763 189.968 78.4443 189.472C78.0283 188.96 77.3563 188.704 76.4283 188.704C75.3563 188.704 74.5003 189.04 73.8603 189.712C73.2363 190.368 72.9243 191.248 72.9243 192.352V199H70.9803ZM84.6209 199V187.336H86.5169V189.328C86.9009 188.592 87.4449 188.04 88.1489 187.672C88.8529 187.304 89.6449 187.12 90.5249 187.12C93.2929 187.12 94.6769 188.656 94.6769 191.728V199H92.7329V191.848C92.7329 190.76 92.5169 189.968 92.0849 189.472C91.6689 188.96 90.9969 188.704 90.0689 188.704C88.9969 188.704 88.1409 189.04 87.5009 189.712C86.8769 190.368 86.5649 191.248 86.5649 192.352V199H84.6209ZM103.11 199.216C101.974 199.216 100.99 198.968 100.158 198.472C99.3255 197.976 98.6775 197.28 98.2135 196.384C97.7655 195.472 97.5415 194.4 97.5415 193.168C97.5415 191.936 97.7655 190.872 98.2135 189.976C98.6775 189.064 99.3255 188.36 100.158 187.864C100.99 187.368 101.974 187.12 103.11 187.12C104.23 187.12 105.206 187.368 106.038 187.864C106.886 188.36 107.534 189.064 107.982 189.976C108.446 190.872 108.678 191.936 108.678 193.168C108.678 194.4 108.446 195.472 107.982 196.384C107.534 197.28 106.886 197.976 106.038 198.472C105.206 198.968 104.23 199.216 103.11 199.216ZM103.11 197.656C104.198 197.656 105.07 197.272 105.726 196.504C106.382 195.72 106.71 194.608 106.71 193.168C106.71 191.712 106.382 190.6 105.726 189.832C105.07 189.064 104.198 188.68 103.11 188.68C102.006 188.68 101.126 189.064 100.47 189.832C99.8295 190.6 99.5095 191.712 99.5095 193.168C99.5095 194.608 99.8295 195.72 100.47 196.504C101.126 197.272 102.006 197.656 103.11 197.656ZM115.173 199.216C113.989 199.216 113.093 198.872 112.485 198.184C111.893 197.48 111.597 196.464 111.597 195.136V182.08H113.541V194.992C113.541 196.704 114.221 197.56 115.581 197.56C115.981 197.56 116.341 197.512 116.661 197.416L116.613 199.048C116.117 199.16 115.637 199.216 115.173 199.216ZM123.43 199.216C122.294 199.216 121.31 198.968 120.478 198.472C119.646 197.976 118.998 197.28 118.534 196.384C118.086 195.472 117.862 194.4 117.862 193.168C117.862 191.936 118.086 190.872 118.534 189.976C118.998 189.064 119.646 188.36 120.478 187.864C121.31 187.368 122.294 187.12 123.43 187.12C124.55 187.12 125.526 187.368 126.358 187.864C127.206 188.36 127.854 189.064 128.302 189.976C128.766 190.872 128.998 191.936 128.998 193.168C128.998 194.4 128.766 195.472 128.302 196.384C127.854 197.28 127.206 197.976 126.358 198.472C125.526 198.968 124.55 199.216 123.43 199.216ZM123.43 197.656C124.518 197.656 125.39 197.272 126.046 196.504C126.702 195.72 127.03 194.608 127.03 193.168C127.03 191.712 126.702 190.6 126.046 189.832C125.39 189.064 124.518 188.68 123.43 188.68C122.326 188.68 121.446 189.064 120.79 189.832C120.15 190.6 119.83 191.712 119.83 193.168C119.83 194.608 120.15 195.72 120.79 196.504C121.446 197.272 122.326 197.656 123.43 197.656ZM137.078 203.536C136.07 203.536 135.118 203.4 134.222 203.128C133.342 202.872 132.558 202.48 131.87 201.952L132.518 200.536C133.238 201.048 133.95 201.416 134.654 201.64C135.374 201.864 136.15 201.976 136.982 201.976C139.286 201.976 140.438 200.792 140.438 198.424V196.36C140.102 197.096 139.574 197.68 138.854 198.112C138.15 198.528 137.342 198.736 136.43 198.736C135.358 198.736 134.43 198.488 133.646 197.992C132.862 197.496 132.254 196.816 131.822 195.952C131.406 195.072 131.198 194.056 131.198 192.904C131.198 191.752 131.406 190.744 131.822 189.88C132.254 189 132.862 188.32 133.646 187.84C134.43 187.36 135.358 187.12 136.43 187.12C137.342 187.12 138.15 187.328 138.854 187.744C139.574 188.16 140.102 188.728 140.438 189.448V187.336H142.334V198.16C142.334 199.952 141.886 201.296 140.99 202.192C140.11 203.088 138.806 203.536 137.078 203.536ZM136.79 197.152C137.91 197.152 138.798 196.768 139.454 196C140.11 195.232 140.438 194.2 140.438 192.904C140.438 191.608 140.11 190.584 139.454 189.832C138.798 189.064 137.91 188.68 136.79 188.68C135.686 188.68 134.806 189.064 134.15 189.832C133.494 190.584 133.166 191.608 133.166 192.904C133.166 194.2 133.494 195.232 134.15 196C134.806 196.768 135.686 197.152 136.79 197.152ZM147.324 203.32L149.316 198.808L144.396 187.336H146.508L150.372 196.792L154.26 187.336H156.3L149.364 203.32H147.324ZM156.825 199V196.552H159.273V199H156.825Z" fill="white"/>
</g>
<defs>
<clipPath id="clip0_808_4043">
<rect width="389" height="297" rx="30" fill="white"/>
</clipPath>
</defs>
</svg>
