<svg width="389" height="297" viewBox="0 0 389 297" fill="none" xmlns="http://www.w3.org/2000/svg">
<g clip-path="url(#clip0_808_4048)">
<rect width="389" height="297" rx="30" fill="#9C003C"/>
<rect width="389" height="297" rx="24" fill="#9C003C" fill-opacity="0.58"/>
<rect width="58.5491" height="58.5734" rx="29.2746" transform="matrix(-0.593079 -0.805144 0.80593 -0.59201 341.725 81.8165)" fill="#9C003C"/>
<path d="M345.7 33.2952L357.449 34.1567C357.57 34.1655 357.685 34.1976 357.786 34.251C357.888 34.3045 357.974 34.3783 358.041 34.4682C358.107 34.5581 358.152 34.6624 358.172 34.7751C358.193 34.8878 358.19 35.0067 358.162 35.125L355.487 46.5816C355.431 46.8204 355.281 47.0424 355.068 47.1986C354.855 47.3548 354.598 47.4324 354.353 47.4145C354.108 47.3965 353.896 47.2844 353.762 47.1028C353.628 46.9212 353.584 46.685 353.64 46.4461L355.809 37.1624L340.114 48.6912C339.901 48.8473 339.644 48.9249 339.4 48.907C339.155 48.889 338.942 48.777 338.808 48.5955C338.675 48.414 338.631 48.1779 338.687 47.9392C338.742 47.7005 338.893 47.4786 339.106 47.3225L354.8 35.7937L345.28 35.0964C345.035 35.0785 344.822 34.9664 344.688 34.7848C344.554 34.6032 344.511 34.367 344.566 34.1281C344.622 33.8893 344.773 33.6673 344.986 33.5111C345.198 33.3549 345.455 33.2773 345.7 33.2952Z" fill="white"/>
<path d="M39.088 115V98.08H49.768V99.736H41.008V105.592H49.264V107.248H41.008V113.344H49.768V115H39.088ZM51.3282 115L56.1762 108.976L51.6162 103.336H53.9202L57.3042 107.632L60.7122 103.336H62.9922L58.4322 108.976L63.2802 115H60.9762L57.2802 110.368L53.6322 115H51.3282ZM65.4256 119.32V103.336H67.3216V105.424C67.6736 104.704 68.1936 104.144 68.8816 103.744C69.5856 103.328 70.4016 103.12 71.3296 103.12C72.3696 103.12 73.2736 103.368 74.0416 103.864C74.8256 104.344 75.4256 105.04 75.8416 105.952C76.2736 106.848 76.4896 107.92 76.4896 109.168C76.4896 110.4 76.2736 111.472 75.8416 112.384C75.4256 113.28 74.8256 113.976 74.0416 114.472C73.2736 114.968 72.3696 115.216 71.3296 115.216C70.4336 115.216 69.6336 115.016 68.9296 114.616C68.2256 114.216 67.7056 113.664 67.3696 112.96V119.32H65.4256ZM70.9216 113.656C72.0096 113.656 72.8816 113.272 73.5376 112.504C74.1936 111.72 74.5216 110.608 74.5216 109.168C74.5216 107.712 74.1936 106.6 73.5376 105.832C72.8816 105.064 72.0096 104.68 70.9216 104.68C69.8336 104.68 68.9616 105.064 68.3056 105.832C67.6496 106.6 67.3216 107.712 67.3216 109.168C67.3216 110.608 67.6496 111.72 68.3056 112.504C68.9616 113.272 69.8336 113.656 70.9216 113.656ZM84.6738 115.216C82.8338 115.216 81.3778 114.68 80.3058 113.608C79.2338 112.52 78.6978 111.048 78.6978 109.192C78.6978 107.992 78.9378 106.936 79.4178 106.024C79.8978 105.096 80.5538 104.384 81.3858 103.888C82.2338 103.376 83.2098 103.12 84.3138 103.12C85.8978 103.12 87.1378 103.632 88.0338 104.656C88.9298 105.664 89.3778 107.056 89.3778 108.832V109.576H80.5938C80.6578 110.904 81.0418 111.92 81.7458 112.624C82.4498 113.312 83.4258 113.656 84.6738 113.656C85.3778 113.656 86.0498 113.552 86.6898 113.344C87.3298 113.12 87.9378 112.76 88.5138 112.264L89.1858 113.632C88.6578 114.128 87.9858 114.52 87.1698 114.808C86.3538 115.08 85.5218 115.216 84.6738 115.216ZM84.3618 104.56C83.2578 104.56 82.3858 104.904 81.7458 105.592C81.1058 106.28 80.7298 107.184 80.6178 108.304H87.6978C87.6498 107.12 87.3378 106.2 86.7618 105.544C86.2018 104.888 85.4018 104.56 84.3618 104.56ZM92.1912 115V103.336H94.0872V105.424C94.7112 104.016 95.9912 103.24 97.9272 103.096L98.6232 103.024L98.7672 104.704L97.5432 104.848C96.4392 104.944 95.5992 105.296 95.0232 105.904C94.4472 106.496 94.1592 107.312 94.1592 108.352V115H92.1912ZM100.553 100.432V98.248H102.953V100.432H100.553ZM100.793 115V103.336H102.737V115H100.793ZM111.627 115.216C109.787 115.216 108.331 114.68 107.259 113.608C106.187 112.52 105.651 111.048 105.651 109.192C105.651 107.992 105.891 106.936 106.371 106.024C106.851 105.096 107.507 104.384 108.339 103.888C109.187 103.376 110.163 103.12 111.267 103.12C112.851 103.12 114.091 103.632 114.987 104.656C115.883 105.664 116.331 107.056 116.331 108.832V109.576H107.547C107.611 110.904 107.995 111.92 108.699 112.624C109.403 113.312 110.379 113.656 111.627 113.656C112.331 113.656 113.003 113.552 113.643 113.344C114.283 113.12 114.891 112.76 115.467 112.264L116.139 113.632C115.611 114.128 114.939 114.52 114.123 114.808C113.307 115.08 112.475 115.216 111.627 115.216ZM111.315 104.56C110.211 104.56 109.339 104.904 108.699 105.592C108.059 106.28 107.683 107.184 107.571 108.304H114.651C114.603 107.12 114.291 106.2 113.715 105.544C113.155 104.888 112.355 104.56 111.315 104.56ZM119.144 115V103.336H121.04V105.328C121.424 104.592 121.968 104.04 122.672 103.672C123.376 103.304 124.168 103.12 125.048 103.12C127.816 103.12 129.2 104.656 129.2 107.728V115H127.256V107.848C127.256 106.76 127.04 105.968 126.608 105.472C126.192 104.96 125.52 104.704 124.592 104.704C123.52 104.704 122.664 105.04 122.024 105.712C121.4 106.368 121.088 107.248 121.088 108.352V115H119.144ZM137.729 115.216C136.561 115.216 135.553 114.968 134.705 114.472C133.857 113.96 133.201 113.248 132.737 112.336C132.289 111.408 132.065 110.328 132.065 109.096C132.065 107.24 132.569 105.784 133.577 104.728C134.585 103.656 135.969 103.12 137.729 103.12C138.449 103.12 139.161 103.248 139.865 103.504C140.569 103.76 141.153 104.12 141.617 104.584L140.945 106C140.481 105.552 139.969 105.224 139.409 105.016C138.865 104.808 138.345 104.704 137.849 104.704C136.633 104.704 135.697 105.088 135.041 105.856C134.385 106.608 134.057 107.696 134.057 109.12C134.057 110.512 134.385 111.616 135.041 112.432C135.697 113.232 136.633 113.632 137.849 113.632C138.345 113.632 138.865 113.528 139.409 113.32C139.969 113.112 140.481 112.776 140.945 112.312L141.617 113.728C141.153 114.192 140.561 114.56 139.841 114.832C139.137 115.088 138.433 115.216 137.729 115.216ZM148.916 115.216C147.076 115.216 145.62 114.68 144.548 113.608C143.476 112.52 142.94 111.048 142.94 109.192C142.94 107.992 143.18 106.936 143.66 106.024C144.14 105.096 144.796 104.384 145.628 103.888C146.476 103.376 147.452 103.12 148.556 103.12C150.14 103.12 151.38 103.632 152.276 104.656C153.172 105.664 153.62 107.056 153.62 108.832V109.576H144.836C144.9 110.904 145.284 111.92 145.988 112.624C146.692 113.312 147.668 113.656 148.916 113.656C149.62 113.656 150.292 113.552 150.932 113.344C151.572 113.12 152.18 112.76 152.756 112.264L153.428 113.632C152.9 114.128 152.228 114.52 151.412 114.808C150.596 115.08 149.764 115.216 148.916 115.216ZM148.604 104.56C147.5 104.56 146.628 104.904 145.988 105.592C145.348 106.28 144.972 107.184 144.86 108.304H151.94C151.892 107.12 151.58 106.2 151.004 105.544C150.444 104.888 149.644 104.56 148.604 104.56ZM167.277 115.216C165.901 115.216 164.869 114.856 164.181 114.136C163.493 113.4 163.149 112.344 163.149 110.968V104.848H160.869V103.336H163.149V99.76H165.093V103.336H168.789V104.848H165.093V110.776C165.093 111.688 165.285 112.384 165.669 112.864C166.053 113.328 166.677 113.56 167.541 113.56C167.797 113.56 168.053 113.528 168.309 113.464C168.565 113.4 168.797 113.336 169.005 113.272L169.341 114.76C169.133 114.872 168.829 114.976 168.429 115.072C168.029 115.168 167.645 115.216 167.277 115.216ZM170.988 115V98.08H172.932V105.256C173.316 104.552 173.852 104.024 174.54 103.672C175.244 103.304 176.028 103.12 176.892 103.12C179.66 103.12 181.044 104.656 181.044 107.728V115H179.1V107.848C179.1 106.76 178.884 105.968 178.452 105.472C178.036 104.96 177.364 104.704 176.436 104.704C175.364 104.704 174.508 105.04 173.868 105.712C173.244 106.368 172.932 107.248 172.932 108.352V115H170.988ZM189.885 115.216C188.045 115.216 186.589 114.68 185.517 113.608C184.445 112.52 183.909 111.048 183.909 109.192C183.909 107.992 184.149 106.936 184.629 106.024C185.109 105.096 185.765 104.384 186.597 103.888C187.445 103.376 188.421 103.12 189.525 103.12C191.109 103.12 192.349 103.632 193.245 104.656C194.141 105.664 194.589 107.056 194.589 108.832V109.576H185.805C185.869 110.904 186.253 111.92 186.957 112.624C187.661 113.312 188.637 113.656 189.885 113.656C190.589 113.656 191.261 113.552 191.901 113.344C192.541 113.12 193.149 112.76 193.725 112.264L194.397 113.632C193.869 114.128 193.197 114.52 192.381 114.808C191.565 115.08 190.733 115.216 189.885 115.216ZM189.573 104.56C188.469 104.56 187.597 104.904 186.957 105.592C186.317 106.28 185.941 107.184 185.829 108.304H192.909C192.861 107.12 192.549 106.2 191.973 105.544C191.413 104.888 190.613 104.56 189.573 104.56ZM43.504 143.216C42.128 143.216 41.096 142.856 40.408 142.136C39.72 141.4 39.376 140.344 39.376 138.968V132.848H37.096V131.336H39.376V127.76H41.32V131.336H45.016V132.848H41.32V138.776C41.32 139.688 41.512 140.384 41.896 140.864C42.28 141.328 42.904 141.56 43.768 141.56C44.024 141.56 44.28 141.528 44.536 141.464C44.792 141.4 45.024 141.336 45.232 141.272L45.568 142.76C45.36 142.872 45.056 142.976 44.656 143.072C44.256 143.168 43.872 143.216 43.504 143.216ZM47.2146 143V131.336H49.1106V133.424C49.7346 132.016 51.0146 131.24 52.9506 131.096L53.6466 131.024L53.7906 132.704L52.5666 132.848C51.4626 132.944 50.6226 133.296 50.0466 133.904C49.4706 134.496 49.1826 135.312 49.1826 136.352V143H47.2146ZM59.371 143.216C58.571 143.216 57.851 143.064 57.211 142.76C56.587 142.44 56.091 142.008 55.723 141.464C55.355 140.92 55.171 140.312 55.171 139.64C55.171 138.792 55.387 138.12 55.819 137.624C56.267 137.128 56.995 136.776 58.003 136.568C59.027 136.344 60.419 136.232 62.179 136.232H62.947V135.488C62.947 134.496 62.739 133.784 62.323 133.352C61.923 132.904 61.275 132.68 60.379 132.68C59.675 132.68 58.995 132.784 58.339 132.992C57.683 133.184 57.011 133.504 56.323 133.952L55.651 132.536C56.259 132.104 56.995 131.76 57.859 131.504C58.739 131.248 59.579 131.12 60.379 131.12C61.883 131.12 62.995 131.488 63.715 132.224C64.451 132.96 64.819 134.104 64.819 135.656V143H62.995V140.984C62.691 141.672 62.219 142.216 61.579 142.616C60.955 143.016 60.219 143.216 59.371 143.216ZM59.683 141.752C60.643 141.752 61.427 141.424 62.035 140.768C62.643 140.096 62.947 139.248 62.947 138.224V137.504H62.203C60.907 137.504 59.883 137.568 59.131 137.696C58.395 137.808 57.875 138.016 57.571 138.32C57.283 138.608 57.139 139.008 57.139 139.52C57.139 140.176 57.363 140.712 57.811 141.128C58.275 141.544 58.899 141.752 59.683 141.752ZM68.4256 143V131.336H70.3216V133.328C70.7056 132.592 71.2496 132.04 71.9536 131.672C72.6576 131.304 73.4496 131.12 74.3296 131.12C77.0976 131.12 78.4816 132.656 78.4816 135.728V143H76.5376V135.848C76.5376 134.76 76.3216 133.968 75.8896 133.472C75.4736 132.96 74.8016 132.704 73.8736 132.704C72.8016 132.704 71.9456 133.04 71.3056 133.712C70.6816 134.368 70.3696 135.248 70.3696 136.352V143H68.4256ZM86.0022 143.216C85.0902 143.216 84.2262 143.088 83.4102 142.832C82.5942 142.576 81.9222 142.216 81.3942 141.752L82.0182 140.384C82.5942 140.848 83.2262 141.192 83.9142 141.416C84.6182 141.624 85.3302 141.728 86.0502 141.728C86.9622 141.728 87.6502 141.56 88.1142 141.224C88.5782 140.888 88.8102 140.432 88.8102 139.856C88.8102 139.408 88.6582 139.056 88.3542 138.8C88.0502 138.528 87.5702 138.32 86.9142 138.176L84.7302 137.696C82.7462 137.264 81.7542 136.24 81.7542 134.624C81.7542 133.568 82.1702 132.72 83.0022 132.08C83.8502 131.44 84.9542 131.12 86.3142 131.12C87.1142 131.12 87.8742 131.248 88.5942 131.504C89.3302 131.744 89.9382 132.104 90.4182 132.584L89.7702 133.952C89.3062 133.52 88.7622 133.192 88.1382 132.968C87.5302 132.728 86.9222 132.608 86.3142 132.608C85.4182 132.608 84.7382 132.784 84.2742 133.136C83.8102 133.488 83.5782 133.952 83.5782 134.528C83.5782 135.424 84.1702 136 85.3542 136.256L87.5382 136.712C88.5622 136.936 89.3382 137.296 89.8662 137.792C90.3942 138.272 90.6582 138.928 90.6582 139.76C90.6582 140.832 90.2342 141.68 89.3862 142.304C88.5382 142.912 87.4102 143.216 86.0022 143.216ZM94.2449 143V132.848H91.9409V131.336H94.2449V130.928C94.2449 129.376 94.6289 128.2 95.3969 127.4C96.1809 126.6 97.3809 126.152 98.9969 126.056L99.9329 126.008L100.101 127.496L98.9969 127.568C98.0049 127.648 97.2849 127.944 96.8369 128.456C96.4049 128.968 96.1889 129.712 96.1889 130.688V131.336H99.5489V132.848H96.1889V143H94.2449ZM106.133 143.216C104.997 143.216 104.013 142.968 103.181 142.472C102.349 141.976 101.701 141.28 101.237 140.384C100.789 139.472 100.565 138.4 100.565 137.168C100.565 135.936 100.789 134.872 101.237 133.976C101.701 133.064 102.349 132.36 103.181 131.864C104.013 131.368 104.997 131.12 106.133 131.12C107.253 131.12 108.229 131.368 109.061 131.864C109.909 132.36 110.557 133.064 111.005 133.976C111.469 134.872 111.701 135.936 111.701 137.168C111.701 138.4 111.469 139.472 111.005 140.384C110.557 141.28 109.909 141.976 109.061 142.472C108.229 142.968 107.253 143.216 106.133 143.216ZM106.133 141.656C107.221 141.656 108.093 141.272 108.749 140.504C109.405 139.72 109.733 138.608 109.733 137.168C109.733 135.712 109.405 134.6 108.749 133.832C108.093 133.064 107.221 132.68 106.133 132.68C105.029 132.68 104.149 133.064 103.493 133.832C102.853 134.6 102.533 135.712 102.533 137.168C102.533 138.608 102.853 139.72 103.493 140.504C104.149 141.272 105.029 141.656 106.133 141.656ZM114.621 143V131.336H116.517V133.424C117.141 132.016 118.421 131.24 120.357 131.096L121.053 131.024L121.197 132.704L119.973 132.848C118.869 132.944 118.029 133.296 117.453 133.904C116.877 134.496 116.589 135.312 116.589 136.352V143H114.621ZM123.27 143V131.336H125.166V133.304C125.518 132.6 126.006 132.064 126.63 131.696C127.254 131.312 127.982 131.12 128.814 131.12C130.638 131.12 131.806 131.912 132.318 133.496C132.67 132.76 133.19 132.184 133.878 131.768C134.566 131.336 135.358 131.12 136.254 131.12C138.846 131.12 140.142 132.656 140.142 135.728V143H138.198V135.824C138.198 134.752 138.006 133.968 137.622 133.472C137.254 132.96 136.638 132.704 135.774 132.704C134.83 132.704 134.078 133.04 133.518 133.712C132.958 134.384 132.678 135.28 132.678 136.4V143H130.734V135.824C130.734 134.752 130.542 133.968 130.158 133.472C129.79 132.96 129.174 132.704 128.31 132.704C127.35 132.704 126.59 133.04 126.03 133.712C125.486 134.384 125.214 135.28 125.214 136.4V143H123.27ZM147.449 143.216C146.649 143.216 145.929 143.064 145.289 142.76C144.665 142.44 144.169 142.008 143.801 141.464C143.433 140.92 143.249 140.312 143.249 139.64C143.249 138.792 143.465 138.12 143.897 137.624C144.345 137.128 145.073 136.776 146.081 136.568C147.105 136.344 148.497 136.232 150.257 136.232H151.025V135.488C151.025 134.496 150.817 133.784 150.401 133.352C150.001 132.904 149.353 132.68 148.457 132.68C147.753 132.68 147.073 132.784 146.417 132.992C145.761 133.184 145.089 133.504 144.401 133.952L143.729 132.536C144.337 132.104 145.073 131.76 145.937 131.504C146.817 131.248 147.657 131.12 148.457 131.12C149.961 131.12 151.073 131.488 151.793 132.224C152.529 132.96 152.897 134.104 152.897 135.656V143H151.073V140.984C150.769 141.672 150.297 142.216 149.657 142.616C149.033 143.016 148.297 143.216 147.449 143.216ZM147.761 141.752C148.721 141.752 149.505 141.424 150.113 140.768C150.721 140.096 151.025 139.248 151.025 138.224V137.504H150.281C148.985 137.504 147.961 137.568 147.209 137.696C146.473 137.808 145.953 138.016 145.649 138.32C145.361 138.608 145.217 139.008 145.217 139.52C145.217 140.176 145.441 140.712 145.889 141.128C146.353 141.544 146.977 141.752 147.761 141.752ZM161.184 143.216C159.808 143.216 158.776 142.856 158.088 142.136C157.4 141.4 157.056 140.344 157.056 138.968V132.848H154.776V131.336H157.056V127.76H159V131.336H162.696V132.848H159V138.776C159 139.688 159.192 140.384 159.576 140.864C159.96 141.328 160.584 141.56 161.448 141.56C161.704 141.56 161.96 141.528 162.216 141.464C162.472 141.4 162.704 141.336 162.912 141.272L163.248 142.76C163.04 142.872 162.736 142.976 162.336 143.072C161.936 143.168 161.552 143.216 161.184 143.216ZM164.654 128.432V126.248H167.054V128.432H164.654ZM164.894 143V131.336H166.838V143H164.894ZM173.904 143L168.888 131.336H171L174.864 140.792L178.776 131.336H180.768L175.728 143H173.904ZM187.916 143.216C186.076 143.216 184.62 142.68 183.548 141.608C182.476 140.52 181.94 139.048 181.94 137.192C181.94 135.992 182.18 134.936 182.66 134.024C183.14 133.096 183.796 132.384 184.628 131.888C185.476 131.376 186.452 131.12 187.556 131.12C189.14 131.12 190.38 131.632 191.276 132.656C192.172 133.664 192.62 135.056 192.62 136.832V137.576H183.836C183.9 138.904 184.284 139.92 184.988 140.624C185.692 141.312 186.668 141.656 187.916 141.656C188.62 141.656 189.292 141.552 189.932 141.344C190.572 141.12 191.18 140.76 191.756 140.264L192.428 141.632C191.9 142.128 191.228 142.52 190.412 142.808C189.596 143.08 188.764 143.216 187.916 143.216ZM187.604 132.56C186.5 132.56 185.628 132.904 184.988 133.592C184.348 134.28 183.972 135.184 183.86 136.304H190.94C190.892 135.12 190.58 134.2 190.004 133.544C189.444 132.888 188.644 132.56 187.604 132.56ZM201.597 147.32V131.336H203.493V133.424C203.845 132.704 204.365 132.144 205.053 131.744C205.757 131.328 206.573 131.12 207.501 131.12C208.541 131.12 209.445 131.368 210.213 131.864C210.997 132.344 211.597 133.04 212.013 133.952C212.445 134.848 212.661 135.92 212.661 137.168C212.661 138.4 212.445 139.472 212.013 140.384C211.597 141.28 210.997 141.976 210.213 142.472C209.445 142.968 208.541 143.216 207.501 143.216C206.605 143.216 205.805 143.016 205.101 142.616C204.397 142.216 203.877 141.664 203.541 140.96V147.32H201.597ZM207.093 141.656C208.181 141.656 209.053 141.272 209.709 140.504C210.365 139.72 210.693 138.608 210.693 137.168C210.693 135.712 210.365 134.6 209.709 133.832C209.053 133.064 208.181 132.68 207.093 132.68C206.005 132.68 205.133 133.064 204.477 133.832C203.821 134.6 203.493 135.712 203.493 137.168C203.493 138.608 203.821 139.72 204.477 140.504C205.133 141.272 206.005 141.656 207.093 141.656ZM220.438 143.216C219.302 143.216 218.318 142.968 217.486 142.472C216.654 141.976 216.006 141.28 215.542 140.384C215.094 139.472 214.87 138.4 214.87 137.168C214.87 135.936 215.094 134.872 215.542 133.976C216.006 133.064 216.654 132.36 217.486 131.864C218.318 131.368 219.302 131.12 220.438 131.12C221.558 131.12 222.534 131.368 223.366 131.864C224.214 132.36 224.862 133.064 225.31 133.976C225.774 134.872 226.006 135.936 226.006 137.168C226.006 138.4 225.774 139.472 225.31 140.384C224.862 141.28 224.214 141.976 223.366 142.472C222.534 142.968 221.558 143.216 220.438 143.216ZM220.438 141.656C221.526 141.656 222.398 141.272 223.054 140.504C223.71 139.72 224.038 138.608 224.038 137.168C224.038 135.712 223.71 134.6 223.054 133.832C222.398 133.064 221.526 132.68 220.438 132.68C219.334 132.68 218.454 133.064 217.798 133.832C217.158 134.6 216.838 135.712 216.838 137.168C216.838 138.608 217.158 139.72 217.798 140.504C218.454 141.272 219.334 141.656 220.438 141.656ZM231.858 143L227.514 131.336H229.554L232.842 140.72L236.25 131.336H237.906L241.266 140.744L244.602 131.336H246.546L242.178 143H240.33L237.042 133.952L233.73 143H231.858ZM254.033 143.216C252.193 143.216 250.737 142.68 249.665 141.608C248.593 140.52 248.057 139.048 248.057 137.192C248.057 135.992 248.297 134.936 248.777 134.024C249.257 133.096 249.913 132.384 250.745 131.888C251.593 131.376 252.569 131.12 253.673 131.12C255.257 131.12 256.497 131.632 257.393 132.656C258.289 133.664 258.737 135.056 258.737 136.832V137.576H249.953C250.017 138.904 250.401 139.92 251.105 140.624C251.809 141.312 252.785 141.656 254.033 141.656C254.737 141.656 255.409 141.552 256.049 141.344C256.689 141.12 257.297 140.76 257.873 140.264L258.545 141.632C258.017 142.128 257.345 142.52 256.529 142.808C255.713 143.08 254.881 143.216 254.033 143.216ZM253.721 132.56C252.617 132.56 251.745 132.904 251.105 133.592C250.465 134.28 250.089 135.184 249.977 136.304H257.057C257.009 135.12 256.697 134.2 256.121 133.544C255.561 132.888 254.761 132.56 253.721 132.56ZM261.551 143V131.336H263.447V133.424C264.071 132.016 265.351 131.24 267.287 131.096L267.983 131.024L268.127 132.704L266.903 132.848C265.799 132.944 264.959 133.296 264.383 133.904C263.807 134.496 263.519 135.312 263.519 136.352V143H261.551ZM281.164 143.216C280.028 143.216 279.044 142.968 278.212 142.472C277.38 141.976 276.732 141.28 276.268 140.384C275.82 139.472 275.596 138.4 275.596 137.168C275.596 135.936 275.82 134.872 276.268 133.976C276.732 133.064 277.38 132.36 278.212 131.864C279.044 131.368 280.028 131.12 281.164 131.12C282.284 131.12 283.26 131.368 284.092 131.864C284.94 132.36 285.588 133.064 286.036 133.976C286.5 134.872 286.732 135.936 286.732 137.168C286.732 138.4 286.5 139.472 286.036 140.384C285.588 141.28 284.94 141.976 284.092 142.472C283.26 142.968 282.284 143.216 281.164 143.216ZM281.164 141.656C282.252 141.656 283.124 141.272 283.78 140.504C284.436 139.72 284.764 138.608 284.764 137.168C284.764 135.712 284.436 134.6 283.78 133.832C283.124 133.064 282.252 132.68 281.164 132.68C280.06 132.68 279.18 133.064 278.524 133.832C277.884 134.6 277.564 135.712 277.564 137.168C277.564 138.608 277.884 139.72 278.524 140.504C279.18 141.272 280.06 141.656 281.164 141.656ZM290.159 143V132.848H287.855V131.336H290.159V130.928C290.159 129.376 290.543 128.2 291.311 127.4C292.095 126.6 293.295 126.152 294.911 126.056L295.847 126.008L296.015 127.496L294.911 127.568C293.919 127.648 293.199 127.944 292.751 128.456C292.319 128.968 292.103 129.712 292.103 130.688V131.336H295.463V132.848H292.103V143H290.159ZM303.955 143V126.08H310.651C312.475 126.08 313.867 126.52 314.827 127.4C315.803 128.28 316.291 129.536 316.291 131.168C316.291 132.784 315.803 134.04 314.827 134.936C313.867 135.816 312.475 136.256 310.651 136.256H305.923V143H303.955ZM305.923 134.6H310.411C313.035 134.6 314.347 133.456 314.347 131.168C314.347 128.864 313.035 127.712 310.411 127.712H305.923V134.6ZM319.143 143V126.08H325.839C327.663 126.08 329.055 126.504 330.015 127.352C330.991 128.2 331.479 129.408 331.479 130.976C331.479 132.224 331.135 133.248 330.447 134.048C329.775 134.848 328.815 135.368 327.567 135.608C328.303 135.864 328.935 136.488 329.463 137.48L332.439 143H330.279L327.351 137.576C326.983 136.904 326.559 136.448 326.079 136.208C325.599 135.968 324.967 135.848 324.183 135.848H321.111V143H319.143ZM321.111 134.288H325.551C328.207 134.288 329.535 133.184 329.535 130.976C329.535 128.8 328.207 127.712 325.551 127.712H321.111V134.288ZM335.197 143V126.08H341.893C343.717 126.08 345.109 126.52 346.069 127.4C347.045 128.28 347.533 129.536 347.533 131.168C347.533 132.784 347.045 134.04 346.069 134.936C345.109 135.816 343.717 136.256 341.893 136.256H337.165V143H335.197ZM337.165 134.6H341.653C344.277 134.6 345.589 133.456 345.589 131.168C345.589 128.864 344.277 127.712 341.653 127.712H337.165V134.6ZM43.504 171.216C42.128 171.216 41.096 170.856 40.408 170.136C39.72 169.4 39.376 168.344 39.376 166.968V160.848H37.096V159.336H39.376V155.76H41.32V159.336H45.016V160.848H41.32V166.776C41.32 167.688 41.512 168.384 41.896 168.864C42.28 169.328 42.904 169.56 43.768 169.56C44.024 169.56 44.28 169.528 44.536 169.464C44.792 169.4 45.024 169.336 45.232 169.272L45.568 170.76C45.36 170.872 45.056 170.976 44.656 171.072C44.256 171.168 43.872 171.216 43.504 171.216ZM47.2146 171V154.08H49.1586V161.256C49.5426 160.552 50.0786 160.024 50.7666 159.672C51.4706 159.304 52.2546 159.12 53.1186 159.12C55.8866 159.12 57.2706 160.656 57.2706 163.728V171H55.3266V163.848C55.3266 162.76 55.1106 161.968 54.6786 161.472C54.2626 160.96 53.5906 160.704 52.6626 160.704C51.5906 160.704 50.7346 161.04 50.0946 161.712C49.4706 162.368 49.1586 163.248 49.1586 164.352V171H47.2146ZM66.1113 171.216C64.2713 171.216 62.8153 170.68 61.7433 169.608C60.6713 168.52 60.1353 167.048 60.1353 165.192C60.1353 163.992 60.3753 162.936 60.8553 162.024C61.3353 161.096 61.9913 160.384 62.8233 159.888C63.6713 159.376 64.6473 159.12 65.7513 159.12C67.3353 159.12 68.5753 159.632 69.4713 160.656C70.3673 161.664 70.8153 163.056 70.8153 164.832V165.576H62.0312C62.0953 166.904 62.4793 167.92 63.1833 168.624C63.8873 169.312 64.8633 169.656 66.1113 169.656C66.8153 169.656 67.4873 169.552 68.1273 169.344C68.7673 169.12 69.3753 168.76 69.9513 168.264L70.6233 169.632C70.0953 170.128 69.4233 170.52 68.6073 170.808C67.7913 171.08 66.9593 171.216 66.1113 171.216ZM65.7993 160.56C64.6953 160.56 63.8233 160.904 63.1833 161.592C62.5433 162.28 62.1673 163.184 62.0553 164.304H69.1353C69.0873 163.12 68.7753 162.2 68.1993 161.544C67.6393 160.888 66.8393 160.56 65.7993 160.56ZM73.6287 171V159.336H75.5247V161.424C76.1487 160.016 77.4287 159.24 79.3647 159.096L80.0607 159.024L80.2047 160.704L78.9807 160.848C77.8767 160.944 77.0367 161.296 76.4607 161.904C75.8847 162.496 75.5967 163.312 75.5967 164.352V171H73.6287ZM85.7851 171.216C84.9851 171.216 84.2651 171.064 83.6251 170.76C83.0011 170.44 82.5051 170.008 82.1371 169.464C81.7691 168.92 81.5851 168.312 81.5851 167.64C81.5851 166.792 81.8011 166.12 82.2331 165.624C82.6811 165.128 83.4091 164.776 84.4171 164.568C85.4411 164.344 86.8331 164.232 88.5931 164.232H89.3611V163.488C89.3611 162.496 89.1531 161.784 88.7371 161.352C88.3371 160.904 87.6891 160.68 86.7931 160.68C86.0891 160.68 85.4091 160.784 84.7531 160.992C84.0971 161.184 83.4251 161.504 82.7371 161.952L82.0651 160.536C82.6731 160.104 83.4091 159.76 84.2731 159.504C85.1531 159.248 85.9931 159.12 86.7931 159.12C88.2971 159.12 89.4091 159.488 90.1291 160.224C90.8651 160.96 91.2331 162.104 91.2331 163.656V171H89.4091V168.984C89.1051 169.672 88.6331 170.216 87.9931 170.616C87.3691 171.016 86.6331 171.216 85.7851 171.216ZM86.0971 169.752C87.0571 169.752 87.8411 169.424 88.4491 168.768C89.0571 168.096 89.3611 167.248 89.3611 166.224V165.504H88.6171C87.3211 165.504 86.2971 165.568 85.5451 165.696C84.8091 165.808 84.2891 166.016 83.9851 166.32C83.6971 166.608 83.5531 167.008 83.5531 167.52C83.5531 168.176 83.7771 168.712 84.2251 169.128C84.6891 169.544 85.3131 169.752 86.0971 169.752ZM94.8396 175.32V159.336H96.7356V161.424C97.0876 160.704 97.6076 160.144 98.2956 159.744C98.9996 159.328 99.8156 159.12 100.744 159.12C101.784 159.12 102.688 159.368 103.456 159.864C104.24 160.344 104.84 161.04 105.256 161.952C105.688 162.848 105.904 163.92 105.904 165.168C105.904 166.4 105.688 167.472 105.256 168.384C104.84 169.28 104.24 169.976 103.456 170.472C102.688 170.968 101.784 171.216 100.744 171.216C99.8476 171.216 99.0476 171.016 98.3436 170.616C97.6396 170.216 97.1196 169.664 96.7836 168.96V175.32H94.8396ZM100.336 169.656C101.424 169.656 102.296 169.272 102.952 168.504C103.608 167.72 103.936 166.608 103.936 165.168C103.936 163.712 103.608 162.6 102.952 161.832C102.296 161.064 101.424 160.68 100.336 160.68C99.2476 160.68 98.3756 161.064 97.7196 161.832C97.0636 162.6 96.7356 163.712 96.7356 165.168C96.7356 166.608 97.0636 167.72 97.7196 168.504C98.3756 169.272 99.2476 169.656 100.336 169.656ZM110.012 175.32L112.004 170.808L107.084 159.336H109.196L113.06 168.792L116.948 159.336H118.988L112.052 175.32H110.012ZM127.784 171V160.848H125.48V159.336H127.784V158.928C127.784 157.376 128.168 156.2 128.936 155.4C129.72 154.6 130.92 154.152 132.536 154.056L133.472 154.008L133.64 155.496L132.536 155.568C131.544 155.648 130.824 155.944 130.376 156.456C129.944 156.968 129.728 157.712 129.728 158.688V159.336H133.088V160.848H129.728V171H127.784ZM139.672 171.216C138.536 171.216 137.552 170.968 136.72 170.472C135.888 169.976 135.24 169.28 134.776 168.384C134.328 167.472 134.104 166.4 134.104 165.168C134.104 163.936 134.328 162.872 134.776 161.976C135.24 161.064 135.888 160.36 136.72 159.864C137.552 159.368 138.536 159.12 139.672 159.12C140.792 159.12 141.768 159.368 142.6 159.864C143.448 160.36 144.096 161.064 144.544 161.976C145.008 162.872 145.24 163.936 145.24 165.168C145.24 166.4 145.008 167.472 144.544 168.384C144.096 169.28 143.448 169.976 142.6 170.472C141.768 170.968 140.792 171.216 139.672 171.216ZM139.672 169.656C140.76 169.656 141.632 169.272 142.288 168.504C142.944 167.72 143.272 166.608 143.272 165.168C143.272 163.712 142.944 162.6 142.288 161.832C141.632 161.064 140.76 160.68 139.672 160.68C138.568 160.68 137.688 161.064 137.032 161.832C136.392 162.6 136.072 163.712 136.072 165.168C136.072 166.608 136.392 167.72 137.032 168.504C137.688 169.272 138.568 169.656 139.672 169.656ZM148.16 171V159.336H150.056V161.424C150.68 160.016 151.96 159.24 153.896 159.096L154.592 159.024L154.736 160.704L153.512 160.848C152.408 160.944 151.568 161.296 150.992 161.904C150.416 162.496 150.128 163.312 150.128 164.352V171H148.16ZM162.926 171V159.336H164.822V161.424C165.446 160.016 166.726 159.24 168.662 159.096L169.358 159.024L169.502 160.704L168.278 160.848C167.174 160.944 166.334 161.296 165.758 161.904C165.182 162.496 164.894 163.312 164.894 164.352V171H162.926ZM176.643 171.216C174.803 171.216 173.347 170.68 172.275 169.608C171.203 168.52 170.667 167.048 170.667 165.192C170.667 163.992 170.907 162.936 171.387 162.024C171.867 161.096 172.523 160.384 173.355 159.888C174.203 159.376 175.179 159.12 176.283 159.12C177.867 159.12 179.107 159.632 180.003 160.656C180.899 161.664 181.347 163.056 181.347 164.832V165.576H172.562C172.627 166.904 173.011 167.92 173.715 168.624C174.419 169.312 175.395 169.656 176.643 169.656C177.347 169.656 178.019 169.552 178.659 169.344C179.299 169.12 179.907 168.76 180.483 168.264L181.155 169.632C180.627 170.128 179.955 170.52 179.139 170.808C178.323 171.08 177.491 171.216 176.643 171.216ZM176.331 160.56C175.227 160.56 174.355 160.904 173.715 161.592C173.075 162.28 172.699 163.184 172.587 164.304H179.667C179.619 163.12 179.307 162.2 178.731 161.544C178.171 160.888 177.371 160.56 176.331 160.56ZM183.992 156.432V154.248H186.392V156.432H183.992ZM181.136 175.632L180.992 174.12L182.024 174.024C183.496 173.896 184.232 173.008 184.232 171.36V159.336H186.176V171.168C186.176 172.56 185.848 173.616 185.192 174.336C184.536 175.056 183.528 175.464 182.168 175.56L181.136 175.632ZM193.96 171.216C191.16 171.216 189.76 169.672 189.76 166.584V159.336H191.704V166.56C191.704 167.6 191.912 168.368 192.328 168.864C192.76 169.36 193.432 169.608 194.344 169.608C195.336 169.608 196.144 169.28 196.768 168.624C197.392 167.952 197.704 167.064 197.704 165.96V159.336H199.648V171H197.752V169.032C197.384 169.736 196.864 170.28 196.192 170.664C195.536 171.032 194.792 171.216 193.96 171.216ZM206.717 171L201.701 159.336H203.813L207.677 168.792L211.589 159.336H213.581L208.541 171H206.717ZM220.728 171.216C218.888 171.216 217.432 170.68 216.36 169.608C215.288 168.52 214.752 167.048 214.752 165.192C214.752 163.992 214.992 162.936 215.472 162.024C215.952 161.096 216.608 160.384 217.44 159.888C218.288 159.376 219.264 159.12 220.368 159.12C221.952 159.12 223.192 159.632 224.088 160.656C224.984 161.664 225.432 163.056 225.432 164.832V165.576H216.648C216.712 166.904 217.096 167.92 217.8 168.624C218.504 169.312 219.48 169.656 220.728 169.656C221.432 169.656 222.104 169.552 222.744 169.344C223.384 169.12 223.992 168.76 224.568 168.264L225.24 169.632C224.712 170.128 224.04 170.52 223.224 170.808C222.408 171.08 221.576 171.216 220.728 171.216ZM220.416 160.56C219.312 160.56 218.44 160.904 217.8 161.592C217.16 162.28 216.784 163.184 216.672 164.304H223.752C223.704 163.12 223.392 162.2 222.816 161.544C222.256 160.888 221.456 160.56 220.416 160.56ZM228.246 171V159.336H230.142V161.328C230.526 160.592 231.07 160.04 231.774 159.672C232.478 159.304 233.27 159.12 234.15 159.12C236.918 159.12 238.302 160.656 238.302 163.728V171H236.358V163.848C236.358 162.76 236.142 161.968 235.71 161.472C235.294 160.96 234.622 160.704 233.694 160.704C232.622 160.704 231.766 161.04 231.126 161.712C230.502 162.368 230.19 163.248 230.19 164.352V171H228.246ZM245.559 171.216C244.759 171.216 244.039 171.064 243.399 170.76C242.775 170.44 242.279 170.008 241.911 169.464C241.543 168.92 241.359 168.312 241.359 167.64C241.359 166.792 241.575 166.12 242.007 165.624C242.455 165.128 243.183 164.776 244.191 164.568C245.215 164.344 246.607 164.232 248.367 164.232H249.135V163.488C249.135 162.496 248.927 161.784 248.511 161.352C248.111 160.904 247.463 160.68 246.567 160.68C245.863 160.68 245.183 160.784 244.527 160.992C243.871 161.184 243.199 161.504 242.511 161.952L241.839 160.536C242.447 160.104 243.183 159.76 244.047 159.504C244.927 159.248 245.767 159.12 246.567 159.12C248.071 159.12 249.183 159.488 249.903 160.224C250.639 160.96 251.007 162.104 251.007 163.656V171H249.183V168.984C248.879 169.672 248.407 170.216 247.767 170.616C247.143 171.016 246.407 171.216 245.559 171.216ZM245.871 169.752C246.831 169.752 247.615 169.424 248.223 168.768C248.831 168.096 249.135 167.248 249.135 166.224V165.504H248.391C247.095 165.504 246.071 165.568 245.319 165.696C244.583 165.808 244.063 166.016 243.759 166.32C243.471 166.608 243.327 167.008 243.327 167.52C243.327 168.176 243.551 168.712 243.999 169.128C244.463 169.544 245.087 169.752 245.871 169.752ZM259.293 171.216C257.917 171.216 256.885 170.856 256.197 170.136C255.509 169.4 255.165 168.344 255.165 166.968V160.848H252.885V159.336H255.165V155.76H257.109V159.336H260.805V160.848H257.109V166.776C257.109 167.688 257.301 168.384 257.685 168.864C258.069 169.328 258.693 169.56 259.557 169.56C259.813 169.56 260.069 169.528 260.325 169.464C260.581 169.4 260.813 169.336 261.021 169.272L261.357 170.76C261.149 170.872 260.845 170.976 260.445 171.072C260.045 171.168 259.661 171.216 259.293 171.216ZM262.764 156.432V154.248H265.164V156.432H262.764ZM263.004 171V159.336H264.948V171H263.004ZM268.582 171V159.336H270.478V161.328C270.862 160.592 271.406 160.04 272.11 159.672C272.814 159.304 273.606 159.12 274.486 159.12C277.254 159.12 278.638 160.656 278.638 163.728V171H276.694V163.848C276.694 162.76 276.478 161.968 276.046 161.472C275.63 160.96 274.958 160.704 274.03 160.704C272.958 160.704 272.102 161.04 271.462 161.712C270.838 162.368 270.526 163.248 270.526 164.352V171H268.582ZM287.382 175.536C286.374 175.536 285.422 175.4 284.526 175.128C283.646 174.872 282.862 174.48 282.174 173.952L282.822 172.536C283.542 173.048 284.254 173.416 284.958 173.64C285.678 173.864 286.454 173.976 287.286 173.976C289.59 173.976 290.742 172.792 290.742 170.424V168.36C290.406 169.096 289.878 169.68 289.158 170.112C288.454 170.528 287.646 170.736 286.734 170.736C285.662 170.736 284.734 170.488 283.95 169.992C283.166 169.496 282.558 168.816 282.126 167.952C281.71 167.072 281.502 166.056 281.502 164.904C281.502 163.752 281.71 162.744 282.126 161.88C282.558 161 283.166 160.32 283.95 159.84C284.734 159.36 285.662 159.12 286.734 159.12C287.646 159.12 288.454 159.328 289.158 159.744C289.878 160.16 290.406 160.728 290.742 161.448V159.336H292.638V170.16C292.638 171.952 292.19 173.296 291.294 174.192C290.414 175.088 289.11 175.536 287.382 175.536ZM287.094 169.152C288.214 169.152 289.102 168.768 289.758 168C290.414 167.232 290.742 166.2 290.742 164.904C290.742 163.608 290.414 162.584 289.758 161.832C289.102 161.064 288.214 160.68 287.094 160.68C285.99 160.68 285.11 161.064 284.454 161.832C283.798 162.584 283.47 163.608 283.47 164.904C283.47 166.2 283.798 167.232 284.454 168C285.11 168.768 285.99 169.152 287.094 169.152ZM303.793 175.32L305.785 170.808L300.865 159.336H302.977L306.841 168.792L310.729 159.336H312.769L305.833 175.32H303.793ZM319.461 171.216C318.325 171.216 317.341 170.968 316.509 170.472C315.677 169.976 315.029 169.28 314.565 168.384C314.117 167.472 313.893 166.4 313.893 165.168C313.893 163.936 314.117 162.872 314.565 161.976C315.029 161.064 315.677 160.36 316.509 159.864C317.341 159.368 318.325 159.12 319.461 159.12C320.581 159.12 321.557 159.368 322.389 159.864C323.237 160.36 323.885 161.064 324.333 161.976C324.797 162.872 325.029 163.936 325.029 165.168C325.029 166.4 324.797 167.472 324.333 168.384C323.885 169.28 323.237 169.976 322.389 170.472C321.557 170.968 320.581 171.216 319.461 171.216ZM319.461 169.656C320.549 169.656 321.421 169.272 322.077 168.504C322.733 167.72 323.061 166.608 323.061 165.168C323.061 163.712 322.733 162.6 322.077 161.832C321.421 161.064 320.549 160.68 319.461 160.68C318.357 160.68 317.477 161.064 316.821 161.832C316.181 162.6 315.861 163.712 315.861 165.168C315.861 166.608 316.181 167.72 316.821 168.504C317.477 169.272 318.357 169.656 319.461 169.656ZM332.077 171.216C329.277 171.216 327.877 169.672 327.877 166.584V159.336H329.821V166.56C329.821 167.6 330.029 168.368 330.445 168.864C330.877 169.36 331.549 169.608 332.461 169.608C333.453 169.608 334.261 169.28 334.885 168.624C335.509 167.952 335.821 167.064 335.821 165.96V159.336H337.765V171H335.869V169.032C335.501 169.736 334.981 170.28 334.309 170.664C333.653 171.032 332.909 171.216 332.077 171.216ZM341.402 171V159.336H343.298V161.424C343.922 160.016 345.202 159.24 347.138 159.096L347.834 159.024L347.978 160.704L346.754 160.848C345.65 160.944 344.81 161.296 344.234 161.904C343.658 162.496 343.37 163.312 343.37 164.352V171H341.402ZM42.76 199.216C41.848 199.216 40.984 199.088 40.168 198.832C39.352 198.576 38.68 198.216 38.152 197.752L38.776 196.384C39.352 196.848 39.984 197.192 40.672 197.416C41.376 197.624 42.088 197.728 42.808 197.728C43.72 197.728 44.408 197.56 44.872 197.224C45.336 196.888 45.568 196.432 45.568 195.856C45.568 195.408 45.416 195.056 45.112 194.8C44.808 194.528 44.328 194.32 43.672 194.176L41.488 193.696C39.504 193.264 38.512 192.24 38.512 190.624C38.512 189.568 38.928 188.72 39.76 188.08C40.608 187.44 41.712 187.12 43.072 187.12C43.872 187.12 44.632 187.248 45.352 187.504C46.088 187.744 46.696 188.104 47.176 188.584L46.528 189.952C46.064 189.52 45.52 189.192 44.896 188.968C44.288 188.728 43.68 188.608 43.072 188.608C42.176 188.608 41.496 188.784 41.032 189.136C40.568 189.488 40.336 189.952 40.336 190.528C40.336 191.424 40.928 192 42.112 192.256L44.296 192.712C45.32 192.936 46.096 193.296 46.624 193.792C47.152 194.272 47.416 194.928 47.416 195.76C47.416 196.832 46.992 197.68 46.144 198.304C45.296 198.912 44.168 199.216 42.76 199.216ZM50.3787 199V182.08H52.3227V192.52H52.3707L57.7707 187.336H60.2427L54.3867 192.952L60.7467 199H58.2747L52.3707 193.528H52.3227V199H50.3787ZM62.1387 184.432V182.248H64.5387V184.432H62.1387ZM62.3787 199V187.336H64.3227V199H62.3787ZM67.9568 199V187.336H69.8528V189.328C70.2368 188.592 70.7808 188.04 71.4848 187.672C72.1888 187.304 72.9808 187.12 73.8608 187.12C76.6288 187.12 78.0128 188.656 78.0128 191.728V199H76.0688V191.848C76.0688 190.76 75.8528 189.968 75.4208 189.472C75.0048 188.96 74.3328 188.704 73.4048 188.704C72.3328 188.704 71.4768 189.04 70.8368 189.712C70.2128 190.368 69.9008 191.248 69.9008 192.352V199H67.9568ZM91.4335 199.216C90.6335 199.216 89.9135 199.064 89.2735 198.76C88.6495 198.44 88.1535 198.008 87.7855 197.464C87.4175 196.92 87.2335 196.312 87.2335 195.64C87.2335 194.792 87.4495 194.12 87.8815 193.624C88.3295 193.128 89.0575 192.776 90.0655 192.568C91.0895 192.344 92.4815 192.232 94.2415 192.232H95.0095V191.488C95.0095 190.496 94.8015 189.784 94.3855 189.352C93.9855 188.904 93.3375 188.68 92.4415 188.68C91.7375 188.68 91.0575 188.784 90.4015 188.992C89.7455 189.184 89.0735 189.504 88.3855 189.952L87.7135 188.536C88.3215 188.104 89.0575 187.76 89.9215 187.504C90.8015 187.248 91.6415 187.12 92.4415 187.12C93.9455 187.12 95.0575 187.488 95.7775 188.224C96.5135 188.96 96.8815 190.104 96.8815 191.656V199H95.0575V196.984C94.7535 197.672 94.2815 198.216 93.6415 198.616C93.0175 199.016 92.2815 199.216 91.4335 199.216ZM91.7455 197.752C92.7055 197.752 93.4895 197.424 94.0975 196.768C94.7055 196.096 95.0095 195.248 95.0095 194.224V193.504H94.2655C92.9695 193.504 91.9455 193.568 91.1935 193.696C90.4575 193.808 89.9375 194.016 89.6335 194.32C89.3455 194.608 89.2015 195.008 89.2015 195.52C89.2015 196.176 89.4255 196.712 89.8735 197.128C90.3375 197.544 90.9615 197.752 91.7455 197.752ZM100.488 199V187.336H102.384V189.328C102.768 188.592 103.312 188.04 104.016 187.672C104.72 187.304 105.512 187.12 106.392 187.12C109.16 187.12 110.544 188.656 110.544 191.728V199H108.6V191.848C108.6 190.76 108.384 189.968 107.952 189.472C107.536 188.96 106.864 188.704 105.936 188.704C104.864 188.704 104.008 189.04 103.368 189.712C102.744 190.368 102.432 191.248 102.432 192.352V199H100.488ZM118.569 199.216C117.529 199.216 116.617 198.968 115.833 198.472C115.065 197.976 114.465 197.28 114.033 196.384C113.617 195.472 113.409 194.4 113.409 193.168C113.409 191.92 113.617 190.848 114.033 189.952C114.465 189.04 115.065 188.344 115.833 187.864C116.617 187.368 117.529 187.12 118.569 187.12C119.481 187.12 120.281 187.32 120.969 187.72C121.673 188.12 122.193 188.672 122.529 189.376V182.08H124.473V199H122.577V196.864C122.241 197.6 121.721 198.176 121.017 198.592C120.313 199.008 119.497 199.216 118.569 199.216ZM118.977 197.656C120.065 197.656 120.937 197.272 121.593 196.504C122.249 195.72 122.577 194.608 122.577 193.168C122.577 191.712 122.249 190.6 121.593 189.832C120.937 189.064 120.065 188.68 118.977 188.68C117.873 188.68 116.993 189.064 116.337 189.832C115.697 190.6 115.377 191.712 115.377 193.168C115.377 194.608 115.697 195.72 116.337 196.504C116.993 197.272 117.873 197.656 118.977 197.656ZM139.541 199.216C137.701 199.216 136.245 198.68 135.173 197.608C134.101 196.52 133.565 195.048 133.565 193.192C133.565 191.992 133.805 190.936 134.285 190.024C134.765 189.096 135.421 188.384 136.253 187.888C137.101 187.376 138.077 187.12 139.181 187.12C140.765 187.12 142.005 187.632 142.901 188.656C143.797 189.664 144.245 191.056 144.245 192.832V193.576H135.461C135.525 194.904 135.909 195.92 136.613 196.624C137.317 197.312 138.293 197.656 139.541 197.656C140.245 197.656 140.917 197.552 141.557 197.344C142.197 197.12 142.805 196.76 143.381 196.264L144.053 197.632C143.525 198.128 142.853 198.52 142.037 198.808C141.221 199.08 140.389 199.216 139.541 199.216ZM139.229 188.56C138.125 188.56 137.253 188.904 136.613 189.592C135.973 190.28 135.597 191.184 135.485 192.304H142.565C142.517 191.12 142.205 190.2 141.629 189.544C141.069 188.888 140.269 188.56 139.229 188.56ZM147.058 199V187.336H148.954V189.328C149.338 188.592 149.882 188.04 150.586 187.672C151.29 187.304 152.082 187.12 152.962 187.12C155.73 187.12 157.114 188.656 157.114 191.728V199H155.17V191.848C155.17 190.76 154.954 189.968 154.522 189.472C154.106 188.96 153.434 188.704 152.506 188.704C151.434 188.704 150.578 189.04 149.938 189.712C149.314 190.368 149.002 191.248 149.002 192.352V199H147.058ZM160.699 199V182.08H162.643V189.256C163.027 188.552 163.563 188.024 164.251 187.672C164.955 187.304 165.739 187.12 166.603 187.12C169.371 187.12 170.755 188.656 170.755 191.728V199H168.811V191.848C168.811 190.76 168.595 189.968 168.163 189.472C167.747 188.96 167.075 188.704 166.147 188.704C165.075 188.704 164.219 189.04 163.579 189.712C162.955 190.368 162.643 191.248 162.643 192.352V199H160.699ZM178.012 199.216C177.212 199.216 176.492 199.064 175.852 198.76C175.228 198.44 174.732 198.008 174.364 197.464C173.996 196.92 173.812 196.312 173.812 195.64C173.812 194.792 174.028 194.12 174.46 193.624C174.908 193.128 175.636 192.776 176.644 192.568C177.668 192.344 179.06 192.232 180.82 192.232H181.588V191.488C181.588 190.496 181.38 189.784 180.964 189.352C180.564 188.904 179.916 188.68 179.02 188.68C178.316 188.68 177.636 188.784 176.98 188.992C176.324 189.184 175.652 189.504 174.964 189.952L174.292 188.536C174.9 188.104 175.636 187.76 176.5 187.504C177.38 187.248 178.22 187.12 179.02 187.12C180.524 187.12 181.636 187.488 182.356 188.224C183.092 188.96 183.46 190.104 183.46 191.656V199H181.636V196.984C181.332 197.672 180.86 198.216 180.22 198.616C179.596 199.016 178.86 199.216 178.012 199.216ZM178.324 197.752C179.284 197.752 180.068 197.424 180.676 196.768C181.284 196.096 181.588 195.248 181.588 194.224V193.504H180.844C179.548 193.504 178.524 193.568 177.772 193.696C177.036 193.808 176.516 194.016 176.212 194.32C175.924 194.608 175.78 195.008 175.78 195.52C175.78 196.176 176.004 196.712 176.452 197.128C176.916 197.544 177.54 197.752 178.324 197.752ZM187.066 199V187.336H188.962V189.328C189.346 188.592 189.89 188.04 190.594 187.672C191.298 187.304 192.09 187.12 192.97 187.12C195.738 187.12 197.122 188.656 197.122 191.728V199H195.178V191.848C195.178 190.76 194.962 189.968 194.53 189.472C194.114 188.96 193.442 188.704 192.514 188.704C191.442 188.704 190.586 189.04 189.946 189.712C189.322 190.368 189.01 191.248 189.01 192.352V199H187.066ZM205.651 199.216C204.483 199.216 203.475 198.968 202.627 198.472C201.779 197.96 201.123 197.248 200.659 196.336C200.211 195.408 199.987 194.328 199.987 193.096C199.987 191.24 200.491 189.784 201.499 188.728C202.507 187.656 203.891 187.12 205.651 187.12C206.371 187.12 207.083 187.248 207.787 187.504C208.491 187.76 209.075 188.12 209.539 188.584L208.867 190C208.403 189.552 207.891 189.224 207.331 189.016C206.787 188.808 206.267 188.704 205.771 188.704C204.555 188.704 203.619 189.088 202.963 189.856C202.307 190.608 201.979 191.696 201.979 193.12C201.979 194.512 202.307 195.616 202.963 196.432C203.619 197.232 204.555 197.632 205.771 197.632C206.267 197.632 206.787 197.528 207.331 197.32C207.891 197.112 208.403 196.776 208.867 196.312L209.539 197.728C209.075 198.192 208.483 198.56 207.763 198.832C207.059 199.088 206.355 199.216 205.651 199.216ZM211.576 184.432V182.248H213.976V184.432H211.576ZM211.816 199V187.336H213.76V199H211.816ZM217.394 199V187.336H219.29V189.328C219.674 188.592 220.218 188.04 220.922 187.672C221.626 187.304 222.418 187.12 223.298 187.12C226.066 187.12 227.45 188.656 227.45 191.728V199H225.506V191.848C225.506 190.76 225.29 189.968 224.858 189.472C224.442 188.96 223.77 188.704 222.842 188.704C221.77 188.704 220.914 189.04 220.274 189.712C219.65 190.368 219.338 191.248 219.338 192.352V199H217.394ZM236.195 203.536C235.187 203.536 234.235 203.4 233.339 203.128C232.459 202.872 231.675 202.48 230.987 201.952L231.635 200.536C232.355 201.048 233.067 201.416 233.771 201.64C234.491 201.864 235.267 201.976 236.099 201.976C238.403 201.976 239.555 200.792 239.555 198.424V196.36C239.219 197.096 238.691 197.68 237.971 198.112C237.267 198.528 236.459 198.736 235.547 198.736C234.475 198.736 233.547 198.488 232.763 197.992C231.979 197.496 231.371 196.816 230.939 195.952C230.523 195.072 230.315 194.056 230.315 192.904C230.315 191.752 230.523 190.744 230.939 189.88C231.371 189 231.979 188.32 232.763 187.84C233.547 187.36 234.475 187.12 235.547 187.12C236.459 187.12 237.267 187.328 237.971 187.744C238.691 188.16 239.219 188.728 239.555 189.448V187.336H241.451V198.16C241.451 199.952 241.003 201.296 240.107 202.192C239.227 203.088 237.923 203.536 236.195 203.536ZM235.907 197.152C237.027 197.152 237.915 196.768 238.571 196C239.227 195.232 239.555 194.2 239.555 192.904C239.555 191.608 239.227 190.584 238.571 189.832C237.915 189.064 237.027 188.68 235.907 188.68C234.803 188.68 233.923 189.064 233.267 189.832C232.611 190.584 232.283 191.608 232.283 192.904C232.283 194.2 232.611 195.232 233.267 196C233.923 196.768 234.803 197.152 235.907 197.152ZM252.605 203.32L254.598 198.808L249.678 187.336H251.79L255.654 196.792L259.542 187.336H261.582L254.646 203.32H252.605ZM268.274 199.216C267.138 199.216 266.154 198.968 265.322 198.472C264.49 197.976 263.842 197.28 263.378 196.384C262.93 195.472 262.706 194.4 262.706 193.168C262.706 191.936 262.93 190.872 263.378 189.976C263.842 189.064 264.49 188.36 265.322 187.864C266.154 187.368 267.138 187.12 268.274 187.12C269.394 187.12 270.37 187.368 271.202 187.864C272.05 188.36 272.698 189.064 273.146 189.976C273.61 190.872 273.842 191.936 273.842 193.168C273.842 194.4 273.61 195.472 273.146 196.384C272.698 197.28 272.05 197.976 271.202 198.472C270.37 198.968 269.394 199.216 268.274 199.216ZM268.274 197.656C269.362 197.656 270.234 197.272 270.89 196.504C271.546 195.72 271.874 194.608 271.874 193.168C271.874 191.712 271.546 190.6 270.89 189.832C270.234 189.064 269.362 188.68 268.274 188.68C267.17 188.68 266.29 189.064 265.634 189.832C264.994 190.6 264.674 191.712 264.674 193.168C264.674 194.608 264.994 195.72 265.634 196.504C266.29 197.272 267.17 197.656 268.274 197.656ZM280.89 199.216C278.09 199.216 276.69 197.672 276.69 194.584V187.336H278.634V194.56C278.634 195.6 278.842 196.368 279.258 196.864C279.69 197.36 280.362 197.608 281.273 197.608C282.266 197.608 283.074 197.28 283.698 196.624C284.322 195.952 284.634 195.064 284.634 193.96V187.336H286.578V199H284.682V197.032C284.314 197.736 283.794 198.28 283.122 198.664C282.466 199.032 281.722 199.216 280.89 199.216ZM290.215 199V187.336H292.111V189.424C292.735 188.016 294.015 187.24 295.951 187.096L296.647 187.024L296.791 188.704L295.567 188.848C294.463 188.944 293.623 189.296 293.047 189.904C292.471 190.496 292.183 191.312 292.183 192.352V199H290.215ZM38.824 227V215.336H40.72V217.328C41.104 216.592 41.648 216.04 42.352 215.672C43.056 215.304 43.848 215.12 44.728 215.12C47.496 215.12 48.88 216.656 48.88 219.728V227H46.936V219.848C46.936 218.76 46.72 217.968 46.288 217.472C45.872 216.96 45.2 216.704 44.272 216.704C43.2 216.704 42.344 217.04 41.704 217.712C41.08 218.368 40.768 219.248 40.768 220.352V227H38.824ZM56.1366 227.216C55.3366 227.216 54.6166 227.064 53.9766 226.76C53.3526 226.44 52.8566 226.008 52.4886 225.464C52.1206 224.92 51.9366 224.312 51.9366 223.64C51.9366 222.792 52.1526 222.12 52.5846 221.624C53.0326 221.128 53.7606 220.776 54.7686 220.568C55.7926 220.344 57.1846 220.232 58.9446 220.232H59.7126V219.488C59.7126 218.496 59.5046 217.784 59.0886 217.352C58.6886 216.904 58.0406 216.68 57.1446 216.68C56.4406 216.68 55.7606 216.784 55.1046 216.992C54.4486 217.184 53.7766 217.504 53.0886 217.952L52.4166 216.536C53.0246 216.104 53.7606 215.76 54.6246 215.504C55.5046 215.248 56.3446 215.12 57.1446 215.12C58.6486 215.12 59.7606 215.488 60.4806 216.224C61.2166 216.96 61.5846 218.104 61.5846 219.656V227H59.7606V224.984C59.4566 225.672 58.9846 226.216 58.3446 226.616C57.7206 227.016 56.9846 227.216 56.1366 227.216ZM56.4486 225.752C57.4086 225.752 58.1926 225.424 58.8006 224.768C59.4086 224.096 59.7126 223.248 59.7126 222.224V221.504H58.9686C57.6726 221.504 56.6486 221.568 55.8966 221.696C55.1606 221.808 54.6406 222.016 54.3366 222.32C54.0486 222.608 53.9046 223.008 53.9046 223.52C53.9046 224.176 54.1286 224.712 54.5766 225.128C55.0406 225.544 55.6646 225.752 56.4486 225.752ZM69.8712 227.216C68.4952 227.216 67.4632 226.856 66.7752 226.136C66.0872 225.4 65.7432 224.344 65.7432 222.968V216.848H63.4632V215.336H65.7432V211.76H67.6872V215.336H71.3832V216.848H67.6872V222.776C67.6872 223.688 67.8792 224.384 68.2632 224.864C68.6472 225.328 69.2712 225.56 70.1352 225.56C70.3912 225.56 70.6472 225.528 70.9032 225.464C71.1592 225.4 71.3912 225.336 71.5992 225.272L71.9352 226.76C71.7272 226.872 71.4232 226.976 71.0232 227.072C70.6232 227.168 70.2392 227.216 69.8712 227.216ZM77.7098 227.216C74.9098 227.216 73.5098 225.672 73.5098 222.584V215.336H75.4538V222.56C75.4538 223.6 75.6618 224.368 76.0778 224.864C76.5098 225.36 77.1818 225.608 78.0938 225.608C79.0858 225.608 79.8938 225.28 80.5178 224.624C81.1418 223.952 81.4538 223.064 81.4538 221.96V215.336H83.3978V227H81.5018V225.032C81.1338 225.736 80.6138 226.28 79.9418 226.664C79.2858 227.032 78.5418 227.216 77.7098 227.216ZM87.0349 227V215.336H88.9309V217.424C89.5549 216.016 90.8349 215.24 92.7709 215.096L93.4669 215.024L93.6109 216.704L92.3869 216.848C91.2829 216.944 90.4429 217.296 89.8669 217.904C89.2909 218.496 89.0029 219.312 89.0029 220.352V227H87.0349ZM99.1913 227.216C98.3913 227.216 97.6713 227.064 97.0313 226.76C96.4073 226.44 95.9113 226.008 95.5433 225.464C95.1753 224.92 94.9913 224.312 94.9913 223.64C94.9913 222.792 95.2073 222.12 95.6393 221.624C96.0873 221.128 96.8153 220.776 97.8233 220.568C98.8473 220.344 100.239 220.232 101.999 220.232H102.767V219.488C102.767 218.496 102.559 217.784 102.143 217.352C101.743 216.904 101.095 216.68 100.199 216.68C99.4953 216.68 98.8153 216.784 98.1593 216.992C97.5033 217.184 96.8313 217.504 96.1433 217.952L95.4713 216.536C96.0793 216.104 96.8153 215.76 97.6793 215.504C98.5593 215.248 99.3993 215.12 100.199 215.12C101.703 215.12 102.815 215.488 103.535 216.224C104.271 216.96 104.639 218.104 104.639 219.656V227H102.815V224.984C102.511 225.672 102.039 226.216 101.399 226.616C100.775 227.016 100.039 227.216 99.1913 227.216ZM99.5033 225.752C100.463 225.752 101.247 225.424 101.855 224.768C102.463 224.096 102.767 223.248 102.767 222.224V221.504H102.023C100.727 221.504 99.7033 221.568 98.9513 221.696C98.2153 221.808 97.6953 222.016 97.3913 222.32C97.1033 222.608 96.9593 223.008 96.9593 223.52C96.9593 224.176 97.1833 224.712 97.6313 225.128C98.0953 225.544 98.7193 225.752 99.5033 225.752ZM111.822 227.216C110.638 227.216 109.742 226.872 109.134 226.184C108.542 225.48 108.246 224.464 108.246 223.136V210.08H110.19V222.992C110.19 224.704 110.87 225.56 112.23 225.56C112.63 225.56 112.99 225.512 113.31 225.416L113.262 227.048C112.766 227.16 112.286 227.216 111.822 227.216ZM127.416 227.216C126.488 227.216 125.672 227.008 124.968 226.592C124.28 226.176 123.76 225.608 123.408 224.888V227H121.512V210.08H123.456V217.352C123.792 216.664 124.312 216.12 125.016 215.72C125.72 215.32 126.52 215.12 127.416 215.12C128.456 215.12 129.36 215.368 130.128 215.864C130.912 216.344 131.512 217.04 131.928 217.952C132.36 218.848 132.576 219.92 132.576 221.168C132.576 222.4 132.36 223.472 131.928 224.384C131.512 225.28 130.912 225.976 130.128 226.472C129.36 226.968 128.456 227.216 127.416 227.216ZM127.008 225.656C128.096 225.656 128.968 225.272 129.624 224.504C130.28 223.72 130.608 222.608 130.608 221.168C130.608 219.712 130.28 218.6 129.624 217.832C128.968 217.064 128.096 216.68 127.008 216.68C125.92 216.68 125.048 217.064 124.392 217.832C123.736 218.6 123.408 219.712 123.408 221.168C123.408 222.608 123.736 223.72 124.392 224.504C125.048 225.272 125.92 225.656 127.008 225.656ZM140.76 227.216C138.92 227.216 137.464 226.68 136.392 225.608C135.32 224.52 134.784 223.048 134.784 221.192C134.784 219.992 135.024 218.936 135.504 218.024C135.984 217.096 136.64 216.384 137.472 215.888C138.32 215.376 139.296 215.12 140.4 215.12C141.984 215.12 143.224 215.632 144.12 216.656C145.016 217.664 145.464 219.056 145.464 220.832V221.576H136.68C136.744 222.904 137.128 223.92 137.832 224.624C138.536 225.312 139.512 225.656 140.76 225.656C141.464 225.656 142.136 225.552 142.776 225.344C143.416 225.12 144.024 224.76 144.6 224.264L145.272 225.632C144.744 226.128 144.072 226.52 143.256 226.808C142.44 227.08 141.608 227.216 140.76 227.216ZM140.448 216.56C139.344 216.56 138.472 216.904 137.832 217.592C137.192 218.28 136.816 219.184 136.704 220.304H143.784C143.736 219.12 143.424 218.2 142.848 217.544C142.288 216.888 141.488 216.56 140.448 216.56ZM151.949 227.216C151.149 227.216 150.429 227.064 149.789 226.76C149.165 226.44 148.669 226.008 148.301 225.464C147.933 224.92 147.749 224.312 147.749 223.64C147.749 222.792 147.965 222.12 148.397 221.624C148.845 221.128 149.573 220.776 150.581 220.568C151.605 220.344 152.997 220.232 154.757 220.232H155.525V219.488C155.525 218.496 155.317 217.784 154.901 217.352C154.501 216.904 153.853 216.68 152.957 216.68C152.253 216.68 151.573 216.784 150.917 216.992C150.261 217.184 149.589 217.504 148.901 217.952L148.229 216.536C148.837 216.104 149.573 215.76 150.437 215.504C151.317 215.248 152.157 215.12 152.957 215.12C154.461 215.12 155.573 215.488 156.293 216.224C157.029 216.96 157.397 218.104 157.397 219.656V227H155.573V224.984C155.269 225.672 154.797 226.216 154.157 226.616C153.533 227.016 152.797 227.216 151.949 227.216ZM152.261 225.752C153.221 225.752 154.005 225.424 154.613 224.768C155.221 224.096 155.525 223.248 155.525 222.224V221.504H154.781C153.485 221.504 152.461 221.568 151.709 221.696C150.973 221.808 150.453 222.016 150.149 222.32C149.861 222.608 149.717 223.008 149.717 223.52C149.717 224.176 149.941 224.712 150.389 225.128C150.853 225.544 151.477 225.752 152.261 225.752ZM165.132 227.216C162.332 227.216 160.932 225.672 160.932 222.584V215.336H162.876V222.56C162.876 223.6 163.084 224.368 163.5 224.864C163.932 225.36 164.604 225.608 165.516 225.608C166.508 225.608 167.316 225.28 167.94 224.624C168.564 223.952 168.876 223.064 168.876 221.96V215.336H170.82V227H168.924V225.032C168.556 225.736 168.036 226.28 167.364 226.664C166.708 227.032 165.964 227.216 165.132 227.216ZM179.137 227.216C177.761 227.216 176.729 226.856 176.041 226.136C175.353 225.4 175.009 224.344 175.009 222.968V216.848H172.729V215.336H175.009V211.76H176.953V215.336H180.649V216.848H176.953V222.776C176.953 223.688 177.145 224.384 177.529 224.864C177.913 225.328 178.537 225.56 179.401 225.56C179.657 225.56 179.913 225.528 180.169 225.464C180.425 225.4 180.657 225.336 180.865 225.272L181.201 226.76C180.993 226.872 180.689 226.976 180.289 227.072C179.889 227.168 179.505 227.216 179.137 227.216ZM184.332 231.32L186.324 226.808L181.404 215.336H183.516L187.38 224.792L191.268 215.336H193.308L186.372 231.32H184.332ZM193.832 227V224.552H196.28V227H193.832Z" fill="white"/>
</g>
<defs>
<clipPath id="clip0_808_4048">
<rect width="389" height="297" rx="30" fill="white"/>
</clipPath>
</defs>
</svg>
