<svg width="33" height="32" viewBox="0 0 33 32" fill="none" xmlns="http://www.w3.org/2000/svg">
<g id="CaretRight">
<path id="Vector" d="M23.4048 16.7073L13.4048 26.7073C13.2649 26.8473 13.0867 26.9427 12.8926 26.9813C12.6985 27.02 12.4973 27.0002 12.3145 26.9244C12.1317 26.8487 11.9754 26.7204 11.8655 26.5558C11.7557 26.3912 11.6971 26.1977 11.6973 25.9998V5.99981C11.6971 5.80192 11.7557 5.60842 11.8655 5.44383C11.9754 5.27923 12.1317 5.15094 12.3145 5.07519C12.4973 4.99944 12.6985 4.97963 12.8926 5.01828C13.0867 5.05693 13.2649 5.1523 13.4048 5.29231L23.4048 15.2923C23.4977 15.3852 23.5715 15.4955 23.6218 15.6169C23.6722 15.7383 23.6981 15.8684 23.6981 15.9998C23.6981 16.1312 23.6722 16.2614 23.6218 16.3828C23.5715 16.5041 23.4977 16.6144 23.4048 16.7073Z" fill="#BB4F77"/>
</g>
</svg>
