<svg width="29" height="28" viewBox="0 0 29 28" fill="none" xmlns="http://www.w3.org/2000/svg">
<g id="CaretRight">
<rect x="0.5" width="28" height="28" rx="14" fill="white"/>
<path id="Vector" d="M19.6807 14.7139L12.9538 21.1798C12.7642 21.362 12.5071 21.4644 12.2391 21.4644C11.971 21.4644 11.7139 21.362 11.5243 21.1798C11.3348 20.9976 11.2283 20.7505 11.2283 20.4928C11.2283 20.2351 11.3348 19.988 11.5243 19.8058L17.5373 14.0277L11.526 8.24793C11.4321 8.15771 11.3577 8.05061 11.3069 7.93273C11.2561 7.81485 11.23 7.68852 11.23 7.56093C11.23 7.43334 11.2561 7.307 11.3069 7.18912C11.3577 7.07125 11.4321 6.96414 11.526 6.87392C11.6199 6.7837 11.7313 6.71214 11.8539 6.66331C11.9766 6.61449 12.108 6.58936 12.2407 6.58936C12.3735 6.58936 12.5049 6.61449 12.6275 6.66331C12.7502 6.71214 12.8616 6.7837 12.9555 6.87392L19.6823 13.3398C19.7763 13.4301 19.8508 13.5372 19.9016 13.6552C19.9524 13.7731 19.9784 13.8995 19.9783 14.0272C19.9781 14.1548 19.9517 14.2812 19.9007 14.399C19.8496 14.5169 19.7748 14.6239 19.6807 14.7139Z" fill="#9C003C"/>
</g>
</svg>
