<svg width="33" height="32" viewBox="0 0 33 32" fill="none" xmlns="http://www.w3.org/2000/svg">
<path d="M15.7927 22.7075L5.79269 12.7075C5.65268 12.5676 5.55731 12.3894 5.51866 12.1953C5.48001 12.0012 5.49981 11.8 5.57557 11.6172C5.65132 11.4344 5.77961 11.2782 5.94421 11.1683C6.1088 11.0584 6.30229 10.9998 6.50019 11L26.5002 11C26.6981 10.9998 26.8916 11.0584 27.0562 11.1683C27.2208 11.2782 27.3491 11.4344 27.4248 11.6172C27.5006 11.8 27.5204 12.0012 27.4817 12.1953C27.4431 12.3894 27.3477 12.5676 27.2077 12.7075L17.2077 22.7075C17.1148 22.8005 17.0045 22.8742 16.8831 22.9246C16.7617 22.9749 16.6316 23.0008 16.5002 23.0008C16.3688 23.0008 16.2386 22.9749 16.1172 22.9246C15.9959 22.8742 15.8856 22.8005 15.7927 22.7075Z" fill="#BB4F77"/>
</svg>
