<svg width="43" height="42" viewBox="0 0 43 42" fill="none" xmlns="http://www.w3.org/2000/svg">
<path d="M21.5 3.9375C18.045 3.9375 14.6676 4.9382 11.7949 6.81305C8.92217 8.6879 6.68316 11.3527 5.36099 14.4705C4.03882 17.5882 3.69288 21.0189 4.36692 24.3287C5.04095 27.6385 6.70469 30.6788 9.14774 33.065C11.5908 35.4512 14.7034 37.0763 18.092 37.7346C21.4806 38.393 24.993 38.0551 28.185 36.7637C31.377 35.4723 34.1053 33.2853 36.0247 30.4794C37.9442 27.6735 38.9688 24.3746 38.9688 21C38.9639 16.4762 37.1218 12.1391 33.8469 8.94027C30.5719 5.74146 26.1315 3.94228 21.5 3.9375ZM21.5 35.4375C18.5766 35.4375 15.7187 34.5908 13.288 33.0043C10.8572 31.4179 8.96267 29.1631 7.84391 26.525C6.72516 23.8869 6.43244 20.984 7.00278 18.1834C7.57311 15.3828 8.98089 12.8103 11.0481 10.7911C13.1153 8.77203 15.749 7.39699 18.6163 6.83991C21.4836 6.28284 24.4556 6.56875 27.1565 7.66149C29.8575 8.75423 32.166 10.6047 33.7902 12.979C35.4144 15.3532 36.2813 18.1445 36.2813 21C36.2768 24.8277 34.7181 28.4974 31.947 31.2041C29.176 33.9107 25.4189 35.4332 21.5 35.4375ZM32.25 21C32.25 21.3481 32.1084 21.6819 31.8564 21.9281C31.6044 22.1742 31.2626 22.3125 30.9063 22.3125H21.5C21.1436 22.3125 20.8018 22.1742 20.5498 21.9281C20.2978 21.6819 20.1563 21.3481 20.1563 21V11.8125C20.1563 11.4644 20.2978 11.1306 20.5498 10.8844C20.8018 10.6383 21.1436 10.5 21.5 10.5C21.8564 10.5 22.1982 10.6383 22.4502 10.8844C22.7022 11.1306 22.8438 11.4644 22.8438 11.8125V19.6875H30.9063C31.2626 19.6875 31.6044 19.8258 31.8564 20.0719C32.1084 20.3181 32.25 20.6519 32.25 21Z" fill="white"/>
</svg>
