<svg width="76" height="75" viewBox="0 0 76 75" fill="none" xmlns="http://www.w3.org/2000/svg">
<path d="M38 7.03125C31.8935 7.03125 25.9242 8.81821 20.8468 12.1662C15.7694 15.5141 11.8121 20.2727 9.47523 25.8401C7.13838 31.4075 6.52695 37.5338 7.71827 43.4442C8.90959 49.3545 11.8501 54.7835 16.1681 59.0447C20.486 63.3058 25.9874 66.2077 31.9766 67.3833C37.9658 68.5589 44.1737 67.9556 49.8154 65.6495C55.457 63.3433 60.279 59.4381 63.6716 54.4275C67.0642 49.417 68.875 43.5261 68.875 37.5C68.8664 29.4218 65.6107 21.6769 59.8224 15.9648C54.0341 10.2526 46.1859 7.03978 38 7.03125ZM38 63.2812C32.833 63.2812 27.782 61.7692 23.4857 58.9363C19.1895 56.1034 15.841 52.077 13.8637 47.3661C11.8863 42.6552 11.369 37.4714 12.377 32.4703C13.385 27.4693 15.8732 22.8755 19.5268 19.2699C23.1805 15.6643 27.8355 13.2089 32.9033 12.2141C37.971 11.2194 43.2239 11.7299 47.9976 13.6812C52.7713 15.6326 56.8515 18.937 59.7222 23.1767C62.5928 27.4164 64.125 32.4009 64.125 37.5C64.1172 44.3352 61.3622 50.8883 56.4645 55.7215C51.5668 60.5548 44.9264 63.2735 38 63.2812ZM57 37.5C57 38.1216 56.7498 38.7177 56.3044 39.1573C55.859 39.5968 55.2549 39.8438 54.625 39.8438H38C37.3701 39.8438 36.766 39.5968 36.3206 39.1573C35.8752 38.7177 35.625 38.1216 35.625 37.5V21.0938C35.625 20.4721 35.8752 19.876 36.3206 19.4365C36.766 18.9969 37.3701 18.75 38 18.75C38.6299 18.75 39.234 18.9969 39.6794 19.4365C40.1248 19.876 40.375 20.4721 40.375 21.0938V35.1562H54.625C55.2549 35.1562 55.859 35.4032 56.3044 35.8427C56.7498 36.2823 57 36.8784 57 37.5Z" fill="white"/>
</svg>
