<svg width="18" height="19" viewBox="0 0 18 19" fill="none" xmlns="http://www.w3.org/2000/svg">
<path d="M17.1747 16.1982C17.4037 16.436 17.5323 16.7585 17.5323 17.0947C17.5323 17.431 17.4037 17.7534 17.1747 17.9912C16.9458 18.229 16.6352 18.3625 16.3114 18.3625C15.9876 18.3625 15.6771 18.229 15.4482 17.9912L8.99996 11.2929L2.54972 17.9891C2.32076 18.2269 2.01023 18.3604 1.68644 18.3604C1.36265 18.3604 1.05212 18.2269 0.823159 17.9891C0.594203 17.7513 0.465576 17.4289 0.465576 17.0926C0.465576 16.7564 0.594203 16.4339 0.823159 16.1961L7.27339 9.49991L0.82519 2.80159C0.596234 2.56383 0.467607 2.24135 0.467607 1.90511C0.467607 1.56886 0.596234 1.24638 0.82519 1.00862C1.05415 0.770859 1.36468 0.637285 1.68847 0.637285C2.01226 0.637285 2.3228 0.770859 2.55175 1.00862L8.99996 7.70694L15.4502 1.00757C15.6791 0.769804 15.9897 0.63623 16.3135 0.63623C16.6373 0.63623 16.9478 0.769804 17.1768 1.00757C17.4057 1.24533 17.5343 1.5678 17.5343 1.90405C17.5343 2.2403 17.4057 2.56277 17.1768 2.80054L10.7265 9.49991L17.1747 16.1982Z" fill="#BB4F77"/>
</svg>
