<svg width="46" height="46" viewBox="0 0 46 46" fill="none" xmlns="http://www.w3.org/2000/svg">
<path d="M40.5385 8H5.46154C5.07391 8 4.70217 8.15277 4.42807 8.4247C4.15398 8.69662 4 9.06544 4 9.45V34.1C4 34.8691 4.30797 35.6068 4.85615 36.1506C5.40433 36.6945 6.14783 37 6.92308 37H39.0769C39.8522 37 40.5957 36.6945 41.1438 36.1506C41.692 35.6068 42 34.8691 42 34.1V9.45C42 9.06544 41.846 8.69662 41.5719 8.4247C41.2978 8.15277 40.9261 8 40.5385 8ZM23 23.4334L9.21952 10.9H36.7805L23 23.4334ZM17.6489 22.5L6.92308 32.2531V12.7469L17.6489 22.5ZM19.812 24.4666L22.0043 26.4694C22.274 26.7149 22.6267 26.8512 22.9927 26.8512C23.3587 26.8512 23.7114 26.7149 23.9811 26.4694L26.1734 24.4666L36.7695 34.1H9.21952L19.812 24.4666ZM28.3511 22.5L39.0769 12.7451V32.2549L28.3511 22.5Z" fill="#9C003C"/>
</svg>
