<svg width="43" height="43" viewBox="0 0 43 43" fill="none" xmlns="http://www.w3.org/2000/svg">
<path d="M21.5 4.03125C18.045 4.03125 14.6676 5.05577 11.7949 6.97527C8.92217 8.89476 6.68316 11.623 5.36099 14.815C4.03882 18.007 3.69288 21.5194 4.36692 24.908C5.04095 28.2966 6.70469 31.4092 9.14774 33.8523C11.5908 36.2953 14.7034 37.9591 18.092 38.6331C21.4806 39.3071 24.993 38.9612 28.185 37.639C31.377 36.3169 34.1053 34.0778 36.0247 31.2051C37.9442 28.3324 38.9688 24.955 38.9688 21.5C38.9639 16.8685 37.1218 12.4281 33.8469 9.15313C30.5719 5.87816 26.1315 4.03614 21.5 4.03125ZM22.8438 36.2191V25.5312H26.875C27.2314 25.5312 27.5732 25.3897 27.8252 25.1377C28.0772 24.8857 28.2188 24.5439 28.2188 24.1875C28.2188 23.8311 28.0772 23.4893 27.8252 23.2373C27.5732 22.9853 27.2314 22.8438 26.875 22.8438H22.8438V18.8125C22.8438 18.0997 23.1269 17.4162 23.6309 16.9122C24.1349 16.4081 24.8185 16.125 25.5313 16.125H28.2188C28.5751 16.125 28.9169 15.9834 29.1689 15.7314C29.4209 15.4794 29.5625 15.1376 29.5625 14.7812C29.5625 14.4249 29.4209 14.0831 29.1689 13.8311C28.9169 13.5791 28.5751 13.4375 28.2188 13.4375H25.5313C24.1057 13.4375 22.7386 14.0038 21.7306 15.0118C20.7226 16.0198 20.1563 17.387 20.1563 18.8125V22.8438H16.125C15.7686 22.8438 15.4268 22.9853 15.1748 23.2373C14.9228 23.4893 14.7813 23.8311 14.7813 24.1875C14.7813 24.5439 14.9228 24.8857 15.1748 25.1377C15.4268 25.3897 15.7686 25.5312 16.125 25.5312H20.1563V36.2191C16.3682 35.8733 12.8593 34.0805 10.3594 31.2136C7.85945 28.3466 6.56099 24.6263 6.73407 20.8265C6.90715 17.0266 8.53845 13.4398 11.2886 10.812C14.0388 8.18421 17.6962 6.71781 21.5 6.71781C25.3038 6.71781 28.9612 8.18421 31.7114 10.812C34.4616 13.4398 36.0929 17.0266 36.2659 20.8265C36.439 24.6263 35.1406 28.3466 32.6406 31.2136C30.1407 34.0805 26.6318 35.8733 22.8438 36.2191Z" fill="#E3AFC0"/>
</svg>
