<svg width="128" height="128" viewBox="0 0 128 128" fill="none" xmlns="http://www.w3.org/2000/svg">
<path d="M73.7 3.59998C72.21 3.77998 70.6 4.68997 69.07 6.23997C64.46 10.9 61.17 20.51 60.1 32.4C59.78 36.09 59.7 38.17 59.7 42.93C59.71 46.53 59.68 47.45 59.58 47.45C59.51 47.45 59.44 47.36 59.42 47.25C59.4 47.14 58.97 45.81 58.48 44.3C54.9 33.37 50.53 24.64 45.55 18.42C41.95 13.93 38.33 11.1 34.85 10.06C33.83 9.75997 31.98 9.76997 31.19 10.08C29.56 10.73 28.59 12.03 28.13 14.15C27.91 15.16 28 17.7 28.3 19.1C29.72 25.82 34.52 33.74 42.39 42.4C44.01 44.18 48.56 48.68 50.58 50.5C52.06 51.83 52.54 52.33 52.23 52.18C52.18 52.16 50.62 51.38 48.75 50.45C39.82 45.97 31.83 43.04 24.38 41.51C18.34 40.26 12.61 40.17 8.79998 41.26C6.61998 41.89 4.75998 43.19 4.08998 44.56C3.13998 46.49 3.90998 48.76 6.26998 51.01C10.95 55.46 20.99 58.65 33.75 59.74C37.69 60.08 39.55 60.15 45.07 60.14H50.68L48.92 60.62C29.88 65.82 15.16 74.23 11.2 82.16C9.54998 85.46 10.13 88.23 12.74 89.5C13.96 90.09 14.74 90.24 16.85 90.24C19.38 90.24 21.24 89.9 24.3 88.85C32.71 85.96 42.45 79.23 52.44 69.4C53.92 67.94 55.11 66.79 55.08 66.85C55.05 66.9 54.66 67.58 54.22 68.36C48.2 78.88 44.44 88.35 43.1 96.33C42.67 98.94 42.56 100.15 42.56 102.5C42.56 106.97 43.44 110 45.3 111.91C47.62 114.28 50.85 113.79 53.96 110.58C58.34 106.06 61.49 97.16 62.69 85.9C63.12 81.9 63.34 75.86 63.21 71.55C63.16 69.95 63.14 68.64 63.15 68.62C63.17 68.6 63.25 68.85 63.34 69.17C64 71.52 65.77 76.67 66.93 79.6C72.59 93.97 80.46 104.35 87.48 106.7C90.98 107.87 93.59 106.72 94.6 103.55C94.94 102.49 95 100.08 94.72 98.45C93.76 92.88 90.08 86.01 84.14 78.74C80.77 74.61 76.08 69.77 71.55 65.75C70.95 65.21 70.38 64.71 70.3 64.63C70.22 64.55 71.34 65.09 72.8 65.84C84.57 71.84 94.81 75.28 103.8 76.26C105.9 76.49 109.62 76.5 111.25 76.27C114.36 75.84 116.56 74.96 117.91 73.61C118.78 72.73 119.12 72.03 119.18 70.94C119.44 66.26 112.1 61.45 100.88 58.96C93.81 57.38 86.67 56.74 77.03 56.81C74.38 56.83 72.22 56.84 72.24 56.83C72.25 56.82 72.93 56.63 73.75 56.4C90.32 51.84 103.16 45.29 109.38 38.2C110.28 37.17 111.36 35.58 111.84 34.56C113.2 31.7 112.81 29.16 110.8 27.82C109.55 26.98 108.22 26.67 106 26.68C100.74 26.7 93.9 29.4 86.3 34.45C80.92 38.02 76.09 42.03 70.05 47.93C68.95 49 68.04 49.87 68.02 49.85C68 49.83 68.43 49.04 68.98 48.09C74.61 38.23 78.33 28.9 79.74 21.1C80.21 18.49 80.33 17.12 80.34 14.5C80.34 12.38 80.31 11.87 80.11 10.75C79.56 7.60997 78.46 5.46997 76.82 4.36997C75.87 3.71997 74.84 3.46997 73.7 3.59998Z" fill="#F7DEE4"/>
</svg>
