<svg width="32" height="33" viewBox="0 0 32 33" fill="none" xmlns="http://www.w3.org/2000/svg">
<path d="M15.2927 23.3148L5.29269 13.3148C5.15268 13.1749 5.05731 12.9967 5.01866 12.8026C4.98001 12.6085 4.99981 12.4073 5.07557 12.2245C5.15132 12.0417 5.27961 11.8855 5.44421 11.7756C5.6088 11.6657 5.80229 11.6071 6.00019 11.6073L26.0002 11.6073C26.1981 11.6071 26.3916 11.6657 26.5562 11.7756C26.7208 11.8855 26.8491 12.0417 26.9248 12.2245C27.0006 12.4073 27.0204 12.6085 26.9817 12.8026C26.9431 12.9967 26.8477 13.1749 26.7077 13.3148L16.7077 23.3148C16.6148 23.4078 16.5045 23.4815 16.3831 23.5319C16.2617 23.5822 16.1316 23.6081 16.0002 23.6081C15.8688 23.6081 15.7386 23.5822 15.6172 23.5319C15.4959 23.4815 15.3856 23.4078 15.2927 23.3148Z" fill="#BB4F77"/>
</svg>
