<svg width="1789" height="623" viewBox="0 0 1789 623" fill="none" xmlns="http://www.w3.org/2000/svg">
<rect width="1789" height="623" rx="25" fill="#F7DEE4"/>
<g clip-path="url(#clip0_231_1206)">
<path d="M1323.57 36.9202C1294.88 103.22 1300.3 144.787 1339.84 161.621C1399.16 186.872 1540.19 196.972 1599.14 251.748C1658.09 306.522 1837.84 264.178 1868.58 170.167C1899.32 76.1563 1954.67 -68.7449 1662.81 -68.7449C1468.23 -68.7449 1355.15 -33.5239 1323.57 36.9202Z" fill="#FFFA72"/>
<path d="M845.788 167.825C765.45 353.465 780.643 469.853 891.358 516.988C1057.43 587.69 1452.33 615.97 1617.39 769.342C1782.45 922.711 2285.75 804.146 2371.82 540.916C2457.9 277.686 2612.87 -128.037 1795.66 -128.037C1250.85 -128.037 934.228 -29.4185 845.788 167.825Z" fill="#F5E1E5"/>
<path d="M885.603 156.916C809.569 332.612 823.948 442.764 928.731 487.374C1085.91 554.289 1459.65 581.054 1615.87 726.209C1772.09 871.362 2248.42 759.149 2329.88 510.02C2411.35 260.892 2558.02 -123.096 1784.59 -123.096C1268.96 -123.096 969.306 -29.7606 885.603 156.916Z" fill="#EAC6D0"/>
<path d="M925.418 146.008C853.688 311.758 867.253 415.675 966.105 457.76C1114.39 520.887 1466.97 546.137 1614.35 683.077C1761.73 820.013 2211.09 714.151 2287.95 479.125C2364.8 244.098 2503.17 -118.155 1773.52 -118.155C1287.08 -118.155 1004.38 -30.1027 925.418 146.008Z" fill="#E2B3C2"/>
<path d="M965.232 135.099C897.806 290.904 910.557 388.586 1003.48 428.146C1142.86 487.486 1474.29 511.221 1612.83 639.944C1751.36 768.664 2173.77 669.154 2246.01 448.229C2318.25 227.304 2448.32 -113.214 1762.45 -113.214C1305.2 -113.214 1039.46 -30.4448 965.232 135.099Z" fill="#DA9FB3"/>
<path d="M1005.05 124.19C941.925 270.05 953.862 361.498 1040.85 398.532C1171.34 454.084 1481.62 476.304 1611.31 596.811C1741 717.315 2136.44 624.156 2204.07 417.333C2271.7 210.509 2393.47 -108.273 1751.38 -108.273C1323.31 -108.273 1074.54 -30.787 1005.05 124.19Z" fill="#D28BA4"/>
<path d="M1044.86 113.281C986.044 249.197 997.167 334.409 1078.23 368.918C1199.82 420.683 1488.94 441.388 1609.79 553.678C1730.64 665.966 2099.12 579.159 2162.14 386.437C2225.16 193.715 2338.62 -103.332 1740.31 -103.332C1341.43 -103.332 1109.61 -31.129 1044.86 113.281Z" fill="#CB7795"/>
<path d="M1084.68 102.373C1030.16 228.343 1040.47 307.32 1115.6 339.304C1228.29 387.281 1496.26 406.471 1608.27 510.545C1720.27 614.617 2061.79 534.162 2120.2 355.542C2178.61 176.921 2283.77 -98.3911 1729.24 -98.3911C1359.54 -98.3911 1144.69 -31.4712 1084.68 102.373Z" fill="#C36386"/>
<path d="M1124.49 91.464C1074.28 207.489 1083.78 280.231 1152.97 309.691C1256.77 353.88 1503.58 371.555 1606.75 467.412C1709.91 563.268 2024.47 489.165 2078.26 324.646C2132.06 160.127 2228.92 -93.45 1718.16 -93.45C1377.66 -93.45 1179.77 -31.8132 1124.49 91.464Z" fill="#BB4F77"/>
<path d="M1164.31 80.5552C1118.4 186.635 1127.08 253.143 1190.35 280.077C1285.25 320.478 1510.9 336.638 1605.23 424.279C1699.55 511.919 1987.14 444.167 2036.33 293.75C2085.51 143.333 2174.07 -88.5089 1707.09 -88.5089C1395.77 -88.5089 1214.84 -32.1553 1164.31 80.5552Z" fill="#B33C69"/>
<path d="M1204.12 69.6465C1162.52 165.782 1170.39 226.054 1227.72 250.463C1313.72 287.077 1518.22 301.722 1603.7 381.147C1689.18 460.57 1949.82 399.17 1994.39 262.854C2038.96 126.539 2119.22 -83.5679 1696.02 -83.5679C1413.89 -83.5679 1249.92 -32.4974 1204.12 69.6465Z" fill="#AC285A"/>
<path d="M1243.94 58.7377C1206.64 144.928 1213.69 198.965 1265.09 220.849C1342.2 253.675 1525.55 266.805 1602.18 338.014C1678.82 409.221 1912.49 354.172 1952.45 231.959C1992.42 109.745 2064.37 -78.627 1684.95 -78.627C1432 -78.627 1285 -32.8397 1243.94 58.7377Z" fill="#A4144B"/>
<path d="M1283.75 47.8291C1250.76 124.074 1257 171.876 1302.47 191.235C1370.68 220.274 1532.87 231.889 1600.66 294.881C1668.45 357.872 1875.16 309.175 1910.52 201.063C1945.87 92.9506 2009.52 -73.6858 1673.88 -73.6858C1450.12 -73.6858 1320.08 -33.1817 1283.75 47.8291Z" fill="#9C003C"/>
</g>
<defs>
<clipPath id="clip0_231_1206">
<rect x="589" width="1200" height="623" rx="25" fill="white"/>
</clipPath>
</defs>
</svg>
