<svg width="43" height="43" viewBox="0 0 43 43" fill="none" xmlns="http://www.w3.org/2000/svg">
<path d="M21.5 13.4375C19.9054 13.4375 18.3466 13.9104 17.0207 14.7963C15.6948 15.6822 14.6615 16.9414 14.0512 18.4146C13.441 19.8878 13.2813 21.5089 13.5924 23.0729C13.9035 24.6369 14.6714 26.0735 15.799 27.201C16.9265 28.3286 18.3631 29.0965 19.9271 29.4076C21.4911 29.7187 23.1122 29.559 24.5854 28.9488C26.0586 28.3385 27.3178 27.3052 28.2037 25.9793C29.0896 24.6534 29.5625 23.0946 29.5625 21.5C29.5603 19.3624 28.7101 17.3129 27.1986 15.8014C25.6871 14.2899 23.6376 13.4397 21.5 13.4375ZM21.5 26.875C20.4369 26.875 19.3977 26.5598 18.5138 25.9691C17.6299 25.3785 16.941 24.5391 16.5341 23.5569C16.1273 22.5748 16.0209 21.494 16.2283 20.4514C16.4357 19.4087 16.9476 18.451 17.6993 17.6993C18.451 16.9476 19.4087 16.4357 20.4514 16.2283C21.494 16.0209 22.5748 16.1273 23.5569 16.5341C24.5391 16.941 25.3785 17.6299 25.9691 18.5138C26.5598 19.3977 26.875 20.4369 26.875 21.5C26.875 22.9255 26.3087 24.2927 25.3007 25.3007C24.2927 26.3087 22.9255 26.875 21.5 26.875ZM29.5625 4.03125H13.4375C10.9436 4.03392 8.55266 5.02579 6.78922 6.78922C5.02579 8.55266 4.03392 10.9436 4.03125 13.4375V29.5625C4.03392 32.0564 5.02579 34.4473 6.78922 36.2108C8.55266 37.9742 10.9436 38.9661 13.4375 38.9688H29.5625C32.0564 38.9661 34.4473 37.9742 36.2108 36.2108C37.9742 34.4473 38.9661 32.0564 38.9688 29.5625V13.4375C38.9661 10.9436 37.9742 8.55266 36.2108 6.78922C34.4473 5.02579 32.0564 4.03392 29.5625 4.03125ZM36.2812 29.5625C36.2812 31.3444 35.5734 33.0534 34.3134 34.3134C33.0534 35.5734 31.3444 36.2812 29.5625 36.2812H13.4375C11.6556 36.2812 9.94664 35.5734 8.68663 34.3134C7.42662 33.0534 6.71875 31.3444 6.71875 29.5625V13.4375C6.71875 11.6556 7.42662 9.94664 8.68663 8.68663C9.94664 7.42662 11.6556 6.71875 13.4375 6.71875H29.5625C31.3444 6.71875 33.0534 7.42662 34.3134 8.68663C35.5734 9.94664 36.2812 11.6556 36.2812 13.4375V29.5625ZM32.25 12.7656C32.25 13.1643 32.1318 13.554 31.9103 13.8854C31.6888 14.2169 31.374 14.4753 31.0057 14.6278C30.6374 14.7804 30.2321 14.8203 29.8411 14.7425C29.4502 14.6647 29.091 14.4728 28.8091 14.1909C28.5272 13.909 28.3353 13.5498 28.2575 13.1589C28.1797 12.7679 28.2196 12.3626 28.3722 11.9943C28.5247 11.626 28.7831 11.3112 29.1146 11.0897C29.446 10.8682 29.8357 10.75 30.2344 10.75C30.769 10.75 31.2816 10.9624 31.6596 11.3404C32.0376 11.7184 32.25 12.231 32.25 12.7656Z" fill="#9C003C"/>
</svg>
