<svg width="31" height="24" viewBox="0 0 31 24" fill="none" xmlns="http://www.w3.org/2000/svg">
<path d="M29.8077 0H1.19231C0.876088 0 0.57282 0.126428 0.349219 0.351472C0.125618 0.576516 0 0.88174 0 1.2V21.6C0 22.2365 0.251235 22.847 0.698438 23.2971C1.14564 23.7471 1.75218 24 2.38462 24H28.6154C29.2478 24 29.8544 23.7471 30.3016 23.2971C30.7488 22.847 31 22.2365 31 21.6V1.2C31 0.88174 30.8744 0.576516 30.6508 0.351472C30.4272 0.126428 30.1239 0 29.8077 0ZM15.5 12.7725L4.25803 2.4H26.742L15.5 12.7725ZM11.1347 12L2.38462 20.0715V3.9285L11.1347 12ZM12.8993 13.6275L14.6877 15.285C14.9077 15.4882 15.1954 15.601 15.494 15.601C15.7926 15.601 16.0804 15.4882 16.3003 15.285L18.0888 13.6275L26.733 21.6H4.25803L12.8993 13.6275ZM19.8653 12L28.6154 3.927V20.073L19.8653 12Z" fill="#E3AFC0"/>
</svg>
