<svg width="76" height="76" viewBox="0 0 76 76" fill="none" xmlns="http://www.w3.org/2000/svg">
<path d="M59.375 66.5H44.6916C47.1582 64.2976 49.4843 61.9427 51.6562 59.4492C59.8055 50.0769 64.125 40.1969 64.125 30.875C64.125 23.9462 61.3726 17.3012 56.4732 12.4018C51.5738 7.50245 44.9288 4.75 38 4.75C31.0712 4.75 24.4262 7.50245 19.5268 12.4018C14.6274 17.3012 11.875 23.9462 11.875 30.875C11.875 40.1969 16.1827 50.0769 24.3438 59.4492C26.5157 61.9427 28.8418 64.2976 31.3084 66.5H16.625C15.9951 66.5 15.391 66.7502 14.9456 67.1956C14.5002 67.641 14.25 68.2451 14.25 68.875C14.25 69.5049 14.5002 70.109 14.9456 70.5544C15.391 70.9998 15.9951 71.25 16.625 71.25H59.375C60.0049 71.25 60.609 70.9998 61.0544 70.5544C61.4998 70.109 61.75 69.5049 61.75 68.875C61.75 68.2451 61.4998 67.641 61.0544 67.1956C60.609 66.7502 60.0049 66.5 59.375 66.5ZM16.625 30.875C16.625 25.206 18.877 19.7692 22.8856 15.7606C26.8942 11.752 32.331 9.5 38 9.5C43.669 9.5 49.1058 11.752 53.1144 15.7606C57.123 19.7692 59.375 25.206 59.375 30.875C59.375 47.8652 42.9073 62.0469 38 65.9062C33.0927 62.0469 16.625 47.8652 16.625 30.875ZM49.875 30.875C49.875 28.5263 49.1785 26.2304 47.8737 24.2776C46.5689 22.3248 44.7142 20.8027 42.5444 19.9039C40.3745 19.0051 37.9868 18.77 35.6833 19.2282C33.3798 19.6864 31.2639 20.8174 29.6031 22.4781C27.9424 24.1389 26.8114 26.2548 26.3532 28.5583C25.895 30.8618 26.1301 33.2495 27.0289 35.4194C27.9277 37.5892 29.4498 39.4439 31.4026 40.7487C33.3554 42.0535 35.6513 42.75 38 42.75C41.1494 42.75 44.1699 41.4989 46.3969 39.2719C48.6239 37.0449 49.875 34.0244 49.875 30.875ZM30.875 30.875C30.875 29.4658 31.2929 28.0883 32.0758 26.9166C32.8587 25.7449 33.9715 24.8316 35.2734 24.2924C36.5753 23.7531 38.0079 23.612 39.39 23.8869C40.7721 24.1618 42.0417 24.8404 43.0381 25.8369C44.0346 26.8333 44.7132 28.1029 44.9881 29.485C45.263 30.8671 45.1219 32.2997 44.5826 33.6016C44.0434 34.9035 43.1301 36.0163 41.9584 36.7992C40.7867 37.5821 39.4092 38 38 38C36.1103 38 34.2981 37.2493 32.9619 35.9131C31.6257 34.5769 30.875 32.7647 30.875 30.875Z" fill="white"/>
</svg>
