<svg width="43" height="43" viewBox="0 0 43 43" fill="none" xmlns="http://www.w3.org/2000/svg">
<path d="M33.5938 37.625H25.286C26.6816 36.3789 27.9977 35.0465 29.2266 33.6357C33.8373 28.333 36.2812 22.743 36.2812 17.4688C36.2812 13.5485 34.7239 9.78885 31.9519 7.01683C29.1799 4.24481 25.4202 2.6875 21.5 2.6875C17.5798 2.6875 13.8201 4.24481 11.0481 7.01683C8.27606 9.78885 6.71875 13.5485 6.71875 17.4688C6.71875 22.743 9.15598 28.333 13.7734 33.6357C15.0023 35.0465 16.3184 36.3789 17.714 37.625H9.40625C9.04987 37.625 8.70808 37.7666 8.45608 38.0186C8.20407 38.2706 8.0625 38.6124 8.0625 38.9688C8.0625 39.3251 8.20407 39.6669 8.45608 39.9189C8.70808 40.1709 9.04987 40.3125 9.40625 40.3125H33.5938C33.9501 40.3125 34.2919 40.1709 34.5439 39.9189C34.7959 39.6669 34.9375 39.3251 34.9375 38.9688C34.9375 38.6124 34.7959 38.2706 34.5439 38.0186C34.2919 37.7666 33.9501 37.625 33.5938 37.625ZM9.40625 17.4688C9.40625 14.2613 10.6804 11.1852 12.9484 8.91718C15.2164 6.64916 18.2925 5.375 21.5 5.375C24.7075 5.375 27.7836 6.64916 30.0516 8.91718C32.3196 11.1852 33.5938 14.2613 33.5938 17.4688C33.5938 27.0816 24.2765 35.1055 21.5 37.2891C18.7235 35.1055 9.40625 27.0816 9.40625 17.4688ZM28.2188 17.4688C28.2188 16.1399 27.8247 14.8409 27.0864 13.736C26.3482 12.6311 25.2988 11.77 24.0712 11.2614C22.8435 10.7529 21.4925 10.6199 20.1892 10.8791C18.8859 11.1383 17.6888 11.7782 16.7491 12.7179C15.8095 13.6575 15.1696 14.8547 14.9103 16.158C14.6511 17.4613 14.7842 18.8122 15.2927 20.0399C15.8012 21.2676 16.6624 22.3169 17.7673 23.0552C18.8722 23.7935 20.1712 24.1875 21.5 24.1875C23.2819 24.1875 24.9909 23.4796 26.2509 22.2196C27.5109 20.9596 28.2188 19.2507 28.2188 17.4688ZM17.4688 17.4688C17.4688 16.6714 17.7052 15.892 18.1481 15.2291C18.5911 14.5662 19.2207 14.0495 19.9573 13.7444C20.6939 13.4392 21.5045 13.3594 22.2865 13.515C23.0684 13.6705 23.7867 14.0544 24.3505 14.6182C24.9143 15.182 25.2982 15.9003 25.4538 16.6823C25.6093 17.4643 25.5295 18.2748 25.2244 19.0114C24.9193 19.7481 24.4026 20.3777 23.7396 20.8206C23.0767 21.2636 22.2973 21.5 21.5 21.5C20.4308 21.5 19.4055 21.0753 18.6495 20.3193C17.8935 19.5633 17.4688 18.5379 17.4688 17.4688Z" fill="white"/>
</svg>
