<svg width="1445" height="500" viewBox="0 0 1445 500" fill="none" xmlns="http://www.w3.org/2000/svg">
<rect width="1445" height="500" rx="25" fill="#F7DEE4"/>
<g clip-path="url(#clip0_231_1206)">
<path d="M1099.03 29.6311C1077.7 82.8414 1081.73 116.202 1111.13 129.712C1155.22 149.978 1260.05 158.084 1303.87 202.045C1347.69 246.005 1481.3 212.021 1504.15 136.571C1527 61.1207 1568.15 -55.1724 1351.2 -55.1724C1206.56 -55.1724 1122.51 -26.9051 1099.03 29.6311Z" fill="#FFFA72"/>
<path d="M743.879 134.691C684.161 283.68 695.455 377.089 777.753 414.918C901.203 471.661 1194.74 494.358 1317.44 617.45C1440.13 740.539 1814.25 645.382 1878.23 434.122C1942.21 222.862 2057.41 -102.759 1449.95 -102.759C1044.97 -102.759 809.62 -23.6103 743.879 134.691Z" fill="#F5E1E5"/>
<path d="M773.475 125.936C716.956 266.943 727.644 355.348 805.534 391.151C922.37 444.854 1200.18 466.335 1316.31 582.833C1432.43 699.328 1786.5 609.269 1847.06 409.326C1907.61 209.384 2016.64 -98.7931 1441.72 -98.7931C1058.44 -98.7931 835.694 -23.8849 773.475 125.936Z" fill="#EAC6D0"/>
<path d="M803.07 117.181C749.751 250.207 759.834 333.608 833.315 367.384C943.538 418.047 1205.63 438.312 1315.18 548.215C1424.73 658.116 1758.76 573.155 1815.88 384.53C1873.01 195.905 1975.87 -94.8276 1433.49 -94.8276C1071.91 -94.8276 861.768 -24.1595 803.07 117.181Z" fill="#E2B3C2"/>
<path d="M832.666 108.426C782.546 233.47 792.024 311.867 861.096 343.617C964.706 391.24 1211.07 410.29 1314.05 513.599C1417.02 616.905 1731.01 537.042 1784.71 359.734C1838.41 182.427 1935.1 -90.8621 1425.26 -90.8621C1085.37 -90.8621 887.842 -24.434 832.666 108.426Z" fill="#DA9FB3"/>
<path d="M862.262 99.671C815.341 216.734 824.214 290.126 888.877 319.849C985.874 364.433 1216.51 382.267 1312.92 478.981C1409.32 575.694 1703.27 500.928 1753.54 334.938C1803.81 168.948 1894.32 -86.8966 1417.03 -86.8966C1098.84 -86.8966 913.916 -24.7087 862.262 99.671Z" fill="#D28BA4"/>
<path d="M891.858 90.916C848.136 199.997 856.404 268.386 916.658 296.082C1007.04 337.626 1221.95 354.244 1311.79 444.364C1401.62 534.483 1675.52 464.815 1722.37 310.142C1769.21 155.47 1853.55 -82.931 1408.8 -82.931C1112.3 -82.931 939.99 -24.9832 891.858 90.916Z" fill="#CB7795"/>
<path d="M921.453 82.161C880.931 183.261 888.594 246.645 944.439 272.315C1028.21 310.819 1227.4 326.221 1310.66 409.747C1393.91 493.272 1647.78 428.701 1691.19 285.346C1734.61 141.991 1812.78 -78.9656 1400.57 -78.9656C1125.77 -78.9656 966.063 -25.2578 921.453 82.161Z" fill="#C36386"/>
<path d="M951.049 73.406C913.726 166.524 920.784 224.905 972.22 248.548C1049.38 284.013 1232.84 298.198 1309.53 375.13C1386.21 452.061 1620.03 392.588 1660.02 260.55C1700.01 128.513 1772.01 -75 1392.35 -75C1139.23 -75 992.138 -25.5323 951.049 73.406Z" fill="#BB4F77"/>
<path d="M980.645 64.6511C946.521 149.788 952.974 203.164 1000 224.781C1070.54 257.206 1238.28 270.175 1308.39 340.513C1378.51 410.85 1592.28 356.475 1628.85 235.755C1665.41 115.035 1731.24 -71.0344 1384.12 -71.0344C1152.7 -71.0344 1018.21 -25.8068 980.645 64.6511Z" fill="#B33C69"/>
<path d="M1010.24 55.896C979.316 133.051 985.164 181.424 1027.78 201.014C1091.71 230.399 1243.72 242.152 1307.26 305.896C1370.8 369.639 1564.54 320.361 1597.67 210.959C1630.81 101.556 1690.46 -67.069 1375.89 -67.069C1166.17 -67.069 1044.29 -26.0815 1010.24 55.896Z" fill="#AC285A"/>
<path d="M1039.84 47.1411C1012.11 116.315 1017.35 159.683 1055.56 177.246C1112.88 203.592 1249.17 214.129 1306.13 271.279C1363.1 328.428 1536.79 284.248 1566.5 186.163C1596.21 88.0776 1649.69 -63.1034 1367.66 -63.1034C1179.63 -63.1034 1070.36 -26.356 1039.84 47.1411Z" fill="#A4144B"/>
<path d="M1069.43 38.386C1044.91 99.5779 1049.54 137.942 1083.34 153.479C1134.05 176.785 1254.61 186.107 1305 236.662C1355.39 287.216 1509.05 248.134 1535.33 161.367C1561.61 74.5991 1608.92 -59.1379 1359.43 -59.1379C1193.1 -59.1379 1096.43 -26.6306 1069.43 38.386Z" fill="#9C003C"/>
</g>
<defs>
<clipPath id="clip0_231_1206">
<rect x="553" width="892" height="500" rx="25" fill="white"/>
</clipPath>
</defs>
</svg>
