<svg width="344" height="717" viewBox="0 0 344 717" fill="none" xmlns="http://www.w3.org/2000/svg">
<g clip-path="url(#clip0_281_1259)">
<rect width="344" height="717" rx="30" fill="#F7DEE4"/>
<path d="M110.591 35.3719C89.0429 85.1741 93.1179 116.398 122.814 129.043C167.36 148.01 273.28 155.597 317.554 196.743C361.827 237.887 496.821 206.08 519.908 135.462C542.996 64.8446 584.564 -44 365.369 -44C219.238 -44 134.313 -17.5433 110.591 35.3719Z" fill="#D28BA4"/>
<path d="M123.669 31.1621C103.583 77.6955 107.381 106.87 135.062 118.685C176.584 136.407 275.315 143.496 316.584 181.941C357.852 220.385 483.684 190.665 505.204 124.683C526.724 58.7004 565.471 -43 361.154 -43C224.941 -43 145.781 -18.2798 123.669 31.1621Z" fill="#CB7795"/>
<path d="M137.746 27.6459C119.123 70.7182 122.645 97.7224 148.31 108.659C186.809 125.063 278.35 131.625 316.614 167.21C354.877 202.795 471.547 175.285 491.5 114.21C511.453 53.1359 547.379 -41 357.939 -41C231.645 -41 158.248 -18.1185 137.746 27.6459Z" fill="#C36386"/>
</g>
<defs>
<clipPath id="clip0_281_1259">
<rect width="344" height="717" rx="30" fill="white"/>
</clipPath>
</defs>
</svg>
