<svg width="76" height="76" viewBox="0 0 76 76" fill="none" xmlns="http://www.w3.org/2000/svg">
<path d="M38 7.125C31.8935 7.125 25.9242 8.93579 20.8468 12.3284C15.7694 15.721 11.8121 20.543 9.47523 26.1846C7.13838 31.8263 6.52695 38.0343 7.71827 44.0234C8.90959 50.0126 11.8501 55.514 16.1681 59.8319C20.486 64.1499 25.9874 67.0904 31.9766 68.2817C37.9658 69.4731 44.1737 68.8616 49.8154 66.5248C55.457 64.1879 60.279 60.2306 63.6716 55.1532C67.0642 50.0759 68.875 44.1065 68.875 38C68.8664 29.8141 65.6107 21.9659 59.8224 16.1776C54.0341 10.3893 46.1859 7.13364 38 7.125ZM21.9925 58.6328C23.7106 55.9457 26.0775 53.7344 28.875 52.2027C31.6725 50.6709 34.8106 49.868 38 49.868C41.1894 49.868 44.3275 50.6709 47.125 52.2027C49.9225 53.7344 52.2894 55.9457 54.0075 58.6328C49.4307 62.1923 43.798 64.1248 38 64.1248C32.202 64.1248 26.5693 62.1923 21.9925 58.6328ZM28.5 35.625C28.5 33.7461 29.0572 31.9094 30.1011 30.3471C31.1449 28.7848 32.6286 27.5672 34.3645 26.8481C36.1004 26.1291 38.0106 25.941 39.8534 26.3075C41.6962 26.6741 43.3889 27.5789 44.7175 28.9075C46.0461 30.2361 46.9509 31.9288 47.3175 33.7716C47.684 35.6145 47.4959 37.5246 46.7769 39.2605C46.0578 40.9964 44.8402 42.4801 43.2779 43.524C41.7157 44.5678 39.8789 45.125 38 45.125C35.4805 45.125 33.0641 44.1241 31.2825 42.3425C29.5009 40.5609 28.5 38.1446 28.5 35.625ZM57.5225 55.3405C54.8737 51.5021 51.1491 48.5326 46.8172 46.8053C49.1442 44.9725 50.8421 42.4602 51.675 39.6177C52.508 36.7751 52.4344 33.7437 51.4645 30.9449C50.4947 28.1461 48.6768 25.7191 46.2636 24.0014C43.8505 22.2837 40.9621 21.3607 38 21.3607C35.038 21.3607 32.1495 22.2837 29.7364 24.0014C27.3232 25.7191 25.5054 28.1461 24.5355 30.9449C23.5657 33.7437 23.4921 36.7751 24.325 39.6177C25.1579 42.4602 26.8559 44.9725 29.1828 46.8053C24.8509 48.5326 21.1263 51.5021 18.4775 55.3405C15.1305 51.5766 12.9428 46.9254 12.178 41.947C11.4131 36.9685 12.1037 31.8751 14.1666 27.2801C16.2295 22.6851 19.5768 18.7844 23.8052 16.0477C28.0337 13.311 32.9632 11.8549 38 11.8549C43.0368 11.8549 47.9663 13.311 52.1948 16.0477C56.4233 18.7844 59.7705 22.6851 61.8334 27.2801C63.8963 31.8751 64.5869 36.9685 63.8221 41.947C63.0572 46.9254 60.8696 51.5766 57.5225 55.3405Z" fill="white"/>
</svg>
