<svg width="43" height="43" viewBox="0 0 43 43" fill="none" xmlns="http://www.w3.org/2000/svg">
<path d="M21.5 4.03125C18.045 4.03125 14.6676 5.05577 11.7949 6.97527C8.92217 8.89476 6.68316 11.623 5.36099 14.815C4.03882 18.007 3.69288 21.5194 4.36692 24.908C5.04095 28.2966 6.70469 31.4092 9.14774 33.8523C11.5908 36.2953 14.7034 37.9591 18.092 38.6331C21.4806 39.3071 24.993 38.9612 28.185 37.639C31.377 36.3169 34.1053 34.0778 36.0247 31.2051C37.9442 28.3324 38.9688 24.955 38.9688 21.5C38.9639 16.8685 37.1218 12.4281 33.8469 9.15313C30.5719 5.87816 26.1315 4.03614 21.5 4.03125ZM12.4431 33.1738C13.4152 31.6535 14.7544 30.4024 16.3372 29.5357C17.92 28.6691 19.6955 28.2148 21.5 28.2148C23.3045 28.2148 25.08 28.6691 26.6628 29.5357C28.2456 30.4024 29.5848 31.6535 30.5569 33.1738C27.9674 35.1878 24.7805 36.2811 21.5 36.2811C18.2195 36.2811 15.0326 35.1878 12.4431 33.1738ZM16.125 20.1562C16.125 19.0932 16.4402 18.054 17.0309 17.1701C17.6215 16.2861 18.4609 15.5972 19.4431 15.1904C20.4252 14.7836 21.506 14.6771 22.5486 14.8845C23.5913 15.0919 24.549 15.6038 25.3007 16.3556C26.0524 17.1073 26.5643 18.065 26.7717 19.1076C26.9791 20.1503 26.8727 21.231 26.4659 22.2132C26.059 23.1953 25.3701 24.0348 24.4862 24.6254C23.6023 25.216 22.5631 25.5312 21.5 25.5312C20.0745 25.5312 18.7073 24.965 17.6993 23.9569C16.6913 22.9489 16.125 21.5818 16.125 20.1562ZM32.5456 31.3111C31.047 29.1393 28.9396 27.4592 26.4887 26.482C27.8052 25.445 28.766 24.0235 29.2372 22.4153C29.7084 20.807 29.6668 19.0918 29.1181 17.5083C28.5694 15.9248 27.5408 14.5516 26.1755 13.5798C24.8102 12.6079 23.1759 12.0856 21.5 12.0856C19.8241 12.0856 18.1899 12.6079 16.8245 13.5798C15.4592 14.5516 14.4307 15.9248 13.8819 17.5083C13.3332 19.0918 13.2916 20.807 13.7628 22.4153C14.2341 24.0235 15.1948 25.445 16.5113 26.482C14.0604 27.4592 11.9531 29.1393 10.4544 31.3111C8.56065 29.1815 7.32289 26.5499 6.89016 23.7331C6.45743 20.9164 6.84817 18.0346 8.01534 15.4348C9.1825 12.835 11.0763 10.628 13.4688 9.07961C15.8612 7.53121 18.6502 6.70741 21.5 6.70741C24.3498 6.70741 27.1388 7.53121 29.5313 9.07961C31.9237 10.628 33.8175 12.835 34.9847 15.4348C36.1518 18.0346 36.5426 20.9164 36.1099 23.7331C35.6771 26.5499 34.4394 29.1815 32.5456 31.3111Z" fill="white"/>
</svg>
